<svg width="254" height="27" viewBox="0 0 254 27" fill="none"
    xmlns="http://www.w3.org/2000/svg">
    <path d="M190.449 1.18359H188.725V2.90962C188.725 3.35346 188.922 3.89592 189.808 3.89592H191.532V2.1699C191.532 1.77537 191.385 1.18359 190.449 1.18359Z" fill="currentColor"/>
    <path d="M190.301 6.75586H188.922V21.0079C188.922 21.5997 189.316 21.9942 189.858 22.0435V22.0928H191.434V7.79148C191.385 7.15038 191.04 6.75586 190.301 6.75586Z" fill="currentColor"/>
    <path d="M106.852 17.9019C106.261 17.3101 105.522 17.458 105.079 17.8526C103.256 19.3813 101.581 19.9731 99.4136 19.9731C95.0786 19.9731 91.6304 16.3238 91.6304 11.6389C91.6304 6.95394 94.9801 3.35394 99.4136 3.35394C101.532 3.35394 103.305 3.99503 104.98 5.42517C105.374 5.77038 106.064 5.91832 106.556 5.37586C107 4.93202 107.443 4.43887 107.443 4.43887L107.542 4.34024L107.443 4.24161C105.67 2.51558 103.453 0.9375 99.4136 0.9375C93.5516 0.9375 89.0195 5.67175 89.0195 11.6882C89.0195 17.7539 93.453 22.3402 99.3644 22.3402C102.665 22.3402 105.079 21.2553 107.542 18.6909L107.591 18.5923L107.542 18.4937C107.542 18.5923 107.394 18.395 106.852 17.9019Z" fill="currentColor"/>
    <path d="M144.291 6.41113C142.124 6.41113 140.399 7.34812 139.069 9.22209C138.478 8.03853 137.099 6.3125 134.242 6.3125C131.779 6.3125 130.449 7.59469 129.463 8.87689V7.79195C129.463 7.05223 129.02 6.60839 128.33 6.60839H126.951V21.9454H128.33C129.02 21.9454 129.414 21.7481 129.414 20.9098V13.2659C129.414 10.6029 131.138 8.63031 133.454 8.63031C135.818 8.63031 137.197 10.2577 137.197 13.0193V20.9098C137.197 21.6495 137.592 21.9947 138.281 21.9947H139.661V13.2166C139.661 10.0604 141.68 8.67962 143.7 8.67962C146.114 8.67962 147.493 10.307 147.493 13.0687V20.7618C147.493 21.4029 147.641 21.9947 148.626 21.9947H149.956V12.5755C150.005 8.77826 147.838 6.41113 144.291 6.41113Z" fill="currentColor"/>
    <path d="M162.073 6.46094C159.807 6.46094 157.935 7.44724 156.408 9.56778V7.9897C156.408 7.20066 155.965 6.80614 155.177 6.80614H153.945V25.6445C153.945 26.3842 154.29 26.7294 155.029 26.7294H156.408V19.4308C157.935 21.4034 159.758 22.3897 162.073 22.3897C165.62 22.3897 169.364 19.5787 169.364 14.4007C169.364 9.22258 165.62 6.46094 162.073 6.46094ZM166.802 14.4007C166.802 17.7541 164.684 20.0719 161.63 20.0719C159.019 20.0719 156.31 17.902 156.31 14.3513C156.31 10.8007 159.019 8.6308 161.63 8.6308C164.192 8.68012 166.802 10.6527 166.802 14.4007Z" fill="currentColor"/>
    <path d="M207.641 7.84127V9.12346C206.607 7.79195 204.784 6.3125 201.878 6.3125C200.055 6.3125 198.232 7.00291 196.902 8.23579C195.474 9.5673 194.686 11.4906 194.686 13.5618C194.686 18.2467 198.38 20.7618 201.878 20.7618C204.144 20.7618 206.065 19.8248 207.69 17.8522V19.3317C207.69 22.6851 205.72 24.6084 202.37 24.6084C200.745 24.6084 199.168 24.2139 197.69 23.3755C197.296 23.1289 197.001 23.0303 196.755 23.0303C196.459 23.0303 196.163 23.1783 195.966 23.5235C195.572 24.1646 195.424 24.4604 195.424 24.4604L195.375 24.5591L195.474 24.6084C197.493 26.0385 199.809 26.7289 202.37 26.7289C207.296 26.7289 210.154 24.0166 210.154 19.2824V6.70702H208.774C208.331 6.70702 207.641 7.10154 207.641 7.84127ZM207.789 13.7098C207.789 16.8659 205.03 18.7399 202.37 18.7399C199.464 18.7399 197.296 16.57 197.296 13.7098C197.296 10.8002 199.464 8.72894 202.37 8.72894C204.981 8.67962 207.789 10.4057 207.789 13.7098Z" fill="currentColor"/>
    <path d="M221.778 6.46094C219.61 6.46094 217.935 7.34861 216.753 9.12395V7.84176C216.753 7.10203 216.162 6.80614 215.571 6.80614H214.191V22.1431H216.704L216.654 13.365C216.654 10.6527 218.477 8.77874 221.088 8.77874C223.65 8.77874 225.127 10.4061 225.127 13.2171V21.1075C225.127 21.8472 225.472 22.1431 226.113 22.1431H227.59V12.576C227.64 8.82806 225.374 6.46094 221.778 6.46094Z" fill="currentColor"/>
    <path d="M178.626 6.50977C176.705 6.50977 174.981 6.90429 173.109 7.74264L173.01 7.79196L173.059 7.89059C173.059 7.89059 173.306 8.581 173.503 9.07415C173.7 9.5673 174.291 9.61662 174.734 9.41936C176.015 8.9262 177.148 8.67963 178.429 8.67963C181.237 8.67963 182.764 10.1098 182.764 12.6741V16.3728C182.764 18.6906 180.695 20.318 177.838 20.318C176.064 20.318 174.143 19.4303 174.143 17.4577C174.143 15.5837 175.67 14.5481 178.429 14.5481H179.66C180.399 14.5481 180.744 14.2029 180.744 13.5125V12.6741H178.183C173.995 12.6741 171.631 14.4495 171.631 17.507C171.631 19.8248 173.404 22.3892 177.394 22.3892C179.562 22.3892 181.385 21.5509 182.715 19.9728V21.0084C182.715 21.6988 183.059 21.9947 183.798 21.9947H185.178V12.6248C185.128 8.72894 182.813 6.50977 178.626 6.50977Z" fill="currentColor"/>
    <path d="M116.606 6.50977C114.241 6.50977 112.567 7.10155 111.089 7.74264L110.99 7.84127L111.039 7.9399C111.039 7.9399 111.286 8.63032 111.483 9.12347C111.68 9.61662 112.271 9.66593 112.714 9.46867C113.995 8.97552 115.128 8.72894 116.409 8.72894C119.217 8.72894 120.793 10.1591 120.793 12.7235V16.3728C120.793 18.6906 118.724 20.318 115.867 20.318C114.094 20.318 112.222 19.4303 112.222 17.4577C112.222 15.5837 113.749 14.5481 116.458 14.5481H117.69C118.429 14.5481 118.773 14.2029 118.773 13.5125V12.6741H116.261C112.074 12.6741 109.66 14.4495 109.66 17.507C109.66 19.8248 111.434 22.3892 115.374 22.3892C117.542 22.3892 119.365 21.5509 120.744 19.9728V21.0084C120.744 21.6988 121.089 21.9947 121.778 21.9947H123.158V12.6248C123.108 8.72894 120.793 6.50977 116.606 6.50977Z" fill="currentColor"/>
    <path d="M252.96 12.2302C252.615 11.9343 238.576 2.12059 237.935 1.72607L237.738 1.57812V3.99456C237.738 4.78361 238.132 5.03018 238.625 5.4247L238.724 5.47402C239.413 5.96717 249.413 12.9206 250.743 13.8576C249.413 14.7946 239.265 21.8466 238.625 22.2411C237.837 22.7343 237.788 23.0795 237.788 23.7699V26.0877C237.788 26.0877 252.714 15.6822 253.009 15.4357C253.699 14.9425 253.847 14.3014 253.847 13.9069V13.611C253.847 13.1179 253.551 12.6247 252.96 12.2302Z" fill="currentColor"/>
    <path d="M244.192 14.9439C244.586 14.9439 244.981 14.7959 245.375 14.5C245.867 14.1548 246.311 13.859 246.311 13.859L246.458 13.7603L246.311 13.6617C246.261 13.6124 239.71 9.07539 239.02 8.63156C238.724 8.38498 238.33 8.33566 238.084 8.48361C237.838 8.63155 237.641 8.87813 237.641 9.27265V10.8014L237.69 10.8507C237.739 10.9 242.222 14.0069 243.109 14.5987C243.503 14.8453 243.848 14.9439 244.192 14.9439Z" fill="currentColor"/>
    <path d="M35.2755 18.5422C34.7337 17.9997 34.044 18.3449 33.7484 18.5915C32.6154 19.6271 31.3347 20.1202 29.9553 20.1202C26.9504 20.1202 24.5859 17.6052 24.5859 14.3504C24.5859 11.1449 26.9012 8.62982 29.8076 8.62982C31.4824 8.62982 32.5662 9.36955 33.4529 10.06C34.0933 10.6024 34.6351 10.6517 35.0785 10.1586C35.4726 9.76407 35.9159 9.27092 35.9159 9.27092L36.0145 9.17229L35.9159 9.07365C34.1918 7.19968 32.2706 6.36133 29.8076 6.36133C25.4233 6.36133 21.9258 9.8627 21.9258 14.3504C21.9258 18.7394 25.4726 22.3394 29.8076 22.3394C33.0095 22.3394 34.8322 20.712 36.0145 19.3312H36.113L36.0145 19.2326C36.0145 19.2326 35.7681 19.0353 35.2755 18.5422Z" fill="currentColor"/>
    <path d="M51.6304 1.18359H49.9062V2.90962C49.9062 3.35346 50.1033 3.89592 50.99 3.89592H52.7141V2.36715C52.7634 1.67674 52.32 1.18359 51.6304 1.18359Z" fill="currentColor"/>
    <path d="M51.4344 6.75586H50.0059V21.0079C50.0059 21.5997 50.4 21.9942 50.9418 22.0435V22.0928H52.5182V7.79148C52.5674 7.15038 52.1734 6.75586 51.4344 6.75586Z" fill="currentColor"/>
    <path d="M67.6408 7.59519C67.4437 8.13766 63.6999 17.2116 62.961 18.8883C62.2713 17.1623 58.5275 8.08834 58.3304 7.59519C58.0841 7.00341 57.5915 6.6582 56.9511 6.6582H55.1777L55.2763 6.80615C55.3255 7.00341 61.2861 20.7623 61.5324 21.3048C61.7787 21.9459 62.1728 22.0938 62.8132 22.0938H63.1088C63.6999 22.0938 64.094 21.8472 64.3403 21.3048C64.5866 20.7623 70.5472 7.10204 70.5965 6.95409L70.695 6.75683H68.9708C68.3304 6.75683 67.8871 7.00341 67.6408 7.59519Z" fill="currentColor"/>
    <path d="M83.0599 13.5135H77.1978C76.5574 13.5135 76.1633 13.908 76.1633 14.5491V15.5354H76.3111C79.119 15.4861 82.3702 15.4861 83.7003 15.4861C84.4884 15.4861 85.0796 15.2888 85.5229 14.845C85.917 14.4012 86.114 13.7107 86.0648 12.9217C85.6214 8.97649 82.8136 6.41211 78.9712 6.41211C74.784 6.41211 71.582 9.86416 71.582 14.4012C71.582 18.9875 74.8825 22.3902 79.2668 22.3902C81.8283 22.3902 83.7495 21.5025 85.5722 19.5299L85.6707 19.4313L85.5722 19.3327C85.5722 19.3327 85.2273 19.0368 84.8333 18.6916C84.2421 18.1984 83.7003 18.3957 83.4047 18.6916C82.3209 19.6779 80.9909 20.171 79.3653 20.171C76.5574 20.171 74.4884 18.1491 74.1436 15.1409C74.1436 15.1409 74.0943 14.7957 74.0943 14.3518C74.0943 13.8587 74.1436 13.5135 74.1436 13.5135C74.4392 10.5546 76.4096 8.48334 78.9219 8.48334C81.4342 8.48334 83.2569 10.1601 83.5032 12.7244C83.5525 12.971 83.5032 13.1683 83.454 13.2669C83.3062 13.4642 83.2076 13.5135 83.0599 13.5135Z" fill="currentColor"/>
    <path d="M12.2217 1.97263C11.9262 1.38085 11.5813 1.18359 10.941 1.18359H10.3498C9.85721 1.18359 9.41386 1.47948 9.16755 1.92332C8.97051 2.36716 0.300558 21.6987 0.202036 21.8959L0.103516 22.0932H1.72913C2.41879 22.0932 2.86214 21.7973 3.20696 21.1069C3.50253 20.5151 4.9311 17.2603 5.17741 16.7178H11.5321C12.3203 16.7178 12.8129 16.2247 12.8129 15.485V14.4H6.16263L10.6454 4.33976C11.5813 6.41099 17.8375 20.7124 18.1331 21.3041C18.5272 22.0932 19.4631 22.0932 19.7587 22.0932H21.2365L21.138 21.8959C21.138 21.6987 12.5173 2.61373 12.2217 1.97263Z" fill="currentColor"/>
    <path d="M46.359 19.8735C46.1127 19.7256 45.7679 19.6763 45.423 19.7749C44.8812 19.9228 44.4871 20.0215 43.9945 20.0215C42.4181 20.0215 41.5807 19.2324 41.5807 17.605V8.97489H46.359V7.93927C46.359 7.15023 45.6693 6.75571 45.0782 6.75571H41.5314V2.41598C41.5314 1.72557 41.0388 1.23242 40.2999 1.23242H39.0684V17.9502C39.0684 20.7612 40.5954 22.3393 43.4526 22.3393C44.5363 22.3393 45.7679 22.0927 46.556 21.6982L46.6053 21.6489V21.5995C46.6053 21.5995 46.6546 21.1557 46.6546 20.6132C46.7038 20.2187 46.5068 20.0215 46.359 19.8735Z" fill="currentColor"/>
</svg>
