<svg width="141" height="37" viewBox="0 0 141 37" fill="none"
    xmlns="http://www.w3.org/2000/svg">
    <g clip-path="url(#clip0_8_8707)">
        <path d="M15.5344 0H0V37L15.5344 0Z" fill="currentColor"/>
        <path d="M26.4648 0H41.979V37L26.4648 0Z" fill="currentColor"/>
        <path d="M20.9996 13.6367L30.8869 36.9998H24.3999L21.4449 29.5615H14.209L20.9996 13.6367Z" fill="currentColor"/>
        <path d="M67.3206 23.5286L69.1524 28.7596C69.2131 28.8906 69.3042 28.9511 69.4661 28.9511H72.9879C73.1802 28.9511 73.2105 28.8604 73.1802 28.6689L65.9038 8.54111C65.8734 8.37985 65.8431 8.34961 65.6812 8.34961H61.3093C61.1878 8.34961 61.117 8.44032 61.117 8.57135C61.0563 9.62964 60.9652 9.95217 60.8336 10.2646L54.3466 28.6386C54.3163 28.8604 54.3871 28.9511 54.5693 28.9511H57.7166C57.9089 28.9511 58 28.8906 58.0708 28.6991L59.8014 23.5286H67.3206ZM60.8033 20.1118C61.7546 17.2494 63.0095 13.5806 63.5155 11.4842H63.5458C64.1733 13.6814 65.6508 18.0355 66.3187 20.1118H60.8033Z" fill="currentColor"/>
        <path d="M82.5341 29.2644C84.4266 29.2644 86.4405 28.9217 88.4847 28.0448C88.6467 27.9843 88.677 27.9138 88.677 27.7626C88.6163 27.1982 88.5455 26.3818 88.5455 25.7569V6.80838C88.5455 6.68743 88.5455 6.62695 88.3937 6.62695H84.963C84.8314 6.62695 84.7707 6.68743 84.7707 6.84869V13.269C84.2343 13.2085 83.8599 13.1783 83.4146 13.1783C77.8789 13.1783 74.4785 16.8168 74.4785 21.3625C74.4785 26.6338 77.97 29.2644 82.5341 29.2644ZM84.7707 25.7569C84.2039 25.9383 83.5765 26.0089 82.9389 26.0089C80.4291 26.0089 78.3748 24.5978 78.3748 21.1709C78.3748 18.1372 80.4899 16.3431 83.2931 16.3431C83.8599 16.3431 84.3557 16.4036 84.7707 16.5648V25.7569Z" fill="currentColor"/>
        <path d="M99.6215 13.1777C94.8954 13.1777 91.9707 16.786 91.9707 21.2409C91.9707 25.2221 94.2983 29.2638 99.5507 29.2638C103.993 29.2638 107.11 26.0083 107.11 21.1401C107.11 16.8465 104.469 13.1777 99.6215 13.1777ZM99.4292 16.3425C102.101 16.3425 103.234 18.6305 103.234 21.2409C103.234 24.4662 101.565 26.0688 99.6215 26.0688C97.223 26.0688 95.8062 24.0631 95.8062 21.1704C95.8062 18.1971 97.3141 16.3425 99.4292 16.3425Z" fill="currentColor"/>
        <path d="M110.658 6.62695C110.527 6.62695 110.436 6.68743 110.436 6.84869V28.2968C110.436 28.3875 110.527 28.5488 110.658 28.579C112.166 29.0426 113.745 29.2644 115.374 29.2644C120.04 29.2644 124.573 26.3818 124.573 20.5763C124.573 16.3733 121.679 13.1783 117.145 13.1783C116.103 13.1783 115.131 13.3396 114.281 13.6218L114.241 6.87893C114.241 6.65719 114.18 6.62695 113.957 6.62695H110.658ZM120.697 20.9593C120.697 24.4365 118.309 26.0693 115.728 26.0693C115.192 26.0693 114.716 26.0391 114.281 25.9081V16.7563C114.777 16.5648 115.374 16.4036 116.477 16.4036C118.967 16.4036 120.697 17.9759 120.697 20.9593Z" fill="currentColor"/>
        <path d="M137.376 22.0876C138.914 22.0876 140.179 22.0573 140.614 21.9565C140.776 21.9263 140.837 21.8658 140.867 21.7348C140.958 21.3921 140.999 20.6765 140.999 19.7996C140.999 16.8163 139.198 13.1777 134.542 13.1777C129.786 13.1777 127.145 17.038 127.145 21.3921C127.145 25.2524 129.189 29.2638 134.917 29.2638C137.062 29.2638 138.449 28.9211 139.643 28.3567C139.764 28.2962 139.825 28.1954 139.825 28.014V25.4036C139.825 25.2524 139.734 25.2221 139.643 25.2826C138.449 25.7866 137.153 26.0385 135.737 26.0385C132.528 26.0385 131.071 24.2747 130.98 22.0876H137.376ZM130.98 19.3864C131.233 17.8544 132.205 16.1914 134.38 16.1914C136.779 16.1914 137.406 18.1971 137.406 19.1042C137.406 19.1344 137.406 19.2655 137.406 19.3562C137.275 19.3864 136.87 19.3864 135.676 19.3864H130.98Z" fill="currentColor"/>
    </g>
    <defs>
        <clipPath id="clip0_8_8707">
            <rect width="141" height="37" fill="currentColor"/>
        </clipPath>
    </defs>
</svg>
