<svg width="170" height="33" viewBox="0 0 170 33" fill="none"
    xmlns="http://www.w3.org/2000/svg">
    <path d="M14.001 16.3655C14.001 13.5088 11.8497 11.4986 9.20468 11.4986C6.55966 11.4986 4.40837 13.5441 4.40837 16.3655C4.40837 19.1516 6.55966 21.2323 9.20468 21.2323C11.8497 21.2323 14.001 19.2221 14.001 16.3655ZM14.0363 24.8648V22.643C12.7314 24.1595 10.7917 25.1117 8.46408 25.1117C3.6325 25.1117 0 21.3734 0 16.3655C0 11.3575 3.80883 7.58398 8.56988 7.58398C10.827 7.58398 12.7314 8.53619 14.0363 10.0174V7.86612H18.3388V24.8648H14.0363Z" fill="currentColor"/>
    <path d="M39.3584 21.0924C37.8419 21.0924 37.4187 20.5634 37.4187 19.1174V11.6056H40.2048V7.90253H37.4187V3.77629H32.9751V7.90253H27.2618V6.87978C27.2618 5.46911 27.8261 4.90483 29.3778 4.90483H30.3653V1.625H28.2493C24.5815 1.625 22.8535 2.78881 22.8535 6.31551V7.93779H20.3848V11.6056H22.8535V24.9012H27.2971V11.6056H33.0103V19.9286C33.0103 23.3847 34.3858 24.9012 37.983 24.9012H40.2753V21.1276H39.3584V21.0924Z" fill="currentColor"/>
    <path d="M55.2628 14.8489C54.9454 12.6271 53.0762 11.3222 50.8897 11.3222C48.7031 11.3222 46.9045 12.6271 46.446 14.8489H55.2628ZM46.4108 17.4939C46.7282 19.9979 48.5973 21.4438 50.9602 21.4438C52.8294 21.4438 54.2753 20.5974 55.1217 19.222H59.6712C58.6131 22.8192 55.2628 25.1468 50.8897 25.1468C45.5644 25.1468 41.8613 21.5496 41.8613 16.4359C41.8613 11.3222 45.8112 7.61914 50.9955 7.61914C56.2503 7.61914 60.0238 11.3574 60.0238 16.4359C60.0238 16.8238 59.9886 17.1765 59.918 17.5292H46.4108V17.4939Z" fill="currentColor"/>
    <path d="M88.1668 16.3654C88.1668 13.6145 86.0155 11.4985 83.3705 11.4985C80.7255 11.4985 78.5742 13.544 78.5742 16.3654C78.5742 19.1514 80.7255 21.2322 83.3705 21.2322C86.0508 21.2322 88.1668 19.1162 88.1668 16.3654ZM74.2363 7.90128H78.5742V10.1231C79.879 8.57135 81.8187 7.61914 84.1464 7.61914C88.9074 7.61914 92.6104 11.3927 92.6104 16.3654C92.6104 21.3733 88.8016 25.1468 84.0405 25.1468C81.8187 25.1468 79.9849 24.3004 78.7152 22.8545V31.8476H74.2363V7.90128Z" fill="currentColor"/>
    <path d="M108.198 16.3655C108.198 13.5088 106.047 11.4986 103.402 11.4986C100.757 11.4986 98.6056 13.5441 98.6056 16.3655C98.6056 19.1516 100.757 21.2323 103.402 21.2323C106.047 21.2323 108.198 19.2221 108.198 16.3655ZM108.234 24.8648V22.643C106.929 24.1595 104.989 25.1117 102.661 25.1117C97.8298 25.1117 94.1973 21.3734 94.1973 16.3655C94.1973 11.3575 98.0061 7.58398 102.767 7.58398C105.024 7.58398 106.929 8.53619 108.234 10.0174V7.86612H112.571V24.8648H108.234Z" fill="currentColor"/>
    <path d="M66.4432 9.55893C66.4432 9.55893 67.5365 7.58398 70.252 7.58398C71.4158 7.58398 72.1565 7.97192 72.1565 7.97192V12.3098C72.1565 12.3098 70.5342 11.3223 69.053 11.5339C67.5717 11.7455 66.6195 13.0504 66.6195 14.8137V24.8648H62.1406V7.86612H66.4785V9.55893H66.4432Z" fill="currentColor"/>
    <path d="M132.746 7.90234L121.813 31.8134H117.193L121.495 22.5734L114.266 7.90234H119.485L123.717 17.7066L128.055 7.90234H132.746Z" fill="currentColor"/>
    <path d="M167.588 7.51392L156.761 1.48327C153.587 -0.280083 149.601 1.94174 149.601 5.46844V6.10324C149.601 6.66751 149.919 7.19652 150.413 7.44339L152.458 8.57193C153.058 8.9246 153.798 8.5014 153.798 7.83133V6.27957C153.798 5.5037 154.645 5.04523 155.35 5.3979L164.731 10.6174C165.436 11.0054 165.436 11.9576 164.731 12.3455L155.385 17.6003C154.68 17.9882 153.833 17.4945 153.833 16.7186V15.9075C153.833 12.3455 149.848 10.1589 146.674 11.9223L135.847 17.953C132.673 19.7163 132.673 24.1599 135.847 25.9233L146.674 31.9539C149.848 33.7173 153.833 31.4955 153.833 27.9688V27.334C153.833 26.7697 153.516 26.276 153.022 25.9938L150.977 24.8653C150.377 24.5126 149.637 24.9358 149.637 25.6059V27.1576C149.637 27.9335 148.79 28.392 148.085 28.0393L138.704 22.8198C137.999 22.4319 137.999 21.4796 138.704 21.0917L148.085 15.8722C148.79 15.4843 149.637 15.978 149.637 16.7539V17.565C149.637 21.127 153.622 23.3135 156.796 21.5502L167.623 15.5195C170.797 13.7209 170.797 9.27727 167.588 7.51392Z" fill="currentColor"/>
</svg>
