<svg width="135" height="51" viewBox="0 0 135 51" fill="none"
    xmlns="http://www.w3.org/2000/svg">
    <g clip-path="url(#clip0_8_9104)">
        <path d="M71.2412 14.9282C71.2412 16.4597 70.0165 17.6934 68.4962 17.6934C66.976 17.6934 65.7513 16.4597 65.7513 14.9282C65.7513 13.3966 66.9337 12.1629 68.4962 12.1629C70.0587 12.2055 71.2412 13.4392 71.2412 14.9282ZM59.9236 20.5013C59.9236 20.7565 59.9236 21.1819 59.9236 21.1819C59.9236 21.1819 58.6145 19.4802 55.8273 19.4802C51.2243 19.4802 47.6347 23.0113 47.6347 27.9037C47.6347 32.7535 51.182 36.3271 55.8273 36.3271C58.6567 36.3271 59.9236 34.5828 59.9236 34.5828V35.3061C59.9236 35.6464 60.177 35.9017 60.5148 35.9017H63.9354V19.9057C63.9354 19.9057 60.8104 19.9057 60.5148 19.9057C60.177 19.9057 59.9236 20.2035 59.9236 20.5013ZM59.9236 30.754C59.2901 31.6899 58.0233 32.4982 56.503 32.4982C53.8003 32.4982 51.731 30.7965 51.731 27.9037C51.731 25.0108 53.8003 23.3091 56.503 23.3091C57.981 23.3091 59.3324 24.1599 59.9236 25.0533V30.754ZM66.4692 19.9057H70.5233V35.9017H66.4692V19.9057ZM127.027 19.4802C124.239 19.4802 122.93 21.1819 122.93 21.1819V12.2055H118.876V35.9017C118.876 35.9017 122.001 35.9017 122.297 35.9017C122.635 35.9017 122.888 35.6039 122.888 35.3061V34.5828C122.888 34.5828 124.197 36.3271 126.984 36.3271C131.587 36.3271 135.177 32.7535 135.177 27.9037C135.177 23.0538 131.587 19.4802 127.027 19.4802ZM126.351 32.4557C124.788 32.4557 123.564 31.6474 122.93 30.7115V25.0108C123.564 24.1599 124.915 23.2665 126.351 23.2665C129.054 23.2665 131.123 24.9682 131.123 27.8611C131.123 30.754 129.054 32.4557 126.351 32.4557ZM116.765 26.4147V35.9442H112.711V26.8826C112.711 24.245 111.866 23.1814 109.586 23.1814C108.361 23.1814 107.094 23.8196 106.292 24.7555V35.9017H102.238V19.9057H105.447C105.785 19.9057 106.038 20.2035 106.038 20.5013V21.1819C107.221 19.9482 108.783 19.4802 110.346 19.4802C112.12 19.4802 113.598 19.9907 114.78 21.0118C116.216 22.203 116.765 23.7345 116.765 26.4147ZM92.3982 19.4802C89.6111 19.4802 88.302 21.1819 88.302 21.1819V12.2055H84.2479V35.9017C84.2479 35.9017 87.3729 35.9017 87.6685 35.9017C88.0064 35.9017 88.2597 35.6039 88.2597 35.3061V34.5828C88.2597 34.5828 89.5689 36.3271 92.356 36.3271C96.9591 36.3271 100.549 32.7535 100.549 27.9037C100.591 23.0538 97.0013 19.4802 92.3982 19.4802ZM91.7226 32.4557C90.1601 32.4557 88.9354 31.6474 88.302 30.7115V25.0108C88.9354 24.1599 90.2868 23.2665 91.7226 23.2665C94.4253 23.2665 96.4945 24.9682 96.4945 27.8611C96.4945 30.754 94.4253 32.4557 91.7226 32.4557ZM80.7428 19.4802C81.9675 19.4802 82.601 19.6929 82.601 19.6929V23.4792C82.601 23.4792 79.2226 22.3306 77.1111 24.7555V35.9442H73.057V19.9057C73.057 19.9057 76.182 19.9057 76.4776 19.9057C76.8155 19.9057 77.0689 20.2035 77.0689 20.5013V21.1819C77.829 20.2885 79.476 19.4802 80.7428 19.4802ZM38.6398 34.4552C38.4287 33.9447 38.2175 33.3916 38.0064 32.9237C37.6685 32.1579 37.3307 31.4347 37.0351 30.754L36.9929 30.7115C34.079 24.3301 30.954 17.8636 27.6601 11.4822L27.5334 11.227C27.1956 10.5888 26.8577 9.90816 26.5199 9.22748C26.0976 8.46171 25.6753 7.6534 24.9996 6.88764C23.6483 5.18594 21.7057 4.25 19.6364 4.25C17.525 4.25 15.6246 5.18594 14.231 6.80255C13.5976 7.56832 13.1331 8.37663 12.7108 9.14239C12.3729 9.82307 12.0351 10.5038 11.6972 11.1419L11.5706 11.3971C8.31887 17.7785 5.15164 24.245 2.23779 30.6264L2.19556 30.7115C1.89995 31.3921 1.56211 32.1154 1.22427 32.8811C1.01313 33.3491 0.801978 33.8596 0.590829 34.4127C0.0418426 35.9867 -0.127076 37.4757 0.0840723 39.0073C0.548599 42.1979 2.66009 44.8781 5.57394 46.0693C6.67191 46.5373 7.81211 46.75 8.99454 46.75C9.33238 46.75 9.75468 46.7075 10.0925 46.6649C11.4861 46.4947 12.9219 46.0268 14.3155 45.2185C16.0469 44.24 17.6939 42.8361 19.552 40.794C21.4101 42.8361 23.0993 44.24 24.7885 45.2185C26.182 46.0268 27.6178 46.4947 29.0114 46.6649C29.3493 46.7075 29.7716 46.75 30.1094 46.75C31.2918 46.75 32.4743 46.5373 33.53 46.0693C36.4861 44.8781 38.5554 42.1554 39.0199 39.0073C39.3577 37.5183 39.1888 36.0293 38.6398 34.4552ZM19.5942 36.6674C17.3138 33.7745 15.8358 31.0518 15.329 28.7545C15.1179 27.776 15.0756 26.9252 15.2023 26.1594C15.2868 25.4787 15.5402 24.8831 15.878 24.3726C16.6804 23.224 18.0317 22.5008 19.5942 22.5008C21.1567 22.5008 22.5503 23.1814 23.3104 24.3726C23.6483 24.8831 23.9016 25.4787 23.9861 26.1594C24.1128 26.9252 24.0706 27.8186 23.8594 28.7545C23.3527 31.0093 21.8746 33.732 19.5942 36.6674ZM36.4439 38.6669C36.1483 40.8791 34.6702 42.7935 32.601 43.6444C31.5874 44.0698 30.4895 44.1974 29.3915 44.0698C28.3358 43.9422 27.28 43.6018 26.182 42.9637C24.6618 42.1129 23.1415 40.794 21.3679 38.8371C24.155 35.3911 25.8442 32.243 26.4777 29.4352C26.7733 28.1164 26.8155 26.9252 26.6888 25.8191C26.5199 24.7555 26.1398 23.777 25.5486 22.9262C24.2395 21.0118 22.0435 19.9057 19.5942 19.9057C17.1449 19.9057 14.9489 21.0543 13.6398 22.9262C13.0486 23.777 12.6685 24.7555 12.4996 25.8191C12.3307 26.9252 12.3729 28.1589 12.7108 29.4352C13.3442 32.243 15.0756 35.4337 17.8206 38.8796C16.0891 40.8366 14.5266 42.1554 13.0064 43.0063C11.9084 43.6444 10.8527 43.9847 9.79691 44.1124C8.65671 44.24 7.55873 44.0698 6.58745 43.6869C4.51819 42.8361 3.04015 40.9217 2.74454 38.7095C2.61786 37.6459 2.70232 36.5823 3.12461 35.3911C3.2513 34.9657 3.46245 34.5403 3.6736 34.0298C3.96921 33.3491 4.30704 32.6259 4.64488 31.9027L4.68711 31.8176C7.60096 25.4787 10.726 19.0123 13.9777 12.716L14.1043 12.4607C14.4422 11.8226 14.78 11.1419 15.1179 10.5038C15.4557 9.82307 15.8358 9.18493 16.3003 8.63188C17.1871 7.61086 18.3695 7.05781 19.6787 7.05781C20.9878 7.05781 22.1702 7.61086 23.057 8.63188C23.5216 9.18493 23.9016 9.82307 24.2395 10.5038C24.5773 11.1419 24.9151 11.8226 25.253 12.4607L25.3797 12.716C28.5891 19.0548 31.7141 25.5213 34.628 31.8601V31.9027C34.9658 32.5833 35.2614 33.3491 35.5993 34.0298C35.8104 34.5403 36.0216 34.9657 36.1483 35.3911C36.4861 36.4972 36.6128 37.5608 36.4439 38.6669Z" fill="currentColor"/>
    </g>
    <defs>
        <clipPath id="clip0_8_9104">
            <rect width="135" height="51" fill="currentColor"/>
        </clipPath>
    </defs>
</svg>
