<svg width="151" height="24" viewBox="0 0 151 24" fill="none"
    xmlns="http://www.w3.org/2000/svg">
    <g clip-path="url(#clip0_8_9591)">
        <path d="M150.918 7.33984C149.978 7.38141 147.143 7.7555 145.884 9.25186V7.66406H140.633V23.6336H145.884V16.2183C145.884 16.1767 145.884 16.1351 145.893 16.0936C146.656 12.5355 150.062 12.1615 150.943 12.1282L150.918 7.33984Z" fill="currentColor"/>
        <path d="M98.4422 10.9895C98.8617 10.7983 99.3231 10.6985 99.8264 10.6985C100.481 10.6985 101.093 10.8399 101.68 11.1142C102.268 11.3968 102.947 11.7044 103.593 12.3196L106.143 9.14398C105.338 8.38749 104.356 7.8222 103.199 7.44811C102.041 7.07401 100.85 6.88281 99.6334 6.88281C98.8533 6.88281 98.0647 6.98257 97.2762 7.1904C96.4876 7.39823 95.7662 7.71413 95.1118 8.14641C94.4575 8.57869 93.929 9.12736 93.5179 9.80903C93.1069 10.4907 92.8972 11.3054 92.8972 12.278C92.8972 13.0345 93.0398 13.6746 93.3166 14.215C93.6018 14.7553 93.9626 15.2043 94.4072 15.57C94.8518 15.9358 95.3551 16.2268 95.9172 16.4429C96.4792 16.6591 97.0497 16.8336 97.6117 16.9583C98.7191 17.216 99.5328 17.4654 100.053 17.6982C100.573 17.9393 100.833 18.305 100.833 18.7955C100.833 19.286 100.623 19.6684 100.195 19.8762C99.7761 20.0841 99.3398 20.1838 98.912 20.1838C98.1318 20.1838 97.3936 20.0092 96.6973 19.6684C96.001 19.3276 95.0363 18.7789 94.5582 18.2552L91.9492 21.5056C92.7965 22.3203 93.8535 22.9438 95.1202 23.3594C96.3869 23.7751 97.6872 23.9912 99.0127 23.9912C99.8348 23.9912 100.665 23.8915 101.487 23.7003C102.309 23.5091 103.056 23.1932 103.719 22.7609C104.382 22.3286 104.918 21.7633 105.329 21.065C105.741 20.3667 105.95 19.5105 105.95 18.4963C105.95 17.7231 105.799 17.0581 105.497 16.4928C105.195 15.9275 104.793 15.462 104.289 15.0712C103.786 14.6805 103.232 14.3729 102.611 14.1319C101.991 13.8991 101.378 13.7162 100.774 13.5832C99.7341 13.3421 98.9791 13.1343 98.5093 12.9348C98.0396 12.7436 97.8047 12.4194 97.8047 11.9621C97.8047 11.5049 98.0144 11.1558 98.4422 10.9646V10.9895Z" fill="currentColor"/>
        <path d="M137.15 9.37645C136.445 8.62827 135.59 8.06298 134.608 7.67226C133.618 7.28155 132.536 7.08203 131.353 7.08203C130.17 7.08203 128.988 7.28155 127.939 7.68889C126.89 8.09623 125.976 8.66153 125.204 9.39308C124.432 10.1246 123.82 11.0225 123.367 12.0699C122.914 13.1257 122.688 14.2978 122.688 15.5947C122.688 16.8915 122.914 18.1302 123.384 19.1693C123.845 20.2085 124.474 21.0897 125.288 21.8046C126.093 22.5195 127.033 23.0599 128.107 23.434C129.181 23.808 130.321 23.9909 131.521 23.9909C133.148 23.9909 134.583 23.7 135.825 23.1097C137.058 22.5278 138.048 21.6882 138.803 20.6075L135.128 18.3131C134.759 18.8035 134.289 19.2026 133.71 19.5102C133.132 19.8177 132.419 19.9757 131.58 19.9757C131.11 19.9757 130.649 19.9009 130.212 19.7512C129.768 19.6016 129.373 19.3938 129.021 19.1278C128.669 18.8617 128.375 18.5458 128.149 18.1884C127.922 17.8309 127.788 17.4236 127.746 16.9747H139.373C139.398 16.7835 139.407 16.5839 139.407 16.3678V15.7277C139.407 14.3643 139.205 13.1506 138.811 12.0865C138.417 11.0225 137.863 10.1163 137.15 9.37645ZM127.754 13.5746C127.788 13.2171 127.897 12.8763 128.065 12.5521C128.258 12.178 128.518 11.8538 128.837 11.5794C129.155 11.3051 129.533 11.0806 129.961 10.9227C130.388 10.7647 130.858 10.6816 131.378 10.6816C132.427 10.6816 133.224 10.9809 133.744 11.5711C134.239 12.1364 134.499 12.8015 134.533 13.5663H127.754V13.5746Z" fill="currentColor"/>
        <path d="M71.2065 3.59958C71.089 1.52962 70.1075 0 66.0977 0V18.5715C66.0977 19.3862 66.2067 20.1178 66.3913 20.7828C66.5758 21.4396 66.8778 22.0132 67.2973 22.487C67.7167 22.9609 68.2704 23.3266 68.9667 23.5843C69.6629 23.8337 70.7115 23.9667 71.735 23.9667C73.3121 23.9667 74.4027 23.7506 75.7449 23.31V19.0703C75.7449 19.0703 74.4865 19.4112 73.1192 19.4112C72.4061 19.4112 71.9112 19.2366 71.6343 18.8791C71.3575 18.5216 71.2233 17.9896 71.2233 17.2747V11.9875H75.7533V7.18254H71.2233V3.59958H71.2065Z" fill="currentColor"/>
        <path d="M124.089 7.63976H117.747L112.496 14.2154V3.69934C112.395 1.58781 111.455 0 107.387 0V23.6425H112.487V16.0111L118.527 23.6425H124.911L118.133 15.1216L124.089 7.63976Z" fill="currentColor"/>
        <path d="M84.1165 6.85742C80.61 6.85742 78.5044 7.96307 77.095 9.12691L79.7627 12.4106C80.6519 11.5959 82.4052 10.7563 83.5964 10.7563C85.5343 10.7563 85.9369 11.8536 85.9369 13.2668V13.5412H84.192C79.7124 13.5412 77.0195 15.4698 77.0195 18.9031C77.0195 22.6441 80.3415 23.6333 84.385 23.6333H90.987V13.0424C90.987 8.49511 87.3463 6.85742 84.1249 6.85742H84.1165ZM85.9369 20.2914C85.3916 20.2914 84.7373 20.2997 84.2591 20.2914C82.9505 20.2665 82.1451 19.7511 82.1451 18.6371C82.1451 17.5232 82.9505 16.8747 84.5528 16.8747H85.9369V20.2997V20.2914Z" fill="currentColor"/>
        <path d="M50.4082 0C48.8562 0 47.4805 1.28853 47.4805 2.90128C47.4805 4.51403 48.8562 5.83582 50.4082 5.83582C51.9601 5.83582 53.3695 4.54728 53.3695 2.90128C53.3695 1.25528 52.0272 0 50.4082 0Z" fill="currentColor"/>
        <path d="M47.9753 7.21534H47.7656V23.6338H53.0842V10.6653C52.9332 8.67014 51.9013 7.20703 47.9753 7.20703V7.21534Z" fill="currentColor"/>
        <path d="M59.8374 9.25186V7.66406H54.5859V23.6336H59.8374V16.2183C59.8374 16.1767 59.8374 16.1351 59.8458 16.0936C60.6092 12.5355 64.015 12.1615 64.8959 12.1282L64.8707 7.33984C63.9312 7.38141 61.0957 7.7555 59.8374 9.25186Z" fill="currentColor"/>
        <path d="M149.355 20.1758C148.449 20.1758 147.711 20.9323 147.711 21.8633C147.711 22.7944 148.449 23.5509 149.355 23.5509C150.261 23.5509 150.999 22.7944 150.999 21.8633C150.999 20.9323 150.261 20.1758 149.355 20.1758ZM149.355 23.235C148.617 23.235 148.038 22.6282 148.038 21.8633C148.038 21.0985 148.617 20.4917 149.355 20.4917C150.093 20.4917 150.672 21.0985 150.672 21.8633C150.672 22.6282 150.093 23.235 149.355 23.235Z" fill="currentColor"/>
        <path d="M150.019 21.5062C150.019 21.1986 149.784 20.9492 149.448 20.9492H148.777V22.7698H149.105V22.0466H149.331L149.692 22.7698H150.061L149.667 22.005C149.86 21.9385 150.019 21.7639 150.019 21.5145V21.5062ZM149.407 21.7805H149.105V21.2319H149.407C149.583 21.2319 149.7 21.3566 149.7 21.5062C149.7 21.6558 149.583 21.7805 149.407 21.7805Z" fill="currentColor"/>
        <path d="M32.9935 0.0175781L25.6952 19.2458H22.7842C20.5024 19.2458 18.5143 18.7554 17.1721 17.8575C15.7963 16.9348 15.1336 15.613 15.1336 13.8174V11.5978H12.7931C12.7008 11.5978 9.2865 11.5895 6.87889 9.22852C5.6625 8.03975 4.89911 6.427 4.58872 4.40691H21.0142C24.0006 4.40691 25.0996 5.85339 25.7874 7.15024C26.3663 8.23926 26.5592 9.20358 26.5592 9.20358L28.6145 3.78342C28.6145 3.78342 26.8864 0.0175781 21.0142 0.0175781H0V2.21224C0 6.4935 1.26672 9.90189 3.76661 12.3459C6.10711 14.6321 8.99289 15.4883 10.8972 15.8125C11.8535 20.6258 16.308 23.6269 22.7842 23.6269H29.5205L31.0641 19.2874H39.4697L41.0133 23.6269H46.7681L37.7836 0.0175781H32.9935ZM32.8928 14.3827L35.2585 7.62409L37.6242 14.3827H32.8928Z" fill="currentColor"/>
    </g>
    <defs>
        <clipPath id="clip0_8_9591">
            <rect width="151" height="24" fill="currentColor"/>
        </clipPath>
    </defs>
</svg>
