<svg width="99" height="43" viewBox="0 0 99 43" fill="none"
    xmlns="http://www.w3.org/2000/svg">
    <path fill-rule="evenodd" clip-rule="evenodd" d="M61.143 33.8688C55.4158 38.0707 47.1145 40.3125 39.9673 40.3125C29.9458 40.3125 20.9238 36.6231 14.0984 30.4868C13.5621 30.0043 14.0426 29.3467 14.6861 29.7225C22.0521 33.9884 31.1599 36.5548 40.5679 36.5548C46.9129 36.5548 53.8928 35.2481 60.3107 32.5365C61.2803 32.1266 62.0911 33.1685 61.143 33.8688Z" fill="currentColor"/>
    <path fill-rule="evenodd" clip-rule="evenodd" d="M63.524 31.1573C62.7947 30.2264 58.6849 30.7175 56.8402 30.9353C56.2782 31.0036 56.1924 30.5168 56.6986 30.1666C59.9719 27.8735 65.343 28.5354 65.9694 29.304C66.5957 30.0769 65.8063 35.436 62.7304 37.9939C62.2585 38.3867 61.808 38.1775 62.0182 37.6565C62.7089 35.9399 64.2576 32.0925 63.524 31.1573Z" fill="currentColor"/>
    <path fill-rule="evenodd" clip-rule="evenodd" d="M56.9676 13.9783V11.7492C56.9676 11.4119 57.225 11.1856 57.5339 11.1856H67.5597C67.8814 11.1856 68.1388 11.4161 68.1388 11.7492V13.658C68.1346 13.9783 67.8643 14.3967 67.3838 15.0586L62.1885 22.4418C64.1191 22.3948 66.1568 22.6809 67.9072 23.663C68.3019 23.8851 68.4091 24.2096 68.4391 24.5299V26.9084C68.4391 27.2329 68.0788 27.6129 67.7013 27.4165C64.6167 25.8067 60.5197 25.6316 57.1091 27.4336C56.7616 27.6215 56.397 27.2457 56.397 26.9212V24.6623C56.397 24.2993 56.4013 23.6801 56.7659 23.1293L62.7849 14.5377H57.5467C57.225 14.5377 56.9676 14.3113 56.9676 13.9783Z" fill="currentColor"/>
    <path fill-rule="evenodd" clip-rule="evenodd" d="M20.3949 27.8863H17.3447C17.053 27.8649 16.8213 27.6471 16.7999 27.3696V11.7877C16.7999 11.476 17.0615 11.2283 17.3876 11.2283H20.2319C20.5279 11.2411 20.7639 11.4674 20.7853 11.7493V13.7861H20.8411C21.5833 11.8176 22.9775 10.8995 24.8566 10.8995C26.7656 10.8995 27.9583 11.8176 28.8163 13.7861C29.5542 11.8176 31.2316 10.8995 33.0291 10.8995C34.3075 10.8995 35.7061 11.4247 36.5598 12.6033C37.5251 13.9142 37.3277 15.8187 37.3277 17.4884L37.3234 27.3226C37.3234 27.6343 37.0617 27.8863 36.7357 27.8863H33.6898C33.3852 27.8649 33.1406 27.6215 33.1406 27.3226V19.0641C33.1406 18.4065 33.2007 16.7667 33.0548 16.1433C32.8275 15.0971 32.1453 14.8024 31.2616 14.8024C30.5237 14.8024 29.7515 15.2935 29.4383 16.0792C29.1252 16.8649 29.1552 18.1801 29.1552 19.0641V27.3226C29.1552 27.6343 28.8935 27.8863 28.5674 27.8863H25.5215C25.2126 27.8649 24.9724 27.6215 24.9724 27.3226L24.9681 19.0641C24.9681 17.3261 25.2555 14.7683 23.0891 14.7683C20.8968 14.7683 20.9827 17.2621 20.9827 19.0641V27.3226C20.9827 27.6343 20.721 27.8863 20.3949 27.8863Z" fill="currentColor"/>
    <path fill-rule="evenodd" clip-rule="evenodd" d="M76.7703 10.8995C81.2963 10.8995 83.7459 14.7683 83.7459 19.6875C83.7459 24.4402 81.0389 28.2108 76.7703 28.2108C72.3258 28.2108 69.9062 24.342 69.9062 19.521C69.9062 14.6701 72.3558 10.8995 76.7703 10.8995ZM76.796 14.0808C74.548 14.0808 74.4065 17.1297 74.4065 19.0299C74.4065 20.9344 74.3764 24.9996 76.7703 24.9996C79.1341 24.9996 79.2457 21.7201 79.2457 19.7217C79.2457 18.4065 79.1899 16.835 78.7909 15.5881C78.4477 14.5035 77.7656 14.0808 76.796 14.0808Z" fill="currentColor"/>
    <path fill-rule="evenodd" clip-rule="evenodd" d="M89.6148 27.8863H86.5775C86.2729 27.8649 86.0283 27.6215 86.0283 27.3226L86.024 11.7364C86.0498 11.4503 86.3029 11.2283 86.6118 11.2283H89.4389C89.7049 11.2411 89.9237 11.4205 89.9837 11.6639V14.0466H90.0395C90.8932 11.9158 92.0902 10.8995 94.1966 10.8995C95.5651 10.8995 96.8993 11.3906 97.7573 12.7357C98.5553 13.9826 98.5553 16.0792 98.5553 17.5866V27.3952C98.5209 27.6685 98.2678 27.8863 97.9675 27.8863H94.9087C94.6299 27.8649 94.3982 27.66 94.3682 27.3952V18.9317C94.3682 17.2279 94.5655 14.7341 92.4591 14.7341C91.7169 14.7341 91.0348 15.2295 90.6959 15.981C90.2669 16.9333 90.2111 17.8812 90.2111 18.9317V27.3226C90.2068 27.6343 89.9408 27.8863 89.6148 27.8863Z" fill="currentColor"/>
    <path fill-rule="evenodd" clip-rule="evenodd" d="M48.9752 20.4433C48.9752 21.6262 49.0053 22.6126 48.4047 23.663C47.9199 24.5171 47.1477 25.0423 46.294 25.0423C45.1228 25.0423 44.4364 24.1541 44.4364 22.8432C44.4364 20.2554 46.7659 19.7857 48.9752 19.7857V20.4433ZM52.0512 27.8435C51.8496 28.0229 51.5578 28.0357 51.3305 27.9161C50.318 27.0792 50.1335 26.6906 49.5801 25.8921C47.907 27.5916 46.7187 28.0998 44.5522 28.0998C41.9825 28.0998 39.9876 26.5241 39.9876 23.3684C39.9876 20.9045 41.3261 19.2263 43.2394 18.4064C44.8954 17.6805 47.2077 17.5524 48.9752 17.3517V16.9588C48.9752 16.2372 49.031 15.3831 48.602 14.7597C48.2331 14.2003 47.5209 13.9697 46.8903 13.9697C45.7277 13.9697 44.6938 14.5633 44.4407 15.7931C44.3892 16.0664 44.1876 16.3354 43.9087 16.3482L40.9529 16.0322C40.704 15.9767 40.4252 15.776 40.4981 15.396C41.1759 11.8261 44.4192 10.75 47.3193 10.75C48.8036 10.75 50.7427 11.1429 51.9139 12.2616C53.3983 13.6409 53.2567 15.4814 53.2567 17.4841V22.2154C53.2567 23.6374 53.8487 24.2609 54.4064 25.0295C54.5995 25.3028 54.6424 25.6316 54.3936 25.8366C53.7715 26.3533 52.6647 27.314 52.0555 27.8521L52.0512 27.8435Z" fill="currentColor"/>
    <path fill-rule="evenodd" clip-rule="evenodd" d="M8.98764 20.4433C8.98764 21.6262 9.01767 22.6126 8.41706 23.663C7.93229 24.5171 7.16437 25.0423 6.30636 25.0423C5.13518 25.0423 4.45306 24.1541 4.45306 22.8432C4.45306 20.2554 6.78256 19.7857 8.98764 19.7857V20.4433ZM12.0636 27.8435C11.862 28.0229 11.5702 28.0357 11.3429 27.9161C10.3304 27.0792 10.1502 26.6906 9.59253 25.8921C7.91942 27.5916 6.73537 28.0997 4.5646 28.0997C1.99916 28.0997 0 26.524 0 23.3684C0 20.9045 1.34278 19.2263 3.25185 18.4064C4.90781 17.6805 7.22014 17.5524 8.98764 17.3517V16.9588C8.98764 16.2372 9.04341 15.3831 8.6187 14.7597C8.24546 14.2003 7.53331 13.9697 6.90697 13.9697C5.74437 13.9697 4.70618 14.5633 4.45306 15.7931C4.40158 16.0664 4.19995 16.3354 3.92539 16.3482L0.96526 16.0322C0.716437 15.9767 0.441874 15.776 0.510514 15.396C1.19263 11.8261 4.43161 10.75 7.33168 10.75C8.81604 10.75 10.7551 11.1429 11.9263 12.2616C13.4107 13.6409 13.2691 15.4814 13.2691 17.4841V22.2154C13.2691 23.6374 13.8611 24.2609 14.4188 25.0295C14.6162 25.3028 14.6591 25.6316 14.4102 25.8365C13.7882 26.3532 12.6814 27.314 12.0722 27.8521L12.0636 27.8435Z" fill="currentColor"/>
</svg>
