<svg width="728" height="739" viewBox="0 0 728 739" fill="none"
    xmlns="http://www.w3.org/2000/svg">
    <path d="M519.197 124.059C541.732 124.611 562.831 133.086 579.292 147.159L635.791 138.659L589.159 104.223L508.723 116.325L519.197 124.059Z" fill="#00BD64"/>
    <path d="M635.788 138.637C630.598 104.136 605.998 77.2776 574.701 67.4861C582.029 78.1442 587.108 90.5884 589.159 104.223L635.792 138.659L635.788 138.637Z" fill="#FF8BEF"/>
    <path d="M516.772 234.969C517.323 234.931 517.887 234.98 518.454 234.894L519.02 234.809C527.1 233.593 532.689 226.026 531.473 217.945C530.257 209.865 522.69 204.276 514.609 205.492C500.986 207.475 487.636 206.231 475.293 202.364C480.19 209.445 511.383 232.906 516.772 234.969Z" fill="#FF8BEF"/>
    <path d="M594.582 163.658C603.394 175.741 609.534 190.052 611.91 205.844C619.8 258.292 583.548 307.358 531.121 315.245L530.555 315.33C514.024 317.818 497.828 316.022 483.077 310.802C504.164 339.191 539.833 355.386 577.187 349.766L577.754 349.681C630.18 341.794 666.429 292.706 658.542 240.279C653.03 203.644 627.398 174.958 594.604 163.655L594.582 163.658Z" fill="#FF8BEF"/>
    <path d="M611.91 205.843C604.039 153.526 555.163 117.356 502.86 125.025C498.852 125.628 495.093 122.852 494.49 118.844C493.888 114.837 496.663 111.078 500.78 110.459C504.591 109.885 508.15 112.513 508.723 116.325L589.159 104.223C581.914 56.0658 536.836 22.7772 488.569 30.0387C440.303 37.3003 406.779 82.5926 414.054 130.946C421.329 179.299 466.379 212.547 514.588 205.495C522.668 204.279 530.239 209.889 531.455 217.97C532.67 226.051 527.082 233.618 519.002 234.834L518.435 234.919C508.917 236.351 499.997 229.764 498.565 220.245L418.128 232.347C426.235 286.232 476.651 323.462 530.537 315.355L531.103 315.27C583.529 307.383 619.779 258.295 611.891 205.869L611.91 205.843Z" fill="#FF4B1E"/>
    <path d="M599.47 157.064C598.306 155.547 597.106 154.079 595.864 152.64L636.965 146.456C637.684 146.348 638.339 146.116 638.966 145.843C639.112 145.777 639.258 145.71 639.401 145.622C640 145.309 640.57 144.956 641.059 144.504C641.059 144.504 641.081 144.501 641.099 144.476C641.61 144.02 642.017 143.469 642.399 142.899C642.488 142.752 642.581 142.627 642.648 142.483C642.98 141.876 643.262 141.232 643.45 140.558L643.443 140.515C643.591 139.869 643.645 139.192 643.631 138.504C643.626 138.327 643.622 138.149 643.596 137.975C643.573 137.822 643.59 137.642 643.567 137.489C639.108 107.845 621.451 83.4614 597.478 69.2045L566.832 46.5743C546.089 27.5773 517.276 17.7237 487.349 22.2261C434.683 30.1496 398.268 79.463 406.191 132.129C409.924 156.937 422.893 178.151 441.069 192.812C441.33 193.062 441.593 193.334 441.894 193.556L444.44 195.379C445.518 196.174 446.57 196.951 447.685 197.697L473.299 216.05L416.908 224.534C412.596 225.183 409.616 229.217 410.265 233.53C414.945 264.633 432.681 290.586 457.067 306.696L495.029 334.73C517.547 353.081 547.373 362.27 578.302 357.617L578.868 357.532C635.629 348.992 674.835 295.873 666.299 239.134C660.476 200.43 633.787 169.899 599.411 157.118L599.47 157.064ZM581.532 138.804C570.048 129.684 556.694 122.939 542.266 119.274L587.112 112.527L615.728 133.659L581.532 138.804ZM603.018 92.8499C610.696 99.9138 616.98 108.524 621.448 118.231L596.39 99.7273C595.452 94.6786 594.136 89.7761 592.447 85.0632L602.996 92.8532L603.018 92.8499ZM465.827 293.417L457.859 287.533C443.153 275.357 432.203 258.539 427.469 238.916L493.182 229.029C497.978 238.554 508.522 244.384 519.63 242.713L520.196 242.628C532.59 240.764 541.157 229.162 539.292 216.769C537.428 204.375 526.252 196.123 514.112 197.593C513.894 197.625 513.673 197.636 513.455 197.669C492.423 200.744 472.092 195.295 455.828 184.021L452.731 181.792C436.672 169.507 425.129 151.264 421.895 129.766C415.269 85.7255 445.705 44.4839 489.746 37.8581C508.543 35.0302 526.782 39.0127 542.062 47.8953C542.062 47.8953 542.066 47.9171 542.091 47.9356L556.423 58.5198C567.524 68.7885 575.866 82.1897 579.775 97.661L513.104 107.691C509.868 103.946 504.856 101.872 499.607 102.661C491.221 103.923 485.423 111.722 486.674 120.043C487.926 128.363 495.218 133.748 503.23 132.965C503.473 132.951 503.738 132.934 503.999 132.894C551.965 125.856 596.863 159.127 604.075 207.067C611.288 255.006 578.065 300.231 529.93 307.473L529.364 307.558C506.276 311.031 483.915 305.419 465.812 293.464L465.827 293.417ZM503.841 214.306C507.594 214.232 511.38 213.93 515.173 213.381C515.369 213.352 515.59 213.341 515.786 213.311C519.554 212.744 523.087 215.353 523.651 219.1C524.214 222.846 521.735 226.204 518.12 226.903C514.324 225.358 510.663 223.526 507.161 221.424C506.826 220.673 506.552 219.89 506.424 219.041C506.136 217.124 505.198 215.483 503.863 214.303L503.841 214.306ZM576.556 341.865L575.989 341.95C552.118 345.542 529.03 339.393 510.637 326.546C510.587 326.509 510.559 326.469 510.509 326.432L507.176 323.971C515.202 324.612 523.411 324.401 531.71 323.153L532.276 323.068C589.015 314.531 628.243 261.409 619.707 204.67C618.524 196.807 616.481 189.297 613.7 182.209C632.975 195.591 646.949 216.52 650.701 241.459C657.939 289.573 624.669 334.626 576.556 341.865Z" fill="black"/>
    <path d="M127.277 335.242L131.767 365.081L178.396 399.495L173.906 369.656L127.277 335.242Z" fill="#FF4B1E"/>
    <path d="M238.821 194.128C253 191.995 266.878 193.337 279.681 197.447C260.654 170.173 227.234 154.42 192.189 159.692C145.535 166.711 112.592 208.464 115.565 254.724L169.951 246.542C182.114 219.454 207.301 198.848 238.796 194.11L238.821 194.128Z" fill="#FF4B1E"/>
    <path d="M329.342 130.171C353.178 154.917 369.873 186.974 375.365 223.479L390.806 326.11L437.438 360.546L421.997 257.915C413.399 200.762 377.385 154.438 329.345 130.193L329.342 130.171Z" fill="#FFD43A"/>
    <path d="M127.278 335.242L305.88 308.372L310.369 338.211L390.806 326.11L375.365 223.479C361.284 129.887 273.683 65.1972 180.091 79.2779C86.4988 93.3585 21.8092 180.96 35.8899 274.552L51.3305 377.183L131.767 365.082L127.278 335.242ZM192.192 159.714C238.847 152.695 282.616 182.906 293.386 227.994L115.568 254.746C112.595 208.486 145.538 166.733 192.192 159.714Z" fill="#FF8BEF"/>
    <path d="M51.3304 377.183L97.9594 411.597L178.396 399.496L131.767 365.082L51.3304 377.183Z" fill="#00BD64"/>
    <path d="M310.369 338.211L356.998 372.625L437.434 360.524L390.806 326.11L310.369 338.211Z" fill="#00BD64"/>
    <path d="M311.583 348.943L305.488 308.43L127.277 335.242L173.906 369.656L311.583 348.943Z" fill="#2DD7FF"/>
    <path d="M191.012 151.873C141.026 159.394 104.422 204.793 107.669 255.245C107.822 257.449 108.866 259.497 110.589 260.886C112.313 262.275 114.541 262.875 116.741 262.544L294.559 235.792C296.759 235.461 298.713 234.232 299.951 232.397C301.19 230.562 301.606 228.295 301.082 226.146C289.341 176.972 240.999 144.353 191.012 151.873ZM164.789 239.323L123.362 245.556C125.018 206.817 154.334 173.384 193.365 167.512C216.997 163.957 240.13 171.145 257.649 185.438C251.021 185.054 244.328 185.281 237.641 186.287C205.406 191.137 178.795 211.757 164.811 239.32L164.789 239.323ZM283.233 221.503L184.98 236.285C197.562 218.355 217.084 205.395 239.997 201.948C251.65 200.195 263.263 200.987 274.572 204.208C278.073 209.561 281.035 215.33 283.233 221.503Z" fill="black"/>
    <path d="M366.499 145.006C366.207 144.693 365.897 144.406 365.546 144.147L364.218 143.166C360.548 140.243 356.783 137.424 352.867 134.784L314.152 106.195C312.392 104.857 310.635 103.539 308.84 102.273L307.161 101.033C306.76 100.737 306.348 100.509 305.938 100.304C269.941 76.006 225.177 64.4984 178.936 71.4552C81.0316 86.1847 13.3628 177.821 28.0923 275.725L43.5329 378.356C43.6082 378.857 43.7457 379.326 43.9049 379.793C43.9082 379.814 43.9147 379.858 43.918 379.88C44.1503 380.535 44.5067 381.128 44.8816 381.695C44.9698 381.837 45.0767 381.955 45.1617 382.076C45.602 382.633 46.0791 383.141 46.6554 383.566L93.2627 417.983C93.6887 418.298 94.1298 418.566 94.5863 418.787C94.705 418.836 94.8205 418.863 94.9392 418.912C95.2954 419.059 95.6516 419.205 96.0448 419.302C96.2071 419.345 96.3629 419.343 96.5252 419.386C96.8683 419.446 97.2147 419.527 97.573 419.54C98.0904 419.574 98.6196 419.539 99.1423 419.46L179.579 407.358C180.297 407.25 180.953 407.018 181.58 406.745C181.726 406.679 181.872 406.612 182.015 406.524C182.614 406.211 183.184 405.858 183.673 405.406C183.673 405.406 183.695 405.403 183.713 405.378C184.224 404.922 184.631 404.371 185.013 403.801C185.102 403.654 185.195 403.529 185.262 403.385C185.594 402.778 185.876 402.134 186.064 401.46L186.057 401.417C186.205 400.771 186.259 400.094 186.245 399.406C186.241 399.229 186.236 399.051 186.21 398.877C186.187 398.724 186.204 398.543 186.181 398.391L182.868 376.371L320.567 355.654L352.264 379.062C352.69 379.376 353.132 379.644 353.588 379.865C353.707 379.914 353.822 379.941 353.941 379.99C354.297 380.137 354.653 380.284 355.047 380.381C355.209 380.423 355.365 380.422 355.527 380.464C355.87 380.524 356.216 380.606 356.575 380.618C357.092 380.652 357.621 380.617 358.144 380.538L438.581 368.437C439.299 368.329 439.955 368.096 440.582 367.824C440.728 367.757 440.874 367.691 441.016 367.603C441.615 367.29 442.186 366.937 442.675 366.484C442.675 366.484 442.696 366.481 442.715 366.456C443.226 366.001 443.633 365.449 444.015 364.879C444.104 364.732 444.196 364.607 444.264 364.463C444.596 363.857 444.878 363.213 445.066 362.539L445.059 362.495C445.207 361.849 445.261 361.173 445.247 360.484C445.242 360.307 445.238 360.129 445.212 359.955C445.189 359.803 445.206 359.622 445.183 359.469L429.743 256.838C423.025 212.188 400.252 172.893 366.428 145.128L366.499 145.006ZM100.028 403.289L71.4125 382.158L129.72 373.386L158.335 394.517L100.028 403.289ZM167.735 381.788L139.12 360.657L137.96 352.946L166.575 374.078L167.735 381.788ZM302.609 342.297L175.975 361.348L147.36 340.217L298.867 317.423L302.609 342.297ZM304.722 300.527L126.12 327.398C125.401 327.506 124.745 327.738 124.118 328.011C123.972 328.077 123.826 328.144 123.684 328.232C123.085 328.545 122.514 328.898 122.025 329.35C122.025 329.35 122.004 329.353 121.985 329.378C121.475 329.834 121.067 330.385 120.685 330.955C120.596 331.102 120.504 331.227 120.436 331.371C120.104 331.978 119.823 332.622 119.634 333.296L119.641 333.339C119.493 333.985 119.439 334.662 119.453 335.35C119.458 335.527 119.462 335.705 119.488 335.879C119.511 336.032 119.494 336.212 119.517 336.365L122.83 358.385L58.0321 368.134L43.7679 273.322C30.336 184.043 92.0466 100.476 181.326 87.0438C223.886 80.6408 265.099 91.3461 298.096 113.912L307.568 120.907C338.862 145.778 361.201 182.042 367.604 224.602L381.869 319.414L317.071 329.162L313.758 307.142C313.109 302.829 309.075 299.85 304.762 300.499L304.722 300.527ZM359.067 364.318L330.451 343.186L388.758 334.414L417.374 355.546L359.067 364.318ZM426.774 342.816L398.158 321.685L383.203 222.277C380.005 201.019 373.169 181.199 363.442 163.329C390.428 188.136 408.529 221.541 414.175 259.069L426.774 342.816Z" fill="black"/>
    <path d="M216.949 476.019L184.452 480.908L231.059 515.325L263.578 510.433L216.949 476.019Z" fill="#FFD43A"/>
    <path d="M99.6647 685.129L146.297 719.565L291.749 697.682L245.117 663.247L99.6647 685.129Z" fill="#FF8BEF"/>
    <path d="M204.847 395.582L251.476 429.996L263.578 510.432L216.949 476.019L204.847 395.582Z" fill="#FF8BEF"/>
    <path d="M232.956 582.418L279.585 616.832L291.69 697.29L245.058 662.854L232.956 582.418Z" fill="#00BD64"/>
    <path d="M184.452 480.908L231.059 515.325L240.972 581.212L200.46 587.307L184.452 480.908Z" fill="#8A00FF"/>
    <path d="M71.4967 497.902L103.994 493.013L120.06 599.803L87.5632 604.693L99.6647 685.129L245.117 663.246L233.015 582.81L200.518 587.699L184.452 480.908L216.949 476.019L204.847 395.582L59.3953 417.465L71.4967 497.902Z" fill="#FFD43A"/>
    <path d="M264.757 518.274C265.258 518.199 265.775 518.077 266.259 517.892C266.62 517.771 266.948 517.588 267.277 517.405C267.401 517.342 267.529 517.3 267.65 517.215C268.264 516.855 268.774 516.4 269.253 515.882C269.368 515.754 269.485 515.647 269.578 515.522C270.01 514.989 270.417 514.438 270.702 513.816C270.702 513.816 270.699 513.794 270.717 513.769C271.006 513.169 271.175 512.52 271.298 511.855C271.319 511.696 271.361 511.534 271.382 511.375C271.458 510.695 271.483 509.979 271.375 509.26L259.274 428.823C259.274 428.823 259.261 428.736 259.254 428.693C259.182 428.214 259.066 427.741 258.889 427.3C258.771 426.961 258.588 426.632 258.427 426.3C258.363 426.176 258.319 426.027 258.23 425.884C258.022 425.537 257.777 425.24 257.507 424.924C257.425 424.825 257.368 424.744 257.308 424.642C256.96 424.249 256.574 423.906 256.148 423.592L209.541 389.174C208.964 388.749 208.339 388.442 207.677 388.185C207.533 388.118 207.393 388.072 207.23 388.03C206.575 387.816 205.907 387.672 205.212 387.643C205.169 387.649 205.125 387.656 205.103 387.659C204.633 387.641 204.144 387.648 203.643 387.723L58.1907 409.606C53.8781 410.255 50.8989 414.289 51.5477 418.601L63.6492 499.038C64.298 503.351 68.3323 506.33 72.6449 505.681L97.3225 501.968L111.033 593.099L86.3553 596.811C82.0427 597.46 79.0636 601.495 79.7124 605.807L91.8138 686.244C91.8892 686.745 92.0267 687.214 92.1859 687.68C92.1892 687.702 92.1957 687.746 92.199 687.767C92.4313 688.423 92.7876 689.015 93.1625 689.582C93.2508 689.725 93.3575 689.843 93.4426 689.963C93.8828 690.521 94.3601 691.028 94.9364 691.454L141.544 725.871C141.97 726.186 142.411 726.453 142.867 726.674C142.986 726.723 143.123 726.747 143.245 726.818C143.602 726.965 143.958 727.112 144.329 727.212C144.491 727.254 144.669 727.249 144.831 727.292C145.174 727.352 145.521 727.433 145.857 727.449C146.374 727.483 146.904 727.448 147.427 727.369L292.879 705.486C293.597 705.378 294.253 705.146 294.88 704.873C295.026 704.807 295.172 704.74 295.315 704.652C295.913 704.339 296.484 703.986 296.973 703.534C296.973 703.534 296.995 703.531 297.013 703.505C297.524 703.05 297.931 702.499 298.313 701.929C298.402 701.782 298.495 701.657 298.562 701.513C298.894 700.906 299.198 700.259 299.364 699.588L299.357 699.544C299.505 698.899 299.559 698.222 299.545 697.534C299.54 697.356 299.536 697.179 299.51 697.005C299.487 696.852 299.504 696.671 299.481 696.519L287.38 616.083L287.321 615.69C287.009 613.621 285.88 611.742 284.201 610.502L249.446 584.837L239.996 522.022L264.674 518.309L264.757 518.274ZM231.976 574.569L207.102 578.311L195.112 498.615L223.728 519.747L231.973 574.548L231.976 574.569ZM233.131 507.039L204.516 485.908L214.905 484.345L243.521 505.476L233.131 507.039ZM252.921 492.747L224.305 471.616L215.533 413.309L244.149 434.44L252.921 492.747ZM96.5841 611.354L121.262 607.642C125.574 606.993 128.553 602.958 127.905 598.646L111.838 491.855C111.189 487.542 107.155 484.563 102.842 485.212L78.1648 488.925L68.4161 424.127L198.23 404.597L207.978 469.395L183.301 473.107C183.148 473.13 183.002 473.197 182.85 473.22C182.654 473.249 182.483 473.297 182.293 473.37C181.631 473.559 181.022 473.806 180.449 474.138L180.405 474.144C179.791 474.504 179.28 474.959 178.801 475.477C178.687 475.605 178.57 475.712 178.477 475.838C178.042 476.348 177.638 476.922 177.353 477.544C177.353 477.544 177.356 477.565 177.337 477.59C177.049 478.191 176.88 478.84 176.757 479.504C176.736 479.663 176.694 479.825 176.673 479.985C176.597 480.664 176.571 481.381 176.676 482.078L192.743 588.869C193.391 593.181 197.426 596.161 201.738 595.512L226.416 591.799L236.165 656.597L106.351 676.127L96.6026 611.329L96.5841 611.354ZM243.073 671.572L271.689 692.704L148.366 711.258L119.75 690.126L243.073 671.572ZM281.03 679.583L252.414 658.451L243.642 600.144L272.258 621.275L281.03 679.583Z" fill="black"/>
    <path d="M412.923 680.388L366.29 645.952L354.822 569.875L401.451 604.289L412.923 680.388Z" fill="#8A00FF"/>
    <path d="M520.42 430.363L337.941 457.816L342.696 489.42L500.41 465.692L501.751 474.601L567.049 464.777L520.42 430.363Z" fill="#8A00FF"/>
    <path d="M285.857 658.075L332.49 692.511L412.923 680.387L366.29 645.952L285.857 658.075Z" fill="#FFD43A"/>
    <path d="M354.822 569.875L401.451 604.289L558.992 580.587L512.385 546.17L354.822 569.875Z" fill="#FF4B1E"/>
    <path d="M285.857 658.075L366.291 645.952L354.823 569.875L512.537 546.147L500.433 465.689L342.696 489.42L337.941 457.816L520.421 430.362L508.319 349.926L245.382 389.484L285.857 658.075Z" fill="#2DD7FF"/>
    <path d="M500.345 465.702L546.956 500.141L559.057 580.577L512.45 546.16L500.345 465.702Z" fill="#FF8BEF"/>
    <path d="M520.421 430.362L567.05 464.776L554.948 384.34L508.319 349.926L520.421 430.362Z" fill="#FFD43A"/>
    <path d="M574.813 466.192C574.834 466.033 574.876 465.871 574.897 465.712C574.973 465.032 574.999 464.316 574.89 463.597L562.789 383.16C562.789 383.16 562.776 383.073 562.769 383.03C562.697 382.55 562.582 382.078 562.404 381.637C562.286 381.298 562.103 380.969 561.942 380.637C561.879 380.513 561.834 380.364 561.746 380.221C561.537 379.874 561.292 379.577 561.022 379.261C560.94 379.162 560.883 379.081 560.824 378.979C560.475 378.586 560.089 378.243 559.663 377.929L513.056 343.511C512.505 343.104 511.854 342.779 511.214 342.519C511.07 342.451 510.908 342.409 510.767 342.363C510.112 342.15 509.466 342.002 508.771 341.973C508.727 341.98 508.684 341.986 508.662 341.989C508.191 341.971 507.702 341.978 507.201 342.053L244.242 381.615C242.173 381.926 240.294 383.055 239.054 384.734C237.814 386.413 237.288 388.541 237.599 390.61L278.097 659.198C278.172 659.699 278.309 660.168 278.469 660.634C278.472 660.656 278.475 660.678 278.482 660.721C278.714 661.377 279.07 661.969 279.445 662.537C279.53 662.657 279.637 662.775 279.725 662.918C280.166 663.475 280.643 663.982 281.219 664.408L327.826 698.825C328.252 699.14 328.694 699.408 329.172 699.625C329.291 699.674 329.406 699.701 329.525 699.75C329.881 699.897 330.237 700.044 330.63 700.141C330.793 700.183 330.97 700.179 331.132 700.221C331.476 700.281 331.822 700.363 332.158 700.379C332.676 700.412 333.205 700.377 333.728 700.298L414.164 688.197C414.861 688.092 415.514 687.838 416.163 687.562C416.33 687.492 416.476 687.426 416.619 687.338C417.671 686.779 418.628 686.033 419.346 685.034C419.438 684.909 419.503 684.743 419.592 684.596C419.681 684.449 419.77 684.302 419.838 684.158C420.523 682.941 420.871 681.553 420.839 680.154C420.835 679.977 420.834 679.821 420.807 679.647C420.781 679.472 420.802 679.313 420.775 679.139L410.506 610.878L556.219 588.956L560.205 588.356C560.205 588.356 560.205 588.356 560.227 588.353C560.227 588.353 560.249 588.35 560.27 588.347C560.967 588.242 561.645 588.006 562.312 587.705C562.396 587.67 562.48 587.635 562.56 587.579C562.768 587.481 562.98 587.404 563.163 587.288C563.47 587.108 563.677 586.854 563.955 586.634C564.135 586.496 564.336 586.354 564.488 586.175C564.914 585.755 565.269 585.3 565.599 584.827C565.691 584.702 565.784 584.577 565.855 584.455C566.19 583.87 566.431 583.254 566.623 582.602C566.635 582.533 566.672 582.483 566.687 582.436C566.684 582.415 566.677 582.371 566.674 582.349C566.84 581.678 566.891 580.98 566.87 580.248C566.86 580.183 566.869 580.093 566.881 580.024C566.848 579.806 566.924 579.572 566.888 579.332L554.787 498.896C554.476 496.827 553.346 494.947 551.668 493.708L530.669 478.201L568.241 472.549C568.742 472.473 569.258 472.351 569.743 472.167C570.103 472.046 570.432 471.863 570.761 471.68C570.885 471.616 571.012 471.575 571.133 471.49C571.747 471.13 572.258 470.675 572.737 470.157C572.851 470.029 572.969 469.922 573.061 469.797C573.493 469.264 573.901 468.713 574.186 468.091C574.186 468.091 574.182 468.069 574.201 468.044C574.489 467.444 574.659 466.794 574.782 466.13L574.813 466.192ZM556.389 447.069L527.773 425.937L519.001 367.63L547.617 388.762L556.389 447.069ZM501.676 358.922L511.425 423.72L336.765 449.997C334.696 450.308 332.816 451.437 331.576 453.116C330.337 454.795 329.811 456.923 330.122 458.992L334.88 490.618C335.529 494.93 339.563 497.91 343.875 497.261L493.684 474.723L503.432 539.521L353.646 562.056C352.949 562.16 352.293 562.393 351.644 562.669C351.477 562.738 351.331 562.805 351.188 562.893C350.589 563.206 349.997 563.562 349.511 564.036C349.14 564.382 348.794 564.745 348.48 565.171C348.387 565.297 348.323 565.462 348.23 565.588C348.141 565.735 348.052 565.882 347.966 566.05C347.634 566.657 347.349 567.279 347.183 567.95C347.016 568.621 346.965 569.32 346.98 570.008C346.984 570.185 346.989 570.363 347.015 570.537C347.041 570.711 347.02 570.87 347.043 571.023L357.313 639.284L324.925 644.156L292.537 649.029L254.418 396.099L501.716 358.893L501.676 358.922ZM548.397 562.87L519.881 541.812L511.109 483.505L539.625 504.563L548.397 562.87ZM394.12 608.71L402.237 662.661L373.643 641.527L365.526 587.576L394.12 608.71ZM332.947 658.987L364.246 654.278L392.862 675.409L334.555 684.181L305.939 663.05L332.969 658.983L332.947 658.987ZM403.52 595.981L374.904 574.85L510.315 554.477L538.931 575.609L403.52 595.981ZM505.625 459.785C503.932 458.302 501.652 457.509 499.256 457.869L349.361 480.421L346.959 464.456L518.373 438.667L546.989 459.798L512.663 464.963L505.621 459.763L505.625 459.785Z" fill="black"/>
    <path d="M629.426 332.04L676.036 366.479L700.419 528.55L653.809 494.111L629.426 332.04Z" fill="#2DD7FF"/>
    <path d="M573.351 506.216L619.983 540.652L700.419 528.55L653.809 494.111L573.351 506.216Z" fill="#8A00FF"/>
    <path d="M629.404 332.043L548.968 344.145L573.351 506.216L653.787 494.114L629.404 332.043Z" fill="#00BD64"/>
    <path d="M683.855 365.303C683.544 363.234 682.415 361.354 680.736 360.115L634.129 325.697C633.578 325.29 632.927 324.965 632.287 324.705C632.121 324.641 631.981 324.595 631.815 324.531C631.181 324.314 630.513 324.17 629.819 324.141C629.775 324.147 629.71 324.157 629.666 324.164C629.196 324.145 628.732 324.171 628.252 324.243L547.816 336.344C543.503 336.993 540.524 341.027 541.173 345.34L565.556 507.411C565.632 507.912 565.769 508.381 565.928 508.847C565.932 508.869 565.938 508.912 565.942 508.934C566.174 509.59 566.53 510.182 566.905 510.749C566.993 510.892 567.1 511.009 567.185 511.13C567.625 511.688 568.103 512.195 568.679 512.621L615.286 547.038C616.965 548.278 619.093 548.804 621.163 548.493L701.599 536.391C702.274 536.289 702.93 536.057 703.579 535.781C703.746 535.712 703.892 535.645 704.057 535.554C704.203 535.487 704.349 535.421 704.494 535.354C704.721 535.231 704.869 535.031 705.067 534.867C705.386 534.619 705.708 534.392 705.977 534.106C706.249 533.843 706.471 533.542 706.69 533.22C706.912 532.919 707.134 532.618 707.328 532.277C707.518 531.915 707.644 531.561 707.787 531.183C707.863 530.949 708.008 530.727 708.084 530.493C708.111 530.378 708.092 530.247 708.119 530.131C708.194 529.741 708.203 529.361 708.232 528.956C708.238 528.554 708.269 528.171 708.232 527.775C708.213 527.645 708.24 527.529 708.22 527.399L683.837 365.328L683.855 365.303ZM689.737 510.846L661.121 489.714L640.067 349.773L668.683 370.904L689.737 510.846ZM557.966 350.81L622.764 341.061L644.795 487.493L579.997 497.242L557.966 350.81ZM622.03 532.347L593.414 511.216L651.721 502.444L680.337 523.575L622.03 532.347Z" fill="black"/>
    <path d="M705.79 558.324L702.131 555.622L659.157 523.888C648.228 549.254 652.649 578.636 670.558 599.663L717.19 634.099C699.281 613.072 694.861 583.69 705.79 558.324Z" fill="#FFD43A"/>
    <path d="M667.857 603.322C644.084 593.066 616.752 596.31 596.098 611.512L592.775 614.15C592.536 614.342 592.295 614.512 592.059 614.725L635.033 646.46L638.692 649.161C659.716 631.231 689.123 626.829 714.489 637.758L667.857 603.322Z" fill="#2DD7FF"/>
    <path d="M655.503 521.208C634.479 539.138 605.071 543.54 579.706 532.611L577.004 536.27C594.913 557.297 599.333 586.679 588.404 612.045L592.063 614.747C613.087 596.816 642.494 592.414 667.86 603.343L670.561 599.685C652.653 578.658 648.232 549.276 659.161 523.91L655.503 521.208Z" fill="#00BD64"/>
    <path d="M724.173 637.726C724.259 637.557 724.367 637.385 724.431 637.219C724.581 636.885 724.688 636.557 724.769 636.211C724.815 636.07 724.861 635.93 724.903 635.767C725.005 635.262 725.085 634.76 725.097 634.246C725.091 634.202 725.084 634.159 725.078 634.115C725.074 633.648 725.046 633.162 724.955 632.708C724.948 632.665 724.945 632.643 724.939 632.599C724.922 632.49 724.859 632.366 724.843 632.257C724.768 631.912 724.669 631.548 724.53 631.213C724.457 631.024 724.365 630.859 724.295 630.691C724.162 630.4 724.011 630.133 723.837 629.869C723.721 629.686 723.582 629.507 723.466 629.324C723.381 629.203 723.293 629.06 723.208 628.94C707.137 610.064 703.244 584.188 713.053 561.441C714.504 558.06 713.444 554.121 710.487 551.937L663.855 517.502L660.196 514.8C657.239 512.617 653.163 512.762 650.358 515.144C631.783 530.991 605.276 534.979 582.838 525.302C579.457 523.851 575.518 524.911 573.334 527.868L570.633 531.527C568.449 534.483 568.595 538.56 570.977 541.364C587.047 560.24 590.94 586.116 581.132 608.863C579.681 612.244 580.741 616.183 583.698 618.367L587.356 621.068L633.988 655.504C636.945 657.687 641.025 657.564 643.826 655.16C662.423 639.31 688.93 635.322 711.346 645.002C712.749 645.592 714.224 645.771 715.662 645.555C717.687 645.25 719.573 644.165 720.85 642.436L723.552 638.777C723.552 638.777 723.641 638.63 723.675 638.558C723.856 638.286 724.016 638.017 724.173 637.726ZM694.502 607.51L676.085 593.909C662.626 577.736 658.021 556.601 663.153 536.674L696.229 561.099C690.994 576.342 690.518 592.428 694.502 607.51ZM646.889 536.648C643.068 555.22 645.955 574.409 655.05 591.038C645.765 589.138 636.331 588.909 627.14 590.292C617.948 591.675 609.021 594.666 600.707 599.214C604.506 580.645 601.619 561.456 592.503 544.83C610.965 548.512 630.349 545.596 646.911 536.645L646.889 536.648ZM638.53 639.207L605.479 614.8C623.034 604.163 645.097 602.313 664.271 610.432L685.777 623.835C669.021 623.794 652.525 629.038 638.53 639.207Z" fill="black"/>
</svg>
