<svg width="387" height="275" viewBox="0 0 387 275" fill="none"
    xmlns="http://www.w3.org/2000/svg">
    <path d="M221.75 8.5C216.083 14.167 205.917 16.667 191.25 16C176.583 15.333 167.75 15.667 164.75 17C161.75 18.333 158.583 16.833 155.25 12.5C151.917 8.1667 149.25 5.3333 147.25 4C145.25 2.6667 142.75 2.1667 139.75 2.5C136.75 2.8333 134.583 4.1667 133.25 6.5C131.917 8.8333 131.083 12.5 130.75 17.5C130.417 22.5 131.917 29.167 135.25 37.5C138.583 45.833 140.25 52.833 140.25 58.5C140.25 64.167 138.083 67.5 133.75 68.5C129.417 69.5 126.75 70.667 125.75 72C125.25 72.667 124.75 73.333 124.25 74C124.75 74.333 125.25 74.667 125.75 75C126.75 75.667 128.083 75.333 129.75 74C131.417 72.667 134.083 71.5 137.75 70.5C139.583 70 141.417 69.5 143.25 69C143.25 70.167 143.25 71.333 143.25 72.5C143.25 74.833 143.75 76.833 144.75 78.5C145.25 79.333 145.75 80.167 146.25 81C145.417 81.333 144.583 81.667 143.75 82C142.083 82.667 141.25 83.333 141.25 84C141.25 84.667 141.583 85.167 142.25 85.5C142.917 85.833 144.083 85.5 145.75 84.5C147.417 83.5 149.083 83.833 150.75 85.5C152.417 87.167 152.083 89.667 149.75 93C147.417 96.333 146.25 98.667 146.25 100C146.25 100.667 146.25 101.333 146.25 102C147.583 100 148.917 98 150.25 96C152.917 92 157.25 91.333 163.25 94C166.25 95.333 169.25 96.667 172.25 98C170.25 99.833 168.25 101.667 166.25 103.5C162.25 107.167 158.583 111.333 155.25 116C151.917 120.667 148.083 127.833 143.75 137.5C139.417 147.167 136.083 159 133.75 173C131.417 187 130.25 197.333 130.25 204C130.25 210.667 130.75 215.167 131.75 217.5C132.75 219.833 133.417 223.167 133.75 227.5C134.083 231.833 133.583 234.333 132.25 235C130.917 235.667 123.75 235.833 110.75 235.5C97.75 235.167 90.583 235.333 89.25 236C87.917 236.667 82.083 236.5 71.75 235.5C61.417 234.5 50.583 234 39.25 234C27.917 234 20.083 234.833 15.75 236.5C11.4167 238.167 7.91671 240.333 5.25001 243C2.58331 245.667 0.916714 248.667 0.250014 252C-0.416686 255.333 0.250014 258.5 2.25001 261.5C4.25001 264.5 11.0833 266.667 22.75 268C34.417 269.333 43.917 270 51.25 270C58.583 270 62.583 270.667 63.25 272C63.917 273.333 72.25 273.833 88.25 273.5C104.25 273.167 112.75 273.333 113.75 274C114.75 274.667 118.917 275 126.25 275C133.583 275 145.25 274.667 161.25 274C177.25 273.333 189.917 273.333 199.25 274C208.583 274.667 230.583 274.667 265.25 274C299.917 273.333 328.75 273.333 351.75 274C363.25 274.333 374.75 274.667 386.25 275C386.25 274 386.25 273 386.25 272C386.25 270 381.25 268.5 371.25 267.5C361.25 266.5 349.417 265.667 335.75 265C322.083 264.333 304.083 264.333 281.75 265C270.583 265.333 259.417 265.667 248.25 266C252.083 264.333 255.917 262.667 259.75 261C267.417 257.667 275.083 252.667 282.75 246C290.417 239.333 296.917 231.5 302.25 222.5C307.583 213.5 310.583 205.333 311.25 198C311.917 190.667 311.75 184.833 310.75 180.5C309.75 176.167 307.75 172 304.75 168C301.75 164 298.917 161.167 296.25 159.5C293.583 157.833 289.25 157.167 283.25 157.5C277.25 157.833 273.75 152.5 272.75 141.5C271.75 130.5 270.083 120.667 267.75 112C265.417 103.333 263.25 97 261.25 93C259.25 89 257.083 85.833 254.75 83.5C252.417 81.167 249.917 79 247.25 77C244.583 75 242.083 73.833 239.75 73.5C238.583 73.333 237.417 73.167 236.25 73C237.75 72.167 239.25 71.333 240.75 70.5C242.25 69.667 243.75 68.833 245.25 68C244.25 67.833 243.25 67.667 242.25 67.5C241.25 67.333 240.25 67.167 239.25 67C239.417 66.333 239.583 65.667 239.75 65C240.083 63.667 241.083 61.833 242.75 59.5C244.417 57.167 245.417 55 245.75 53C246.083 51 247.417 49.667 249.75 49C252.083 48.333 253.583 47.333 254.25 46C254.583 45.333 254.917 44.667 255.25 44C253.917 44 252.583 44 251.25 44C249.917 44 248.583 44 247.25 44C247.583 39.833 247.917 35.667 248.25 31.5C248.917 23.167 248.917 16.833 248.25 12.5C247.583 8.1667 245.917 5 243.25 3C240.583 1 237.75 0 234.75 0C231.75 0 227.417 2.8333 221.75 8.5ZM236.25 9.5C238.25 9.8333 239.583 10.5 240.25 11.5C240.917 12.5 240.75 18.667 239.75 30C238.75 41.333 233.75 48.333 224.75 51C215.75 53.667 208.417 56.833 202.75 60.5C197.083 64.167 194.25 66.333 194.25 67C194.25 67.333 194.25 67.667 194.25 68C194.75 68 195.25 68 195.75 68C196.75 68 199.75 66.5 204.75 63.5C209.75 60.5 216.25 58 224.25 56C228.25 55 232.25 54 236.25 53C235.083 55.5 233.917 58 232.75 60.5C230.417 65.5 224.75 68.167 215.75 68.5C211.25 68.667 206.75 68.833 202.25 69C202.417 69.5 202.583 70 202.75 70.5C203.083 71.5 206.417 71.833 212.75 71.5C219.083 71.167 222.583 71.333 223.25 72C223.583 72.333 223.917 72.667 224.25 73C223.583 73.667 222.917 74.333 222.25 75C220.917 76.333 219.417 77.5 217.75 78.5C216.083 79.5 214.083 79.833 211.75 79.5C210.583 79.333 209.417 79.167 208.25 79C208.75 79.5 209.25 80 209.75 80.5C210.25 81 210.75 81.5 211.25 82C210.417 82.333 209.583 82.667 208.75 83C207.083 83.667 203.417 84.5 197.75 85.5C192.083 86.5 186.25 86.833 180.25 86.5C174.25 86.167 169.583 85.333 166.25 84C164.583 83.333 162.917 82.667 161.25 82C161.75 81.333 162.25 80.667 162.75 80C163.75 78.667 165.75 78 168.75 78C171.75 78 173.917 77.167 175.25 75.5C175.917 74.667 176.583 73.833 177.25 73C178.583 74.167 179.917 75.333 181.25 76.5C183.917 78.833 186.417 80 188.75 80C189.917 80 191.083 80 192.25 80C192.083 79.167 191.917 78.333 191.75 77.5C191.417 75.833 190.25 74.833 188.25 74.5C186.25 74.167 184.75 73.333 183.75 72C182.75 70.667 182.25 69.333 182.25 68C182.25 66.667 183.583 65 186.25 63C188.917 61 190.083 59 189.75 57C189.417 55 186.417 54.333 180.75 55C175.083 55.667 172.25 56.833 172.25 58.5C172.25 60.167 173.083 62 174.75 64C176.417 66 176.417 67.833 174.75 69.5C173.083 71.167 170.917 72.5 168.25 73.5C165.583 74.5 163.583 76 162.25 78C160.917 80 159.417 80.667 157.75 80C156.083 79.333 155.083 78.5 154.75 77.5C154.583 77 154.417 76.5 154.25 76C155.75 75.667 157.25 75.333 158.75 75C161.75 74.333 163.25 73.667 163.25 73C163.25 72.667 163.25 72.333 163.25 72C161.583 72.667 159.917 73.333 158.25 74C154.917 75.333 152.583 75.667 151.25 75C149.917 74.333 149.083 73 148.75 71C148.417 69 149.75 67.5 152.75 66.5C154.25 66 155.75 65.5 157.25 65C155.583 65.167 153.917 65.333 152.25 65.5C148.917 65.833 147.083 65.667 146.75 65C146.417 64.333 146.417 61.167 146.75 55.5C147.083 49.833 145.583 43.167 142.25 35.5C138.917 27.833 137.583 21.667 138.25 17C138.583 14.667 138.917 12.333 139.25 10C140.25 10.333 141.25 10.667 142.25 11C144.25 11.667 146.917 14.333 150.25 19C153.583 23.667 156.75 26.333 159.75 27C162.75 27.667 165.25 27.5 167.25 26.5C169.25 25.5 177.583 25.333 192.25 26C206.917 26.667 217.417 24 223.75 18C230.083 12 234.25 9.1667 236.25 9.5ZM202.75 47C201.75 49 202.083 50.667 203.75 52C205.417 53.333 206.917 53.333 208.25 52C209.583 50.667 210.25 49.167 210.25 47.5C210.25 45.833 209.25 44.833 207.25 44.5C205.25 44.167 203.75 45 202.75 47ZM159.75 48C159.417 49.333 160.083 50.667 161.75 52C162.583 52.667 163.417 53.333 164.25 54C164.583 52.833 164.917 51.667 165.25 50.5C165.583 49.333 165.917 48.167 166.25 47C165.25 46.833 164.25 46.667 163.25 46.5C161.25 46.167 160.083 46.667 159.75 48ZM173.25 58C174.583 58.167 175.917 58.333 177.25 58.5C179.917 58.833 181.417 59.333 181.75 60C181.917 60.333 182.083 60.667 182.25 61C181.583 61.333 180.917 61.667 180.25 62C178.917 62.667 177.417 62.167 175.75 60.5C174.917 59.667 174.083 58.833 173.25 58ZM236.25 78C238.917 78.667 242.083 80.833 245.75 84.5C249.417 88.167 252.75 93.5 255.75 100.5C258.75 107.5 261.417 119.167 263.75 135.5C266.083 151.833 266.583 164.167 265.25 172.5C263.917 180.833 263.75 185.5 264.75 186.5C265.75 187.5 266.75 187.833 267.75 187.5C268.75 187.167 269.917 183.167 271.25 175.5C272.583 167.833 276.25 164.333 282.25 165C288.25 165.667 292.75 167.333 295.75 170C298.75 172.667 300.917 175.667 302.25 179C303.583 182.333 304.25 187 304.25 193C304.25 199 302.917 204.667 300.25 210C297.583 215.333 294.75 220.167 291.75 224.5C288.75 228.833 284.75 233.333 279.75 238C274.75 242.667 267.75 247 258.75 251C249.75 255 241.917 257.167 235.25 257.5C228.583 257.833 223.583 258.5 220.25 259.5C216.917 260.5 209.583 260.667 198.25 260C186.917 259.333 171.417 259.667 151.75 261C132.083 262.333 121.25 262.667 119.25 262C117.25 261.333 98.917 260.667 64.25 260C29.583 259.333 11.4167 258.5 9.75001 257.5C8.08331 256.5 7.91671 254.667 9.25001 252C10.5833 249.333 13.75 247 18.75 245C23.75 243 35.75 242.5 54.75 243.5C73.75 244.5 84.25 244.667 86.25 244C88.25 243.333 97.917 243.167 115.25 243.5C132.583 243.833 141.417 243.667 141.75 243C142.083 242.333 146.25 242 154.25 242C162.25 242 172.583 239.333 185.25 234C197.917 228.667 204.417 225.667 204.75 225C204.917 224.667 205.083 224.333 205.25 224C204.75 224 204.25 224 203.75 224C202.75 224 196.417 225.833 184.75 229.5C173.083 233.167 163.083 234.833 154.75 234.5C146.417 234.167 142.25 232.167 142.25 228.5C142.25 224.833 141.583 220.833 140.25 216.5C138.917 212.167 138.25 207.5 138.25 202.5C138.25 197.5 139.083 189 140.75 177C142.417 165 145.25 154 149.25 144C153.25 134 157.75 125.667 162.75 119C167.75 112.333 173.25 106.667 179.25 102C185.25 97.333 189.25 94.667 191.25 94C193.25 93.333 197.917 92.5 205.25 91.5C212.583 90.5 217.083 89.333 218.75 88C220.417 86.667 223.083 86.5 226.75 87.5C230.417 88.5 234.083 88.833 237.75 88.5C239.583 88.333 241.417 88.167 243.25 88C243.083 87.5 242.917 87 242.75 86.5C242.417 85.5 239.583 84.833 234.25 84.5C231.583 84.333 228.917 84.167 226.25 84C227.25 82.833 228.25 81.667 229.25 80.5C231.25 78.167 233.583 77.333 236.25 78ZM206.25 223C205.917 223.333 205.583 223.667 205.25 224C205.75 224 206.25 224 206.75 224C207.75 224 208.417 223.667 208.75 223C208.917 222.667 209.083 222.333 209.25 222C208.917 222 208.583 222 208.25 222C207.583 222 206.917 222.333 206.25 223Z" fill="currentColor"/>
</svg>
