<svg width="284" height="557" viewBox="0 0 284 557" fill="none"
    xmlns="http://www.w3.org/2000/svg">
    <path d="M35.5 4.5C31.17 7.5 28.17 11.5 26.5 16.5C24.83 21.5 20.83 24.333 14.5 25C8.17 25.667 4.17 26.833 2.5 28.5C0.83 30.167 0 32 0 34C0 36 0.5 37.833 1.5 39.5C2.5 41.167 6.33 43.333 13 46C19.67 48.667 23.33 53.167 24 59.5C24.67 65.833 26.17 70.5 28.5 73.5C30.83 76.5 33.17 77.833 35.5 77.5C37.83 77.167 40.67 74.167 44 68.5C47.33 62.833 50.83 60 54.5 60C58.17 60 62.33 59.333 67 58C71.67 56.667 74.83 55.5 76.5 54.5C78.17 53.5 79.5 52 80.5 50C81.5 48 82 45.5 82 42.5C82 39.5 81.5 37.5 80.5 36.5C79.5 35.5 74.67 33 66 29C57.33 25 53.5 21.5 54.5 18.5C55.5 15.5 55.83 12.5 55.5 9.5C55.17 6.5 54 4.167 52 2.5C50 0.833 47.83 0 45.5 0C43.17 0 39.83 1.5 35.5 4.5ZM45 10C45.33 10 45.67 10 46 10C46 10.5 46 11 46 11.5C46 12.5 45.5 15 44.5 19C43.5 23 43.5 26 44.5 28C45.5 30 50.17 33.333 58.5 38C62.67 40.333 66.83 42.667 71 45C67.67 45.833 64.33 46.667 61 47.5C57.67 48.333 54.33 49.167 51 50C50.67 48.667 50.33 47.333 50 46C49.33 43.333 46.5 39 41.5 33C36.5 27 34.5 22.5 35.5 19.5C36.5 16.5 38.17 14.167 40.5 12.5C42.83 10.833 44.33 10 45 10ZM22.5 32C26.17 32 30 34.5 34 39.5C38 44.5 40.17 48.333 40.5 51C40.83 53.667 40 56.5 38 59.5C37 61 36 62.5 35 64C34.33 60.667 33.67 57.333 33 54C31.67 47.333 30 43 28 41C26 39 23.67 37.667 21 37C18.33 36.333 16.67 35.5 16 34.5C15.67 34 15.33 33.5 15 33C15.33 32.833 15.67 32.667 16 32.5C16.67 32.167 18.83 32 22.5 32ZM49 116.5C47.67 117.5 46 120.833 44 126.5C42 132.167 41.67 140.333 43 151C43.67 156.333 44.33 161.667 45 167C43.5 165 42 163 40.5 161C37.5 157 33.67 154.667 29 154C24.33 153.333 19.83 154.167 15.5 156.5C11.17 158.833 7.83 162.333 5.5 167C3.17 171.667 2.17 177.333 2.5 184C2.83 190.667 3.83 195.667 5.5 199C7.17 202.333 11.33 208.333 18 217C24.67 225.667 30 234.833 34 244.5C38 254.167 41 263 43 271C45 279 46.5 287.5 47.5 296.5C48.5 305.5 49 315.333 49 326C49 336.667 48.5 343.5 47.5 346.5C46.5 349.5 46.17 359 46.5 375C46.83 391 46.5 401 45.5 405C44.5 409 44 414 44 420C44 426 42.5 432.5 39.5 439.5C36.5 446.5 33.67 457.67 31 473C28.33 488.33 26.17 498 24.5 502C22.83 506 22.17 510.5 22.5 515.5C22.83 520.5 25.33 526.5 30 533.5C32.33 537 34.67 540.5 37 544C34.5 544.17 32 544.33 29.5 544.5C24.5 544.83 21.67 545.5 21 546.5C20.67 547 20.33 547.5 20 548C35.33 548.67 50.67 549.33 66 550C96.67 551.33 117.83 553 129.5 555C141.17 557 156 557.33 174 556C192 554.67 201.5 552.33 202.5 549C203 547.33 203.5 545.67 204 544C200.17 543.83 196.33 543.67 192.5 543.5C188.67 543.33 184.83 543.17 181 543C182.33 539.67 183.67 536.33 185 533C187.67 526.33 189 516.67 189 504C189 491.33 187.33 478.5 184 465.5C180.67 452.5 178 437.83 176 421.5C174 405.167 174.5 394.667 177.5 390C180.5 385.333 186.17 381.167 194.5 377.5C202.83 373.833 210 369.333 216 364C222 358.667 227.5 350.667 232.5 340C237.5 329.333 240.5 318.5 241.5 307.5C242.5 296.5 244.83 288.5 248.5 283.5C252.17 278.5 257.17 274.333 263.5 271C269.83 267.667 273.83 265.167 275.5 263.5C277.17 261.833 279 258.667 281 254C283 249.333 284 245 284 241C284 237 283.5 234.333 282.5 233C281.5 231.667 278.33 231.167 273 231.5C267.67 231.833 259.67 235 249 241C238.33 247 232 251 230 253C228 255 225.33 259 222 265C218.67 271 216.33 276.667 215 282C213.67 287.333 212.83 293.333 212.5 300C212.17 306.667 210.83 313 208.5 319C206.17 325 202.67 330.667 198 336C193.33 341.333 187 345.167 179 347.5C175 348.667 171 349.833 167 351C167 348.667 167 346.333 167 344C167 339.333 168.33 332 171 322C173.67 312 175.33 303.833 176 297.5C176.67 291.167 178.17 284.333 180.5 277C182.83 269.667 185.5 263.5 188.5 258.5C191.5 253.5 193.5 248.667 194.5 244C195.5 239.333 198.5 230.167 203.5 216.5C208.5 202.833 211.17 194.333 211.5 191C211.83 187.667 213 184 215 180C217 176 218.17 172.167 218.5 168.5C218.83 164.833 218.17 160 216.5 154C214.83 148 212.67 144.167 210 142.5C207.33 140.833 203.67 140.167 199 140.5C194.33 140.833 188.83 142.5 182.5 145.5C176.17 148.5 171.17 151.833 167.5 155.5C165.67 157.333 163.83 159.167 162 161C162.33 156.667 162.67 152.333 163 148C163.67 139.333 163.33 133 162 129C160.67 125 158.5 122 155.5 120C152.5 118 148.5 117.333 143.5 118C138.5 118.667 134.67 120.5 132 123.5C129.33 126.5 127.33 129.833 126 133.5C124.67 137.167 123 139.167 121 139.5C119 139.833 115 139.167 109 137.5C103 135.833 96.17 135.167 88.5 135.5C80.83 135.833 76 134.333 74 131C72 127.667 69 124.167 65 120.5C61 116.833 57.67 115 55 115C52.33 115 50.33 115.5 49 116.5ZM55 125C56.33 126 57.67 127 59 128C61.67 130 64.83 133.667 68.5 139C72.17 144.333 76.67 146.667 82 146C87.33 145.333 95 146.167 105 148.5C115 150.833 121.33 151.833 124 151.5C126.67 151.167 128.5 150.5 129.5 149.5C130.5 148.5 131.67 146 133 142C134.33 138 136 134.833 138 132.5C140 130.167 142.17 128.833 144.5 128.5C146.83 128.167 148.5 128.333 149.5 129C150.5 129.667 151.33 133 152 139C152.67 145 152.5 150.5 151.5 155.5C150.5 160.5 146.5 165.5 139.5 170.5C132.5 175.5 127.83 177.833 125.5 177.5C124.33 177.333 123.17 177.167 122 177C122.17 177.667 122.33 178.333 122.5 179C122.83 180.333 124.33 181 127 181C129.67 181 133.83 179.333 139.5 176C142.33 174.333 145.17 172.667 148 171C147.67 173.5 147.33 176 147 178.5C146.33 183.5 144.5 186.5 141.5 187.5C138.5 188.5 133.5 189.167 126.5 189.5C123 189.667 119.5 189.833 116 190C116.17 190.333 116.33 190.667 116.5 191C116.83 191.667 121.67 191.833 131 191.5C135.67 191.333 140.33 191.167 145 191C143.17 194 141.33 197 139.5 200C137.67 203 135.83 206 134 209C132 207.167 130 205.333 128 203.5C124 199.833 121.17 197.833 119.5 197.5C118.67 197.333 117.83 197.167 117 197C119.33 199.167 121.67 201.333 124 203.5C128.67 207.833 130.5 210.833 129.5 212.5C128.5 214.167 124.67 216.5 118 219.5C111.33 222.5 105.33 224 100 224C94.67 224 90.17 223.333 86.5 222C82.83 220.667 79.17 218.167 75.5 214.5C71.83 210.833 69 207.5 67 204.5C65 201.5 64 199.333 64 198C64 196.667 65.5 194.333 68.5 191C70 189.333 71.5 187.667 73 186C72.17 186 71.33 186 70.5 186C68.83 186 66.83 187.333 64.5 190C63.33 191.333 62.17 192.667 61 194C60.67 192.333 60.33 190.667 60 189C59.33 185.667 59.67 182.833 61 180.5C61.67 179.333 62.33 178.167 63 177C62.17 177.167 61.33 177.333 60.5 177.5C58.83 177.833 57.67 176.667 57 174C56.67 172.667 56.33 171.333 56 170C58.33 170.5 60.67 171 63 171.5C67.67 172.5 70.17 172.333 70.5 171C70.67 170.333 70.83 169.667 71 169C68.33 168.667 65.67 168.333 63 168C57.67 167.333 55 165.5 55 162.5C55 159.5 54.17 155.667 52.5 151C50.83 146.333 50 142.333 50 139C50 135.667 50.83 132.5 52.5 129.5C53.33 128 54.17 126.5 55 125ZM200.5 153.5C203.5 153.833 205.33 155.167 206 157.5C206.67 159.833 206.83 163.167 206.5 167.5C206.33 169.667 206.17 171.833 206 174C205 173.5 204 173 203 172.5C201 171.5 199.83 170 199.5 168C199.17 166 197.83 164.833 195.5 164.5C193.17 164.167 191.33 165.167 190 167.5C188.67 169.833 188 171.833 188 173.5C188 174.333 188 175.167 188 176C187.5 176 187 176 186.5 176C186 176 185.5 176 185 176C185.33 174.167 185.67 172.333 186 170.5C186.67 166.833 186.83 164.667 186.5 164C186.17 163.333 184.83 162.833 182.5 162.5C181.33 162.333 180.17 162.167 179 162C181.83 160.5 184.67 159 187.5 157.5C193.17 154.5 197.5 153.167 200.5 153.5ZM74.5 162C73.5 162.667 73.17 164 73.5 166C73.67 167 73.83 168 74 169C74.83 168.667 75.67 168.333 76.5 168C78.17 167.333 79 166.167 79 164.5C79 162.833 78.5 161.833 77.5 161.5C76.5 161.167 75.5 161.333 74.5 162ZM29 163C31.67 163.667 34.33 166.5 37 171.5C39.67 176.5 42.33 180.5 45 183.5C47.67 186.5 48 189.667 46 193C44 196.333 43 199 43 201C43 203 43.5 204.167 44.5 204.5C45.5 204.833 46.83 203 48.5 199C49.33 197 50.17 195 51 193C51.67 193.833 52.33 194.667 53 195.5C54.33 197.167 55.33 199.167 56 201.5C56.67 203.833 56.17 207.333 54.5 212C53.67 214.333 52.83 216.667 52 219C52.67 219.167 53.33 219.333 54 219.5C55.33 219.833 56.67 218.167 58 214.5C58.67 212.667 59.33 210.833 60 209C62.83 214.333 65.67 219.667 68.5 225C71.33 230.333 74.17 235.667 77 241C77.5 240.667 78 240.333 78.5 240C79.5 239.333 79.67 237.667 79 235C78.67 233.667 78.33 232.333 78 231C80.5 232 83 233 85.5 234C90.5 236 95.83 237 101.5 237C107.17 237 112.67 236.167 118 234.5C123.33 232.833 128.17 230.5 132.5 227.5C134.67 226 136.83 224.5 139 223C138.5 225.667 138 228.333 137.5 231C136.5 236.333 136.67 240 138 242C139.33 244 140.67 245 142 245C143.33 245 144.83 242.833 146.5 238.5C148.17 234.167 149.33 229.167 150 223.5C150.67 217.833 152.83 209.667 156.5 199C160.17 188.333 163.67 180.5 167 175.5C170.33 170.5 173 167.333 175 166C176 165.333 177 164.667 178 164C178 164.5 178 165 178 165.5C178 166.5 178.67 167.333 180 168C181.33 168.667 181.83 169.667 181.5 171C181.17 172.333 180.5 173 179.5 173C179 173 178.5 173 178 173C178.17 172.167 178.33 171.333 178.5 170.5C178.67 169.667 178.83 168.833 179 168C178.67 168 178.33 168 178 168C177.67 168 177.33 168 177 168C177 169.167 177 170.333 177 171.5C177 173.833 176.17 175.167 174.5 175.5C172.83 175.833 171.33 176.667 170 178C168.67 179.333 168 180.5 168 181.5C168 182.5 169.5 184.5 172.5 187.5C175.5 190.5 179 192.167 183 192.5C187 192.833 189.67 192.167 191 190.5C192.33 188.833 192.83 186.5 192.5 183.5C192.17 180.5 192.33 178.833 193 178.5C193.33 178.333 193.67 178.167 194 178C194.17 179.333 194.33 180.667 194.5 182C194.67 183.333 194.83 184.667 195 186C196 185.667 197 185.333 198 185C199 184.667 200 184.333 201 184C200.83 185.5 200.67 187 200.5 188.5C200.17 191.5 198.5 196.833 195.5 204.5C192.5 212.167 189.67 221.167 187 231.5C184.33 241.833 181.17 250.333 177.5 257C173.83 263.667 169.33 278.333 164 301C158.67 323.667 156.17 341.333 156.5 354C156.83 366.667 157.67 375.167 159 379.5C160.33 383.833 161.17 389.833 161.5 397.5C161.83 405.167 162.83 412 164.5 418C166.17 424 167.33 431 168 439C168.67 447 170.67 457.17 174 469.5C177.33 481.83 179 493.33 179 504C179 514.67 178.5 521.67 177.5 525C176.5 528.33 174.83 531.83 172.5 535.5C170.17 539.17 165.67 540.67 159 540C152.33 539.33 148.33 538.17 147 536.5C145.67 534.83 143.5 529.17 140.5 519.5C137.5 509.83 135 496.17 133 478.5C131 460.83 128.83 449 126.5 443C124.17 437 122.17 433.167 120.5 431.5C118.83 429.833 117 428.833 115 428.5C113 428.167 111.5 427.5 110.5 426.5C109.5 425.5 108 425.167 106 425.5C104 425.833 102 427 100 429C98 431 95.5 434.5 92.5 439.5C89.5 444.5 84.5 457.83 77.5 479.5C70.5 501.17 65 515.67 61 523C57 530.33 54 534.67 52 536C50 537.33 48.17 537.83 46.5 537.5C44.83 537.17 42.17 534.33 38.5 529C34.83 523.67 32.83 519.17 32.5 515.5C32.17 511.83 33 507.33 35 502C37 496.67 39.17 487.33 41.5 474C43.83 460.67 46.67 449.83 50 441.5C53.33 433.167 55 426.333 55 421C55 415.667 55.5 411 56.5 407C57.5 403 57.83 393.5 57.5 378.5C57.17 363.5 57.67 353.333 59 348C60.33 342.667 61 336.833 61 330.5C61 324.167 60.5 315.167 59.5 303.5C58.5 291.833 56.67 280.833 54 270.5C51.33 260.167 47.83 250.167 43.5 240.5C39.17 230.833 34.67 222.667 30 216C25.33 209.333 21.83 205 19.5 203C17.17 201 15 197.833 13 193.5C11 189.167 10.33 184.333 11 179C11.67 173.667 12.67 170.167 14 168.5C15.33 166.833 17.5 165.333 20.5 164C23.5 162.667 26.33 162.333 29 163ZM113 166C112.67 167 112.33 168 112 169C113 169.333 114 169.667 115 170C116 170.333 117 170.667 118 171C118.33 170 118.67 169 119 168C119.33 167 119.67 166 120 165C119 164.667 118 164.333 117 164C116 163.667 115 163.333 114 163C113.67 164 113.33 165 113 166ZM191 169C191.67 169.167 192.33 169.333 193 169.5C193.67 169.667 194.33 169.833 195 170C194.67 170.667 194.33 171.333 194 172C193.33 173.333 192.5 174 191.5 174C191 174 190.5 174 190 174C190.17 173.167 190.33 172.333 190.5 171.5C190.67 170.667 190.83 169.833 191 169ZM27 172.5C27 173.333 27 174.167 27 175C25.83 175 24.67 175 23.5 175C22.33 175 21.17 175 20 175C20.17 175.833 20.33 176.667 20.5 177.5C20.67 178.333 20.83 179.167 21 180C20.33 180 19.67 180 19 180C17.67 180 16.5 180.5 15.5 181.5C14.5 182.5 14.17 184.167 14.5 186.5C14.83 188.833 15.83 190.667 17.5 192C19.17 193.333 20.83 193.667 22.5 193C24.17 192.333 25 190.833 25 188.5C25 187.333 25 186.167 25 185C25.5 185 26 185 26.5 185C27.5 185 28.33 184 29 182C29.67 180 30.5 179 31.5 179C32.5 179 33.33 178.5 34 177.5C34.67 176.5 34.67 175.167 34 173.5C33.33 171.833 32 170.833 30 170.5C29 170.333 28 170.167 27 170C27 170.833 27 171.667 27 172.5ZM91.5 171C89 171.333 86.5 171.667 84 172C84.67 173.667 85.33 175.333 86 177C87.33 180.333 86.33 183.5 83 186.5C79.67 189.5 77.83 192.167 77.5 194.5C77.17 196.833 77.5 198.167 78.5 198.5C79.5 198.833 80.5 198 81.5 196C82.5 194 84.17 192.167 86.5 190.5C88.83 188.833 91.5 190 94.5 194C97.5 198 99.5 199.833 100.5 199.5C101.5 199.167 102.17 198 102.5 196C102.67 195 102.83 194 103 193C102.5 193 102 193 101.5 193C100.5 193 98.83 191.667 96.5 189C94.17 186.333 94.83 183.167 98.5 179.5C102.17 175.833 104 173.333 104 172C104 171.333 104 170.667 104 170C103.17 170 102.33 170 101.5 170C99.83 170 96.5 170.333 91.5 171ZM86 173C87.33 173.167 88.67 173.333 90 173.5C92.67 173.833 94 174.333 94 175C94 175.667 93.67 176.5 93 177.5C92.33 178.5 91.5 179 90.5 179C89.5 179 88.5 178 87.5 176C87 175 86.5 174 86 173ZM29 174C29.5 174 30 174 30.5 174C31 174 31.5 174 32 174C32 174.333 32 174.667 32 175C32 175.333 32 175.667 32 176C31.5 175.667 31 175.333 30.5 175C30 174.667 29.5 174.333 29 174ZM200.5 176C201 176 201.5 176 202 176C201.83 176.5 201.67 177 201.5 177.5C201.17 178.5 200.17 179.5 198.5 180.5C197.67 181 196.83 181.5 196 182C196.5 181 197 180 197.5 179C198.5 177 199.5 176 200.5 176ZM23 178C23.67 178.167 24.33 178.333 25 178.5C25.67 178.667 26.33 178.833 27 179C26.83 179.5 26.67 180 26.5 180.5C26.33 181 26.17 181.5 26 182C25.5 181.333 25 180.667 24.5 180C24 179.333 23.5 178.667 23 178ZM181 182C184.33 182 186.33 182.5 187 183.5C187.67 184.5 187.5 185.5 186.5 186.5C185.5 187.5 183.83 188 181.5 188C179.17 188 177.33 187.5 176 186.5C174.67 185.5 174.33 184.5 175 183.5C175.67 182.5 177.67 182 181 182ZM31.5 187.5C29.17 189.833 28.17 192.5 28.5 195.5C28.83 198.5 29.83 200.833 31.5 202.5C33.17 204.167 34.83 204.667 36.5 204C38.17 203.333 39.67 201.833 41 199.5C42.33 197.167 42.83 194.5 42.5 191.5C42.17 188.5 40.83 186.5 38.5 185.5C36.17 184.5 33.83 185.167 31.5 187.5ZM20 185C20.33 185 20.67 185 21 185C21 185.667 21 186.333 21 187C21 187.667 21 188.333 21 189C20.33 188.667 19.67 188.333 19 188C18.33 187.667 17.67 187.333 17 187C17.33 186.667 17.67 186.333 18 186C18.67 185.333 19.33 185 20 185ZM31 189C32.33 189.333 33.67 189.667 35 190C37.67 190.667 39 191.667 39 193C39 194.333 38.33 195.833 37 197.5C35.67 199.167 34.33 199.5 33 198.5C31.67 197.5 31 195.667 31 193C31 191.667 31 190.333 31 189ZM272.5 242C273 242 273.5 242 274 242C274 242.5 274 243 274 243.5C274 244.5 273.5 246.167 272.5 248.5C271.5 250.833 270.17 252.833 268.5 254.5C266.83 256.167 263.5 258.167 258.5 260.5C253.5 262.833 248.67 266.667 244 272C239.33 277.333 236.33 281.5 235 284.5C233.67 287.5 232.67 293.667 232 303C231.33 312.333 228.5 322.333 223.5 333C218.5 343.667 213.5 351.167 208.5 355.5C203.5 359.833 197 363.833 189 367.5C181 371.167 175.83 374.333 173.5 377C172.33 378.333 171.17 379.667 170 381C169.5 376.5 169 372 168.5 367.5C167.5 358.5 167.67 353.667 169 353C170.33 352.333 174.33 352 181 352C187.67 352 194 349.667 200 345C206 340.333 211 334.167 215 326.5C219 318.833 221.5 310.5 222.5 301.5C223.5 292.5 225 285.167 227 279.5C229 273.833 232 268.667 236 264C240 259.333 246.83 254.5 256.5 249.5C266.17 244.5 271.5 242 272.5 242ZM98 245.5C94.67 247.167 92.17 249.667 90.5 253C88.83 256.333 87 273.5 85 304.5C83 335.5 83 353.333 85 358C87 362.667 89.33 366.5 92 369.5C94.67 372.5 98.67 374.167 104 374.5C109.33 374.833 114 373.167 118 369.5C122 365.833 125.33 360.667 128 354C130.67 347.333 133.5 335.333 136.5 318C139.5 300.667 141 289.167 141 283.5C141 277.833 139.67 271.833 137 265.5C134.33 259.167 132 254.833 130 252.5C128 250.167 125.5 248.167 122.5 246.5C119.5 244.833 115.5 243.833 110.5 243.5C105.5 243.167 101.33 243.833 98 245.5ZM110 254.5C114 254.833 117.33 256 120 258C122.67 260 125.17 263.667 127.5 269C129.83 274.333 131 279.167 131 283.5C131 287.833 129 300.167 125 320.5C121 340.833 117.67 353 115 357C112.33 361 109.67 363.333 107 364C104.33 364.667 101.83 364.167 99.5 362.5C97.17 360.833 95 357.5 93 352.5C91 347.5 90 331.167 90 303.5C90 289.667 90 275.833 90 262C90.83 262.333 91.67 262.667 92.5 263C94.17 263.667 95.67 262.833 97 260.5C98.33 258.167 99.83 256.5 101.5 255.5C103.17 254.5 106 254.167 110 254.5ZM114 432C116 432.667 117.67 434.667 119 438C120.33 441.33 121.67 446.67 123 454C124.33 461.33 125.33 472.5 126 487.5C126.67 502.5 127.83 513.33 129.5 520C131.17 526.67 133.5 532.67 136.5 538C138 540.67 139.5 543.33 141 546C137.33 545.33 133.67 544.67 130 544C122.67 542.67 109.5 542 90.5 542C81 542 71.5 542 62 542C64.33 537.83 66.67 533.67 69 529.5C73.67 521.17 79.67 505.83 87 483.5C94.33 461.17 100.17 446.83 104.5 440.5C108.83 434.167 112 431.333 114 432Z" fill="currentColor"/>
</svg>
