<svg width="438" height="344" viewBox="0 0 438 344" fill="none"
    xmlns="http://www.w3.org/2000/svg">
    <ellipse cx="138.435" cy="176.138" rx="99.8549" ry="104.028" fill="#A4B7D2"/>
    <ellipse cx="238.29" cy="208.056" rx="99.8549" ry="104.028" fill="#A4B7D2"/>
    <ellipse cx="238.29" cy="104.028" rx="99.8549" ry="104.028" fill="#A4B7D2"/>
    <ellipse cx="338.145" cy="176.138" rx="99.8549" ry="104.028" fill="#A4B7D2"/>
    <rect width="70.5797" height="16.2951" rx="8.14757" transform="matrix(0.769294 -0.638894 0.607698 0.794168 26.0984 136.117)" fill="#A4B7D2"/>
    <rect width="70.5797" height="16.2951" rx="8.14757" transform="matrix(0.769294 -0.638894 0.607698 0.794168 130.492 60.4603)" fill="#A4B7D2"/>
    <rect width="70.5797" height="16.2951" rx="8.14757" transform="matrix(0.769294 -0.638894 0.607698 0.794168 348.358 279.156)" fill="#A4B7D2"/>
    <g filter="url(#filter0_f_1_21)">
        <line y1="-0.25" x2="52.5766" y2="-0.25" transform="matrix(-0.776957 0.629554 -0.598244 -0.801314 334.741 70.9281)" stroke="#839BBE" stroke-width="0.5"/>
    </g>
    <ellipse cx="99.8549" cy="208.055" rx="99.8549" ry="104.028" fill="white"/>
    <ellipse cx="199.71" cy="239.972" rx="99.8549" ry="104.028" fill="white"/>
    <ellipse cx="199.71" cy="135.944" rx="99.8549" ry="104.028" fill="white"/>
    <ellipse cx="299.565" cy="208.055" rx="99.8549" ry="104.028" fill="white"/>
    <defs>
        <filter id="filter0_f_1_21" x="289.891" y="66.9281" width="49.1489" height="41.5005" filterUnits="userSpaceOnUse" color-interpolation-filters="sRGB">
            <feFlood flood-opacity="0" result="BackgroundImageFix"/>
            <feBlend mode="normal" in="SourceGraphic" in2="BackgroundImageFix" result="shape"/>
            <feGaussianBlur stdDeviation="2" result="effect1_foregroundBlur_1_21"/>
        </filter>
    </defs>
</svg>
