<svg width="90" height="126" viewBox="0 0 90 126" fill="none"
    xmlns="http://www.w3.org/2000/svg">
    <path d="M0.669922 25L8.73892 115.493L44.9449 125.543L81.2519 115.48L89.3299 25H0.669922ZM69.8799 75.488L67.5299 97.38L67.5389 99.255L44.9999 105.55V105.551L44.9819 105.566L22.2629 99.341L20.7259 82H31.8669L32.6569 90.766L45.0039 94.061L44.9999 94.076V94.044L57.3939 90.549L58.7019 76H32.7949L32.5729 73.645L32.0669 67.998L31.8019 65H59.6879L60.7019 54H18.2289L18.0059 51.411L17.4999 45.381L17.2349 42H72.8319L72.5649 45.334L69.8799 75.488ZM69.9999 13.374L62.8509 5H69.9999V0H53.9999V4.363L62.3899 12H53.9999V17H69.9999V13.374ZM50.9999 13.374L44.1929 5H50.9999V0H35.9999V4.363L43.7329 12H35.9999V17H50.9999V13.374ZM32.9999 12H24.9999V5H32.9999V0H18.9999V17H32.9999V12Z" fill="#1572B6"/>
</svg>
