<svg width="384" height="336" viewBox="0 0 384 336" fill="none"
    xmlns="http://www.w3.org/2000/svg">
    <path d="M293.146 29.4639C291.41 29.3499 290.962 33.3739 293.07 33.6219C294.952 33.7419 295.052 29.3999 293.146 29.4639Z" fill="currentColor"/>
    <path d="M295.744 27.4779C294.366 26.8939 291.636 24.8319 290.826 26.5079C290.784 26.6327 290.768 26.7644 290.777 26.8956C290.786 27.0268 290.821 27.1549 290.88 27.2725C290.939 27.3901 291.021 27.4949 291.12 27.5809C291.22 27.667 291.335 27.7326 291.46 27.7739C292.595 28.1219 293.687 28.5983 294.714 29.1939C294.942 29.3305 295.214 29.3711 295.472 29.3068C295.729 29.2425 295.95 29.0785 296.087 28.8509C296.224 28.6234 296.264 28.3509 296.2 28.0934C296.136 27.8359 295.972 27.6145 295.744 27.4779Z" fill="currentColor"/>
    <path d="M376.046 293.818C374.384 293.06 372.61 292.646 371.918 291.418C373.53 289.576 373.77 289.456 373.686 288.874C362.886 281.092 354.726 266.552 350.312 255.388C340.498 232.348 340.258 208.45 340.898 183.944C341.098 173.594 340.584 161.712 335.336 151.85C336.054 151.392 336.643 150.759 337.049 150.01C337.455 149.261 337.664 148.422 337.656 147.57C339.561 128.617 339.272 109.508 336.794 90.622C335.046 75.792 330.346 58.654 315.824 51.372L315.348 46.28C316.077 45.7104 316.637 44.9534 316.968 44.09C317.777 42.7264 318.347 41.2341 318.652 39.678C324.078 40.366 324.546 32.678 322.986 27.544C327.746 26.158 328.21 17.674 321.986 14.678C322.862 13.006 322.486 10.79 320.834 8.31198C313.862 -0.19802 300.102 -0.808019 290.332 3.45598C287.362 4.52598 284.546 8.29798 286.932 11.152C285.636 11.4661 284.434 12.0831 283.423 12.9523C282.413 13.8215 281.622 14.9181 281.118 16.152C280.917 16.7893 280.908 17.4718 281.092 18.1142C281.277 18.7565 281.647 19.3302 282.155 19.7637C282.664 20.1971 283.289 20.4709 283.953 20.551C284.616 20.6311 285.289 20.5139 285.886 20.214C285.637 20.7182 285.414 21.2349 285.218 21.762C284.492 23.388 285.144 25.4 287.408 25.236C287.5 25.338 287.23 30.054 287.15 30.836L285.01 36.836C284.896 37.0528 284.837 37.2943 284.839 37.5392C284.84 37.7841 284.901 38.025 285.017 38.2406C285.133 38.4563 285.301 38.6401 285.505 38.776C285.708 38.9119 285.942 38.9957 286.186 39.02L287.84 39.352C288.902 44.482 293.328 49.866 298.942 49.89C298.835 51.3788 298.603 52.856 298.248 54.306C285.224 60.78 277.182 74.356 271.848 87.818C264.232 85.356 263.942 85.218 262.248 84.844C268.062 78.544 267.836 79.304 267.836 78.824C267.836 78.176 267.836 77.314 267.19 76.882C266.686 76.416 265.804 76.164 265.462 76.882C265.154 76.882 265.954 76.164 258.862 83.366C256.914 82.6707 254.798 82.6008 252.808 83.166C245.542 77.528 230.836 67.196 230.836 67.196C230.146 66.596 229.272 66.2492 228.358 66.2128C227.444 66.1764 226.546 66.4527 225.81 66.996L211.61 74.888C210.956 44.98 209.728 8.80398 209.716 8.46798C209.7 7.61738 209.479 6.78318 209.071 6.03661C208.663 5.29004 208.081 4.65327 207.373 4.18069C206.666 3.7081 205.855 3.41373 205.009 3.32271C204.163 3.23168 203.308 3.34672 202.516 3.65798L74.734 55.684C73.7843 56.0862 72.9742 56.7595 72.4051 57.6196C71.8359 58.4798 71.5329 59.4886 71.534 60.52L73.444 118.884L3.46999 148.282C2.71329 148.625 2.07369 149.182 1.63039 149.884C1.1871 150.586 0.959569 151.404 0.975989 152.234L3.99999 236.59C4.0924 237.492 4.47725 238.338 5.09582 239.001C5.71438 239.664 6.53272 240.106 7.42599 240.26L5.83799 241.076C5.66518 241.186 5.52494 241.34 5.43175 241.523C5.33857 241.705 5.29585 241.909 5.30799 242.114L5.97199 246.524C6.43999 248.384 7.44799 249.002 8.11999 249.166L86.644 277C87.6736 277.384 88.7798 277.517 89.8711 277.389C90.9624 277.26 92.0075 276.874 92.92 276.262L187.074 217.09C188.183 216.293 188.943 215.1 189.198 213.758L189.382 210.628C189.492 210.501 189.567 210.347 189.599 210.182C189.631 210.018 189.619 209.847 189.565 209.688C189.511 209.529 189.416 209.387 189.29 209.276C189.164 209.165 189.011 209.089 188.846 209.056L105.324 190.638C105.556 189.708 105.514 191.358 105.004 168.484L144.474 148.746V161.322C114.674 166.288 122.522 189.582 151.084 189.452C165.44 189.452 176.684 183.232 176.684 175.29C176.684 169.052 169.368 163.58 158.774 161.754C158.774 161.754 158.774 141.846 158.746 141.608L209.684 116.134C210.465 115.611 211.11 114.908 211.562 114.083C212.015 113.259 212.262 112.338 212.284 111.398L212 96.954C213.461 100.321 216.027 103.088 219.274 104.8C219.047 105.364 219.037 105.993 219.245 106.565C219.454 107.136 219.867 107.611 220.404 107.896C231.65 116.232 243.948 126.828 256.704 131.344C258.304 132.128 261.458 132.382 262.736 133.344L261.68 145.704C261.381 146.697 261.44 147.764 261.847 148.718C262.254 149.672 262.983 150.454 263.906 150.926C264.204 151.114 264.556 151.126 264.28 151.496C249.096 204.204 256.038 276.416 262.514 310.59C262.372 312.02 263.328 315.466 265.54 316.266L265.664 319.066C261.908 317.066 257.15 314.538 252.538 314.772C251.176 318.124 253.648 321.654 257.222 325.134C264.384 331.852 269.714 335.146 273.442 335.146C282.184 334.19 277.842 322.81 277.098 317.146C278.108 316.489 278.955 315.611 279.576 314.579C280.197 313.547 280.576 312.388 280.684 311.188C284.606 287.678 283.976 273.06 293.626 231.168C295.028 224.46 297.119 217.914 299.866 211.636C308.466 245.312 335.56 286.682 363.632 299.624C363.77 299.693 363.923 299.727 364.077 299.724C364.232 299.72 364.383 299.679 364.518 299.604C364.569 299.765 364.675 299.902 364.818 299.992C372.758 304.776 360.552 313.896 362.53 320.75C363.908 323.486 367.372 322.8 369.396 321.12C375.596 316.762 379.27 309.402 382.166 303.594C385.07 298.718 380.024 295 376.046 293.818ZM313.778 50.97C310.682 53.484 303.978 55.868 300.35 54.122C300.494 53.458 300.658 52.596 300.784 51.624C305.212 52.3403 309.751 51.4827 313.612 49.2L313.778 50.97ZM292.96 45C299.226 42.02 295.856 39.486 294.862 41.042C289.364 48.092 288.226 33.766 289.794 25.042C291.796 24.5196 293.66 23.5637 295.252 22.242C294.966 23.738 296.76 24.916 297.97 24.868C297.336 27.214 296.414 30.736 298.128 32.846C298.554 33.1371 299.065 33.2778 299.58 33.246C299.626 34.148 299.792 35.0398 300.074 35.898C300.126 36.1232 300.225 36.335 300.364 36.5199C300.503 36.7047 300.679 36.8585 300.881 36.9715C301.083 37.0844 301.306 37.154 301.536 37.1758C301.766 37.1976 301.999 37.1711 302.218 37.098C304.586 36.008 303.764 32.43 305.304 31.326C306.572 30.876 307.922 32.748 308.04 33.748C308.076 34.7529 307.741 35.7359 307.099 36.5102C306.458 37.2845 305.554 37.7961 304.56 37.948C304.424 37.9709 304.294 38.0218 304.178 38.0975C304.062 38.1733 303.964 38.2722 303.888 38.388C303.414 39.288 304.304 40.32 303.97 41.498C303.438 43.224 305.21 46.448 307.488 45.422C308.84 47.848 310.856 48.66 312.676 46.61C312.826 46.188 313.03 46.394 313.358 46.512C313.432 47.312 313.454 47.026 313.254 47.152C309.604 49.4763 305.224 50.3682 300.956 49.656C300.956 49.132 301.092 48.502 300.642 48.114C300.535 48.0215 300.41 47.9519 300.276 47.9096C300.141 47.8673 299.999 47.8531 299.858 47.868C298.562 47.9817 297.258 47.7803 296.057 47.2809C294.856 46.7815 293.793 45.999 292.96 45ZM263.62 87.292C264.962 87.692 261.598 86.612 271.128 89.692C269.849 93.0931 268.77 96.5656 267.894 100.092C267.27 99.708 266.648 99.292 266.026 98.826C266.888 97.978 268.398 97.08 267.852 95.638C267.486 94.37 263.92 92.214 262.966 91.314C263.363 90.7326 263.628 90.0709 263.741 89.3758C263.854 88.6807 263.813 87.9693 263.62 87.292ZM264.538 100.214C265.451 100.913 266.407 101.555 267.4 102.134C267.2 103.04 267.022 103.948 266.852 104.856C264.632 104.326 262.384 103.916 260.126 103.576C261.68 102.57 263.155 101.446 264.538 100.214ZM259.972 88.896C260.05 88.6838 260.053 88.4512 259.98 88.2371C259.908 88.023 259.763 87.8404 259.572 87.72C260.012 87.476 260.288 86.43 260.902 86.622C263.502 89.516 259.944 92.844 256.716 91.78C255.496 91.546 254.236 91.6356 253.062 92.04C252.892 90.332 254.784 89.112 256.922 89.17C257.958 89 259.388 90.2 259.972 88.896ZM257.254 84.996L254.822 87.466C254.082 87.6129 253.388 87.9349 252.799 88.405C252.209 88.8751 251.74 89.4796 251.432 90.168C248.848 86.432 253.708 83.93 257.254 85V84.996ZM6.36399 237.082C5.33599 236.922 3.34799 152.694 2.96399 152.196C2.95421 151.754 3.07524 151.319 3.31187 150.946C3.54851 150.573 3.89019 150.278 4.29399 150.098L98.826 110.39C99.0911 110.279 99.3757 110.223 99.663 110.225C99.9503 110.226 100.234 110.286 100.498 110.4C100.861 110.57 101.171 110.838 101.391 111.173C101.612 111.509 101.735 111.899 101.748 112.3L103.474 189.528C103.502 189.929 103.405 190.329 103.195 190.672C102.984 191.015 102.672 191.283 102.302 191.44L9.03199 238.076C8.79597 238.21 8.53348 238.291 8.26296 238.312C7.99244 238.334 7.72047 238.296 7.46617 238.201C7.21186 238.106 6.9814 237.957 6.79098 237.764C6.60056 237.57 6.45482 237.338 6.36399 237.082ZM172.118 29.682L182.668 25.282V36.172L172.154 40.654C172.154 28.628 172.172 29.97 172.118 29.672V29.682ZM195.442 32.894L196.242 57.154C196.07 57.098 142.536 81.576 142.346 81.632L141.516 55.878L195.442 32.894ZM184.664 24.442L195.016 20.118L195.37 30.75L184.668 35.312C184.664 35.28 184.676 24.448 184.664 24.432V24.442ZM143.258 109.8L142.42 83.8L196.318 59.264L197.118 83.406L143.258 109.8ZM197.2 85.582L197.974 108.854L144.066 134.89L143.328 111.988L197.2 85.582ZM114.7 105.774L104.086 127.374C103.962 126.894 103.984 110.516 103.468 110.842C103.269 110.33 102.97 109.863 102.588 109.469C102.205 109.075 101.748 108.762 101.243 108.547C100.737 108.333 100.194 108.222 99.6446 108.222C99.0956 108.221 98.552 108.331 98.046 108.544L91.176 111.43L90 77.828C90.082 77.658 114.648 105.8 114.7 105.774ZM92 76.978L138.612 57.11L115.654 103.832L92 76.978ZM104.508 131.06L116.132 107.4L141.456 136.15L104.678 153.912C104.096 127.834 104.042 132.01 104.508 131.06ZM117.086 105.46L139.64 59.554C140.118 75.472 141.496 117.052 142.028 133.772L117.086 105.46ZM170.154 41.488C169.45 41.356 90.572 76.232 89.918 75.264L89.53 64.166L170.154 30.492V41.488ZM185.836 210.436L91.062 268.48C90.0467 269.024 88.8611 269.158 87.75 268.854L8.83599 241.78L104.61 192.524L185.836 210.436ZM158.774 163.776C168.07 165.468 174.684 170.188 174.684 175.286C173.768 191.382 127.884 191.36 127.484 175.07C127.352 169.686 134.54 164.88 144.472 163.336C144.472 169.834 144.058 173.29 146.108 174.404C146.645 174.651 147.24 174.744 147.827 174.671C148.413 174.598 148.968 174.363 149.428 173.992C159.252 168.312 158.774 168.738 158.774 163.776ZM146.474 147.742L156.774 142.59V166C156.774 167.118 155.904 167.738 154.232 168.822C153.432 169.13 147.852 173.004 147.096 172.656C146.074 172.332 146.474 147.742 146.474 147.742ZM208.674 114.404L104.954 166.268L104.728 156.11L199.424 110.372C199.599 110.288 199.745 110.155 199.846 109.989C199.946 109.823 199.996 109.632 199.99 109.438C196.942 12.532 197.19 18.238 196.508 17.784C195.66 16.784 88.998 62.682 88.12 62.584C87.9324 62.6623 87.7731 62.796 87.6635 62.9671C87.5538 63.1383 87.4988 63.3388 87.506 63.542L89.2 112.266L75.42 118.054L73.536 60.488C73.5441 59.858 73.734 59.2437 74.0827 58.719C74.4314 58.1943 74.9243 57.7814 75.502 57.53L203.24 5.52998C203.663 5.3718 204.114 5.30121 204.565 5.32249C205.016 5.34377 205.459 5.45648 205.865 5.65378C206.271 5.85108 206.634 6.12886 206.929 6.47028C207.225 6.8117 207.449 7.20964 207.586 7.63998C208.058 10.074 208.728 44.28 209.616 76.004L202.6 79.898C201.878 80.476 200.354 81.798 201.3 82.988C203.856 85.928 206.729 88.5768 209.866 90.886L210.286 111.414C210.27 112.002 210.116 112.578 209.837 113.097C209.559 113.615 209.163 114.061 208.682 114.4L208.674 114.404ZM209.816 83.318C209.816 83.318 228.616 73.218 228.736 73.188C229.164 73.336 239.252 80.806 243.952 84.01C245.591 85.2433 247.33 86.3365 249.152 87.278C248.95 88.9609 249.415 90.656 250.448 92C249.848 92.986 249.198 94.29 249.482 94.574C249.766 94.858 251.072 94.34 252.108 93.82C252.397 93.9577 252.714 94.0305 253.034 94.0333C253.355 94.036 253.672 93.9687 253.964 93.836C255.423 93.5945 256.916 93.6689 258.344 94.054L259.782 95.23C257.122 97.46 253.686 100.404 251.41 102.476C249.911 102.308 248.428 102.136 246.96 101.96C247.598 101.56 248.542 100.86 247.916 100.028C247.014 98.748 245.244 100.922 244.148 101.534C242.234 101.27 239.748 100.856 239.748 100.856C240.616 100.181 241.544 99.5863 242.52 99.08C242.634 99.0143 242.734 98.9268 242.814 98.8225C242.895 98.7182 242.954 98.599 242.988 98.4719C243.022 98.3448 243.031 98.2122 243.014 98.0816C242.997 97.951 242.955 97.8251 242.889 97.711C242.823 97.5969 242.736 97.4968 242.632 97.4165C242.527 97.3362 242.408 97.2772 242.281 97.2429C242.154 97.2087 242.021 97.1998 241.891 97.2168C241.76 97.2338 241.634 97.2763 241.52 97.342C239.974 98.1911 238.524 99.205 237.196 100.366C233.157 99.5269 229.264 98.0926 225.646 96.11L220.4 91.812C220.225 90.9022 219.719 90.0894 218.981 89.5297C218.242 88.9701 217.323 88.703 216.4 88.78L209.816 83.318ZM220 103C217.936 101.813 216.193 100.139 214.924 98.124C213.828 96.366 211.224 91.292 214.766 94.124C215.136 95.266 215.51 97.324 216.998 96.654C217.225 96.5167 217.387 96.2951 217.451 96.0379C217.514 95.7807 217.473 95.5088 217.336 95.282C216.402 93.718 215.836 89.844 217.536 90.94C218.824 91.632 218.594 93.762 218.966 95.066C219.207 95.9078 219.613 96.6934 220.159 97.3776C220.706 98.0617 221.382 98.6308 222.15 99.052C221.321 100.304 220.602 101.625 220 103ZM305.3 207.132C304.001 208.815 302.954 210.677 302.19 212.66C301.906 210.934 300.638 209.096 301.718 207.482C304.598 201.529 309.406 196.724 315.36 193.846C321.326 190.164 325.962 184.675 328.592 178.176C329.71 177.432 330.592 177.222 330.51 178.558C329.72 192.636 311.61 196.268 305.302 207.136L305.3 207.132ZM333.76 150.484C326.491 154.941 318.183 157.418 309.66 157.67C301.017 157.847 292.38 157.053 283.914 155.304C277.26 154.456 270.819 152.389 264.914 149.206C264.337 148.937 263.884 148.459 263.646 147.869C263.408 147.278 263.403 146.62 263.632 146.026L264.712 133.51C291.426 139.98 306.49 112.338 316.176 93.098C316.297 92.8622 316.32 92.5878 316.239 92.3352C316.159 92.0826 315.981 91.8724 315.745 91.751C315.509 91.6295 315.235 91.6067 314.982 91.6875C314.73 91.7683 314.519 91.9462 314.398 92.182C307.998 104.582 298.34 123.298 284.434 129.932C261.25 138.848 240.882 120.846 221.434 106.204C220.892 106.048 221.192 105.416 221.274 105.082C222.178 102.566 223.533 100.235 225.274 98.206C239.462 105.864 256.998 102.986 271.996 108.466C272.122 108.512 272.256 108.533 272.391 108.526C272.525 108.52 272.656 108.486 272.777 108.427C272.898 108.369 273.006 108.286 273.095 108.185C273.183 108.084 273.25 107.966 273.292 107.838C272.682 104.656 279.428 89.334 281.23 84.866C286.516 74.876 294.54 61.05 307.514 61.266C307.779 61.266 308.034 61.1606 308.221 60.9731C308.409 60.7855 308.514 60.5312 308.514 60.266C308.514 60.0008 308.409 59.7464 308.221 59.5589C308.034 59.3713 307.779 59.266 307.514 59.266C293.532 59.294 285.124 73.192 279.41 84.028C279.328 84.212 272.324 100.428 271.332 106.114C270.488 105.832 269.634 105.578 268.776 105.342C271.832 88.122 283.32 63.126 299.32 55.986C300.713 56.4089 302.154 56.6548 303.608 56.718C307.533 56.5373 311.32 55.2168 314.506 52.918C328.688 59.832 333.084 76.472 334.792 90.824C337.267 109.599 337.553 128.599 335.644 147.44C335.677 148.079 335.515 148.713 335.178 149.257C334.842 149.801 334.347 150.229 333.76 150.484Z" fill="currentColor"/>
    <path d="M221.478 83.22C221.878 83.22 221.536 83.302 227.186 79.832C227.402 79.6875 227.553 79.4648 227.607 79.211C227.662 78.9572 227.615 78.6921 227.478 78.4719C227.34 78.2516 227.123 78.0934 226.871 78.0308C226.619 77.9681 226.353 78.0058 226.128 78.136L220.948 81.374C220.765 81.4894 220.624 81.6612 220.547 81.8636C220.47 82.0659 220.46 82.2878 220.52 82.4959C220.58 82.7041 220.705 82.8872 220.878 83.0178C221.051 83.1483 221.261 83.2193 221.478 83.22Z" fill="currentColor"/>
    <path d="M220.65 88.75L233.596 80.982C233.715 80.9182 233.821 80.8308 233.905 80.7251C233.99 80.6194 234.052 80.4976 234.089 80.3671C234.125 80.2365 234.134 80.1 234.116 79.9658C234.098 79.8316 234.052 79.7025 233.983 79.5863C233.913 79.4701 233.821 79.3692 233.711 79.2898C233.601 79.2104 233.477 79.1541 233.345 79.1244C233.213 79.0946 233.076 79.092 232.943 79.1167C232.809 79.1414 232.683 79.1928 232.57 79.268L219.622 87.036C219.504 87.1008 219.401 87.1888 219.318 87.2945C219.235 87.4002 219.174 87.5216 219.139 87.6514C219.104 87.7812 219.095 87.9167 219.114 88.0498C219.133 88.183 219.178 88.311 219.247 88.4263C219.316 88.5415 219.408 88.6417 219.516 88.7207C219.625 88.7998 219.749 88.8561 219.88 88.8863C220.011 88.9165 220.146 88.92 220.279 88.8966C220.411 88.8732 220.537 88.8233 220.65 88.75Z" fill="currentColor"/>
    <path d="M231.322 88.8C231.25 88.6898 231.158 88.5947 231.05 88.5203C230.941 88.4459 230.819 88.3935 230.691 88.3662C230.562 88.3389 230.43 88.3372 230.301 88.3612C230.171 88.3852 230.048 88.4344 229.938 88.506L225.622 91.306C225.399 91.4506 225.243 91.6776 225.188 91.9371C225.133 92.1967 225.183 92.4675 225.328 92.69C225.473 92.9125 225.7 93.0685 225.959 93.1237C226.219 93.1788 226.489 93.1286 226.712 92.984L231.028 90.184C231.138 90.1125 231.233 90.0199 231.308 89.9117C231.382 89.8034 231.434 89.6815 231.462 89.5529C231.489 89.4244 231.491 89.2918 231.467 89.1626C231.443 89.0334 231.394 88.9102 231.322 88.8Z" fill="currentColor"/>
    <path d="M232.706 90.972L228.6 94C228.386 94.1575 228.244 94.3935 228.204 94.6561C228.164 94.9186 228.23 95.1862 228.388 95.4C228.546 95.6138 228.782 95.7562 229.044 95.7959C229.307 95.8357 229.574 95.7695 229.788 95.612L233.89 92.59C234.078 92.4241 234.196 92.1938 234.223 91.9446C234.249 91.6954 234.18 91.4455 234.031 91.2443C233.882 91.0431 233.662 90.9054 233.416 90.8583C233.17 90.8112 232.915 90.8582 232.702 90.99L232.706 90.972Z" fill="currentColor"/>
    <path d="M239.466 88.688L240.114 84.374C240.139 84.2417 240.138 84.1056 240.11 83.9739C240.081 83.8421 240.026 83.7175 239.949 83.6075C239.871 83.4975 239.772 83.4043 239.657 83.3336C239.542 83.2628 239.414 83.216 239.281 83.1959C239.148 83.1758 239.012 83.1829 238.882 83.2166C238.751 83.2504 238.629 83.3102 238.522 83.3924C238.415 83.4745 238.326 83.5775 238.26 83.695C238.194 83.8124 238.153 83.942 238.138 84.076L237.63 87.454C236.78 87.338 235.614 86.32 234.992 87.454C234.046 89.16 239.386 90.466 239.466 88.688Z" fill="currentColor"/>
    <path d="M237.814 94.732L233.714 97.532C233.506 97.6857 233.365 97.9143 233.322 98.1697C233.278 98.4251 233.336 98.6873 233.482 98.9011C233.628 99.115 233.852 99.2637 234.105 99.3161C234.359 99.3685 234.623 99.3204 234.842 99.182L238.942 96.382C239.15 96.2282 239.291 95.9996 239.334 95.7442C239.378 95.4888 239.32 95.2266 239.174 95.0128C239.028 94.799 238.804 94.6502 238.551 94.5978C238.297 94.5454 238.033 94.5935 237.814 94.732Z" fill="currentColor"/>
    <path d="M246.092 94.856C247.043 93.0078 247.84 91.0847 248.476 89.106C248.528 88.9819 248.554 88.8486 248.553 88.7141C248.552 88.5797 248.524 88.4468 248.471 88.3234C248.417 88.2 248.339 88.0886 248.242 87.996C248.144 87.9034 248.029 87.8313 247.903 87.7842C247.777 87.7371 247.643 87.7159 247.509 87.7219C247.375 87.7278 247.243 87.7608 247.121 87.8188C247 87.8769 246.892 87.9588 246.803 88.0597C246.714 88.1606 246.646 88.2783 246.604 88.406L245.03 92.606L244.578 92.154C243.676 91.226 242.21 92.692 243.164 93.57C243.86 94.2 244.914 95.826 246.092 94.856Z" fill="currentColor"/>
    <path d="M16.234 228.184C16.234 228.184 96.634 187.924 96.722 187.832C96.8913 187.747 97.033 187.616 97.1307 187.454C97.2284 187.292 97.2781 187.105 97.274 186.916L95.764 118.944C95.7605 118.781 95.7171 118.621 95.6377 118.479C95.5582 118.336 95.4451 118.215 95.3083 118.127C95.1714 118.038 95.0149 117.984 94.8524 117.969C94.6899 117.955 94.5263 117.981 94.376 118.044L12.8 152.354C12.6128 152.433 12.4539 152.566 12.3446 152.738C12.2353 152.909 12.1806 153.109 12.188 153.312C14.06 208.4 14.464 222.838 14.788 226.682C14.886 227.8 15.238 228.688 16.234 228.184ZM16.99 225.568L34.742 187.8L53.506 207.258L16.99 225.568ZM34.17 184.326L15.584 165.052L50.276 150.064L34.17 184.326ZM51.782 151.558L53.472 204.344L35.654 185.866L51.782 151.558ZM95.26 186.33L55.536 206.244L55.022 190.244L94.914 170.704L95.26 186.33ZM94.86 168.496L54.948 188.044L54.348 169.326L94.466 150.812L94.86 168.496ZM94.42 148.63L54.28 167.156L53.68 148.59C53.68 148.59 93.8 131.22 94.036 131.16L94.42 148.63ZM86.756 123.418L93.798 120.458L93.988 129.002L86.558 132.202C86.948 123.236 87 123.818 86.756 123.418ZM84.904 124.198L84.516 133.094L78.07 135.878C78.07 126.832 78.124 127.478 77.936 127.128L84.904 124.198ZM14.22 153.93L76.07 127.914V136.742L14.548 163.32L14.22 153.93ZM33.258 186.264L16.6 221.716L14.676 167L33.258 186.264Z" fill="currentColor"/>
    <path d="M27.16 241.416L68.16 253.284C69.016 253.794 146.062 209.484 146.828 209.39C147.005 209.292 147.147 209.142 147.237 208.961C147.327 208.78 147.359 208.575 147.331 208.375C147.302 208.175 147.214 207.988 147.077 207.84C146.94 207.691 146.761 207.587 146.564 207.542L107.506 198.48C106.762 198.092 27.664 239.48 26.98 239.564C26.8013 239.655 26.6541 239.798 26.5577 239.974C26.4614 240.15 26.4202 240.351 26.4396 240.551C26.459 240.751 26.5381 240.94 26.6666 241.095C26.7951 241.249 26.967 241.361 27.16 241.416ZM143.6 208.91L68.314 251.246L57.05 247.984L133.64 206.6L143.6 208.91ZM130.698 205.91C130.208 206.526 54.74 246.276 54.746 247.31L42.866 243.872C43.254 243.494 120.728 204.224 120.852 203.624L130.698 205.91ZM107.41 200.51L118.084 202.986C117.584 203.586 40.526 242.158 40.51 243.186L30.136 240.186L107.41 200.51Z" fill="currentColor"/>
    <path d="M145.03 226.96C128.03 223.742 129.274 223.574 128.812 223.822L106.584 235.908C106.411 236.002 106.269 236.145 106.177 236.32C106.085 236.494 106.046 236.692 106.066 236.889C106.087 237.085 106.164 237.271 106.29 237.423C106.415 237.575 106.583 237.687 106.772 237.744C122.522 242.242 121.91 242.504 122.456 242.18L145.33 228.8C145.504 228.698 145.642 228.545 145.728 228.363C145.814 228.18 145.842 227.976 145.81 227.777C145.777 227.578 145.685 227.394 145.546 227.248C145.407 227.102 145.227 227.002 145.03 226.96ZM121.83 240.234L109.644 236.524L129.444 225.754L142.076 228.388L121.83 240.234Z" fill="currentColor"/>
    <path d="M72.816 154.092C72.9115 154.219 73.036 154.322 73.1791 154.391C73.3222 154.46 73.4797 154.495 73.6387 154.491C73.7977 154.487 73.9535 154.446 74.0932 154.37C74.2329 154.294 74.3525 154.185 74.442 154.054L81.78 143.266C81.9207 143.047 81.9703 142.781 81.9184 142.526C81.8664 142.271 81.7169 142.046 81.5017 141.899C81.2865 141.753 81.0225 141.696 80.766 141.741C80.5094 141.786 80.2805 141.929 80.128 142.14L73.576 151.772L71.828 149.44C71.6688 149.228 71.4319 149.088 71.1694 149.05C70.9068 149.013 70.6401 149.081 70.428 149.24C70.2158 149.399 70.0755 149.636 70.038 149.899C70.0005 150.161 70.0688 150.428 70.228 150.64L72.816 154.092Z" fill="currentColor"/>
    <path d="M75.902 172.61C77.078 172.458 76.226 171.466 82.61 163.164C82.6925 163.06 82.7536 162.941 82.7895 162.813C82.8255 162.685 82.8357 162.552 82.8195 162.42C82.8033 162.288 82.7611 162.161 82.6953 162.046C82.6294 161.931 82.5413 161.83 82.4361 161.749C82.3308 161.668 82.2105 161.609 82.0822 161.575C81.9539 161.541 81.8201 161.533 81.6887 161.552C81.5573 161.57 81.4308 161.614 81.3167 161.682C81.2026 161.75 81.1031 161.839 81.024 161.946C79.0308 164.48 77.2094 167.145 75.572 169.922C74.88 169.368 73.606 167.02 72.506 168.078C72.4094 168.167 72.3313 168.274 72.2762 168.394C72.2211 168.513 72.1901 168.642 72.1849 168.773C72.1797 168.905 72.2004 169.036 72.2459 169.159C72.2914 169.282 72.3607 169.395 72.45 169.492C73.138 170.066 75.16 172.93 75.902 172.61Z" fill="currentColor"/>
    <path d="M76 191.324C76.0865 191.473 76.2101 191.598 76.3589 191.685C76.5077 191.773 76.6765 191.82 76.8491 191.823C77.0216 191.826 77.1919 191.784 77.3435 191.701C77.4951 191.619 77.6227 191.498 77.714 191.352L82.676 183.368C82.8163 183.143 82.8614 182.871 82.8014 182.613C82.7414 182.354 82.5812 182.13 82.356 181.99C82.1308 181.85 81.8591 181.805 81.6007 181.865C81.3423 181.925 81.1183 182.085 80.978 182.31L76.894 188.88L75.354 186.222C75.2156 186.004 74.9985 185.849 74.748 185.787C74.4975 185.726 74.2329 185.764 74.0096 185.893C73.7863 186.022 73.6215 186.232 73.5497 186.48C73.4778 186.728 73.5044 186.993 73.624 187.222L76 191.324Z" fill="currentColor"/>
    <path d="M167.552 63.25C167.648 63.3763 167.773 63.4779 167.916 63.5463C168.06 63.6148 168.217 63.6481 168.376 63.6436C168.534 63.6391 168.69 63.5969 168.829 63.5205C168.968 63.444 169.087 63.3355 169.176 63.204L178.888 48.746C179.036 48.5259 179.09 48.256 179.039 47.9957C178.988 47.7354 178.836 47.506 178.616 47.358C178.396 47.21 178.126 47.1555 177.866 47.2065C177.605 47.2575 177.376 47.4099 177.228 47.63L168.296 60.928L165.696 57.508C165.535 57.2958 165.297 57.1562 165.033 57.1198C164.769 57.0834 164.502 57.1533 164.29 57.314C164.078 57.4747 163.938 57.7131 163.902 57.9768C163.865 58.2405 163.935 58.5078 164.096 58.72L167.552 63.25Z" fill="currentColor"/>
    <path d="M179.232 74.954C176.368 78.3846 173.818 82.0661 171.614 85.954L169.094 83.12C169.007 83.0217 168.901 82.9417 168.783 82.8843C168.664 82.827 168.536 82.7935 168.405 82.7858C168.273 82.7781 168.142 82.7963 168.018 82.8394C167.894 82.8825 167.779 82.9496 167.681 83.037C167.583 83.1243 167.503 83.2301 167.445 83.3484C167.388 83.4666 167.355 83.5951 167.347 83.7263C167.339 83.8575 167.357 83.9889 167.4 84.1131C167.443 84.2373 167.511 84.3517 167.598 84.45C168.07 84.802 171.174 88.95 171.798 88.668C171.977 88.6679 172.153 88.6198 172.307 88.5287C172.461 88.4376 172.588 88.3068 172.674 88.15C174.973 83.919 177.683 79.9245 180.764 76.224C180.902 76.0182 180.959 75.7685 180.924 75.5231C180.888 75.2778 180.763 75.0544 180.572 74.8961C180.381 74.7379 180.139 74.6563 179.891 74.6669C179.643 74.6776 179.408 74.7799 179.232 74.954Z" fill="currentColor"/>
    <path d="M173.1 114.086C173.187 114.232 173.31 114.353 173.458 114.438C173.605 114.523 173.771 114.569 173.941 114.572C174.111 114.575 174.279 114.534 174.429 114.454C174.579 114.374 174.706 114.257 174.798 114.114L181.488 103.756C181.632 103.533 181.682 103.262 181.626 103.003C181.57 102.744 181.414 102.517 181.191 102.373C180.968 102.229 180.697 102.179 180.438 102.235C180.179 102.291 179.952 102.447 179.808 102.67L174 111.68L171.588 107.662C171.449 107.44 171.228 107.281 170.973 107.22C170.719 107.159 170.45 107.2 170.225 107.335C170.001 107.47 169.838 107.688 169.772 107.942C169.707 108.196 169.743 108.465 169.874 108.692L173.1 114.086Z" fill="currentColor"/>
    <path d="M150.378 291.1L122.542 279.878C104.316 286.216 68.556 301.144 67.474 301.22C67.3315 301.267 67.2017 301.346 67.0946 301.451C66.9875 301.556 66.9059 301.685 66.856 301.826C66.8062 301.968 66.7895 302.119 66.8072 302.268C66.8248 302.417 66.8764 302.56 66.958 302.686C67.01 304.086 66.236 306.26 67.264 307.334L94.452 324.166C94.5954 324.255 94.759 324.306 94.9276 324.315C95.0961 324.324 95.2641 324.29 95.416 324.216L150.442 297.458C150.611 297.376 150.753 297.248 150.852 297.089C150.952 296.929 151.004 296.746 151.004 296.558V292.244C151.038 292.011 150.996 291.773 150.883 291.567C150.77 291.361 150.593 291.197 150.378 291.1ZM95.028 316.58L70.228 302.3C79.724 298.61 117.628 283.666 122.154 281.882L147.486 292.094L95.028 316.58Z" fill="currentColor"/>
    <path d="M77.23 301.854C77.0381 301.908 76.8668 302.018 76.7381 302.171C76.6094 302.323 76.5292 302.51 76.5077 302.708C76.4862 302.907 76.5244 303.107 76.6175 303.283C76.7105 303.459 76.8542 303.604 77.03 303.698L96.02 313.84C96.67 314.188 94.07 314.426 136.182 295.74C136.358 295.659 136.506 295.529 136.609 295.365C136.713 295.201 136.766 295.011 136.763 294.818C136.761 294.624 136.702 294.435 136.594 294.275C136.486 294.114 136.334 293.988 136.156 293.912L116.956 285.712C102.118 290.974 78.314 301.82 77.23 301.854ZM96.524 311.842L79.876 302.952C81.39 302.338 83.634 301.416 86.264 300.33L103.464 308.64L96.524 311.842ZM105.814 307.554L88.74 299.304C98.084 295.434 110.84 290.104 116.554 287.718L133.3 294.868L105.814 307.554Z" fill="currentColor"/>
    <path d="M106.848 298.148C104.626 298.31 97.888 298.076 98.33 300.274C98.3645 300.401 98.4237 300.52 98.5042 300.624C98.5847 300.728 98.685 300.815 98.7993 300.88C98.9135 300.945 99.0396 300.987 99.1701 301.004C99.3006 301.02 99.4331 301.011 99.56 300.976C101.615 300.45 103.727 300.176 105.848 300.16C105.94 301.02 105.412 303.186 106.848 303.16C107.113 303.16 107.368 303.055 107.555 302.867C107.743 302.679 107.848 302.425 107.848 302.16V299.14C107.846 298.876 107.74 298.624 107.552 298.438C107.365 298.252 107.112 298.148 106.848 298.148Z" fill="currentColor"/>
    <path d="M110.4 295.4C112.28 295.23 114.154 295.2 116.034 295.08C115.869 295.778 115.785 296.493 115.784 297.21C115.784 297.475 115.889 297.73 116.077 297.917C116.264 298.105 116.519 298.21 116.784 298.21C117.049 298.21 117.304 298.105 117.491 297.917C117.679 297.73 117.784 297.475 117.784 297.21C117.536 295.97 118.784 294.486 118.234 293.376C118.132 293.238 117.996 293.129 117.839 293.059C117.683 292.989 117.511 292.96 117.34 292.976C114.968 293.192 112.594 293.192 110.22 293.408C110.089 293.42 109.962 293.457 109.846 293.518C109.729 293.579 109.626 293.662 109.542 293.763C109.458 293.864 109.395 293.981 109.355 294.106C109.316 294.231 109.302 294.363 109.314 294.494C109.326 294.625 109.363 294.752 109.424 294.868C109.485 294.985 109.569 295.088 109.669 295.172C109.77 295.256 109.887 295.319 110.012 295.359C110.137 295.398 110.269 295.412 110.4 295.4Z" fill="currentColor"/>
    <path d="M130.09 289.278C134.064 289.478 132.982 286.5 130.188 287.346C128.844 287.846 128.414 289.06 130.09 289.278Z" fill="currentColor"/>
</svg>
