<svg width="126" height="74" viewBox="0 0 126 74" fill="none"
    xmlns="http://www.w3.org/2000/svg">
    <path d="M125.67 71.4397C121.11 72.5997 118.29 71.4897 115.76 67.6897C110.08 59.1797 103.81 51.0597 97.7598 42.7897C96.9798 41.7197 96.1698 40.6697 95.1598 39.3397C87.9998 48.9997 80.8498 58.1997 74.1398 67.7697C71.7398 71.1897 69.2198 72.6797 64.7398 71.4697L91.6598 35.3397L66.5998 2.70967C70.9098 1.86967 73.8898 2.29967 76.5298 6.15967C82.3598 14.6797 88.7898 22.7897 95.1998 31.3697C101.65 22.8197 108 14.6997 114 6.25967C116.41 2.83967 119 1.53967 123.33 2.79967C120.05 7.14967 116.84 11.4297 113.61 15.6797C109.25 21.4097 104.97 27.2097 100.45 32.8197C98.8398 34.8197 99.0998 36.1197 100.54 38.0097C108.9 48.9997 117.16 60.0997 125.67 71.4397ZM0.329805 34.7397C1.0498 31.1297 1.5298 27.4497 2.5298 23.9097C8.5298 2.47967 33.1298 -6.43033 50.0298 6.84967C59.9298 14.6397 62.3898 25.6197 61.8998 37.9997H6.0998C5.2598 60.2097 21.2498 73.6197 41.6298 66.7797C48.7798 64.3797 52.9898 58.7797 55.0998 51.7797C56.1698 48.2697 57.9398 47.7197 61.2398 48.7197C59.5498 57.4797 55.7198 64.7997 47.7198 69.3797C35.7198 76.2397 18.5898 74.0197 9.5798 64.4897C4.2598 58.8897 1.9998 51.9197 0.999805 44.3897C0.849805 43.1897 0.539805 42.0097 0.299805 40.8197C0.319805 38.793 0.329805 36.7663 0.329805 34.7397ZM6.1998 33.2497H56.6298C56.2998 17.1897 46.2998 5.77967 32.6298 5.67967C17.6298 5.55967 6.8498 16.6997 6.1998 33.2497Z" fill="currentColor"/>
</svg>
