<svg width="558" height="583" viewBox="0 0 558 583" fill="none"
    xmlns="http://www.w3.org/2000/svg">
    <path d="M493.338 217.684L545.873 293.302L114.99 570.427L62.4229 494.809L493.338 217.684Z" fill="#2DD7FF"/>
    <path d="M12.474 275.262L65.0413 350.88L131.348 362.809L162.74 302.289L12.474 275.262Z" fill="#00BD64"/>
    <path d="M486.291 67.4499L538.858 143.068L470.773 213.642L363.795 194.374L486.291 67.4499Z" fill="#8A00FF"/>
    <path d="M175.93 11.6173L486.29 67.4499L363.795 194.374L493.338 217.684L62.4226 494.809L162.74 302.289L12.474 275.262L175.93 11.6173Z" fill="#FFD43A"/>
    <path d="M555.41 286.674L502.843 211.056C502.455 210.506 502.003 210.021 501.55 209.537C501.485 209.472 501.453 209.407 501.388 209.343C500.645 208.631 499.804 208.049 498.931 207.565C498.737 207.435 498.511 207.338 498.317 207.241C497.38 206.789 496.442 206.433 495.44 206.271C495.44 206.271 495.375 206.271 495.343 206.271L494.179 206.077L547.166 151.182C551.014 147.206 551.499 141.031 548.33 136.473L495.763 60.8547C495.246 60.1111 494.632 59.4322 493.953 58.818C493.791 58.6563 493.565 58.5593 493.371 58.3977C492.821 57.945 492.207 57.5571 491.593 57.2015C491.302 57.0398 490.978 56.9105 490.655 56.7812C490.073 56.5226 489.491 56.3286 488.845 56.1993C488.651 56.167 488.457 56.0377 488.263 56.0053L177.903 0.172871C173.215 -0.635359 168.495 1.43366 165.973 5.4748L2.48435 269.119C1.93476 269.992 1.54679 270.962 1.25583 271.932C1.15884 272.223 1.15886 272.514 1.0942 272.805C0.932552 273.548 0.835552 274.26 0.803223 275.003C0.803223 275.391 0.803236 275.747 0.867895 276.135C0.932553 276.814 1.02954 277.46 1.19118 278.139C1.28817 278.527 1.38516 278.883 1.5468 279.271C1.64379 279.497 1.67612 279.756 1.77311 279.982C1.96708 280.434 2.25803 280.822 2.51667 281.21C2.64598 281.437 2.71066 281.663 2.83998 281.889L55.4072 357.507C57.153 360.029 59.8687 361.775 62.8753 362.324L113.535 371.441L52.0127 489.443C52.0127 489.443 51.948 489.636 51.9157 489.733C51.4631 490.639 51.1074 491.544 50.9135 492.546C50.9135 492.675 50.9135 492.773 50.8811 492.902C50.8811 493.096 50.8488 493.29 50.8165 493.484C50.6872 494.486 50.7195 495.521 50.8488 496.523C50.8488 496.684 50.8488 496.814 50.8811 496.975C51.0751 498.042 51.4631 499.077 51.948 500.046C52.045 500.273 52.1743 500.467 52.3036 500.661C52.4653 500.919 52.5623 501.178 52.7239 501.437L105.291 577.055C107.554 580.288 111.143 582.033 114.828 582.033C116.994 582.033 119.16 581.451 121.1 580.191L552.016 303.065C554.667 301.351 556.51 298.636 557.124 295.564C557.738 292.461 557.059 289.26 555.281 286.674H555.41ZM523.857 141.872L466.699 201.099L387.234 186.809L484.803 85.7159L523.857 141.904V141.872ZM462.173 223.891L423.669 248.655C418.238 237.307 414.293 225.313 415.134 215.453L462.141 223.923L462.173 223.891ZM352.739 197.963C354.064 202.036 357.523 205.075 361.726 205.819L389.853 210.894C392.342 214.257 393.764 217.975 393.215 222.08C391.598 234.365 400.909 247.394 409.25 257.966L397.385 265.595C385.488 247.556 369.097 231.973 364.862 223.6C357.976 210.054 317.791 178.662 317.532 172.132C317.403 168.737 349.797 162.627 384.551 156.226L355.454 186.389C352.48 189.46 351.446 193.954 352.771 198.027L352.739 197.963ZM181.62 24.452L317.241 48.8606C308.027 49.5718 298.587 50.574 288.953 51.9642C240.395 59.1089 214.758 58.5593 167.169 47.7291L181.62 24.452ZM136.166 97.7423C151.651 101.04 161.479 100.361 190.349 98.1949C231.019 95.1559 245.018 104.984 289.794 99.0355C334.57 93.0869 354.614 77.1809 389.044 80.9311C414.681 83.7437 439.219 82.9355 457.776 80.2198L420.824 118.498C418.917 118.433 417.074 118.271 415.328 117.948C395.187 114.327 354.711 120.437 331.014 124.705C307.316 128.972 263.607 128.972 238.584 124.802C213.529 120.631 152.524 105.307 150.067 114.974C147.61 124.64 170.855 134.889 185.694 139.997C200.533 145.105 244.501 155.676 257.109 161.172C269.717 166.668 292.865 177.531 302.111 185.904C311.357 194.277 337.997 217.36 350.314 236.628C355.778 245.196 368.418 261.393 379.572 276.975L367.448 284.767C359.108 268.861 345.497 242.9 331.854 235.756C314.17 226.477 305.926 192.693 277.412 183.9C248.897 175.106 179.26 154.06 160.865 143.747C145.961 135.406 140.239 121.246 126.564 113.228L136.198 97.7099L136.166 97.7423ZM106.002 146.398C112.274 148.758 118.481 151.182 124.43 153.995C147.545 164.858 175.51 168.673 202.796 180.279C230.082 191.885 268.166 207.274 301.271 246.133C313.038 259.938 328.718 279.497 345.044 299.185L332.889 307.009C327.781 298.119 321.864 289.293 314.881 282.083C295.548 262.136 279.804 246.101 267.842 236.855C255.88 227.609 235.319 204.622 204.315 194.665C177.87 186.163 126.37 168.899 98.0171 159.2L105.97 146.365L106.002 146.398ZM82.3051 184.611C97.0795 190.592 106.649 194.891 115.281 196.831C128.374 199.805 152.815 195.247 204.703 225.507C256.592 255.767 287.466 283.247 296.227 290.327C304.988 297.375 318.243 311.341 314.72 314.994C311.196 318.615 281.194 294.336 267.066 285.09C252.971 275.844 210.135 247.135 177.353 230.13C144.603 213.093 108.201 204.396 83.6953 197.09C81.2706 196.379 78.6519 195.57 76.0009 194.762L82.2728 184.643L82.3051 184.611ZM61.2588 218.556C75.419 223.18 91.4866 229.031 109.591 236.628C188.183 269.669 254.717 298.086 276.83 318.518C283.554 324.725 289.018 328.896 293.803 332.161L280.257 340.858C269.426 333.487 256.074 326.116 239.425 319.1C168.818 289.325 143.989 272.061 118.837 256.576C105.711 248.493 80.721 238.471 54.4374 229.484L61.1941 218.556H61.2588ZM158.149 336.332C166.393 338.627 174.411 341.246 181.847 344.705C200.889 353.563 217.182 362.26 231.537 372.217L204.768 389.416C203.152 388.77 201.6 388.058 199.919 387.444C171.275 377.196 153.947 372.217 141.694 367.95L158.117 336.332H158.149ZM58.8341 259.809C81.5292 267.309 106.132 273.969 112.759 281.501L31.322 266.856L39.275 254.022C46.2581 255.897 52.9825 257.869 58.8341 259.809ZM71.7981 340.308L37.9818 291.653L145.121 310.921L124.85 349.845L71.7981 340.308ZM115.927 417.187L151.619 423.62L92.9091 461.381L115.927 417.219V417.187ZM118.094 554.586L78.8135 498.042L490.17 233.492L529.45 290.036L118.094 554.586Z" fill="black"/>
</svg>
