<svg width="537" height="687" viewBox="0 0 537 687" fill="none"
    xmlns="http://www.w3.org/2000/svg">
    <path d="M484.205 55.28L428.282 562.8C423.904 602.589 388.072 631.294 348.283 626.917L10.2729 589.681L52.98 642.967L353.053 676.022C413.803 682.728 468.464 638.899 475.142 578.149L526.884 108.566L484.177 55.28H484.205Z" fill="#FF8BEF"/>
    <path d="M189.071 392.869L160.786 389.754L163.901 361.47L107.332 355.24L104.217 383.525L75.9332 380.41L69.6757 436.979L97.9882 440.122L94.8736 468.406L151.442 474.635L154.557 446.351L182.841 449.466L189.071 392.869Z" fill="#8A00FF"/>
    <path d="M381.029 431.311C392.853 431.311 402.439 421.726 402.439 409.901C402.439 398.077 392.853 388.492 381.029 388.492C369.205 388.492 359.619 398.077 359.619 409.901C359.619 421.726 369.205 431.311 381.029 431.311Z" fill="#FF8BEF"/>
    <path d="M305.267 492.061C317.091 492.061 326.677 482.475 326.677 470.651C326.677 458.827 317.091 449.241 305.267 449.241C293.443 449.241 283.857 458.827 283.857 470.651C283.857 482.475 293.443 492.061 305.267 492.061Z" fill="#FF8BEF"/>
    <path d="M382.846 122.231L158.324 97.4829L140.022 263.518L364.545 288.266L382.846 122.231Z" fill="#00BD64"/>
    <path d="M111.457 57.9456L85.5015 293.424L359.002 323.561C387.96 326.76 413.999 305.855 417.198 276.925L437.373 93.8903L111.429 57.9736L111.457 57.9456ZM364.67 288.205L140.134 263.456L158.429 97.4259L382.965 122.175L364.67 288.205Z" fill="#2DD7FF"/>
    <path d="M74.1654 10.1033L10.3009 589.653L348.311 626.889C388.1 631.266 423.904 602.561 428.31 562.772L484.233 55.2516L74.1935 10.0752L74.1654 10.1033ZM182.841 449.466L154.557 446.351L151.442 474.636L94.8736 468.406L97.9882 440.122L69.7038 437.007L75.9332 380.438L104.217 383.553L107.332 355.269L163.901 361.498L160.786 389.782L189.071 392.897L182.841 449.466ZM326.536 472.98C325.246 484.737 314.667 493.211 302.91 491.92C291.153 490.63 282.679 480.051 283.97 468.294C285.26 456.537 295.839 448.063 307.596 449.382C319.353 450.672 327.827 461.251 326.536 473.008V472.98ZM402.298 412.258C401.007 424.015 390.429 432.49 378.672 431.199C366.915 429.908 358.441 419.329 359.731 407.572C361.022 395.815 371.601 387.341 383.358 388.66C395.115 389.951 403.589 400.529 402.298 412.286V412.258ZM417.226 276.897C414.027 305.855 387.988 326.732 359.03 323.533L85.5296 293.396L111.485 57.9174L437.429 93.834L417.254 276.869L417.226 276.897Z" fill="#EEE7DB"/>
    <path d="M151.442 484.709C156.521 484.709 160.87 480.893 161.46 475.73L163.48 457.463L181.747 459.483C187.247 460.072 192.27 456.088 192.859 450.56L199.088 393.991C199.705 388.464 195.693 383.469 190.165 382.88L171.898 380.859L173.918 362.592C174.536 357.064 170.523 352.07 164.995 351.48L108.426 345.251C105.789 344.971 103.095 345.728 101.019 347.412C98.9423 349.095 97.5954 351.509 97.3148 354.174L95.2944 372.441L77.0273 370.421C74.3616 370.14 71.6961 370.898 69.6196 372.582C67.5432 374.265 66.1963 376.678 65.9157 379.344L59.6863 435.913C59.4057 438.579 60.1634 441.244 61.847 443.321C63.5306 445.397 65.9437 446.744 68.6093 447.025L86.8764 449.045L84.8562 467.312C84.5756 469.978 85.3331 472.643 87.0167 474.72C88.7003 476.796 91.1135 478.143 93.7792 478.424L150.348 484.653C150.713 484.681 151.106 484.709 151.47 484.709H151.442ZM144.512 445.229L142.491 463.496L105.957 459.483L107.978 441.216C108.258 438.551 107.5 435.885 105.817 433.808C104.133 431.732 101.72 430.385 99.0545 430.104L80.7874 428.084L84.8 391.55L103.067 393.57C105.705 393.851 108.398 393.093 110.475 391.41C112.551 389.726 113.898 387.313 114.179 384.647L116.199 366.38L152.733 370.393L150.713 388.66C150.095 394.188 154.108 399.182 159.636 399.772L177.903 401.792L173.89 438.326L155.623 436.306C150.123 435.688 145.101 439.701 144.512 445.229Z" fill="black"/>
    <path d="M384.48 378.614C376.175 377.716 367.925 380.073 361.359 385.349C354.793 390.624 350.668 398.116 349.742 406.478C348.816 414.84 351.201 423.061 356.476 429.599C361.724 436.165 369.244 440.29 377.606 441.216C378.784 441.356 379.935 441.412 381.085 441.412C396.911 441.412 410.576 429.459 412.344 413.38C413.27 405.019 410.885 396.797 405.609 390.259C400.362 383.693 392.842 379.568 384.48 378.642V378.614ZM392.281 411.136C391.608 417.337 385.967 421.855 379.794 421.153C376.792 420.816 374.098 419.329 372.218 416.972C370.338 414.615 369.468 411.669 369.805 408.666C370.142 405.664 371.629 402.97 373.986 401.09C376.006 399.463 378.475 398.593 381.029 398.593C381.45 398.593 381.871 398.593 382.292 398.649C385.294 398.986 387.988 400.473 389.868 402.83C391.748 405.187 392.618 408.133 392.281 411.136Z" fill="black"/>
    <path d="M308.718 439.336C300.357 438.41 292.135 440.823 285.597 446.07C279.031 451.346 274.906 458.838 274.008 467.2C273.082 475.561 275.467 483.783 280.743 490.321C285.99 496.887 293.51 501.012 301.872 501.938C303.05 502.078 304.201 502.134 305.379 502.134C312.507 502.134 319.381 499.721 325.021 495.203C331.587 489.928 335.712 482.436 336.61 474.074C338.518 456.817 326.031 441.244 308.775 439.336H308.718ZM316.519 471.886C315.846 478.087 310.205 482.605 304.032 481.903C301.03 481.566 298.336 480.079 296.456 477.722C294.576 475.365 293.706 472.419 294.043 469.416C294.38 466.414 295.867 463.72 298.224 461.812C300.244 460.185 302.714 459.315 305.295 459.315C305.716 459.315 306.137 459.315 306.558 459.371C312.759 460.044 317.249 465.656 316.575 471.858L316.519 471.886Z" fill="black"/>
    <path d="M184.301 513.863L136.206 552.418C131.857 555.897 131.155 562.238 134.635 566.588C136.627 569.085 139.545 570.376 142.491 570.376C144.708 570.376 146.925 569.646 148.805 568.159L196.9 529.605C201.249 526.125 201.95 519.784 198.471 515.434C194.991 511.085 188.65 510.384 184.301 513.863Z" fill="black"/>
    <path d="M256.499 521.832L208.404 560.387C204.055 563.866 203.353 570.208 206.833 574.557C208.825 577.054 211.743 578.345 214.689 578.345C216.906 578.345 219.123 577.616 221.003 576.128L269.098 537.574C273.447 534.095 274.149 527.753 270.669 523.404C267.19 519.054 260.848 518.353 256.499 521.832Z" fill="black"/>
    <path d="M84.4071 303.413L357.907 333.55C360.236 333.802 362.593 333.942 364.922 333.942C379.121 333.942 392.814 329.144 404.094 320.137C417.198 309.643 425.42 294.687 427.243 277.991L447.419 94.956C448.036 89.4282 444.023 84.4335 438.495 83.8442L112.551 47.9275C107.023 47.3663 102.029 51.3228 101.44 56.8506L75.4841 292.33C75.2035 294.995 75.9611 297.661 77.6447 299.737C79.3283 301.814 81.7414 303.161 84.4071 303.441V303.413ZM120.38 69.0567L426.289 102.757L407.237 275.774C406.002 287.11 400.418 297.268 391.523 304.395C382.628 311.523 371.488 314.75 360.18 313.515L96.6974 284.501L120.436 69.0567H120.38Z" fill="black"/>
    <path d="M364.67 298.307C369.749 298.307 374.154 294.49 374.715 289.299L393.01 123.269C393.319 120.603 392.533 117.937 390.85 115.833C389.166 113.728 386.725 112.41 384.059 112.101L159.524 87.352C154.052 86.7627 148.973 90.7472 148.356 96.3031L130.061 262.334C129.752 265 130.538 267.665 132.221 269.77C133.905 271.874 136.346 273.193 139.012 273.502L363.547 298.251C363.912 298.279 364.305 298.307 364.67 298.307ZM151.274 254.505L167.352 108.565L371.769 131.097L355.691 277.037L151.274 254.505Z" fill="black"/>
    <path d="M534.769 102.252L492.062 48.9662C491.613 48.405 491.108 47.9281 490.575 47.4791C490.378 47.3388 490.182 47.1985 489.985 47.0582C489.621 46.8056 489.256 46.5531 488.835 46.3286C488.583 46.1883 488.33 46.1041 488.078 46.02C487.685 45.8516 487.292 45.7114 486.899 45.5711C486.618 45.4869 486.366 45.4587 486.085 45.4026C485.832 45.3464 485.58 45.2623 485.3 45.2342L75.2596 0.057775C69.7598 -0.531484 64.7372 3.45301 64.1479 8.98081L0.283508 588.531C0.283508 588.531 0.283508 588.783 0.283508 588.924C0.283508 589.317 0.283508 589.681 0.283508 590.074C0.283508 590.326 0.283563 590.607 0.339683 590.86C0.395803 591.224 0.451943 591.589 0.536123 591.926C0.592243 592.179 0.648356 592.431 0.704476 592.684C0.816716 593.048 0.985 593.413 1.15336 593.778C1.23754 593.974 1.32179 594.199 1.40597 594.395C1.65851 594.872 1.96717 595.321 2.27583 595.742C2.33195 595.826 2.35997 595.911 2.41609 595.967L45.1232 649.253C46.8068 651.329 49.2201 652.676 51.8858 652.956L351.959 686.011C356.476 686.516 360.938 686.741 365.427 686.741C392.758 686.741 419.078 677.537 440.684 660.196C465.854 640.021 481.652 611.259 485.187 579.215L536.93 109.632C537.21 106.966 536.453 104.3 534.769 102.224V102.252ZM83.0603 21.2149L473.066 64.1747L418.236 561.677C414.476 595.882 383.582 620.659 349.377 616.871L21.4125 580.73L83.0603 21.2149ZM465.124 577.026C462.178 603.711 449.018 627.674 428.057 644.482C407.096 661.29 380.832 668.922 354.147 665.976L58.2273 633.371L33.3661 602.336L347.188 636.906C350.247 637.243 353.277 637.411 356.308 637.411C397.808 637.411 433.669 606.068 438.327 563.866L491.585 80.5617L516.446 111.596L465.152 577.026H465.124Z" fill="black"/>
</svg>
