<svg width="90" height="126" viewBox="0 0 90 126" fill="none"
    xmlns="http://www.w3.org/2000/svg">
    <path d="M0.568848 26L8.65585 115.919L44.9448 125.601L81.3348 116.102L89.4308 26H0.568848ZM72.6098 46.471L72.1028 52.305L71.8798 55H29.3108L30.3278 67H70.8678L70.5968 69.231L67.9818 98.14L67.7898 99.83L44.9998 105.964V105.959L44.9728 105.971L22.1958 100.055L20.6498 83H31.8178L32.6088 91.46L44.9938 94.599L44.9998 94.365V94.377L57.4118 91.728L58.7078 78H20.1528L17.4188 47.164L17.1518 44H72.8758L72.6098 46.471ZM8.95585 0.626953H14.5778V6.18295H19.7218V0.626953H25.3448V17.449H19.7218V11.816H14.5788V17.449H8.95585V0.626953ZM32.7378 6.20595H27.7878V0.626953H43.3128V6.20595H38.3608V17.449H32.7378V6.20595ZM45.7768 0.626953H51.6388L55.2458 6.53795L58.8488 0.626953H64.7138V17.449H59.1128V9.11095L55.2458 15.092H55.1479L51.2778 9.11095V17.449H45.7758V0.626953H45.7768ZM67.5128 0.626953H73.1368V11.889H81.0438V17.45H67.5128V0.626953Z" fill="currentColor"/>
</svg>
