<svg xmlns="http://www.w3.org/2000/svg" width="168" height="168" fill="none" viewBox="0 0 168 168" id="a">
    <path stroke="currentColor" d="M74.8497 93.25H93.5868L101.037 113.812H67.3399L74.8497 93.25ZM102.219 114.14L95.1386 94.5974L132.508 130.5H108.163L102.22 114.142L102.22 114.142L102.219 114.14ZM66.2753 113.812H66.2747L66.1553 114.141L66.1551 114.142L60.2122 130.5H35.8685L73.2912 94.6024L66.2753 113.812ZM73.9874 92.5489L35.9164 129.068L70.8844 39.5599L73.9874 92.5489ZM93.5796 90.3081L84.6573 65.8288L84.186 64.5358L83.7174 65.8297L74.8571 90.2955L71.7801 37.75H96.6574L93.5796 90.3081ZM132.459 129.067L94.4501 92.5491L97.5529 39.563L132.459 129.067Z"></path>
</svg>