<svg width="704" height="618" viewBox="0 0 704 618" fill="none"
    xmlns="http://www.w3.org/2000/svg">
    <path d="M438.726 604.628L659.11 304.664L661.45 301.496L662.638 299.697C684.521 268.023 694.887 228.323 688.445 187.291C679.77 131.826 642.806 87.843 594.575 67.687C612.608 88.8148 625.205 115.018 629.812 144.496C636.219 185.528 625.853 225.228 604.005 256.901L602.818 258.701L600.478 261.868L380.094 561.833L438.762 604.628H438.726Z" fill="#FF5028"/>
    <path d="M312.895 129.379L264.737 94.2138C231.984 68.479 189.008 55.9176 144.593 62.8642C59.6859 76.1456 1.62949 155.726 14.9108 240.633C21.3176 281.665 43.3092 316.29 73.7951 339.793C73.7951 339.793 77.4304 342.601 78.2222 343.176L380.058 561.869L600.442 261.905L602.782 258.737L603.969 256.901C625.853 225.228 636.219 185.528 629.776 144.496C616.495 59.5889 536.915 1.53232 452.008 14.8137C407.593 21.7603 370.52 46.8475 347.161 81.3646L312.859 129.379H312.895Z" fill="#FF8BEF"/>
    <path d="M216.795 351.599L187.856 330.471C181.989 326.188 173.783 327.483 169.5 333.35C165.217 339.217 166.513 347.424 172.379 351.707L201.318 372.834C207.184 377.118 215.391 375.822 219.674 369.955C223.957 364.088 222.661 355.882 216.795 351.599Z" fill="black"/>
    <path d="M172.092 148.743C176.375 142.876 175.079 134.67 169.212 130.387L140.274 109.259C134.407 104.976 126.201 106.271 121.918 112.138C117.634 118.005 118.93 126.211 124.797 130.495L153.735 151.622C159.602 155.905 167.808 154.61 172.092 148.743Z" fill="black"/>
    <path d="M373.723 139.781L406.981 126.464C413.711 123.764 416.987 116.134 414.287 109.367C411.588 102.637 403.957 99.3614 397.191 102.061L363.933 115.378C357.203 118.077 353.927 125.708 356.627 132.475C359.326 139.205 366.957 142.481 373.723 139.781Z" fill="black"/>
    <path d="M308.828 328.276C311.06 335.186 318.438 339.001 325.349 336.77L359.47 325.828C366.381 323.597 370.196 316.218 367.964 309.307C365.733 302.397 358.354 298.582 351.444 300.813L317.323 311.755C310.412 313.986 306.597 321.365 308.828 328.276Z" fill="black"/>
    <path d="M371.312 387.268L342.374 366.14C336.507 361.857 328.3 363.153 324.017 369.02C319.734 374.886 321.03 383.093 326.897 387.376L355.835 408.504C361.702 412.787 369.908 411.491 374.191 405.624C378.474 399.757 377.179 391.551 371.312 387.268Z" fill="black"/>
    <path d="M180.082 212.883C182.385 206.008 178.678 198.557 171.804 196.254C164.929 193.95 157.478 197.658 155.175 204.532L143.765 238.473C141.462 245.348 145.169 252.799 152.043 255.102C158.918 257.406 166.369 253.698 168.672 246.824L180.082 212.883Z" fill="black"/>
    <path d="M468.096 152.487C474.971 154.79 482.422 151.083 484.725 144.208L496.135 110.267C498.438 103.392 494.731 95.942 487.857 93.6384C480.982 91.3349 473.531 95.0421 471.228 101.917L459.818 135.858C457.515 142.733 461.222 150.183 468.096 152.487Z" fill="black"/>
    <path d="M230.472 262.553C223.597 260.249 216.147 263.956 213.843 270.831L202.433 304.772C200.13 311.647 203.837 319.097 210.712 321.401C217.586 323.704 225.037 319.997 227.34 313.122L238.75 279.181C241.054 272.307 237.346 264.856 230.472 262.553Z" fill="black"/>
    <path d="M434.947 363.728C441.21 360.057 443.297 351.995 439.626 345.732L421.486 314.814C417.814 308.551 409.752 306.464 403.489 310.135C397.227 313.806 395.139 321.869 398.81 328.131L416.951 359.049C420.622 365.312 428.684 367.399 434.947 363.728Z" fill="black"/>
    <path d="M472.128 331.011C465.253 328.707 457.802 332.415 455.499 339.289L444.089 373.231C441.786 380.105 445.493 387.556 452.368 389.859C459.242 392.163 466.693 388.456 468.996 381.581L480.406 347.64C482.71 340.765 479.002 333.315 472.128 331.011Z" fill="black"/>
    <path d="M381.642 215.978C374.767 213.674 367.317 217.382 365.013 224.256L353.603 258.198C351.3 265.072 355.007 272.523 361.882 274.826C368.756 277.13 376.207 273.423 378.51 266.548L389.92 232.607C392.224 225.732 388.516 218.282 381.642 215.978Z" fill="black"/>
    <path d="M440.13 240.885L428.72 274.826C426.417 281.701 430.124 289.151 436.999 291.455C443.873 293.758 451.324 290.051 453.627 283.176L465.037 249.235C467.341 242.36 463.633 234.91 456.759 232.606C449.884 230.303 442.434 234.01 440.13 240.885Z" fill="black"/>
    <path d="M199.05 211.118C201.75 217.849 209.38 221.124 216.147 218.425C222.877 215.725 226.153 208.095 223.453 201.328L210.136 168.071C207.436 161.34 199.806 158.065 193.039 160.764C186.309 163.464 183.033 171.094 185.733 177.861L199.05 211.118Z" fill="black"/>
    <path d="M553.364 131.934C556.063 138.665 563.693 141.94 570.46 139.24C577.191 136.541 580.466 128.911 577.767 122.144L564.449 88.8865C561.75 82.1559 554.119 78.8807 547.353 81.5801C540.622 84.2796 537.347 91.9101 540.046 98.6767L553.364 131.934Z" fill="black"/>
    <path d="M329.92 241.893C328.804 234.73 322.074 229.835 314.911 230.951L279.53 236.494C272.368 237.61 267.473 244.34 268.588 251.503C269.704 258.665 276.435 263.56 283.597 262.445L318.978 256.902C326.141 255.786 331.036 249.055 329.92 241.893Z" fill="black"/>
    <path d="M499.698 188.947L523.921 215.33C528.816 220.657 537.131 221.017 542.494 216.122C547.821 211.227 548.181 202.913 543.286 197.55L519.062 171.167C514.167 165.84 505.853 165.48 500.49 170.375C495.163 175.27 494.803 183.584 499.698 188.947Z" fill="black"/>
    <path d="M549.152 254.202L513.771 259.745C506.609 260.861 501.714 267.592 502.83 274.754C503.945 281.917 510.676 286.812 517.839 285.696L553.22 280.153C560.382 279.037 565.277 272.307 564.161 265.144C563.046 257.982 556.315 253.086 549.152 254.202Z" fill="black"/>
    <path d="M336.975 421.209L307.604 441.725C301.666 445.864 300.19 454.07 304.365 460.009C308.504 465.948 316.711 467.423 322.65 463.248L352.02 442.732C357.958 438.593 359.434 430.387 355.259 424.448C351.12 418.509 342.913 417.033 336.975 421.209Z" fill="black"/>
    <path d="M399.71 176.386L431.24 193.375C437.611 196.83 445.601 194.418 449.02 188.048C452.476 181.641 450.064 173.686 443.693 170.267L412.164 153.279C405.793 149.823 397.802 152.235 394.383 158.605C390.928 164.976 393.339 172.967 399.71 176.386Z" fill="black"/>
    <path d="M314.839 186.284C318.294 179.877 315.883 171.923 309.512 168.468L277.982 151.479C271.612 148.024 263.621 150.435 260.202 156.806C256.747 163.177 259.158 171.167 265.529 174.586L297.059 191.575C303.429 195.03 311.42 192.619 314.839 186.248V186.284Z" fill="black"/>
    <path d="M76.8906 205.108C72.7514 199.169 64.545 197.693 58.6062 201.869C52.6674 206.008 51.1917 214.214 55.3669 220.153L75.8828 249.523C80.0219 255.462 88.2283 256.938 94.1671 252.762C100.106 248.623 101.582 240.417 97.4065 234.478L76.8906 205.108Z" fill="black"/>
    <path d="M701.222 185.276C694.275 140.789 670.412 101.701 634.059 75.1739C634.023 75.1739 633.987 75.1018 633.951 75.1018L581.978 37.4534C579.818 35.7258 577.659 34.034 575.391 32.4143C539.038 5.88764 494.515 -4.91019 450.028 2.07242C403.993 9.27099 362.602 35.5458 336.651 73.8782L309.944 111.275L272.691 84.0642C236.015 55.3059 188.612 42.8882 142.577 50.1228C98.0902 57.0694 59.002 80.9327 32.4753 117.285C5.9486 153.638 -4.84928 198.161 2.13333 242.649C8.828 285.408 31.4675 323.524 65.8767 350.015C65.8767 350.015 69.8358 353.074 70.6277 353.65L123.501 391.947C123.861 392.235 124.185 392.559 124.545 392.847C124.545 392.847 128.504 395.906 129.296 396.446L431.168 615.138C433.471 616.794 436.099 617.586 438.762 617.586C442.721 617.586 446.645 615.75 449.2 612.331L671.924 309.199C671.924 309.199 672.176 308.839 672.284 308.659L673.328 307.076C698.055 271.335 707.989 228.071 701.294 185.348L701.222 185.276ZM359.542 530.987C363.177 528.396 365.409 524.04 365.013 519.253L362.062 483.549C361.45 476.314 355.115 470.951 347.88 471.527C340.646 472.139 335.283 478.473 335.859 485.708L338.342 515.618L238.858 443.525C244.257 443.417 249.224 440.033 251.024 434.634L262.433 400.693C264.737 393.818 261.03 386.368 254.155 384.064C247.28 381.761 239.83 385.468 237.526 392.343L226.117 426.284C225.217 428.983 225.253 431.755 226.009 434.274L113.675 352.894C116.519 351.383 118.822 348.827 119.938 345.516L131.348 311.575C133.651 304.7 129.944 297.25 123.069 294.946C116.195 292.643 108.744 296.35 106.441 303.224L95.0308 337.166C94.8148 337.813 94.7069 338.461 94.5989 339.073L85.7447 332.666C84.9168 332.055 81.7495 329.607 81.6775 329.571C52.4873 307.112 33.3031 274.826 27.6522 238.689C21.7494 201.041 30.8916 163.356 53.3511 132.582C57.5263 126.86 62.2054 121.605 67.1004 116.638L66.7404 131.647C66.5605 138.917 72.3194 144.928 79.5899 145.072C86.8605 145.252 92.8712 139.493 93.0152 132.222L93.843 96.4097C93.843 95.9778 93.7711 95.5817 93.7351 95.1498C109.644 85.3238 127.532 78.6652 146.573 75.6778C153.843 74.562 161.15 73.986 168.42 73.986C188.216 73.986 207.868 78.1252 226.045 86.1156L193.939 91.1186C186.777 92.2344 181.882 98.965 182.997 106.128C184.113 113.29 190.844 118.185 198.006 117.07L233.387 111.527C240.55 110.411 245.445 103.68 244.329 96.5176C244.293 96.2296 244.185 95.9778 244.113 95.7258C248.54 98.4973 252.931 101.413 257.071 104.652L305.229 139.817C308 141.869 311.492 142.66 314.911 142.156C318.33 141.617 321.354 139.709 323.369 136.902L357.85 88.5991C374.731 63.6561 399.098 44.832 427.029 34.5741L426.201 70.2429C426.021 77.5134 431.78 83.5241 439.05 83.6681C446.321 83.8481 452.332 78.0892 452.476 70.8186L453.303 35.0059C453.375 32.4505 452.655 30.0389 451.432 27.9873C452.296 27.8433 453.123 27.6634 453.987 27.5194C475.727 24.1361 497.431 25.8996 517.875 32.1624L497.539 35.3298C490.376 36.4455 485.481 43.1761 486.597 50.3387C487.713 57.5013 494.443 62.3965 501.606 61.2807L536.987 55.7376C542.638 54.8378 546.813 50.4827 547.821 45.1557C551.996 47.6032 556.099 50.2669 560.094 53.1823C590.868 75.6418 611.06 108.755 616.963 146.404C618.439 155.834 618.906 165.3 618.474 174.658C617.755 174.046 616.963 173.47 616.099 173.002L584.569 156.014C578.199 152.559 570.208 154.97 566.789 161.341C563.334 167.711 565.745 175.702 572.116 179.121L603.645 196.11C607.569 198.233 612.068 198.125 615.775 196.254C611.96 215.114 604.437 233.29 593.136 249.667L444.845 451.587L443.225 431.971C442.613 424.736 436.279 419.373 429.044 419.949C421.81 420.561 416.447 426.896 417.023 434.13L419.974 469.835C420.262 473.543 422.098 476.71 424.761 478.905L377.179 543.692L359.47 530.843L359.542 530.987ZM651.84 292.571L435.919 586.632L398.054 559.205L613.184 266.368C613.184 266.368 613.435 266.008 613.543 265.828L614.587 264.244C639.314 228.467 649.248 185.24 642.554 142.516C640.718 130.819 637.695 119.553 633.628 108.719C655.979 130.207 670.772 158.137 675.667 189.307C681.318 225.48 672.896 262.085 651.84 292.571Z" fill="black"/>
</svg>
