<svg width="120" height="34" viewBox="0 0 120 34" fill="none"
    xmlns="http://www.w3.org/2000/svg">
    <path d="M110.325 33.7488C110.035 33.7488 109.747 33.6728 109.493 33.5248L106.843 31.9568C106.447 31.7358 106.64 31.6568 106.771 31.6118C107.299 31.4278 107.406 31.3848 107.969 31.0668C108.028 31.0338 108.105 31.0458 108.166 31.0818L110.201 32.2908C110.239 32.311 110.281 32.3216 110.324 32.3216C110.367 32.3216 110.409 32.311 110.447 32.2908L118.384 27.7098C118.421 27.6877 118.452 27.6563 118.474 27.6185C118.495 27.5808 118.506 27.5381 118.506 27.4948V18.3348C118.506 18.2908 118.495 18.2475 118.473 18.2091C118.452 18.1708 118.42 18.1386 118.383 18.1158L110.449 13.5388C110.411 13.5181 110.369 13.5073 110.326 13.5073C110.284 13.5073 110.241 13.5181 110.204 13.5388L102.271 18.1168C102.233 18.1395 102.202 18.1715 102.18 18.2096C102.158 18.2477 102.147 18.2908 102.146 18.3348V27.4948C102.146 27.5828 102.195 27.6658 102.271 27.7068L104.445 28.9638C105.625 29.5528 106.348 28.8588 106.348 28.1608V19.1158C106.348 18.9888 106.451 18.8878 106.578 18.8878H107.585C107.71 18.8878 107.814 18.9888 107.814 19.1158V28.1608C107.814 29.7348 106.957 30.6378 105.464 30.6378C105.005 30.6378 104.644 30.6378 103.636 30.1418L101.555 28.9438C101.302 28.7962 101.092 28.5848 100.946 28.3308C100.8 28.0767 100.723 27.7888 100.723 27.4958V18.3358C100.723 17.7408 101.04 17.1858 101.555 16.8898L109.492 12.3028C109.748 12.1635 110.034 12.0906 110.325 12.0906C110.617 12.0906 110.903 12.1635 111.159 12.3028L119.096 16.8898C119.61 17.1868 119.929 17.7418 119.929 18.3358V27.4958C119.928 27.7888 119.851 28.0766 119.705 28.3306C119.559 28.5847 119.349 28.796 119.096 28.9438L111.159 33.5258C110.906 33.6728 110.618 33.7497 110.325 33.7488ZM112.778 27.4378C109.303 27.4378 108.576 25.8428 108.576 24.5058C108.576 24.4449 108.601 24.3867 108.644 24.3438C108.687 24.3009 108.745 24.2768 108.806 24.2768H109.832C109.887 24.2766 109.94 24.296 109.982 24.3316C110.024 24.3672 110.051 24.4165 110.06 24.4708C110.214 25.5158 110.677 26.0428 112.778 26.0428C114.449 26.0428 115.161 25.6648 115.161 24.7768C115.161 24.2648 114.959 23.8858 112.361 23.6308C110.189 23.4158 108.846 22.9368 108.846 21.1978C108.846 19.5968 110.196 18.6408 112.458 18.6408C115.001 18.6408 116.259 19.5238 116.418 21.4178C116.42 21.4496 116.416 21.4817 116.406 21.512C116.396 21.5422 116.379 21.5701 116.358 21.5938C116.336 21.6165 116.31 21.6347 116.281 21.6472C116.252 21.6598 116.221 21.6664 116.19 21.6668H115.159C115.107 21.6668 115.056 21.6491 115.016 21.6166C114.975 21.584 114.947 21.5386 114.936 21.4878C114.688 20.3878 114.088 20.0368 112.457 20.0368C110.632 20.0368 110.42 20.6738 110.42 21.1488C110.42 21.7258 110.67 21.8938 113.135 22.2198C115.574 22.5428 116.733 22.9988 116.733 24.7138C116.734 26.4468 115.292 27.4378 112.778 27.4378ZM93.9819 21.4298C94.2949 21.2468 94.4879 20.9128 94.4879 20.5498V18.1958C94.4879 17.8338 94.2959 17.4998 93.9819 17.3168L85.6179 12.4608C85.4632 12.3708 85.2876 12.3233 85.1087 12.3229C84.9298 12.3226 84.7539 12.3694 84.5989 12.4588L76.1829 17.3178C76.0286 17.4071 75.9004 17.5354 75.8112 17.6899C75.7221 17.8443 75.6751 18.0194 75.6749 18.1978V27.9138C75.6749 28.2788 75.8709 28.6168 76.1889 28.7978L84.5519 33.5628C84.8599 33.7398 85.2379 33.7408 85.5489 33.5688L90.6069 30.7568C90.6856 30.7131 90.7513 30.6492 90.7973 30.5718C90.8432 30.4943 90.8678 30.4061 90.8684 30.316C90.869 30.226 90.8457 30.1374 90.8008 30.0593C90.7559 29.9813 90.691 29.9165 90.6129 29.8718L82.1449 25.0118C82.0672 24.9675 82.0026 24.9035 81.9577 24.8262C81.9127 24.749 81.889 24.6612 81.8889 24.5718V21.5258C81.8889 21.3438 81.9859 21.1768 82.1429 21.0868L84.7799 19.5668C84.8569 19.5221 84.9444 19.4985 85.0334 19.4985C85.1224 19.4985 85.2099 19.5221 85.2869 19.5668L87.9239 21.0868C88.0012 21.1311 88.0655 21.195 88.1103 21.2721C88.1551 21.3491 88.1787 21.4366 88.1789 21.5258V23.9218C88.1784 24.0114 88.2016 24.0995 88.2462 24.1772C88.2908 24.2549 88.3552 24.3194 88.4329 24.3641C88.5105 24.4088 88.5986 24.4321 88.6882 24.4317C88.7778 24.4313 88.8657 24.4072 88.9429 24.3618L93.9819 21.4298ZM84.9839 20.9738C85.0137 20.9571 85.0473 20.9484 85.0814 20.9484C85.1155 20.9484 85.1491 20.9571 85.1789 20.9738L86.7939 21.9068C86.8539 21.9418 86.8909 22.0068 86.8909 22.0758V23.9408C86.8909 24.0108 86.8539 24.0748 86.7939 24.1098L85.1789 25.0418C85.1493 25.059 85.1156 25.0681 85.0814 25.0681C85.0471 25.0681 85.0135 25.059 84.9839 25.0418L83.3699 24.1098C83.3401 24.0928 83.3153 24.0682 83.2981 24.0385C83.2808 24.0088 83.2718 23.9751 83.2719 23.9408V22.0758C83.2719 22.0068 83.3089 21.9418 83.3699 21.9068L84.9839 20.9738ZM63.0829 24.8538C63.0829 24.9438 63.0349 25.0278 62.9559 25.0738L60.0659 26.7398C60.0274 26.7624 59.9835 26.7743 59.9389 26.7743C59.8942 26.7743 59.8504 26.7624 59.8119 26.7398L56.9219 25.0738C56.8833 25.0514 56.8513 25.0193 56.829 24.9807C56.8068 24.9421 56.795 24.8983 56.7949 24.8538V21.5158C56.7949 21.4258 56.8439 21.3408 56.9219 21.2948L59.8119 19.6268C59.8504 19.6037 59.8945 19.5915 59.9394 19.5915C59.9843 19.5915 60.0284 19.6037 60.0669 19.6268L62.9579 21.2948C62.9962 21.3176 63.0279 21.3499 63.05 21.3887C63.0721 21.4274 63.0838 21.4712 63.0839 21.5158V24.8538H63.0829ZM63.8639 0.137768C63.7864 0.0954266 63.6993 0.0738898 63.611 0.0752565C63.5227 0.0766233 63.4362 0.100846 63.3601 0.145565C63.2839 0.190285 63.2207 0.253974 63.1765 0.330422C63.1323 0.406869 63.1087 0.493466 63.1079 0.581768V13.4968C63.1076 13.5591 63.0912 13.6202 63.0602 13.6742C63.0291 13.7282 62.9846 13.7732 62.9309 13.8048C62.8767 13.8357 62.8153 13.852 62.7529 13.852C62.6905 13.852 62.6291 13.8357 62.5749 13.8048L60.4669 12.5898C60.3125 12.5009 60.1375 12.4541 59.9594 12.4541C59.7813 12.4541 59.6063 12.5009 59.4519 12.5898L51.0339 17.4478C50.8792 17.5371 50.7508 17.6655 50.6614 17.8201C50.5721 17.9748 50.525 18.1502 50.5249 18.3288V28.0478C50.5249 28.4108 50.7189 28.7458 51.0329 28.9288L59.4509 33.7898C59.7649 33.9718 60.1529 33.9718 60.4679 33.7898L68.8879 28.9288C69.0422 28.8392 69.1704 28.7107 69.2595 28.5561C69.3487 28.4015 69.3957 28.2262 69.3959 28.0478V3.82077C69.3959 3.45277 69.1959 3.11277 68.8749 2.93277L63.8639 0.137768ZM34.2379 12.4068C34.3923 12.3174 34.5675 12.2703 34.7459 12.2703C34.9243 12.2703 35.0995 12.3174 35.2539 12.4068L43.6719 17.2638C43.9859 17.4458 44.1799 17.7818 44.1799 18.1448V27.8668C44.1799 28.2298 43.9859 28.5658 43.6719 28.7478L35.2549 33.6088C35.1002 33.6977 34.9249 33.7446 34.7464 33.7446C34.5679 33.7446 34.3926 33.6977 34.2379 33.6088L25.8229 28.7478C25.6686 28.6582 25.5404 28.5297 25.4513 28.3751C25.3621 28.2205 25.3151 28.0452 25.3149 27.8668V18.1438C25.3149 17.7818 25.5089 17.4458 25.8229 17.2638L34.2379 12.4068ZM18.9299 18.0638C18.9299 17.6978 18.7379 17.3618 18.4219 17.1808L10.0069 12.3378C9.86557 12.2558 9.70617 12.2101 9.5429 12.2048H9.4559C9.29264 12.2103 9.13327 12.2559 8.99189 12.3378L0.575895 17.1808C0.421072 17.2704 0.292542 17.3991 0.203202 17.5541C0.113862 17.7091 0.0668538 17.8849 0.0668946 18.0638L0.0848947 31.1038C0.0848947 31.2858 0.179895 31.4548 0.338895 31.5428C0.415028 31.5889 0.502359 31.6133 0.591394 31.6133C0.68043 31.6133 0.767761 31.5889 0.843894 31.5428L5.84389 28.6788C6.15989 28.4908 6.35289 28.1598 6.35289 27.7968V21.7048C6.35289 21.3408 6.54489 21.0058 6.85989 20.8238L8.98989 19.5978C9.14385 19.5073 9.31933 19.46 9.4979 19.4608C9.6719 19.4608 9.8499 19.5048 10.0049 19.5978L12.1329 20.8238C12.4479 21.0058 12.6419 21.3408 12.6419 21.7048V27.7968C12.6419 28.1598 12.8369 28.4928 13.1509 28.6788L18.1509 31.5428C18.228 31.5868 18.3153 31.6099 18.4041 31.6097C18.4929 31.6095 18.5801 31.586 18.657 31.5416C18.7339 31.4972 18.7978 31.4334 18.8423 31.3565C18.8869 31.2797 18.9105 31.1926 18.9109 31.1038L18.9299 18.0638Z" fill="currentColor"/>
</svg>
