<svg width="124" height="62" viewBox="0 0 124 62" fill="none"
    xmlns="http://www.w3.org/2000/svg">
    <path d="M61.9998 0.0390625C28.2598 0.0390625 0.905762 13.9011 0.905762 31.0001C0.905762 48.0991 28.2598 61.9611 61.9998 61.9611C95.7398 61.9611 123.094 48.0991 123.094 31.0001C123.094 13.9011 95.7398 0.0390625 61.9998 0.0390625ZM46.1028 37.0321C44.6448 38.3961 43.0258 38.9591 41.2428 39.5391C39.4598 40.1201 37.1908 40.0001 34.4318 40.0001H28.1788L26.4458 50.0001H19.1448L25.6598 16.0001H39.6998C43.9238 16.0001 47.0048 17.2151 48.9418 19.4321C50.8788 21.6491 51.4608 24.7961 50.6888 28.7691C50.3698 30.4061 49.8328 31.9281 49.0748 33.2841C48.2893 34.6832 47.286 35.9484 46.1028 37.0321ZM67.4138 40.0001L70.2948 25.5801C70.6228 23.8921 70.5028 22.6381 69.9338 22.0251C69.3638 21.4111 68.1518 21.0001 66.2988 21.0001H60.5088L56.7778 40.0001H49.5338L56.0488 7.00006H63.2928L61.5608 16.0001H68.0138C72.0748 16.0001 74.8748 16.8151 76.4158 18.2311C77.9568 19.6471 78.4188 21.5871 77.8028 24.7591L74.7718 40.0001H67.4138ZM107.673 28.8221C107.355 30.4591 106.817 31.9551 106.06 33.3101C105.302 34.6671 104.312 35.9081 103.089 37.0321C101.631 38.3961 100.011 38.9591 98.2288 39.5391C96.4468 40.1201 94.1758 40.0001 91.4168 40.0001H85.1638L83.4318 50.0001H76.1308L82.6448 16.0001H96.6858C100.91 16.0001 103.991 17.2151 105.927 19.4321C107.862 21.6491 108.445 24.8501 107.673 28.8221ZM93.9188 21.0001H88.9178L86.1908 35.0001H90.6328C93.5748 35.0001 95.7688 34.7101 97.2088 33.6001C98.6508 32.4921 99.6218 30.7721 100.127 28.1791C100.611 25.6881 100.391 23.7451 99.4668 22.7211C98.5418 21.6971 96.6928 21.0001 93.9188 21.0001ZM36.9338 21.0001H31.9318L29.2048 35.0001H33.6458C36.5888 35.0001 38.7818 34.7101 40.2228 33.6001C41.6638 32.4921 42.6358 30.7721 43.1398 28.1791C43.6238 25.6881 43.4038 23.7451 42.4798 22.7211C41.5558 21.6971 39.7078 21.0001 36.9338 21.0001Z" fill="#6181B6"/>
</svg>
