<svg width="1220" height="630" viewBox="0 0 1220 630" fill="none"
    xmlns="http://www.w3.org/2000/svg">
    <path d="M811.923 447.015C794.065 447.015 776.382 443.498 759.884 436.664C743.385 429.83 728.394 419.813 715.766 407.186C703.139 394.558 693.122 379.567 686.288 363.069C679.454 346.57 675.937 328.887 675.937 311.029" stroke="currentColor" stroke-width="4" stroke-linecap="round" stroke-dasharray="8 8"/>
    <path d="M267.978 447.015C250.12 447.015 232.437 443.498 215.938 436.664C199.439 429.83 184.448 419.813 171.821 407.186C159.193 394.558 149.177 379.567 142.343 363.069C135.509 346.57 131.991 328.887 131.991 311.029" stroke="currentColor" stroke-width="4" stroke-linecap="round" stroke-dasharray="8 8"/>
    <path d="M99.3547 311.029C99.3547 306.743 100.199 302.499 101.839 298.54C103.479 294.58 105.883 290.982 108.914 287.951C111.944 284.921 115.542 282.517 119.502 280.877C123.462 279.236 127.706 278.392 131.991 278.392C136.277 278.392 140.521 279.236 144.481 280.877C148.441 282.517 152.039 284.921 155.069 287.951C158.1 290.982 160.504 294.58 162.144 298.54C163.784 302.499 164.628 306.743 164.628 311.029" stroke="currentColor" stroke-width="4" stroke-linecap="round"/>
    <circle cx="267.978" cy="447.015" r="32.6367" stroke="currentColor" stroke-width="4"/>
    <path d="M436.601 278.392L371.327 343.666" stroke="currentColor" stroke-width="4" stroke-linecap="round" stroke-linejoin="round"/>
    <path d="M371.328 278.392L436.601 343.665" stroke="currentColor" stroke-width="4" stroke-linecap="round" stroke-linejoin="round"/>
    <path d="M643.3 311.029C643.3 302.373 646.739 294.072 652.859 287.951C658.98 281.831 667.281 278.392 675.937 278.392C684.593 278.392 692.894 281.831 699.015 287.951C705.135 294.072 708.574 302.373 708.574 311.029" stroke="currentColor" stroke-width="4" stroke-linecap="round"/>
    <circle cx="811.923" cy="447.015" r="32.6367" stroke="currentColor" stroke-width="4"/>
    <path d="M980.546 278.392L915.273 343.665" stroke="currentColor" stroke-width="4" stroke-linecap="round" stroke-linejoin="round"/>
    <path d="M915.273 278.392L980.546 343.665" stroke="currentColor" stroke-width="4" stroke-linecap="round" stroke-linejoin="round"/>
    <path d="M1083.9 175.043C1047.83 175.043 1013.24 189.37 987.739 214.872C962.237 240.375 947.91 274.963 947.91 311.029" stroke="currentColor" stroke-width="4" stroke-linecap="round"/>
    <path d="M675.937 311.029C675.937 293.171 672.419 275.488 665.586 258.989C658.752 242.491 648.735 227.5 636.107 214.872C623.48 202.245 608.489 192.228 591.99 185.394C575.492 178.56 557.809 175.043 539.951 175.043C522.093 175.043 504.409 178.56 487.911 185.394C471.412 192.228 456.421 202.245 443.794 214.872C431.166 227.5 421.149 242.491 414.316 258.989C407.482 275.488 403.964 293.171 403.964 311.029" stroke="currentColor" stroke-width="4" stroke-linecap="round"/>
    <path d="M1083.9 175.043C1066.04 175.043 1048.35 178.56 1031.86 185.394C1015.36 192.228 1000.37 202.245 987.739 214.872C975.112 227.5 965.095 242.491 958.261 258.989C951.427 275.488 947.91 293.171 947.91 311.029" stroke="currentColor" stroke-width="4" stroke-linecap="round"/>
    <path d="M267.978 447.015C285.836 447.015 303.519 443.498 320.018 436.664C336.516 429.83 351.507 419.813 364.135 407.186C376.762 394.558 386.779 379.567 393.613 363.069C400.447 346.57 403.964 328.887 403.964 311.029" stroke="currentColor" stroke-width="4" stroke-linecap="round"/>
    <path d="M811.923 447.015C829.781 447.015 847.464 443.498 863.963 436.664C880.462 429.83 895.453 419.813 908.08 407.186C920.708 394.558 930.724 379.567 937.558 363.069C944.392 346.57 947.91 328.887 947.91 311.029" stroke="currentColor" stroke-width="4" stroke-linecap="round"/>
    <path d="M164.628 311.029C164.628 302.373 161.19 294.072 155.069 287.951C148.949 281.831 140.647 278.392 131.991 278.392C123.336 278.392 115.034 281.831 108.914 287.951C102.793 294.072 99.3547 302.373 99.3547 311.029" stroke="currentColor" stroke-width="4" stroke-linecap="round"/>
    <path d="M539.951 136.966L572.587 202.24H507.314L539.951 136.966Z" stroke="currentColor" stroke-width="4" stroke-linecap="round" stroke-linejoin="round"/>
    <path opacity="0.4" d="M131.677 530L130.829 527.024H127.277L126.429 530H124.605L127.869 518.832H130.317L133.581 530H131.677ZM129.117 520.64H128.989L127.613 525.536H130.493L129.117 520.64ZM136.263 526V524.256H141.095V526H136.263ZM144.784 518.832H148.112C149.542 518.832 150.598 519.307 151.28 520.256C151.974 521.205 152.32 522.592 152.32 524.416C152.32 526.24 151.974 527.627 151.28 528.576C150.598 529.525 149.542 530 148.112 530H144.784V518.832ZM148 528.528C148.822 528.528 149.43 528.256 149.824 527.712C150.23 527.157 150.432 526.368 150.432 525.344V523.488C150.432 522.464 150.23 521.68 149.824 521.136C149.43 520.581 148.822 520.304 148 520.304H146.56V528.528H148ZM154.442 530V518.832H161.434V520.336H156.234V523.584H161.242V525.088H156.234V528.496H161.434V530H154.442ZM164.036 530V518.832H171.22V520.336H165.828V523.584H170.724V525.088H165.828V530H164.036ZM173.534 530V528.64H176.158V520.192H173.534V518.832H180.574V520.192H177.95V528.64H180.574V530H173.534ZM184.711 521.408H184.567V530H182.999V518.832H185.303L188.583 527.424H188.727V518.832H190.295V530H187.991L184.711 521.408ZM192.817 530V518.832H199.809V520.336H194.609V523.584H199.617V525.088H194.609V528.496H199.809V530H192.817ZM213.525 518.832V525.696C213.525 526.155 213.535 526.571 213.557 526.944C213.589 527.317 213.669 527.637 213.797 527.904C213.925 528.16 214.117 528.357 214.373 528.496C214.629 528.635 214.981 528.704 215.429 528.704C215.877 528.704 216.229 528.635 216.485 528.496C216.741 528.357 216.933 528.16 217.061 527.904C217.189 527.637 217.263 527.317 217.285 526.944C217.317 526.571 217.333 526.155 217.333 525.696V518.832H219.125V525.376C219.125 526.176 219.077 526.88 218.981 527.488C218.895 528.085 218.719 528.587 218.453 528.992C218.186 529.387 217.807 529.685 217.317 529.888C216.837 530.091 216.207 530.192 215.429 530.192C214.65 530.192 214.015 530.091 213.525 529.888C213.045 529.685 212.671 529.387 212.405 528.992C212.138 528.587 211.957 528.085 211.861 527.488C211.775 526.88 211.733 526.176 211.733 525.376V518.832H213.525ZM221.95 530V518.832H223.742V528.496H228.83V530H221.95ZM235.512 520.336V530H233.72V520.336H230.216V518.832H239.016V520.336H235.512ZM240.69 530V528.64H243.314V520.192H240.69V518.832H247.73V520.192H245.106V528.64H247.73V530H240.69ZM256.124 524.656L256.172 521.296H256.044L253.804 527.04L251.564 521.296H251.436L251.484 524.656V530H249.9V518.832H252.092L253.804 523.264H253.916L255.644 518.832H257.708V530H256.124V524.656ZM265.989 530L265.141 527.024H261.589L260.741 530H258.917L262.181 518.832H264.629L267.893 530H265.989ZM263.429 520.64H263.301L261.925 525.536H264.805L263.429 520.64ZM273.887 520.336V530H272.095V520.336H268.591V518.832H277.391V520.336H273.887ZM279.161 530V518.832H286.153V520.336H280.953V523.584H285.961V525.088H280.953V528.496H286.153V530H279.161ZM300.38 530.192C299.89 530.192 299.452 530.112 299.068 529.952C298.684 529.781 298.359 529.552 298.092 529.264C297.836 528.976 297.639 528.645 297.5 528.272C297.362 527.888 297.292 527.477 297.292 527.04C297.292 526.432 297.442 525.851 297.74 525.296C298.039 524.741 298.556 524.267 299.292 523.872C298.972 523.456 298.716 523.051 298.524 522.656C298.343 522.261 298.252 521.84 298.252 521.392C298.252 520.987 298.327 520.619 298.476 520.288C298.636 519.947 298.85 519.653 299.116 519.408C299.383 519.163 299.698 518.976 300.06 518.848C300.434 518.709 300.828 518.64 301.244 518.64C301.618 518.64 301.959 518.693 302.268 518.8C302.578 518.907 302.85 519.045 303.084 519.216C303.33 519.387 303.532 519.584 303.692 519.808C303.852 520.021 303.975 520.24 304.06 520.464L302.764 521.136C302.636 520.805 302.439 520.539 302.172 520.336C301.906 520.123 301.586 520.016 301.212 520.016C300.807 520.016 300.476 520.144 300.22 520.4C299.975 520.645 299.852 520.965 299.852 521.36V521.472C299.852 521.632 299.874 521.787 299.916 521.936C299.959 522.085 300.028 522.245 300.124 522.416C300.22 522.587 300.343 522.779 300.492 522.992C300.652 523.195 300.844 523.44 301.068 523.728L302.284 525.232L303.292 526.56H303.372C303.447 526.165 303.495 525.712 303.516 525.2C303.538 524.688 303.554 524.208 303.564 523.76H306.076V525.12H304.908C304.844 525.568 304.77 525.984 304.684 526.368C304.61 526.741 304.482 527.152 304.3 527.6L306.3 530H304.364L303.02 528.4H302.924C302.807 528.944 302.524 529.381 302.076 529.712C301.639 530.032 301.074 530.192 300.38 530.192ZM300.828 528.768C301.191 528.768 301.516 528.699 301.804 528.56C302.103 528.411 302.343 528.181 302.524 527.872L300.044 524.816C299.639 525.104 299.362 525.424 299.212 525.776C299.063 526.117 298.988 526.485 298.988 526.88V527.024C298.988 527.568 299.154 527.995 299.484 528.304C299.826 528.613 300.274 528.768 300.828 528.768ZM323.28 524.656L323.328 521.296H323.2L320.96 527.04L318.72 521.296H318.592L318.64 524.656V530H317.056V518.832H319.248L320.96 523.264H321.072L322.8 518.832H324.864V530H323.28V524.656ZM327.034 530V528.64H329.658V520.192H327.034V518.832H334.074V520.192H331.45V528.64H334.074V530H327.034ZM340.467 530.192C339.049 530.192 337.993 529.691 337.299 528.688C336.617 527.685 336.275 526.261 336.275 524.416C336.275 522.571 336.617 521.147 337.299 520.144C337.993 519.141 339.049 518.64 340.467 518.64C341.011 518.64 341.481 518.715 341.875 518.864C342.281 519.003 342.627 519.2 342.915 519.456C343.203 519.701 343.443 519.995 343.635 520.336C343.838 520.667 344.003 521.024 344.131 521.408L342.515 521.952C342.43 521.696 342.334 521.456 342.227 521.232C342.121 521.008 341.987 520.816 341.827 520.656C341.667 520.496 341.475 520.368 341.251 520.272C341.038 520.176 340.771 520.128 340.451 520.128C339.662 520.128 339.086 520.432 338.723 521.04C338.361 521.637 338.179 522.448 338.179 523.472V525.36C338.179 526.384 338.361 527.2 338.723 527.808C339.086 528.405 339.662 528.704 340.451 528.704C340.771 528.704 341.038 528.656 341.251 528.56C341.475 528.464 341.667 528.336 341.827 528.176C341.987 528.016 342.121 527.824 342.227 527.6C342.334 527.376 342.43 527.136 342.515 526.88L344.131 527.424C344.003 527.808 343.838 528.171 343.635 528.512C343.443 528.843 343.203 529.136 342.915 529.392C342.627 529.637 342.281 529.835 341.875 529.984C341.481 530.123 341.011 530.192 340.467 530.192ZM348.061 530H346.285V518.832H350.461C351.528 518.832 352.338 519.131 352.893 519.728C353.458 520.325 353.741 521.147 353.741 522.192C353.741 523.045 353.533 523.749 353.117 524.304C352.701 524.859 352.104 525.2 351.325 525.328L353.901 530H351.917L349.549 525.488H348.061V530ZM350.205 524.048C351.314 524.048 351.869 523.541 351.869 522.528V521.84C351.869 520.827 351.314 520.32 350.205 520.32H348.061V524.048H350.205ZM359.335 530.192C358.631 530.192 358.018 530.064 357.495 529.808C356.983 529.541 356.556 529.163 356.215 528.672C355.884 528.181 355.639 527.579 355.479 526.864C355.319 526.149 355.239 525.333 355.239 524.416C355.239 523.509 355.319 522.699 355.479 521.984C355.639 521.259 355.884 520.651 356.215 520.16C356.556 519.669 356.983 519.296 357.495 519.04C358.018 518.773 358.631 518.64 359.335 518.64C360.039 518.64 360.647 518.773 361.159 519.04C361.682 519.296 362.108 519.669 362.439 520.16C362.78 520.651 363.031 521.259 363.191 521.984C363.351 522.699 363.431 523.509 363.431 524.416C363.431 525.333 363.351 526.149 363.191 526.864C363.031 527.579 362.78 528.181 362.439 528.672C362.108 529.163 361.682 529.541 361.159 529.808C360.647 530.064 360.039 530.192 359.335 530.192ZM359.335 528.704C360.135 528.704 360.7 528.405 361.031 527.808C361.362 527.2 361.527 526.379 361.527 525.344V523.472C361.527 522.448 361.362 521.637 361.031 521.04C360.7 520.432 360.135 520.128 359.335 520.128C358.535 520.128 357.97 520.432 357.639 521.04C357.308 521.637 357.143 522.448 357.143 523.472V525.36C357.143 526.384 357.308 527.2 357.639 527.808C357.97 528.405 358.535 528.704 359.335 528.704ZM380.602 528.464H380.49C380.394 528.688 380.277 528.907 380.138 529.12C380.01 529.323 379.845 529.504 379.642 529.664C379.45 529.824 379.216 529.952 378.938 530.048C378.661 530.144 378.341 530.192 377.978 530.192C376.816 530.192 375.941 529.696 375.354 528.704C374.768 527.712 374.474 526.309 374.474 524.496C374.474 522.597 374.81 521.147 375.482 520.144C376.154 519.141 377.184 518.64 378.57 518.64C379.114 518.64 379.589 518.715 379.994 518.864C380.41 519.013 380.762 519.216 381.05 519.472C381.338 519.717 381.578 520.011 381.77 520.352C381.962 520.683 382.117 521.035 382.234 521.408L380.618 521.952C380.533 521.707 380.437 521.477 380.33 521.264C380.224 521.04 380.09 520.843 379.93 520.672C379.781 520.501 379.594 520.368 379.37 520.272C379.157 520.176 378.896 520.128 378.586 520.128C377.808 520.128 377.242 520.432 376.89 521.04C376.549 521.637 376.378 522.448 376.378 523.472V525.248C376.378 525.76 376.416 526.229 376.49 526.656C376.565 527.083 376.688 527.451 376.858 527.76C377.04 528.059 377.269 528.293 377.546 528.464C377.834 528.635 378.181 528.72 378.586 528.72C379.237 528.72 379.733 528.528 380.074 528.144C380.426 527.749 380.602 527.248 380.602 526.64V525.632H378.442V524.288H382.234V530H380.602V528.464ZM388.116 530.192C387.412 530.192 386.799 530.064 386.276 529.808C385.764 529.541 385.337 529.163 384.996 528.672C384.665 528.181 384.42 527.579 384.26 526.864C384.1 526.149 384.02 525.333 384.02 524.416C384.02 523.509 384.1 522.699 384.26 521.984C384.42 521.259 384.665 520.651 384.996 520.16C385.337 519.669 385.764 519.296 386.276 519.04C386.799 518.773 387.412 518.64 388.116 518.64C388.82 518.64 389.428 518.773 389.94 519.04C390.463 519.296 390.889 519.669 391.22 520.16C391.561 520.651 391.812 521.259 391.972 521.984C392.132 522.699 392.212 523.509 392.212 524.416C392.212 525.333 392.132 526.149 391.972 526.864C391.812 527.579 391.561 528.181 391.22 528.672C390.889 529.163 390.463 529.541 389.94 529.808C389.428 530.064 388.82 530.192 388.116 530.192ZM388.116 528.704C388.916 528.704 389.481 528.405 389.812 527.808C390.143 527.2 390.308 526.379 390.308 525.344V523.472C390.308 522.448 390.143 521.637 389.812 521.04C389.481 520.432 388.916 520.128 388.116 520.128C387.316 520.128 386.751 520.432 386.42 521.04C386.089 521.637 385.924 522.448 385.924 523.472V525.36C385.924 526.384 386.089 527.2 386.42 527.808C386.751 528.405 387.316 528.704 388.116 528.704ZM400.302 530L399.454 527.024H395.902L395.054 530H393.23L396.494 518.832H398.942L402.206 530H400.302ZM397.742 520.64H397.614L396.238 525.536H399.118L397.742 520.64ZM404.232 530V518.832H406.024V528.496H411.112V530H404.232Z" fill="currentColor"/>
    <path opacity="0.4" d="M1006.37 314.494V303.326H1010.54C1011.61 303.326 1012.42 303.625 1012.98 304.222C1013.54 304.819 1013.82 305.641 1013.82 306.686C1013.82 307.731 1013.54 308.553 1012.98 309.15C1012.42 309.747 1011.61 310.046 1010.54 310.046H1008.16V314.494H1006.37ZM1008.16 308.558H1010.27C1011.38 308.558 1011.94 308.046 1011.94 307.022V306.334C1011.94 305.321 1011.38 304.814 1010.27 304.814H1008.16V308.558ZM1017.74 314.494H1015.96V303.326H1020.14C1021.2 303.326 1022.02 303.625 1022.57 304.222C1023.14 304.819 1023.42 305.641 1023.42 306.686C1023.42 307.539 1023.21 308.243 1022.79 308.798C1022.38 309.353 1021.78 309.694 1021 309.822L1023.58 314.494H1021.59L1019.23 309.982H1017.74V314.494ZM1019.88 308.542C1020.99 308.542 1021.55 308.035 1021.55 307.022V306.334C1021.55 305.321 1020.99 304.814 1019.88 304.814H1017.74V308.542H1019.88ZM1029.01 314.686C1028.31 314.686 1027.69 314.558 1027.17 314.302C1026.66 314.035 1026.23 313.657 1025.89 313.166C1025.56 312.675 1025.32 312.073 1025.16 311.358C1025 310.643 1024.92 309.827 1024.92 308.91C1024.92 308.003 1025 307.193 1025.16 306.478C1025.32 305.753 1025.56 305.145 1025.89 304.654C1026.23 304.163 1026.66 303.79 1027.17 303.534C1027.69 303.267 1028.31 303.134 1029.01 303.134C1029.72 303.134 1030.32 303.267 1030.84 303.534C1031.36 303.79 1031.78 304.163 1032.12 304.654C1032.46 305.145 1032.71 305.753 1032.87 306.478C1033.03 307.193 1033.11 308.003 1033.11 308.91C1033.11 309.827 1033.03 310.643 1032.87 311.358C1032.71 312.073 1032.46 312.675 1032.12 313.166C1031.78 313.657 1031.36 314.035 1030.84 314.302C1030.32 314.558 1029.72 314.686 1029.01 314.686ZM1029.01 313.198C1029.81 313.198 1030.38 312.899 1030.71 312.302C1031.04 311.694 1031.2 310.873 1031.2 309.838V307.966C1031.2 306.942 1031.04 306.131 1030.71 305.534C1030.38 304.926 1029.81 304.622 1029.01 304.622C1028.21 304.622 1027.65 304.926 1027.32 305.534C1026.98 306.131 1026.82 306.942 1026.82 307.966V309.854C1026.82 310.878 1026.98 311.694 1027.32 312.302C1027.65 312.899 1028.21 313.198 1029.01 313.198ZM1035.13 303.326H1038.99C1040 303.326 1040.79 303.587 1041.34 304.11C1041.91 304.633 1042.19 305.347 1042.19 306.254C1042.19 306.905 1042.03 307.422 1041.71 307.806C1041.39 308.19 1040.96 308.462 1040.41 308.622V308.702C1041.06 308.851 1041.59 309.139 1041.98 309.566C1042.38 309.982 1042.57 310.574 1042.57 311.342C1042.57 311.801 1042.5 312.222 1042.35 312.606C1042.2 312.99 1041.99 313.326 1041.71 313.614C1041.43 313.891 1041.1 314.11 1040.7 314.27C1040.32 314.419 1039.89 314.494 1039.42 314.494H1035.13V303.326ZM1038.88 313.118C1039.47 313.118 1039.93 312.995 1040.25 312.75C1040.57 312.505 1040.73 312.11 1040.73 311.566V310.99C1040.73 310.446 1040.57 310.051 1040.25 309.806C1039.93 309.561 1039.47 309.438 1038.88 309.438H1036.89V313.118H1038.88ZM1038.62 308.126C1039.19 308.126 1039.61 308.019 1039.9 307.806C1040.2 307.582 1040.35 307.214 1040.35 306.702V306.126C1040.35 305.614 1040.2 305.251 1039.9 305.038C1039.61 304.814 1039.19 304.702 1038.62 304.702H1036.89V308.126H1038.62ZM1045.13 314.494V303.326H1046.92V312.99H1052.01V314.494H1045.13ZM1054.37 314.494V303.326H1061.36V304.83H1056.16V308.078H1061.17V309.582H1056.16V312.99H1061.36V314.494H1054.37ZM1069.71 309.15L1069.75 305.79H1069.63L1067.39 311.534L1065.15 305.79H1065.02L1065.07 309.15V314.494H1063.48V303.326H1065.67L1067.39 307.758H1067.5L1069.23 303.326H1071.29V314.494H1069.71V309.15ZM1075.25 309.518C1075.25 308.739 1075.34 307.993 1075.51 307.278C1075.69 306.553 1075.93 305.881 1076.23 305.262C1076.54 304.643 1076.89 304.089 1077.3 303.598C1077.71 303.097 1078.13 302.675 1078.58 302.334H1080.32C1079.84 302.675 1079.39 303.075 1078.96 303.534C1078.54 303.993 1078.16 304.499 1077.84 305.054C1077.52 305.609 1077.27 306.201 1077.08 306.83C1076.88 307.449 1076.79 308.099 1076.79 308.782V310.254C1076.79 310.937 1076.88 311.593 1077.08 312.222C1077.27 312.841 1077.52 313.427 1077.84 313.982C1078.16 314.537 1078.54 315.043 1078.96 315.502C1079.39 315.961 1079.84 316.361 1080.32 316.702H1078.58C1078.13 316.371 1077.71 315.955 1077.3 315.454C1076.89 314.953 1076.54 314.393 1076.23 313.774C1075.93 313.155 1075.69 312.489 1075.51 311.774C1075.34 311.049 1075.25 310.297 1075.25 309.518ZM1086.48 314.686C1085.51 314.686 1084.69 314.515 1084.03 314.174C1083.37 313.833 1082.82 313.379 1082.4 312.814L1083.55 311.71C1083.98 312.222 1084.43 312.601 1084.91 312.846C1085.39 313.081 1085.93 313.198 1086.54 313.198C1087.25 313.198 1087.78 313.038 1088.16 312.718C1088.54 312.398 1088.73 311.939 1088.73 311.342C1088.73 310.862 1088.6 310.494 1088.32 310.238C1088.04 309.971 1087.57 309.779 1086.89 309.662L1085.68 309.47C1085.14 309.385 1084.7 309.246 1084.33 309.054C1083.97 308.851 1083.68 308.617 1083.45 308.35C1083.23 308.073 1083.06 307.769 1082.96 307.438C1082.86 307.097 1082.81 306.739 1082.81 306.366C1082.81 305.31 1083.16 304.51 1083.84 303.966C1084.52 303.411 1085.46 303.134 1086.65 303.134C1087.54 303.134 1088.29 303.278 1088.91 303.566C1089.54 303.843 1090.05 304.238 1090.43 304.75L1089.31 305.87C1089 305.497 1088.63 305.198 1088.21 304.974C1087.79 304.739 1087.27 304.622 1086.65 304.622C1085.99 304.622 1085.49 304.766 1085.13 305.054C1084.79 305.331 1084.62 305.742 1084.62 306.286C1084.62 306.745 1084.76 307.107 1085.02 307.374C1085.3 307.63 1085.78 307.817 1086.48 307.934L1087.66 308.142C1088.66 308.323 1089.4 308.691 1089.85 309.246C1090.31 309.79 1090.54 310.457 1090.54 311.246C1090.54 311.758 1090.45 312.227 1090.27 312.654C1090.1 313.081 1089.84 313.443 1089.49 313.742C1089.14 314.041 1088.72 314.275 1088.21 314.446C1087.7 314.606 1087.13 314.686 1086.48 314.686ZM1097.9 309.518C1097.9 310.297 1097.81 311.049 1097.62 311.774C1097.45 312.489 1097.21 313.155 1096.9 313.774C1096.61 314.393 1096.25 314.953 1095.85 315.454C1095.44 315.955 1095.02 316.371 1094.57 316.702H1092.82C1093.3 316.361 1093.76 315.961 1094.18 315.502C1094.61 315.043 1094.98 314.537 1095.3 313.982C1095.62 313.427 1095.88 312.841 1096.07 312.222C1096.26 311.593 1096.36 310.937 1096.36 310.254V308.782C1096.36 308.099 1096.26 307.449 1096.07 306.83C1095.88 306.201 1095.62 305.609 1095.3 305.054C1094.98 304.499 1094.61 303.993 1094.18 303.534C1093.76 303.075 1093.3 302.675 1092.82 302.334H1094.57C1095.02 302.675 1095.44 303.097 1095.85 303.598C1096.25 304.089 1096.61 304.643 1096.9 305.262C1097.21 305.881 1097.45 306.553 1097.62 307.278C1097.81 307.993 1097.9 308.739 1097.9 309.518Z" fill="currentColor"/>
    <path opacity="0.4" d="M459.703 314.494V303.326H463.879C464.945 303.326 465.756 303.625 466.311 304.222C466.876 304.819 467.159 305.641 467.159 306.686C467.159 307.731 466.876 308.553 466.311 309.15C465.756 309.747 464.945 310.046 463.879 310.046H461.495V314.494H459.703ZM461.495 308.558H463.607C464.716 308.558 465.271 308.046 465.271 307.022V306.334C465.271 305.321 464.716 304.814 463.607 304.814H461.495V308.558ZM471.073 314.494H469.297V303.326H473.473C474.539 303.326 475.35 303.625 475.905 304.222C476.47 304.819 476.753 305.641 476.753 306.686C476.753 307.539 476.545 308.243 476.129 308.798C475.713 309.353 475.115 309.694 474.337 309.822L476.913 314.494H474.929L472.561 309.982H471.073V314.494ZM473.217 308.542C474.326 308.542 474.881 308.035 474.881 307.022V306.334C474.881 305.321 474.326 304.814 473.217 304.814H471.073V308.542H473.217ZM482.346 314.686C481.642 314.686 481.029 314.558 480.506 314.302C479.994 314.035 479.568 313.657 479.226 313.166C478.896 312.675 478.65 312.073 478.49 311.358C478.33 310.643 478.25 309.827 478.25 308.91C478.25 308.003 478.33 307.193 478.49 306.478C478.65 305.753 478.896 305.145 479.226 304.654C479.568 304.163 479.994 303.79 480.506 303.534C481.029 303.267 481.642 303.134 482.346 303.134C483.05 303.134 483.658 303.267 484.17 303.534C484.693 303.79 485.12 304.163 485.45 304.654C485.792 305.145 486.042 305.753 486.202 306.478C486.362 307.193 486.442 308.003 486.442 308.91C486.442 309.827 486.362 310.643 486.202 311.358C486.042 312.073 485.792 312.675 485.45 313.166C485.12 313.657 484.693 314.035 484.17 314.302C483.658 314.558 483.05 314.686 482.346 314.686ZM482.346 313.198C483.146 313.198 483.712 312.899 484.042 312.302C484.373 311.694 484.538 310.873 484.538 309.838V307.966C484.538 306.942 484.373 306.131 484.042 305.534C483.712 304.926 483.146 304.622 482.346 304.622C481.546 304.622 480.981 304.926 480.65 305.534C480.32 306.131 480.154 306.942 480.154 307.966V309.854C480.154 310.878 480.32 311.694 480.65 312.302C480.981 312.899 481.546 313.198 482.346 313.198ZM488.468 303.326H492.324C493.337 303.326 494.121 303.587 494.676 304.11C495.241 304.633 495.524 305.347 495.524 306.254C495.524 306.905 495.364 307.422 495.044 307.806C494.724 308.19 494.292 308.462 493.748 308.622V308.702C494.399 308.851 494.921 309.139 495.316 309.566C495.711 309.982 495.908 310.574 495.908 311.342C495.908 311.801 495.833 312.222 495.684 312.606C495.535 312.99 495.321 313.326 495.044 313.614C494.767 313.891 494.431 314.11 494.036 314.27C493.652 314.419 493.225 314.494 492.756 314.494H488.468V303.326ZM492.212 313.118C492.809 313.118 493.268 312.995 493.588 312.75C493.908 312.505 494.068 312.11 494.068 311.566V310.99C494.068 310.446 493.908 310.051 493.588 309.806C493.268 309.561 492.809 309.438 492.212 309.438H490.228V313.118H492.212ZM491.956 308.126C492.521 308.126 492.948 308.019 493.236 307.806C493.535 307.582 493.684 307.214 493.684 306.702V306.126C493.684 305.614 493.535 305.251 493.236 305.038C492.948 304.814 492.521 304.702 491.956 304.702H490.228V308.126H491.956ZM498.462 314.494V303.326H500.254V312.99H505.342V314.494H498.462ZM507.704 314.494V303.326H514.696V304.83H509.496V308.078H514.504V309.582H509.496V312.99H514.696V314.494H507.704ZM523.041 309.15L523.089 305.79H522.961L520.721 311.534L518.481 305.79H518.353L518.401 309.15V314.494H516.817V303.326H519.009L520.721 307.758H520.833L522.561 303.326H524.625V314.494H523.041V309.15ZM528.587 309.518C528.587 308.739 528.672 307.993 528.843 307.278C529.024 306.553 529.264 305.881 529.563 305.262C529.872 304.643 530.23 304.089 530.635 303.598C531.04 303.097 531.467 302.675 531.915 302.334H533.659C533.179 302.675 532.726 303.075 532.299 303.534C531.872 303.993 531.499 304.499 531.179 305.054C530.859 305.609 530.603 306.201 530.411 306.83C530.219 307.449 530.123 308.099 530.123 308.782V310.254C530.123 310.937 530.219 311.593 530.411 312.222C530.603 312.841 530.859 313.427 531.179 313.982C531.499 314.537 531.872 315.043 532.299 315.502C532.726 315.961 533.179 316.361 533.659 316.702H531.915C531.467 316.371 531.04 315.955 530.635 315.454C530.23 314.953 529.872 314.393 529.563 313.774C529.264 313.155 529.024 312.489 528.843 311.774C528.672 311.049 528.587 310.297 528.587 309.518ZM539.813 314.686C538.842 314.686 538.026 314.515 537.365 314.174C536.703 313.833 536.159 313.379 535.733 312.814L536.885 311.71C537.311 312.222 537.765 312.601 538.245 312.846C538.725 313.081 539.269 313.198 539.877 313.198C540.581 313.198 541.119 313.038 541.493 312.718C541.877 312.398 542.069 311.939 542.069 311.342C542.069 310.862 541.93 310.494 541.653 310.238C541.375 309.971 540.901 309.779 540.229 309.662L539.013 309.47C538.479 309.385 538.031 309.246 537.669 309.054C537.306 308.851 537.013 308.617 536.789 308.35C536.565 308.073 536.399 307.769 536.293 307.438C536.197 307.097 536.149 306.739 536.149 306.366C536.149 305.31 536.49 304.51 537.173 303.966C537.855 303.411 538.794 303.134 539.989 303.134C540.874 303.134 541.626 303.278 542.245 303.566C542.874 303.843 543.381 304.238 543.765 304.75L542.645 305.87C542.335 305.497 541.967 305.198 541.541 304.974C541.125 304.739 540.607 304.622 539.989 304.622C539.327 304.622 538.821 304.766 538.469 305.054C538.127 305.331 537.957 305.742 537.957 306.286C537.957 306.745 538.09 307.107 538.357 307.374C538.634 307.63 539.119 307.817 539.813 307.934L540.997 308.142C541.999 308.323 542.73 308.691 543.189 309.246C543.647 309.79 543.877 310.457 543.877 311.246C543.877 311.758 543.786 312.227 543.605 312.654C543.434 313.081 543.173 313.443 542.821 313.742C542.479 314.041 542.053 314.275 541.541 314.446C541.039 314.606 540.463 314.686 539.813 314.686ZM551.231 309.518C551.231 310.297 551.14 311.049 550.959 311.774C550.788 312.489 550.548 313.155 550.239 313.774C549.94 314.393 549.588 314.953 549.183 315.454C548.777 315.955 548.351 316.371 547.903 316.702H546.159C546.639 316.361 547.092 315.961 547.519 315.502C547.945 315.043 548.319 314.537 548.639 313.982C548.959 313.427 549.215 312.841 549.407 312.222C549.599 311.593 549.695 310.937 549.695 310.254V308.782C549.695 308.099 549.599 307.449 549.407 306.83C549.215 306.201 548.959 305.609 548.639 305.054C548.319 304.499 547.945 303.993 547.519 303.534C547.092 303.075 546.639 302.675 546.159 302.334H547.903C548.351 302.675 548.777 303.097 549.183 303.598C549.588 304.089 549.94 304.643 550.239 305.262C550.548 305.881 550.788 306.553 550.959 307.278C551.14 307.993 551.231 308.739 551.231 309.518Z" fill="currentColor"/>
    <path opacity="0.4" d="M747.084 313.75V302.582H754.076V304.086H748.876V307.334H753.884V308.838H748.876V312.246H754.076V313.75H747.084ZM764.614 313.75H762.582L761.318 311.542L760.134 309.43H760.038L758.822 311.542L757.51 313.75H755.606L759.03 308.022L755.814 302.582H757.846L758.982 304.582L760.134 306.646H760.214L761.366 304.582L762.55 302.582H764.454L761.222 308.022L764.614 313.75ZM766.24 313.75V302.582H770.416C771.483 302.582 772.293 302.881 772.848 303.478C773.413 304.076 773.696 304.897 773.696 305.942C773.696 306.988 773.413 307.809 772.848 308.406C772.293 309.004 771.483 309.302 770.416 309.302H768.032V313.75H766.24ZM768.032 307.814H770.144C771.253 307.814 771.808 307.302 771.808 306.278V305.59C771.808 304.577 771.253 304.07 770.144 304.07H768.032V307.814ZM776.218 313.75V302.582H778.01V312.246H783.098V313.75H776.218ZM788.883 313.942C788.179 313.942 787.566 313.814 787.043 313.558C786.531 313.292 786.105 312.913 785.763 312.422C785.433 311.932 785.187 311.329 785.027 310.614C784.867 309.9 784.787 309.084 784.787 308.166C784.787 307.26 784.867 306.449 785.027 305.734C785.187 305.009 785.433 304.401 785.763 303.91C786.105 303.42 786.531 303.046 787.043 302.79C787.566 302.524 788.179 302.39 788.883 302.39C789.587 302.39 790.195 302.524 790.707 302.79C791.23 303.046 791.657 303.42 791.987 303.91C792.329 304.401 792.579 305.009 792.739 305.734C792.899 306.449 792.979 307.26 792.979 308.166C792.979 309.084 792.899 309.9 792.739 310.614C792.579 311.329 792.329 311.932 791.987 312.422C791.657 312.913 791.23 313.292 790.707 313.558C790.195 313.814 789.587 313.942 788.883 313.942ZM788.883 312.454C789.683 312.454 790.249 312.156 790.579 311.558C790.91 310.95 791.075 310.129 791.075 309.094V307.222C791.075 306.198 790.91 305.388 790.579 304.79C790.249 304.182 789.683 303.878 788.883 303.878C788.083 303.878 787.518 304.182 787.187 304.79C786.857 305.388 786.691 306.198 786.691 307.222V309.11C786.691 310.134 786.857 310.95 787.187 311.558C787.518 312.156 788.083 312.454 788.883 312.454ZM796.797 313.75H795.021V302.582H799.197C800.264 302.582 801.074 302.881 801.629 303.478C802.194 304.076 802.477 304.897 802.477 305.942C802.477 306.796 802.269 307.5 801.853 308.054C801.437 308.609 800.84 308.95 800.061 309.078L802.637 313.75H800.653L798.285 309.238H796.797V313.75ZM798.941 307.798C800.05 307.798 800.605 307.292 800.605 306.278V305.59C800.605 304.577 800.05 304.07 798.941 304.07H796.797V307.798H798.941ZM804.647 313.75V302.582H811.639V304.086H806.439V307.334H811.447V308.838H806.439V312.246H811.639V313.75H804.647Z" fill="currentColor"/>
    <path opacity="0.4" d="M499.102 97.7737L499.15 94.4137H499.022L496.782 100.158L494.542 94.4137H494.414L494.462 97.7737V103.118H492.878V91.9497H495.07L496.782 96.3817H496.894L498.622 91.9497H500.686V103.118H499.102V97.7737ZM502.856 103.118V101.758H505.48V93.3097H502.856V91.9497H509.896V93.3097H507.272V101.758H509.896V103.118H502.856ZM516.289 103.31C514.871 103.31 513.815 102.808 513.121 101.806C512.439 100.803 512.097 99.379 512.097 97.5337C512.097 95.6883 512.439 94.2643 513.121 93.2617C513.815 92.259 514.871 91.7577 516.289 91.7577C516.833 91.7577 517.303 91.8323 517.697 91.9817C518.103 92.1203 518.449 92.3177 518.737 92.5737C519.025 92.819 519.265 93.1123 519.457 93.4537C519.66 93.7843 519.825 94.1417 519.953 94.5257L518.337 95.0697C518.252 94.8137 518.156 94.5737 518.049 94.3497C517.943 94.1257 517.809 93.9337 517.649 93.7737C517.489 93.6137 517.297 93.4857 517.073 93.3897C516.86 93.2937 516.593 93.2457 516.273 93.2457C515.484 93.2457 514.908 93.5497 514.545 94.1577C514.183 94.755 514.001 95.5657 514.001 96.5897V98.4777C514.001 99.5017 514.183 100.318 514.545 100.926C514.908 101.523 515.484 101.822 516.273 101.822C516.593 101.822 516.86 101.774 517.073 101.678C517.297 101.582 517.489 101.454 517.649 101.294C517.809 101.134 517.943 100.942 518.049 100.718C518.156 100.494 518.252 100.254 518.337 99.9977L519.953 100.542C519.825 100.926 519.66 101.288 519.457 101.63C519.265 101.96 519.025 102.254 518.737 102.51C518.449 102.755 518.103 102.952 517.697 103.102C517.303 103.24 516.833 103.31 516.289 103.31ZM523.883 103.118H522.107V91.9497H526.283C527.35 91.9497 528.16 92.2483 528.715 92.8457C529.28 93.443 529.563 94.2643 529.563 95.3097C529.563 96.163 529.355 96.867 528.939 97.4217C528.523 97.9763 527.926 98.3177 527.147 98.4457L529.723 103.118H527.739L525.371 98.6057H523.883V103.118ZM526.027 97.1657C527.136 97.1657 527.691 96.659 527.691 95.6457V94.9577C527.691 93.9443 527.136 93.4377 526.027 93.4377H523.883V97.1657H526.027ZM535.157 103.31C534.453 103.31 533.839 103.182 533.317 102.926C532.805 102.659 532.378 102.28 532.037 101.79C531.706 101.299 531.461 100.696 531.301 99.9817C531.141 99.267 531.061 98.451 531.061 97.5337C531.061 96.627 531.141 95.8163 531.301 95.1017C531.461 94.3763 531.706 93.7683 532.037 93.2777C532.378 92.787 532.805 92.4137 533.317 92.1577C533.839 91.891 534.453 91.7577 535.157 91.7577C535.861 91.7577 536.469 91.891 536.981 92.1577C537.503 92.4137 537.93 92.787 538.261 93.2777C538.602 93.7683 538.853 94.3763 539.013 95.1017C539.173 95.8163 539.253 96.627 539.253 97.5337C539.253 98.451 539.173 99.267 539.013 99.9817C538.853 100.696 538.602 101.299 538.261 101.79C537.93 102.28 537.503 102.659 536.981 102.926C536.469 103.182 535.861 103.31 535.157 103.31ZM535.157 101.822C535.957 101.822 536.522 101.523 536.853 100.926C537.183 100.318 537.349 99.4963 537.349 98.4617V96.5897C537.349 95.5657 537.183 94.755 536.853 94.1577C536.522 93.5497 535.957 93.2457 535.157 93.2457C534.357 93.2457 533.791 93.5497 533.461 94.1577C533.13 94.755 532.965 95.5657 532.965 96.5897V98.4777C532.965 99.5017 533.13 100.318 533.461 100.926C533.791 101.523 534.357 101.822 535.157 101.822ZM556.424 101.582H556.312C556.216 101.806 556.099 102.024 555.96 102.238C555.832 102.44 555.667 102.622 555.464 102.782C555.272 102.942 555.038 103.07 554.76 103.166C554.483 103.262 554.163 103.31 553.8 103.31C552.638 103.31 551.763 102.814 551.176 101.822C550.59 100.83 550.296 99.427 550.296 97.6137C550.296 95.715 550.632 94.2643 551.304 93.2617C551.976 92.259 553.006 91.7577 554.392 91.7577C554.936 91.7577 555.411 91.8323 555.816 91.9817C556.232 92.131 556.584 92.3337 556.872 92.5897C557.16 92.835 557.4 93.1283 557.592 93.4697C557.784 93.8003 557.939 94.1523 558.056 94.5257L556.44 95.0697C556.355 94.8243 556.259 94.595 556.152 94.3817C556.046 94.1577 555.912 93.9603 555.752 93.7897C555.603 93.619 555.416 93.4857 555.192 93.3897C554.979 93.2937 554.718 93.2457 554.408 93.2457C553.63 93.2457 553.064 93.5497 552.712 94.1577C552.371 94.755 552.2 95.5657 552.2 96.5897V98.3657C552.2 98.8777 552.238 99.347 552.312 99.7737C552.387 100.2 552.51 100.568 552.68 100.878C552.862 101.176 553.091 101.411 553.368 101.582C553.656 101.752 554.003 101.838 554.408 101.838C555.059 101.838 555.555 101.646 555.896 101.262C556.248 100.867 556.424 100.366 556.424 99.7577V98.7497H554.264V97.4057H558.056V103.118H556.424V101.582ZM563.938 103.31C563.234 103.31 562.621 103.182 562.098 102.926C561.586 102.659 561.159 102.28 560.818 101.79C560.487 101.299 560.242 100.696 560.082 99.9817C559.922 99.267 559.842 98.451 559.842 97.5337C559.842 96.627 559.922 95.8163 560.082 95.1017C560.242 94.3763 560.487 93.7683 560.818 93.2777C561.159 92.787 561.586 92.4137 562.098 92.1577C562.621 91.891 563.234 91.7577 563.938 91.7577C564.642 91.7577 565.25 91.891 565.762 92.1577C566.285 92.4137 566.711 92.787 567.042 93.2777C567.383 93.7683 567.634 94.3763 567.794 95.1017C567.954 95.8163 568.034 96.627 568.034 97.5337C568.034 98.451 567.954 99.267 567.794 99.9817C567.634 100.696 567.383 101.299 567.042 101.79C566.711 102.28 566.285 102.659 565.762 102.926C565.25 103.182 564.642 103.31 563.938 103.31ZM563.938 101.822C564.738 101.822 565.303 101.523 565.634 100.926C565.965 100.318 566.13 99.4963 566.13 98.4617V96.5897C566.13 95.5657 565.965 94.755 565.634 94.1577C565.303 93.5497 564.738 93.2457 563.938 93.2457C563.138 93.2457 562.573 93.5497 562.242 94.1577C561.911 94.755 561.746 95.5657 561.746 96.5897V98.4777C561.746 99.5017 561.911 100.318 562.242 100.926C562.573 101.523 563.138 101.822 563.938 101.822ZM576.124 103.118L575.276 100.142H571.724L570.876 103.118H569.052L572.316 91.9497H574.764L578.028 103.118H576.124ZM573.564 93.7577H573.436L572.06 98.6537H574.94L573.564 93.7577ZM580.054 103.118V91.9497H581.846V101.614H586.934V103.118H580.054Z" fill="currentColor"/>
    <path opacity="0.4" d="M130.41 544.832H134.266C135.279 544.832 136.063 545.093 136.618 545.616C137.183 546.139 137.466 546.853 137.466 547.76C137.466 548.411 137.306 548.928 136.986 549.312C136.666 549.696 136.234 549.968 135.69 550.128V550.208C136.34 550.357 136.863 550.645 137.258 551.072C137.652 551.488 137.85 552.08 137.85 552.848C137.85 553.307 137.775 553.728 137.626 554.112C137.476 554.496 137.263 554.832 136.986 555.12C136.708 555.397 136.372 555.616 135.978 555.776C135.594 555.925 135.167 556 134.698 556H130.41V544.832ZM134.154 554.624C134.751 554.624 135.21 554.501 135.53 554.256C135.85 554.011 136.01 553.616 136.01 553.072V552.496C136.01 551.952 135.85 551.557 135.53 551.312C135.21 551.067 134.751 550.944 134.154 550.944H132.17V554.624H134.154ZM133.898 549.632C134.463 549.632 134.89 549.525 135.178 549.312C135.476 549.088 135.626 548.72 135.626 548.208V547.632C135.626 547.12 135.476 546.757 135.178 546.544C134.89 546.32 134.463 546.208 133.898 546.208H132.17V549.632H133.898ZM141.06 552V550.256H145.892V552H141.06ZM149.581 544.832H152.909C154.339 544.832 155.395 545.307 156.077 546.256C156.771 547.205 157.117 548.592 157.117 550.416C157.117 552.24 156.771 553.627 156.077 554.576C155.395 555.525 154.339 556 152.909 556H149.581V544.832ZM152.797 554.528C153.619 554.528 154.227 554.256 154.621 553.712C155.027 553.157 155.229 552.368 155.229 551.344V549.488C155.229 548.464 155.027 547.68 154.621 547.136C154.227 546.581 153.619 546.304 152.797 546.304H151.357V554.528H152.797ZM159.239 556V544.832H166.231V546.336H161.031V549.584H166.039V551.088H161.031V554.496H166.231V556H159.239ZM168.833 556V544.832H176.017V546.336H170.625V549.584H175.521V551.088H170.625V556H168.833ZM178.331 556V554.64H180.955V546.192H178.331V544.832H185.371V546.192H182.747V554.64H185.371V556H178.331ZM189.508 547.408H189.364V556H187.796V544.832H190.1L193.38 553.424H193.524V544.832H195.092V556H192.788L189.508 547.408ZM197.614 556V544.832H204.606V546.336H199.406V549.584H204.414V551.088H199.406V554.496H204.606V556H197.614ZM221.122 546.336V556H219.33V546.336H215.826V544.832H224.626V546.336H221.122ZM231.675 551.088H227.963V556H226.171V544.832H227.963V549.584H231.675V544.832H233.467V556H231.675V551.088ZM235.989 556V544.832H242.981V546.336H237.781V549.584H242.789V551.088H237.781V554.496H242.981V556H235.989ZM255.177 556V544.832H262.361V546.336H256.969V549.584H261.865V551.088H256.969V556H255.177ZM264.674 556V554.64H267.298V546.192H264.674V544.832H271.714V546.192H269.09V554.64H271.714V556H264.674ZM276.108 556H274.332V544.832H278.508C279.575 544.832 280.385 545.131 280.94 545.728C281.505 546.325 281.788 547.147 281.788 548.192C281.788 549.045 281.58 549.749 281.164 550.304C280.748 550.859 280.151 551.2 279.372 551.328L281.948 556H279.964L277.596 551.488H276.108V556ZM278.252 550.048C279.361 550.048 279.916 549.541 279.916 548.528V547.84C279.916 546.827 279.361 546.32 278.252 546.32H276.108V550.048H278.252ZM287.286 556.192C286.315 556.192 285.499 556.021 284.838 555.68C284.176 555.339 283.632 554.885 283.206 554.32L284.358 553.216C284.784 553.728 285.238 554.107 285.718 554.352C286.198 554.587 286.742 554.704 287.35 554.704C288.054 554.704 288.592 554.544 288.966 554.224C289.35 553.904 289.542 553.445 289.542 552.848C289.542 552.368 289.403 552 289.126 551.744C288.848 551.477 288.374 551.285 287.702 551.168L286.486 550.976C285.952 550.891 285.504 550.752 285.142 550.56C284.779 550.357 284.486 550.123 284.262 549.856C284.038 549.579 283.872 549.275 283.766 548.944C283.67 548.603 283.622 548.245 283.622 547.872C283.622 546.816 283.963 546.016 284.646 545.472C285.328 544.917 286.267 544.64 287.462 544.64C288.347 544.64 289.099 544.784 289.718 545.072C290.347 545.349 290.854 545.744 291.238 546.256L290.118 547.376C289.808 547.003 289.44 546.704 289.014 546.48C288.598 546.245 288.08 546.128 287.462 546.128C286.8 546.128 286.294 546.272 285.942 546.56C285.6 546.837 285.43 547.248 285.43 547.792C285.43 548.251 285.563 548.613 285.83 548.88C286.107 549.136 286.592 549.323 287.286 549.44L288.47 549.648C289.472 549.829 290.203 550.197 290.662 550.752C291.12 551.296 291.35 551.963 291.35 552.752C291.35 553.264 291.259 553.733 291.078 554.16C290.907 554.587 290.646 554.949 290.294 555.248C289.952 555.547 289.526 555.781 289.014 555.952C288.512 556.112 287.936 556.192 287.286 556.192ZM297.872 546.336V556H296.08V546.336H292.576V544.832H301.376V546.336H297.872ZM318.483 550.656L318.531 547.296H318.403L316.163 553.04L313.923 547.296H313.795L313.843 550.656V556H312.259V544.832H314.451L316.163 549.264H316.275L318.003 544.832H320.067V556H318.483V550.656ZM322.237 556V554.64H324.861V546.192H322.237V544.832H329.277V546.192H326.653V554.64H329.277V556H322.237ZM335.671 556.192C334.252 556.192 333.196 555.691 332.503 554.688C331.82 553.685 331.479 552.261 331.479 550.416C331.479 548.571 331.82 547.147 332.503 546.144C333.196 545.141 334.252 544.64 335.671 544.64C336.215 544.64 336.684 544.715 337.079 544.864C337.484 545.003 337.831 545.2 338.119 545.456C338.407 545.701 338.647 545.995 338.839 546.336C339.041 546.667 339.207 547.024 339.335 547.408L337.719 547.952C337.633 547.696 337.537 547.456 337.431 547.232C337.324 547.008 337.191 546.816 337.031 546.656C336.871 546.496 336.679 546.368 336.455 546.272C336.241 546.176 335.975 546.128 335.655 546.128C334.865 546.128 334.289 546.432 333.927 547.04C333.564 547.637 333.383 548.448 333.383 549.472V551.36C333.383 552.384 333.564 553.2 333.927 553.808C334.289 554.405 334.865 554.704 335.655 554.704C335.975 554.704 336.241 554.656 336.455 554.56C336.679 554.464 336.871 554.336 337.031 554.176C337.191 554.016 337.324 553.824 337.431 553.6C337.537 553.376 337.633 553.136 337.719 552.88L339.335 553.424C339.207 553.808 339.041 554.171 338.839 554.512C338.647 554.843 338.407 555.136 338.119 555.392C337.831 555.637 337.484 555.835 337.079 555.984C336.684 556.123 336.215 556.192 335.671 556.192ZM343.264 556H341.488V544.832H345.664C346.731 544.832 347.542 545.131 348.096 545.728C348.662 546.325 348.944 547.147 348.944 548.192C348.944 549.045 348.736 549.749 348.32 550.304C347.904 550.859 347.307 551.2 346.528 551.328L349.104 556H347.12L344.752 551.488H343.264V556ZM345.408 550.048C346.518 550.048 347.072 549.541 347.072 548.528V547.84C347.072 546.827 346.518 546.32 345.408 546.32H343.264V550.048H345.408ZM354.538 556.192C353.834 556.192 353.221 556.064 352.698 555.808C352.186 555.541 351.759 555.163 351.418 554.672C351.087 554.181 350.842 553.579 350.682 552.864C350.522 552.149 350.442 551.333 350.442 550.416C350.442 549.509 350.522 548.699 350.682 547.984C350.842 547.259 351.087 546.651 351.418 546.16C351.759 545.669 352.186 545.296 352.698 545.04C353.221 544.773 353.834 544.64 354.538 544.64C355.242 544.64 355.85 544.773 356.362 545.04C356.885 545.296 357.311 545.669 357.642 546.16C357.983 546.651 358.234 547.259 358.394 547.984C358.554 548.699 358.634 549.509 358.634 550.416C358.634 551.333 358.554 552.149 358.394 552.864C358.234 553.579 357.983 554.181 357.642 554.672C357.311 555.163 356.885 555.541 356.362 555.808C355.85 556.064 355.242 556.192 354.538 556.192ZM354.538 554.704C355.338 554.704 355.903 554.405 356.234 553.808C356.565 553.2 356.73 552.379 356.73 551.344V549.472C356.73 548.448 356.565 547.637 356.234 547.04C355.903 546.432 355.338 546.128 354.538 546.128C353.738 546.128 353.173 546.432 352.842 547.04C352.511 547.637 352.346 548.448 352.346 549.472V551.36C352.346 552.384 352.511 553.2 352.842 553.808C353.173 554.405 353.738 554.704 354.538 554.704ZM375.806 554.464H375.694C375.598 554.688 375.48 554.907 375.342 555.12C375.214 555.323 375.048 555.504 374.846 555.664C374.654 555.824 374.419 555.952 374.142 556.048C373.864 556.144 373.544 556.192 373.182 556.192C372.019 556.192 371.144 555.696 370.558 554.704C369.971 553.712 369.678 552.309 369.678 550.496C369.678 548.597 370.014 547.147 370.686 546.144C371.358 545.141 372.387 544.64 373.774 544.64C374.318 544.64 374.792 544.715 375.198 544.864C375.614 545.013 375.966 545.216 376.254 545.472C376.542 545.717 376.782 546.011 376.974 546.352C377.166 546.683 377.32 547.035 377.438 547.408L375.822 547.952C375.736 547.707 375.64 547.477 375.534 547.264C375.427 547.04 375.294 546.843 375.134 546.672C374.984 546.501 374.798 546.368 374.574 546.272C374.36 546.176 374.099 546.128 373.79 546.128C373.011 546.128 372.446 546.432 372.094 547.04C371.752 547.637 371.582 548.448 371.582 549.472V551.248C371.582 551.76 371.619 552.229 371.694 552.656C371.768 553.083 371.891 553.451 372.062 553.76C372.243 554.059 372.472 554.293 372.75 554.464C373.038 554.635 373.384 554.72 373.79 554.72C374.44 554.72 374.936 554.528 375.278 554.144C375.63 553.749 375.806 553.248 375.806 552.64V551.632H373.646V550.288H377.438V556H375.806V554.464ZM383.319 556.192C382.615 556.192 382.002 556.064 381.479 555.808C380.967 555.541 380.541 555.163 380.199 554.672C379.869 554.181 379.623 553.579 379.463 552.864C379.303 552.149 379.223 551.333 379.223 550.416C379.223 549.509 379.303 548.699 379.463 547.984C379.623 547.259 379.869 546.651 380.199 546.16C380.541 545.669 380.967 545.296 381.479 545.04C382.002 544.773 382.615 544.64 383.319 544.64C384.023 544.64 384.631 544.773 385.143 545.04C385.666 545.296 386.093 545.669 386.423 546.16C386.765 546.651 387.015 547.259 387.175 547.984C387.335 548.699 387.415 549.509 387.415 550.416C387.415 551.333 387.335 552.149 387.175 552.864C387.015 553.579 386.765 554.181 386.423 554.672C386.093 555.163 385.666 555.541 385.143 555.808C384.631 556.064 384.023 556.192 383.319 556.192ZM383.319 554.704C384.119 554.704 384.685 554.405 385.015 553.808C385.346 553.2 385.511 552.379 385.511 551.344V549.472C385.511 548.448 385.346 547.637 385.015 547.04C384.685 546.432 384.119 546.128 383.319 546.128C382.519 546.128 381.954 546.432 381.623 547.04C381.293 547.637 381.127 548.448 381.127 549.472V551.36C381.127 552.384 381.293 553.2 381.623 553.808C381.954 554.405 382.519 554.704 383.319 554.704ZM395.505 556L394.657 553.024H391.105L390.257 556H388.433L391.697 544.832H394.145L397.409 556H395.505ZM392.945 546.64H392.817L391.441 551.536H394.321L392.945 546.64ZM399.435 556V544.832H401.227V554.496H406.315V556H399.435Z" fill="currentColor"/>
    <path opacity="0.4" d="M679.016 514.832H682.872C683.885 514.832 684.669 515.093 685.224 515.616C685.789 516.139 686.072 516.853 686.072 517.76C686.072 518.411 685.912 518.928 685.592 519.312C685.272 519.696 684.84 519.968 684.296 520.128V520.208C684.946 520.357 685.469 520.645 685.864 521.072C686.258 521.488 686.456 522.08 686.456 522.848C686.456 523.307 686.381 523.728 686.232 524.112C686.082 524.496 685.869 524.832 685.592 525.12C685.314 525.397 684.978 525.616 684.584 525.776C684.2 525.925 683.773 526 683.304 526H679.016V514.832ZM682.76 524.624C683.357 524.624 683.816 524.501 684.136 524.256C684.456 524.011 684.616 523.616 684.616 523.072V522.496C684.616 521.952 684.456 521.557 684.136 521.312C683.816 521.067 683.357 520.944 682.76 520.944H680.776V524.624H682.76ZM682.504 519.632C683.069 519.632 683.496 519.525 683.784 519.312C684.082 519.088 684.232 518.72 684.232 518.208V517.632C684.232 517.12 684.082 516.757 683.784 516.544C683.496 516.32 683.069 516.208 682.504 516.208H680.776V519.632H682.504ZM689.665 522V520.256H694.497V522H689.665ZM698.187 514.832H701.515C702.944 514.832 704 515.307 704.683 516.256C705.376 517.205 705.723 518.592 705.723 520.416C705.723 522.24 705.376 523.627 704.683 524.576C704 525.525 702.944 526 701.515 526H698.187V514.832ZM701.403 524.528C702.224 524.528 702.832 524.256 703.227 523.712C703.632 523.157 703.835 522.368 703.835 521.344V519.488C703.835 518.464 703.632 517.68 703.227 517.136C702.832 516.581 702.224 516.304 701.403 516.304H699.963V524.528H701.403ZM707.845 526V514.832H714.837V516.336H709.637V519.584H714.645V521.088H709.637V524.496H714.837V526H707.845ZM717.439 526V514.832H724.623V516.336H719.231V519.584H724.127V521.088H719.231V526H717.439ZM726.936 526V524.64H729.56V516.192H726.936V514.832H733.976V516.192H731.352V524.64H733.976V526H726.936ZM738.114 517.408H737.97V526H736.402V514.832H738.706L741.986 523.424H742.13V514.832H743.698V526H741.394L738.114 517.408ZM746.22 526V514.832H753.212V516.336H748.012V519.584H753.02V521.088H748.012V524.496H753.212V526H746.22ZM769.727 516.336V526H767.935V516.336H764.431V514.832H773.231V516.336H769.727ZM780.281 521.088H776.569V526H774.777V514.832H776.569V519.584H780.281V514.832H782.073V526H780.281V521.088ZM784.595 526V514.832H791.587V516.336H786.387V519.584H791.395V521.088H786.387V524.496H791.587V526H784.595ZM805.27 517.408H805.126V526H803.558V514.832H805.862L809.142 523.424H809.286V514.832H810.854V526H808.55L805.27 517.408ZM813.376 526V514.832H820.368V516.336H815.168V519.584H820.176V521.088H815.168V524.496H820.368V526H813.376ZM830.906 526H828.874L827.61 523.792L826.426 521.68H826.33L825.114 523.792L823.802 526H821.898L825.322 520.272L822.106 514.832H824.138L825.274 516.832L826.426 518.896H826.506L827.658 516.832L828.842 514.832H830.746L827.514 520.272L830.906 526ZM836.884 516.336V526H835.092V516.336H831.588V514.832H840.388V516.336H836.884ZM857.495 520.656L857.543 517.296H857.415L855.175 523.04L852.935 517.296H852.807L852.855 520.656V526H851.271V514.832H853.463L855.175 519.264H855.287L857.015 514.832H859.079V526H857.495V520.656ZM861.249 526V524.64H863.873V516.192H861.249V514.832H868.289V516.192H865.665V524.64H868.289V526H861.249ZM874.683 526.192C873.264 526.192 872.208 525.691 871.515 524.688C870.832 523.685 870.491 522.261 870.491 520.416C870.491 518.571 870.832 517.147 871.515 516.144C872.208 515.141 873.264 514.64 874.683 514.64C875.227 514.64 875.696 514.715 876.091 514.864C876.496 515.003 876.843 515.2 877.131 515.456C877.419 515.701 877.659 515.995 877.851 516.336C878.053 516.667 878.219 517.024 878.347 517.408L876.731 517.952C876.645 517.696 876.549 517.456 876.443 517.232C876.336 517.008 876.203 516.816 876.043 516.656C875.883 516.496 875.691 516.368 875.467 516.272C875.253 516.176 874.987 516.128 874.667 516.128C873.877 516.128 873.301 516.432 872.939 517.04C872.576 517.637 872.395 518.448 872.395 519.472V521.36C872.395 522.384 872.576 523.2 872.939 523.808C873.301 524.405 873.877 524.704 874.667 524.704C874.987 524.704 875.253 524.656 875.467 524.56C875.691 524.464 875.883 524.336 876.043 524.176C876.203 524.016 876.336 523.824 876.443 523.6C876.549 523.376 876.645 523.136 876.731 522.88L878.347 523.424C878.219 523.808 878.053 524.171 877.851 524.512C877.659 524.843 877.419 525.136 877.131 525.392C876.843 525.637 876.496 525.835 876.091 525.984C875.696 526.123 875.227 526.192 874.683 526.192ZM882.276 526H880.5V514.832H884.676C885.743 514.832 886.554 515.131 887.108 515.728C887.674 516.325 887.956 517.147 887.956 518.192C887.956 519.045 887.748 519.749 887.332 520.304C886.916 520.859 886.319 521.2 885.54 521.328L888.116 526H886.132L883.764 521.488H882.276V526ZM884.42 520.048C885.53 520.048 886.084 519.541 886.084 518.528V517.84C886.084 516.827 885.53 516.32 884.42 516.32H882.276V520.048H884.42ZM893.55 526.192C892.846 526.192 892.233 526.064 891.71 525.808C891.198 525.541 890.771 525.163 890.43 524.672C890.099 524.181 889.854 523.579 889.694 522.864C889.534 522.149 889.454 521.333 889.454 520.416C889.454 519.509 889.534 518.699 889.694 517.984C889.854 517.259 890.099 516.651 890.43 516.16C890.771 515.669 891.198 515.296 891.71 515.04C892.233 514.773 892.846 514.64 893.55 514.64C894.254 514.64 894.862 514.773 895.374 515.04C895.897 515.296 896.323 515.669 896.654 516.16C896.995 516.651 897.246 517.259 897.406 517.984C897.566 518.699 897.646 519.509 897.646 520.416C897.646 521.333 897.566 522.149 897.406 522.864C897.246 523.579 896.995 524.181 896.654 524.672C896.323 525.163 895.897 525.541 895.374 525.808C894.862 526.064 894.254 526.192 893.55 526.192ZM893.55 524.704C894.35 524.704 894.915 524.405 895.246 523.808C895.577 523.2 895.742 522.379 895.742 521.344V519.472C895.742 518.448 895.577 517.637 895.246 517.04C894.915 516.432 894.35 516.128 893.55 516.128C892.75 516.128 892.185 516.432 891.854 517.04C891.523 517.637 891.358 518.448 891.358 519.472V521.36C891.358 522.384 891.523 523.2 891.854 523.808C892.185 524.405 892.75 524.704 893.55 524.704ZM914.818 524.464H914.706C914.61 524.688 914.492 524.907 914.354 525.12C914.226 525.323 914.06 525.504 913.858 525.664C913.666 525.824 913.431 525.952 913.154 526.048C912.876 526.144 912.556 526.192 912.194 526.192C911.031 526.192 910.156 525.696 909.57 524.704C908.983 523.712 908.69 522.309 908.69 520.496C908.69 518.597 909.026 517.147 909.698 516.144C910.37 515.141 911.399 514.64 912.786 514.64C913.33 514.64 913.804 514.715 914.21 514.864C914.626 515.013 914.978 515.216 915.266 515.472C915.554 515.717 915.794 516.011 915.986 516.352C916.178 516.683 916.332 517.035 916.45 517.408L914.834 517.952C914.748 517.707 914.652 517.477 914.546 517.264C914.439 517.04 914.306 516.843 914.146 516.672C913.996 516.501 913.81 516.368 913.586 516.272C913.372 516.176 913.111 516.128 912.802 516.128C912.023 516.128 911.458 516.432 911.106 517.04C910.764 517.637 910.594 518.448 910.594 519.472V521.248C910.594 521.76 910.631 522.229 910.706 522.656C910.78 523.083 910.903 523.451 911.074 523.76C911.255 524.059 911.484 524.293 911.762 524.464C912.05 524.635 912.396 524.72 912.802 524.72C913.452 524.72 913.948 524.528 914.29 524.144C914.642 523.749 914.818 523.248 914.818 522.64V521.632H912.658V520.288H916.45V526H914.818V524.464ZM922.331 526.192C921.627 526.192 921.014 526.064 920.491 525.808C919.979 525.541 919.553 525.163 919.211 524.672C918.881 524.181 918.635 523.579 918.475 522.864C918.315 522.149 918.235 521.333 918.235 520.416C918.235 519.509 918.315 518.699 918.475 517.984C918.635 517.259 918.881 516.651 919.211 516.16C919.553 515.669 919.979 515.296 920.491 515.04C921.014 514.773 921.627 514.64 922.331 514.64C923.035 514.64 923.643 514.773 924.155 515.04C924.678 515.296 925.105 515.669 925.435 516.16C925.777 516.651 926.027 517.259 926.187 517.984C926.347 518.699 926.427 519.509 926.427 520.416C926.427 521.333 926.347 522.149 926.187 522.864C926.027 523.579 925.777 524.181 925.435 524.672C925.105 525.163 924.678 525.541 924.155 525.808C923.643 526.064 923.035 526.192 922.331 526.192ZM922.331 524.704C923.131 524.704 923.697 524.405 924.027 523.808C924.358 523.2 924.523 522.379 924.523 521.344V519.472C924.523 518.448 924.358 517.637 924.027 517.04C923.697 516.432 923.131 516.128 922.331 516.128C921.531 516.128 920.966 516.432 920.635 517.04C920.305 517.637 920.139 518.448 920.139 519.472V521.36C920.139 522.384 920.305 523.2 920.635 523.808C920.966 524.405 921.531 524.704 922.331 524.704ZM934.517 526L933.669 523.024H930.117L929.269 526H927.445L930.709 514.832H933.157L936.421 526H934.517ZM931.957 516.64H931.829L930.453 521.536H933.333L931.957 516.64ZM938.447 526V514.832H940.239V524.496H945.327V526H938.447Z" fill="currentColor"/>
    <path opacity="0.4" d="M1025.5 68.832V75.904C1025.5 76.256 1025.51 76.5813 1025.53 76.88C1025.56 77.168 1025.62 77.4133 1025.72 77.616C1025.83 77.8187 1025.98 77.9787 1026.18 78.096C1026.39 78.2027 1026.66 78.256 1027.02 78.256C1027.37 78.256 1027.65 78.2027 1027.85 78.096C1028.05 77.9787 1028.2 77.8187 1028.3 77.616C1028.4 77.4133 1028.47 77.168 1028.49 76.88C1028.52 76.5813 1028.54 76.256 1028.54 75.904V68.832H1030.94V75.584C1030.94 76.352 1030.88 77.024 1030.78 77.6C1030.68 78.176 1030.49 78.656 1030.2 79.04C1029.91 79.424 1029.51 79.712 1029 79.904C1028.49 80.096 1027.83 80.192 1027.02 80.192C1026.21 80.192 1025.54 80.096 1025.03 79.904C1024.52 79.712 1024.12 79.424 1023.83 79.04C1023.54 78.656 1023.35 78.176 1023.24 77.6C1023.14 77.024 1023.1 76.352 1023.1 75.584V68.832H1025.5ZM1033.28 80V68.832H1035.7V78.032H1040.5V80H1033.28ZM1047.4 70.8V80H1045V70.8H1041.79V68.832H1050.62V70.8H1047.4ZM1052.2 80V78.224H1054.6V70.608H1052.2V68.832H1059.4V70.608H1057V78.224H1059.4V80H1052.2ZM1067.49 75.024L1067.62 71.904H1067.47L1065.39 77.648L1063.31 71.904H1063.17L1063.3 75.024V80H1061.22V68.832H1064.05L1065.42 72.592H1065.55L1066.93 68.832H1069.57V80H1067.49V75.024ZM1077.15 80L1076.44 77.312H1073.39L1072.7 80H1070.27L1073.29 68.832H1076.68L1079.71 80H1077.15ZM1074.99 71.152H1074.86L1073.77 75.376H1076.07L1074.99 71.152ZM1085.78 70.8V80H1083.38V70.8H1080.16V68.832H1089V70.8H1085.78ZM1090.65 80V68.832H1097.79V70.8H1093.05V73.36H1097.63V75.328H1093.05V78.032H1097.79V80H1090.65ZM1115.14 78.416H1114.99C1114.9 78.6507 1114.78 78.8747 1114.64 79.088C1114.5 79.3013 1114.33 79.4933 1114.13 79.664C1113.93 79.824 1113.69 79.952 1113.41 80.048C1113.14 80.144 1112.84 80.192 1112.5 80.192C1111.95 80.192 1111.47 80.064 1111.04 79.808C1110.62 79.552 1110.27 79.1787 1109.98 78.688C1109.7 78.1973 1109.48 77.6 1109.33 76.896C1109.19 76.192 1109.12 75.3973 1109.12 74.512C1109.12 72.6133 1109.47 71.1627 1110.16 70.16C1110.85 69.1467 1111.93 68.64 1113.38 68.64C1113.95 68.64 1114.46 68.72 1114.9 68.88C1115.33 69.0293 1115.71 69.248 1116.02 69.536C1116.34 69.8133 1116.6 70.1493 1116.8 70.544C1117 70.9387 1117.16 71.376 1117.28 71.856L1115.04 72.4C1114.98 72.1653 1114.9 71.9413 1114.82 71.728C1114.74 71.504 1114.64 71.3067 1114.51 71.136C1114.38 70.9653 1114.22 70.832 1114.03 70.736C1113.84 70.6293 1113.61 70.576 1113.33 70.576C1112.72 70.576 1112.29 70.8267 1112.03 71.328C1111.79 71.8293 1111.66 72.5333 1111.66 73.44V75.264C1111.66 76.1707 1111.8 76.896 1112.06 77.44C1112.34 77.984 1112.83 78.256 1113.52 78.256C1114.06 78.256 1114.47 78.096 1114.74 77.776C1115 77.456 1115.14 77.0453 1115.14 76.544V75.728H1113.23V74.032H1117.28V80H1115.14V78.416ZM1122.95 80.192C1121.46 80.192 1120.36 79.6853 1119.64 78.672C1118.94 77.6587 1118.59 76.24 1118.59 74.416C1118.59 72.592 1118.94 71.1733 1119.64 70.16C1120.36 69.1467 1121.46 68.64 1122.95 68.64C1124.45 68.64 1125.55 69.1467 1126.25 70.16C1126.96 71.1733 1127.32 72.592 1127.32 74.416C1127.32 76.24 1126.96 77.6587 1126.25 78.672C1125.55 79.6853 1124.45 80.192 1122.95 80.192ZM1122.95 78.256C1123.64 78.256 1124.11 78.0053 1124.36 77.504C1124.63 76.992 1124.76 76.2827 1124.76 75.376V73.44C1124.76 72.544 1124.63 71.8453 1124.36 71.344C1124.11 70.832 1123.64 70.576 1122.95 70.576C1122.27 70.576 1121.8 70.832 1121.53 71.344C1121.27 71.8453 1121.15 72.544 1121.15 73.44V75.392C1121.15 76.288 1121.27 76.992 1121.53 77.504C1121.8 78.0053 1122.27 78.256 1122.95 78.256ZM1134.71 80L1134 77.312H1130.95L1130.26 80H1127.83L1130.85 68.832H1134.24L1137.27 80H1134.71ZM1132.55 71.152H1132.42L1131.33 75.376H1133.64L1132.55 71.152ZM1138.81 80V68.832H1141.23V78.032H1146.03V80H1138.81Z" fill="currentColor"/>
    <path opacity="0.4" d="M32.1648 200.336V210H30.3728V200.336H26.8688V198.832H35.6688V200.336H32.1648ZM42.7185 205.088H39.0065V210H37.2145V198.832H39.0065V203.584H42.7185V198.832H44.5105V210H42.7185V205.088ZM47.0323 210V198.832H54.0243V200.336H48.8243V203.584H53.8323V205.088H48.8243V208.496H54.0243V210H47.0323ZM69.5477 210.192C68.5771 210.192 67.7611 210.021 67.0998 209.68C66.4384 209.339 65.8944 208.885 65.4678 208.32L66.6198 207.216C67.0464 207.728 67.4998 208.107 67.9798 208.352C68.4598 208.587 69.0038 208.704 69.6118 208.704C70.3158 208.704 70.8544 208.544 71.2278 208.224C71.6118 207.904 71.8038 207.445 71.8038 206.848C71.8038 206.368 71.6651 206 71.3878 205.744C71.1104 205.477 70.6358 205.285 69.9638 205.168L68.7478 204.976C68.2144 204.891 67.7664 204.752 67.4038 204.56C67.0411 204.357 66.7478 204.123 66.5238 203.856C66.2998 203.579 66.1344 203.275 66.0278 202.944C65.9318 202.603 65.8838 202.245 65.8838 201.872C65.8838 200.816 66.2251 200.016 66.9078 199.472C67.5904 198.917 68.5291 198.64 69.7238 198.64C70.6091 198.64 71.3611 198.784 71.9798 199.072C72.6091 199.349 73.1157 199.744 73.4998 200.256L72.3798 201.376C72.0704 201.003 71.7024 200.704 71.2758 200.48C70.8598 200.245 70.3424 200.128 69.7238 200.128C69.0624 200.128 68.5558 200.272 68.2038 200.56C67.8624 200.837 67.6918 201.248 67.6918 201.792C67.6918 202.251 67.8251 202.613 68.0918 202.88C68.3691 203.136 68.8544 203.323 69.5477 203.44L70.7318 203.648C71.7344 203.829 72.4651 204.197 72.9237 204.752C73.3824 205.296 73.6118 205.963 73.6118 206.752C73.6118 207.264 73.5211 207.733 73.3398 208.16C73.1691 208.587 72.9078 208.949 72.5558 209.248C72.2144 209.547 71.7878 209.781 71.2758 209.952C70.7744 210.112 70.1984 210.192 69.5477 210.192ZM80.1335 200.336V210H78.3415V200.336H74.8375V198.832H83.6375V200.336H80.1335ZM91.4233 210L90.5753 207.024H87.0233L86.1753 210H84.3513L87.6153 198.832H90.0633L93.3273 210H91.4233ZM88.8633 200.64H88.7352L87.3593 205.536H90.2393L88.8633 200.64ZM96.745 210H94.969V198.832H99.145C100.212 198.832 101.022 199.131 101.577 199.728C102.142 200.325 102.425 201.147 102.425 202.192C102.425 203.045 102.217 203.749 101.801 204.304C101.385 204.859 100.788 205.2 100.009 205.328L102.585 210H100.601L98.233 205.488H96.745V210ZM98.889 204.048C99.9983 204.048 100.553 203.541 100.553 202.528V201.84C100.553 200.827 99.9983 200.32 98.889 200.32H96.745V204.048H98.889ZM108.915 200.336V210H107.123V200.336H103.619V198.832H112.419V200.336H108.915ZM127.206 210.192C126.502 210.192 125.889 210.064 125.366 209.808C124.854 209.541 124.428 209.163 124.086 208.672C123.756 208.181 123.51 207.579 123.35 206.864C123.19 206.149 123.11 205.333 123.11 204.416C123.11 203.509 123.19 202.699 123.35 201.984C123.51 201.259 123.756 200.651 124.086 200.16C124.428 199.669 124.854 199.296 125.366 199.04C125.889 198.773 126.502 198.64 127.206 198.64C127.91 198.64 128.518 198.773 129.03 199.04C129.553 199.296 129.98 199.669 130.31 200.16C130.652 200.651 130.902 201.259 131.062 201.984C131.222 202.699 131.302 203.509 131.302 204.416C131.302 205.333 131.222 206.149 131.062 206.864C130.902 207.579 130.652 208.181 130.31 208.672C129.98 209.163 129.553 209.541 129.03 209.808C128.518 210.064 127.91 210.192 127.206 210.192ZM127.206 208.704C128.006 208.704 128.572 208.405 128.902 207.808C129.233 207.2 129.398 206.379 129.398 205.344V203.472C129.398 202.448 129.233 201.637 128.902 201.04C128.572 200.432 128.006 200.128 127.206 200.128C126.406 200.128 125.841 200.432 125.51 201.04C125.18 201.637 125.014 202.448 125.014 203.472V205.36C125.014 206.384 125.18 207.2 125.51 207.808C125.841 208.405 126.406 208.704 127.206 208.704ZM133.376 210V198.832H140.56V200.336H135.168V203.584H140.064V205.088H135.168V210H133.376ZM158.58 210L157.732 207.024H154.18L153.332 210H151.508L154.772 198.832H157.22L160.484 210H158.58ZM156.02 200.64H155.891L154.516 205.536H157.396L156.02 200.64ZM178.263 198.832V207.008C178.263 207.488 178.178 207.925 178.007 208.32C177.847 208.715 177.612 209.051 177.303 209.328C177.004 209.605 176.642 209.819 176.215 209.968C175.788 210.117 175.314 210.192 174.791 210.192C173.81 210.192 173.026 209.947 172.439 209.456C171.863 208.965 171.49 208.288 171.319 207.424L173.015 207.072C173.111 207.531 173.292 207.915 173.559 208.224C173.826 208.533 174.242 208.688 174.807 208.688C175.33 208.688 175.735 208.533 176.023 208.224C176.322 207.904 176.471 207.419 176.471 206.768V200.336H172.583V198.832H178.263ZM184.769 210.192C184.065 210.192 183.451 210.064 182.929 209.808C182.417 209.541 181.99 209.163 181.649 208.672C181.318 208.181 181.073 207.579 180.913 206.864C180.753 206.149 180.673 205.333 180.673 204.416C180.673 203.509 180.753 202.699 180.913 201.984C181.073 201.259 181.318 200.651 181.649 200.16C181.99 199.669 182.417 199.296 182.929 199.04C183.451 198.773 184.065 198.64 184.769 198.64C185.473 198.64 186.081 198.773 186.593 199.04C187.115 199.296 187.542 199.669 187.873 200.16C188.214 200.651 188.465 201.259 188.625 201.984C188.785 202.699 188.865 203.509 188.865 204.416C188.865 205.333 188.785 206.149 188.625 206.864C188.465 207.579 188.214 208.181 187.873 208.672C187.542 209.163 187.115 209.541 186.593 209.808C186.081 210.064 185.473 210.192 184.769 210.192ZM184.769 208.704C185.569 208.704 186.134 208.405 186.465 207.808C186.795 207.2 186.961 206.379 186.961 205.344V203.472C186.961 202.448 186.795 201.637 186.465 201.04C186.134 200.432 185.569 200.128 184.769 200.128C183.969 200.128 183.403 200.432 183.073 201.04C182.742 201.637 182.577 202.448 182.577 203.472V205.36C182.577 206.384 182.742 207.2 183.073 207.808C183.403 208.405 183.969 208.704 184.769 208.704ZM192.459 198.832V205.696C192.459 206.155 192.469 206.571 192.491 206.944C192.523 207.317 192.603 207.637 192.731 207.904C192.859 208.16 193.051 208.357 193.307 208.496C193.563 208.635 193.915 208.704 194.363 208.704C194.811 208.704 195.163 208.635 195.419 208.496C195.675 208.357 195.867 208.16 195.995 207.904C196.123 207.637 196.197 207.317 196.219 206.944C196.251 206.571 196.267 206.155 196.267 205.696V198.832H198.059V205.376C198.059 206.176 198.011 206.88 197.915 207.488C197.829 208.085 197.653 208.587 197.387 208.992C197.12 209.387 196.741 209.685 196.251 209.888C195.771 210.091 195.141 210.192 194.363 210.192C193.584 210.192 192.949 210.091 192.459 209.888C191.979 209.685 191.605 209.387 191.339 208.992C191.072 208.587 190.891 208.085 190.795 207.488C190.709 206.88 190.667 206.176 190.667 205.376V198.832H192.459ZM202.276 210H200.5V198.832H204.676C205.743 198.832 206.554 199.131 207.108 199.728C207.674 200.325 207.956 201.147 207.956 202.192C207.956 203.045 207.748 203.749 207.332 204.304C206.916 204.859 206.319 205.2 205.54 205.328L208.116 210H206.132L203.764 205.488H202.276V210ZM204.42 204.048C205.53 204.048 206.084 203.541 206.084 202.528V201.84C206.084 200.827 205.53 200.32 204.42 200.32H202.276V204.048H204.42ZM211.614 201.408H211.47V210H209.902V198.832H212.206L215.486 207.424H215.63V198.832H217.198V210H214.894L211.614 201.408ZM219.72 210V198.832H226.712V200.336H221.512V203.584H226.52V205.088H221.512V208.496H226.712V210H219.72ZM231.842 210V205.792L228.13 198.832H230.13L231.554 201.616L232.706 204H232.802L233.97 201.616L235.394 198.832H237.345L233.634 205.792V210H231.842ZM24.7439 226.024C24.7439 225.245 24.8292 224.499 24.9999 223.784C25.1812 223.059 25.4212 222.387 25.7199 221.768C26.0292 221.149 26.3865 220.595 26.7919 220.104C27.1972 219.603 27.6239 219.181 28.0719 218.84H29.8159C29.3359 219.181 28.8825 219.581 28.4559 220.04C28.0292 220.499 27.6559 221.005 27.3359 221.56C27.0159 222.115 26.7599 222.707 26.5679 223.336C26.3759 223.955 26.2799 224.605 26.2799 225.288V226.76C26.2799 227.443 26.3759 228.099 26.5679 228.728C26.7599 229.347 27.0159 229.933 27.3359 230.488C27.6559 231.043 28.0292 231.549 28.4559 232.008C28.8825 232.467 29.3359 232.867 29.8159 233.208H28.0719C27.6239 232.877 27.1972 232.461 26.7919 231.96C26.3865 231.459 26.0292 230.899 25.7199 230.28C25.4212 229.661 25.1812 228.995 24.9999 228.28C24.8292 227.555 24.7439 226.803 24.7439 226.024ZM36.0656 231.192C35.3616 231.192 34.7483 231.064 34.2256 230.808C33.7136 230.541 33.287 230.163 32.9456 229.672C32.615 229.181 32.3696 228.579 32.2096 227.864C32.0496 227.149 31.9696 226.333 31.9696 225.416C31.9696 224.509 32.0496 223.699 32.2096 222.984C32.3696 222.259 32.615 221.651 32.9456 221.16C33.287 220.669 33.7136 220.296 34.2256 220.04C34.7483 219.773 35.3616 219.64 36.0656 219.64C36.7696 219.64 37.3776 219.773 37.8896 220.04C38.4123 220.296 38.839 220.669 39.1696 221.16C39.511 221.651 39.7616 222.259 39.9216 222.984C40.0816 223.699 40.1616 224.509 40.1616 225.416C40.1616 226.333 40.0816 227.149 39.9216 227.864C39.7616 228.579 39.511 229.181 39.1696 229.672C38.839 230.163 38.4123 230.541 37.8896 230.808C37.3776 231.064 36.7696 231.192 36.0656 231.192ZM36.0656 229.704C36.8656 229.704 37.431 229.405 37.7616 228.808C38.0923 228.2 38.2576 227.379 38.2576 226.344V224.472C38.2576 223.448 38.0923 222.637 37.7616 222.04C37.431 221.432 36.8656 221.128 36.0656 221.128C35.2656 221.128 34.7003 221.432 34.3696 222.04C34.039 222.637 33.8736 223.448 33.8736 224.472V226.36C33.8736 227.384 34.039 228.2 34.3696 228.808C34.7003 229.405 35.2656 229.704 36.0656 229.704ZM42.1874 219.832H46.0434C47.0567 219.832 47.8407 220.093 48.3954 220.616C48.9607 221.139 49.2434 221.853 49.2434 222.76C49.2434 223.411 49.0834 223.928 48.7634 224.312C48.4434 224.696 48.0114 224.968 47.4674 225.128V225.208C48.118 225.357 48.6407 225.645 49.0354 226.072C49.43 226.488 49.6274 227.08 49.6274 227.848C49.6274 228.307 49.5527 228.728 49.4034 229.112C49.254 229.496 49.0407 229.832 48.7634 230.12C48.486 230.397 48.15 230.616 47.7554 230.776C47.3714 230.925 46.9447 231 46.4754 231H42.1874V219.832ZM45.9314 229.624C46.5287 229.624 46.9874 229.501 47.3074 229.256C47.6274 229.011 47.7874 228.616 47.7874 228.072V227.496C47.7874 226.952 47.6274 226.557 47.3074 226.312C46.9874 226.067 46.5287 225.944 45.9314 225.944H43.9474V229.624H45.9314ZM45.6754 224.632C46.2407 224.632 46.6674 224.525 46.9554 224.312C47.254 224.088 47.4034 223.72 47.4034 223.208V222.632C47.4034 222.12 47.254 221.757 46.9554 221.544C46.6674 221.32 46.2407 221.208 45.6754 221.208H43.9474V224.632H45.6754ZM55.1571 231.192C54.1865 231.192 53.3705 231.021 52.7091 230.68C52.0478 230.339 51.5038 229.885 51.0771 229.32L52.2291 228.216C52.6558 228.728 53.1091 229.107 53.5891 229.352C54.0691 229.587 54.6131 229.704 55.2211 229.704C55.9251 229.704 56.4638 229.544 56.8371 229.224C57.2211 228.904 57.4131 228.445 57.4131 227.848C57.4131 227.368 57.2745 227 56.9971 226.744C56.7198 226.477 56.2451 226.285 55.5731 226.168L54.3571 225.976C53.8238 225.891 53.3758 225.752 53.0131 225.56C52.6505 225.357 52.3571 225.123 52.1331 224.856C51.9091 224.579 51.7438 224.275 51.6371 223.944C51.5411 223.603 51.4931 223.245 51.4931 222.872C51.4931 221.816 51.8345 221.016 52.5171 220.472C53.1998 219.917 54.1385 219.64 55.3331 219.64C56.2185 219.64 56.9705 219.784 57.5891 220.072C58.2185 220.349 58.7251 220.744 59.1091 221.256L57.9891 222.376C57.6798 222.003 57.3118 221.704 56.8851 221.48C56.4691 221.245 55.9518 221.128 55.3331 221.128C54.6718 221.128 54.1651 221.272 53.8131 221.56C53.4718 221.837 53.3011 222.248 53.3011 222.792C53.3011 223.251 53.4345 223.613 53.7011 223.88C53.9785 224.136 54.4638 224.323 55.1571 224.44L56.3411 224.648C57.3438 224.829 58.0745 225.197 58.5331 225.752C58.9918 226.296 59.2211 226.963 59.2211 227.752C59.2211 228.264 59.1305 228.733 58.9491 229.16C58.7785 229.587 58.5171 229.949 58.1651 230.248C57.8238 230.547 57.3971 230.781 56.8851 230.952C56.3838 231.112 55.8078 231.192 55.1571 231.192ZM61.4229 231V219.832H68.4149V221.336H63.2149V224.584H68.2229V226.088H63.2149V229.496H68.4149V231H61.4229ZM72.7606 231H70.9846V219.832H75.1606C76.2273 219.832 77.038 220.131 77.5926 220.728C78.158 221.325 78.4406 222.147 78.4406 223.192C78.4406 224.045 78.2326 224.749 77.8166 225.304C77.4006 225.859 76.8033 226.2 76.0246 226.328L78.6006 231H76.6166L74.2486 226.488H72.7606V231ZM74.9046 225.048C76.014 225.048 76.5686 224.541 76.5686 223.528V222.84C76.5686 221.827 76.014 221.32 74.9046 221.32H72.7606V225.048H74.9046ZM82.7864 231L79.6344 219.832H81.5704L83.0424 225.464L84.0184 229.256H84.1144L85.0904 225.464L86.5784 219.832H88.4344L85.2824 231H82.7864ZM96.2201 231L95.3721 228.024H91.8201L90.9721 231H89.1481L92.4121 219.832H94.8601L98.1241 231H96.2201ZM93.6601 221.64H93.5321L92.1561 226.536H95.0361L93.6601 221.64ZM104.118 221.336V231H102.326V221.336H98.8219V219.832H107.622V221.336H104.118ZM109.296 231V229.64H111.92V221.192H109.296V219.832H116.336V221.192H113.712V229.64H116.336V231H109.296ZM122.409 231.192C121.705 231.192 121.092 231.064 120.569 230.808C120.057 230.541 119.631 230.163 119.289 229.672C118.959 229.181 118.713 228.579 118.553 227.864C118.393 227.149 118.313 226.333 118.313 225.416C118.313 224.509 118.393 223.699 118.553 222.984C118.713 222.259 118.959 221.651 119.289 221.16C119.631 220.669 120.057 220.296 120.569 220.04C121.092 219.773 121.705 219.64 122.409 219.64C123.113 219.64 123.721 219.773 124.233 220.04C124.756 220.296 125.183 220.669 125.513 221.16C125.855 221.651 126.105 222.259 126.265 222.984C126.425 223.699 126.505 224.509 126.505 225.416C126.505 226.333 126.425 227.149 126.265 227.864C126.105 228.579 125.855 229.181 125.513 229.672C125.183 230.163 124.756 230.541 124.233 230.808C123.721 231.064 123.113 231.192 122.409 231.192ZM122.409 229.704C123.209 229.704 123.775 229.405 124.105 228.808C124.436 228.2 124.601 227.379 124.601 226.344V224.472C124.601 223.448 124.436 222.637 124.105 222.04C123.775 221.432 123.209 221.128 122.409 221.128C121.609 221.128 121.044 221.432 120.713 222.04C120.383 222.637 120.217 223.448 120.217 224.472V226.36C120.217 227.384 120.383 228.2 120.713 228.808C121.044 229.405 121.609 229.704 122.409 229.704ZM130.067 222.408H129.923V231H128.355V219.832H130.659L133.939 228.424H134.083V219.832H135.651V231H133.347L130.067 222.408ZM147.719 233.208L153.111 218.84H154.663L149.271 233.208H147.719ZM166.858 231V229.64H169.482V221.192H166.858V219.832H173.898V221.192H171.274V229.64H173.898V231H166.858ZM178.036 222.408H177.892V231H176.324V219.832H178.628L181.908 228.424H182.052V219.832H183.62V231H181.316L178.036 222.408ZM189.47 231.192C188.499 231.192 187.683 231.021 187.022 230.68C186.36 230.339 185.816 229.885 185.39 229.32L186.542 228.216C186.968 228.728 187.422 229.107 187.902 229.352C188.382 229.587 188.926 229.704 189.534 229.704C190.238 229.704 190.776 229.544 191.15 229.224C191.534 228.904 191.726 228.445 191.726 227.848C191.726 227.368 191.587 227 191.31 226.744C191.032 226.477 190.558 226.285 189.886 226.168L188.67 225.976C188.136 225.891 187.688 225.752 187.326 225.56C186.963 225.357 186.67 225.123 186.446 224.856C186.222 224.579 186.056 224.275 185.95 223.944C185.854 223.603 185.806 223.245 185.806 222.872C185.806 221.816 186.147 221.016 186.83 220.472C187.512 219.917 188.451 219.64 189.646 219.64C190.531 219.64 191.283 219.784 191.902 220.072C192.531 220.349 193.038 220.744 193.422 221.256L192.302 222.376C191.992 222.003 191.624 221.704 191.198 221.48C190.782 221.245 190.264 221.128 189.646 221.128C188.984 221.128 188.478 221.272 188.126 221.56C187.784 221.837 187.614 222.248 187.614 222.792C187.614 223.251 187.747 223.613 188.014 223.88C188.291 224.136 188.776 224.323 189.47 224.44L190.654 224.648C191.656 224.829 192.387 225.197 192.846 225.752C193.304 226.296 193.534 226.963 193.534 227.752C193.534 228.264 193.443 228.733 193.262 229.16C193.091 229.587 192.83 229.949 192.478 230.248C192.136 230.547 191.71 230.781 191.198 230.952C190.696 231.112 190.12 231.192 189.47 231.192ZM195.639 231V229.64H198.263V221.192H195.639V219.832H202.679V221.192H200.055V229.64H202.679V231H195.639ZM210.833 229.464H210.721C210.625 229.688 210.508 229.907 210.369 230.12C210.241 230.323 210.076 230.504 209.873 230.664C209.681 230.824 209.446 230.952 209.169 231.048C208.892 231.144 208.572 231.192 208.209 231.192C207.046 231.192 206.172 230.696 205.585 229.704C204.998 228.712 204.705 227.309 204.705 225.496C204.705 223.597 205.041 222.147 205.713 221.144C206.385 220.141 207.414 219.64 208.801 219.64C209.345 219.64 209.82 219.715 210.225 219.864C210.641 220.013 210.993 220.216 211.281 220.472C211.569 220.717 211.809 221.011 212.001 221.352C212.193 221.683 212.348 222.035 212.465 222.408L210.849 222.952C210.764 222.707 210.668 222.477 210.561 222.264C210.454 222.04 210.321 221.843 210.161 221.672C210.012 221.501 209.825 221.368 209.601 221.272C209.388 221.176 209.126 221.128 208.817 221.128C208.038 221.128 207.473 221.432 207.121 222.04C206.78 222.637 206.609 223.448 206.609 224.472V226.248C206.609 226.76 206.646 227.229 206.721 227.656C206.796 228.083 206.918 228.451 207.089 228.76C207.27 229.059 207.5 229.293 207.777 229.464C208.065 229.635 208.412 229.72 208.817 229.72C209.468 229.72 209.964 229.528 210.305 229.144C210.657 228.749 210.833 228.248 210.833 227.64V226.632H208.673V225.288H212.465V231H210.833V229.464ZM220.203 226.088H216.491V231H214.699V219.832H216.491V224.584H220.203V219.832H221.995V231H220.203V226.088ZM228.837 221.336V231H227.045V221.336H223.541V219.832H232.341V221.336H228.837ZM239.262 226.024C239.262 226.803 239.172 227.555 238.99 228.28C238.82 228.995 238.58 229.661 238.27 230.28C237.972 230.899 237.62 231.459 237.214 231.96C236.809 232.461 236.382 232.877 235.934 233.208H234.19C234.67 232.867 235.124 232.467 235.55 232.008C235.977 231.549 236.35 231.043 236.67 230.488C236.99 229.933 237.246 229.347 237.438 228.728C237.63 228.099 237.726 227.443 237.726 226.76V225.288C237.726 224.605 237.63 223.955 237.438 223.336C237.246 222.707 236.99 222.115 236.67 221.56C236.35 221.005 235.977 220.499 235.55 220.04C235.124 219.581 234.67 219.181 234.19 218.84H235.934C236.382 219.181 236.809 219.603 237.214 220.104C237.62 220.595 237.972 221.149 238.27 221.768C238.58 222.387 238.82 223.059 238.99 223.784C239.172 224.499 239.262 225.245 239.262 226.024Z" fill="currentColor"/>
    <path d="M1083.9 134.25L1116.53 199.524H1051.26L1083.9 134.25Z" stroke="currentColor" stroke-width="4" stroke-linecap="round" stroke-linejoin="round"/>
    <line x1="1069.78" y1="116.128" x2="1098.02" y2="116.128" stroke="currentColor" stroke-width="4" stroke-linecap="round"/>
    <path d="M116.384 165V160.644H123.152V143.796H122.828L117.716 150.492L114.26 147.792L120.272 139.872H128.552V160.644H133.88V165H116.384Z" fill="currentColor"/>
    <path d="M276.836 620H259.052V615.068L266.792 608.444C267.488 607.844 268.076 607.304 268.556 606.824C269.036 606.32 269.42 605.84 269.708 605.384C270.02 604.904 270.236 604.436 270.356 603.98C270.5 603.524 270.572 603.032 270.572 602.504V602C270.572 601.52 270.476 601.1 270.284 600.74C270.092 600.38 269.84 600.08 269.528 599.84C269.216 599.6 268.856 599.42 268.448 599.3C268.064 599.18 267.668 599.12 267.26 599.12C266.66 599.12 266.132 599.216 265.676 599.408C265.244 599.6 264.86 599.864 264.524 600.2C264.212 600.512 263.948 600.884 263.732 601.316C263.516 601.724 263.348 602.168 263.228 602.648L258.512 600.848C258.8 599.984 259.196 599.168 259.7 598.4C260.204 597.608 260.828 596.924 261.572 596.348C262.34 595.748 263.24 595.28 264.272 594.944C265.304 594.608 266.468 594.44 267.764 594.44C269.132 594.44 270.344 594.632 271.4 595.016C272.456 595.4 273.344 595.928 274.064 596.6C274.808 597.272 275.372 598.076 275.756 599.012C276.14 599.924 276.332 600.92 276.332 602C276.332 603.08 276.152 604.064 275.792 604.952C275.432 605.84 274.94 606.68 274.316 607.472C273.716 608.24 273.008 608.972 272.192 609.668C271.376 610.364 270.524 611.072 269.636 611.792L264.956 615.464H276.836V620Z" fill="currentColor"/>
    <path d="M473.432 388.808C474.776 388.808 475.748 388.556 476.348 388.052C476.972 387.524 477.284 386.876 477.284 386.108V385.856C477.284 384.944 476.984 384.212 476.384 383.66C475.808 383.108 474.98 382.832 473.9 382.832C472.892 382.832 471.944 383.096 471.056 383.624C470.168 384.128 469.412 384.86 468.788 385.82L465.404 382.652C465.884 382.028 466.4 381.464 466.952 380.96C467.504 380.432 468.128 379.988 468.824 379.628C469.52 379.244 470.3 378.956 471.164 378.764C472.028 378.548 473 378.44 474.08 378.44C475.424 378.44 476.636 378.596 477.716 378.908C478.82 379.22 479.756 379.676 480.524 380.276C481.316 380.852 481.916 381.548 482.324 382.364C482.756 383.18 482.972 384.092 482.972 385.1C482.972 385.892 482.84 386.612 482.576 387.26C482.336 387.908 481.988 388.472 481.532 388.952C481.1 389.432 480.596 389.828 480.02 390.14C479.444 390.428 478.832 390.632 478.184 390.752V390.968C478.928 391.112 479.612 391.352 480.236 391.688C480.884 392 481.436 392.408 481.892 392.912C482.372 393.416 482.744 394.016 483.008 394.712C483.272 395.384 483.404 396.152 483.404 397.016C483.404 398.144 483.176 399.164 482.72 400.076C482.264 400.988 481.616 401.768 480.776 402.416C479.936 403.064 478.928 403.568 477.752 403.928C476.576 404.264 475.28 404.432 473.864 404.432C472.592 404.432 471.464 404.3 470.48 404.036C469.496 403.772 468.632 403.424 467.888 402.992C467.168 402.536 466.532 402.02 465.98 401.444C465.452 400.868 464.984 400.256 464.576 399.608L468.572 396.512C469.124 397.544 469.796 398.396 470.588 399.068C471.404 399.716 472.496 400.04 473.864 400.04C475.088 400.04 476.036 399.74 476.708 399.14C477.404 398.516 477.752 397.676 477.752 396.62V396.404C477.752 395.372 477.356 394.604 476.564 394.1C475.796 393.572 474.728 393.308 473.36 393.308H471.092V388.808H473.432Z" fill="currentColor"/>
    <path d="M541.132 37V32.176H530.08V27.568L539.872 11.872H546.28V28H549.448V32.176H546.28V37H541.132ZM534.4 28H541.132V17.452H540.772L534.4 28Z" fill="currentColor"/>
    <path d="M1080.8 37.432C1079.31 37.432 1077.98 37.252 1076.8 36.892C1075.65 36.508 1074.68 35.992 1073.89 35.344C1073.1 34.696 1072.48 33.928 1072.05 33.04C1071.64 32.152 1071.44 31.18 1071.44 30.124C1071.44 28.516 1071.88 27.208 1072.77 26.2C1073.66 25.168 1074.86 24.448 1076.37 24.04V23.752C1075.15 23.296 1074.14 22.6 1073.35 21.664C1072.58 20.728 1072.2 19.528 1072.2 18.064C1072.2 17.104 1072.38 16.216 1072.74 15.4C1073.12 14.584 1073.67 13.888 1074.39 13.312C1075.14 12.712 1076.04 12.256 1077.09 11.944C1078.17 11.608 1079.41 11.44 1080.8 11.44C1082.19 11.44 1083.42 11.608 1084.47 11.944C1085.55 12.256 1086.45 12.712 1087.17 13.312C1087.92 13.888 1088.47 14.584 1088.83 15.4C1089.21 16.216 1089.4 17.104 1089.4 18.064C1089.4 19.528 1089.01 20.728 1088.22 21.664C1087.45 22.6 1086.45 23.296 1085.23 23.752V24.04C1086.74 24.448 1087.94 25.168 1088.83 26.2C1089.72 27.208 1090.16 28.516 1090.16 30.124C1090.16 31.18 1089.94 32.152 1089.51 33.04C1089.1 33.928 1088.5 34.696 1087.71 35.344C1086.92 35.992 1085.94 36.508 1084.76 36.892C1083.61 37.252 1082.29 37.432 1080.8 37.432ZM1080.8 33.292C1082 33.292 1082.91 33.016 1083.54 32.464C1084.18 31.888 1084.51 31.096 1084.51 30.088V29.368C1084.51 28.36 1084.18 27.58 1083.54 27.028C1082.91 26.452 1082 26.164 1080.8 26.164C1079.6 26.164 1078.68 26.452 1078.03 27.028C1077.4 27.58 1077.09 28.36 1077.09 29.368V30.088C1077.09 31.096 1077.4 31.888 1078.03 32.464C1078.68 33.016 1079.6 33.292 1080.8 33.292ZM1080.8 22.204C1081.95 22.204 1082.83 21.94 1083.43 21.412C1084.03 20.86 1084.33 20.116 1084.33 19.18V18.604C1084.33 17.668 1084.03 16.936 1083.43 16.408C1082.83 15.856 1081.95 15.58 1080.8 15.58C1079.65 15.58 1078.77 15.856 1078.17 16.408C1077.57 16.936 1077.27 17.668 1077.27 18.604V19.18C1077.27 20.116 1077.57 20.86 1078.17 21.412C1078.77 21.94 1079.65 22.204 1080.8 22.204Z" fill="currentColor"/>
    <path d="M727.792 216.588H716.38L715.84 224.544H716.128C716.368 223.944 716.632 223.404 716.92 222.924C717.232 222.42 717.592 222 718 221.664C718.408 221.304 718.9 221.028 719.476 220.836C720.052 220.644 720.736 220.548 721.528 220.548C722.608 220.548 723.616 220.728 724.552 221.088C725.488 221.448 726.304 221.976 727 222.672C727.696 223.344 728.248 224.184 728.656 225.192C729.064 226.176 729.268 227.292 729.268 228.54C729.268 229.812 729.052 231 728.62 232.104C728.212 233.184 727.588 234.12 726.748 234.912C725.932 235.704 724.924 236.328 723.724 236.784C722.524 237.216 721.156 237.432 719.62 237.432C718.396 237.432 717.316 237.3 716.38 237.036C715.444 236.772 714.616 236.424 713.896 235.992C713.176 235.536 712.552 235.02 712.024 234.444C711.496 233.868 711.04 233.256 710.656 232.608L714.58 229.512C715.132 230.496 715.792 231.336 716.56 232.032C717.328 232.704 718.36 233.04 719.656 233.04C720.952 233.04 721.924 232.668 722.572 231.924C723.244 231.18 723.58 230.196 723.58 228.972V228.684C723.58 227.532 723.244 226.62 722.572 225.948C721.9 225.276 720.976 224.94 719.8 224.94C718.816 224.94 718 225.144 717.352 225.552C716.728 225.936 716.248 226.32 715.912 226.704L711.484 226.092L712.42 211.872H727.792V216.588Z" fill="currentColor"/>
    <path d="M811.944 610.432C810.456 610.432 809.124 610.204 807.948 609.748C806.772 609.268 805.776 608.596 804.96 607.732C804.168 606.844 803.556 605.788 803.124 604.564C802.716 603.34 802.512 601.972 802.512 600.46C802.512 598.708 802.776 597.052 803.304 595.492C803.856 593.908 804.552 592.456 805.392 591.136C806.256 589.792 807.216 588.592 808.272 587.536C809.352 586.48 810.432 585.592 811.512 584.872H818.964C817.428 585.976 816.048 587.032 814.824 588.04C813.6 589.024 812.532 590.02 811.62 591.028C810.732 592.036 809.988 593.068 809.388 594.124C808.812 595.156 808.404 596.272 808.164 597.472L808.488 597.58C808.704 597.1 808.956 596.632 809.244 596.176C809.556 595.72 809.928 595.324 810.36 594.988C810.816 594.628 811.344 594.34 811.944 594.124C812.544 593.908 813.24 593.8 814.032 593.8C815.064 593.8 816.024 593.992 816.912 594.376C817.824 594.736 818.604 595.252 819.252 595.924C819.924 596.596 820.44 597.424 820.8 598.408C821.184 599.368 821.376 600.436 821.376 601.612C821.376 602.908 821.148 604.096 820.692 605.176C820.26 606.256 819.624 607.192 818.784 607.984C817.968 608.752 816.984 609.352 815.832 609.784C814.68 610.216 813.384 610.432 811.944 610.432ZM811.944 606.22C813.144 606.22 814.08 605.896 814.752 605.248C815.424 604.576 815.76 603.628 815.76 602.404V601.756C815.76 600.532 815.424 599.596 814.752 598.948C814.08 598.276 813.144 597.94 811.944 597.94C810.744 597.94 809.808 598.276 809.136 598.948C808.464 599.596 808.128 600.532 808.128 601.756V602.404C808.128 603.628 808.464 604.576 809.136 605.248C809.808 605.896 810.744 606.22 811.944 606.22Z" fill="currentColor"/>
    <path d="M1005.98 404L1014.4 383.264H1006.55V387.836H1001.98V378.872H1019.76V383.552L1011.66 404H1005.98Z" fill="currentColor"/>
</svg>
