<svg width="108" height="124" viewBox="0 0 108 124" fill="none"
    xmlns="http://www.w3.org/2000/svg">
    <path fill-rule="evenodd" clip-rule="evenodd" d="M41.8342 21.0169C45.5902 21.0169 49.3462 21.0749 53.0972 20.9769C54.0922 20.9509 55.8772 21.7739 55.7972 19.7059C55.7362 18.0229 54.1752 18.6319 53.2292 18.6169C48.9922 18.5499 44.7412 18.3889 40.5212 18.6539C37.5182 18.8409 36.6332 17.7009 37.0102 14.9469C37.1402 13.9969 37.0152 13.0129 37.0352 12.0449C37.1672 5.59894 38.7252 3.40494 44.9772 1.81494C51.8652 0.0649396 58.9142 0.12294 65.7832 1.63094C71.9582 2.98694 74.5232 7.79094 74.2112 12.2349C73.8312 17.6579 74.1252 23.1279 74.1202 28.5779C74.1112 35.4309 70.5702 39.0679 63.6612 39.1629C57.9712 39.2409 52.2742 39.3029 46.5872 39.1449C39.8092 38.9549 34.8372 44.5849 34.8032 50.9649C34.8032 51.4489 34.8862 51.9489 34.7902 52.4159C34.3022 54.7589 36.2522 58.5459 33.7682 59.2419C29.9882 60.3039 25.5622 60.3039 22.2282 56.9309C21.0982 55.7909 20.1462 54.5139 19.6442 53.0379C16.9652 45.1729 16.5422 37.2079 19.0642 29.2199C20.6362 24.2339 24.9122 21.1329 30.2092 21.0439C34.0832 20.9789 37.9582 21.0309 41.8322 21.0309L41.8342 21.0169ZM48.7362 9.89694C48.5742 7.99394 47.5512 6.60494 45.4402 6.54694C43.1312 6.48694 41.9382 7.88294 41.9352 10.1549C41.9332 12.2609 43.0802 13.6099 45.1762 13.6709C47.4792 13.7379 48.5942 12.3109 48.7362 9.89694Z" fill="#386F9F"/>
    <path fill-rule="evenodd" clip-rule="evenodd" d="M70.824 59.5719C66.584 59.5719 62.342 59.5349 58.102 59.6019C57.147 59.6139 55.545 59.0099 55.495 60.6429C55.439 62.4949 57.158 62.0129 58.25 62.0239C62.49 62.0769 66.734 62.1219 70.973 62.0039C73.151 61.9439 74.04 62.3609 74.203 64.9289C74.94 76.5539 69.895 77.5589 60.59 79.6739C55.252 80.8869 49.529 80.2439 44.265 77.8859C39.912 75.9389 37.241 73.1329 37.578 67.8789C37.912 62.6929 37.968 57.4399 37.569 52.2589C37.089 46.0059 40.979 41.4069 48.544 41.4049C53.634 41.4039 58.758 41.0159 63.804 41.4799C71.019 42.1419 76.676 35.8879 76.924 28.6159C76.934 28.3749 76.872 28.1159 76.934 27.8919C77.57 25.6569 75.308 22.3349 78.334 21.2059C82.907 19.5009 88.064 21.2929 90.4 24.7629C93.345 29.1319 93.743 34.2729 94.219 39.2929C94.734 44.7039 93.216 49.7979 90.943 54.6789C89.399 57.9889 86.803 59.5889 83.186 59.5939C79.066 59.5969 74.9469 59.5939 70.826 59.5939C70.824 59.5859 70.824 59.5789 70.824 59.5719ZM69.72 70.3719C69.267 68.3059 68.335 66.8959 65.935 66.8369C63.439 66.7769 62.795 68.6439 62.808 70.3109C62.822 72.0829 63.316 74.2629 66.018 74.0589C68.264 73.8869 69.359 72.4959 69.72 70.3719Z" fill="#FFCF46"/>
    <path fill-rule="evenodd" clip-rule="evenodd" d="M4.12894 112.849C4.12894 115.431 4.24594 117.849 4.07394 120.246C3.99994 121.28 5.13994 123.226 2.97094 123.224C1.05894 123.224 0.567941 121.702 0.628941 119.863C0.745941 116.353 0.662942 112.836 0.662942 109.323V101.325C0.662942 96.505 1.95594 94.873 6.56594 93.875C10.8519 92.943 14.2199 94.386 15.9519 98.138C17.6839 101.891 17.8179 105.758 16.0849 109.576C14.3769 113.338 11.2309 114.742 7.20094 113.627C6.28294 113.377 5.35594 113.16 4.12894 112.849ZM4.12894 103.401C4.12894 104.731 4.30894 106.087 4.09194 107.381C3.58994 110.372 5.49994 111.109 7.75194 111.641C9.97894 112.167 11.5059 111.22 12.3989 109.258C13.8999 105.968 14.1519 102.575 13.0119 99.096C11.9999 96.004 9.66294 95.642 6.93494 96.026C4.24094 96.409 3.87594 98.241 4.11094 100.506C4.21094 101.461 4.12894 102.436 4.12894 103.401ZM33.1159 112.689C31.2709 113.169 29.6689 113.681 28.0289 113.989C24.4389 114.66 21.7809 112.689 20.8459 109.095C19.6859 104.647 20.6679 100.216 20.6979 95.778C20.7109 93.755 22.5829 94.544 23.8779 93.46C23.8779 98.21 23.8959 102.31 23.8719 106.407C23.8589 108.465 24.3909 110.157 26.3369 111.242C28.4849 112.44 30.2469 111.299 32.1169 110.53C33.4569 109.979 33.2899 108.854 33.2919 107.784C33.3019 103.912 33.2909 100.044 33.3039 96.172C33.3059 95.217 33.2069 94.05 34.6169 94.097C35.8739 94.138 36.4209 94.885 36.3999 96.255C36.3089 102.662 36.4899 109.078 36.2299 115.476C36.0329 120.314 32.6199 123.269 27.7099 123.486C26.9749 123.517 26.2049 123.585 25.9299 122.673C25.5109 121.269 26.6479 121.534 27.3949 121.295C32.7959 119.577 33.5019 118.551 33.1159 112.689ZM55.9399 96.064C57.3689 95.389 58.1899 94.771 59.0929 94.604C64.1599 93.667 68.0429 94.024 68.0329 100.849C68.0259 104.364 68.0349 107.88 68.0259 111.394C68.0239 112.378 68.0869 113.336 66.6199 113.421C65.0729 113.513 64.7329 112.628 64.7399 111.415C64.7579 108.028 64.8499 104.641 64.8469 101.255C64.8449 98.625 64.3079 96.297 60.9629 96.305C58.0289 96.31 55.9509 98.5 55.9359 101.522C55.9191 104.793 55.9201 108.065 55.9389 111.336C55.9419 112.498 55.9669 113.517 54.2869 113.421C52.7739 113.331 52.9599 112.311 52.9599 111.372C52.9499 102.772 52.9919 94.163 52.9189 85.557C52.9059 84.049 53.5009 83.113 54.8389 83.049C56.7269 82.962 55.8619 84.613 55.8899 85.441C56.0129 88.812 55.9399 92.191 55.9399 96.064ZM71.9299 103.775C71.7389 97.06 74.9239 93.475 80.6899 93.683C83.5839 93.789 85.7549 95.073 87.1559 97.573C89.6309 101.995 89.2959 106.419 86.6179 110.56C84.7779 113.404 81.9479 114.745 78.4979 114.013C75.0959 113.293 72.4319 110.23 71.9499 106.66C71.8219 105.715 71.9299 104.736 71.9299 103.775ZM85.2499 103.932C85.0979 102.76 85.1249 101.126 84.6369 99.668C83.9699 97.668 82.7539 96.058 80.2729 95.948C77.7699 95.84 76.5209 97.303 75.6859 99.328C74.3749 102.507 74.4599 105.699 75.8799 108.821C76.7919 110.832 78.1999 112.304 80.6399 111.896C83.0429 111.495 84.4609 109.92 84.9519 107.583C85.1749 106.524 85.1389 105.415 85.2499 103.933V103.932ZM92.2569 104.827C92.2569 103.615 92.2339 102.405 92.2609 101.199C92.3169 98.874 91.5759 96.298 94.7109 95.11C98.3009 93.754 101.859 92.738 105.473 94.837C106.825 95.623 107.323 97.051 107.337 98.567C107.374 102.798 107.318 107.031 107.375 111.262C107.395 112.738 107.007 113.476 105.348 113.436C103.53 113.393 103.913 112.153 103.925 111.163C103.968 107.783 104.203 104.406 104.139 101.031C104.055 96.781 101.723 95.048 97.7499 96.091C96.1019 96.525 95.0719 97.325 95.1529 99.365C95.3139 103.347 95.1899 107.343 95.2049 111.332C95.2089 112.488 95.2259 113.512 93.5579 113.415C92.0299 113.327 92.2799 112.27 92.2679 111.353C92.2399 109.177 92.2599 107 92.2569 104.827ZM48.6889 95.403C48.4389 95.699 48.2289 96.163 48.0089 96.167C44.0449 96.222 45.1449 99.181 45.0429 101.376C44.9459 103.421 45.0429 105.476 45.0139 107.527C44.9839 109.565 45.1609 111.459 47.6409 112C48.3519 112.154 48.6759 112.564 48.5279 113.274C48.3649 114.058 47.7399 114.027 47.1209 114.019C44.2709 113.969 42.1579 111.954 42.0739 109.004C41.9879 105.99 42.1049 102.969 42.0339 99.958C41.9969 98.528 42.7399 96.703 40.4339 96.136C40.1809 96.075 40.0909 95.358 39.9259 94.949C43.0019 93.984 41.7259 91.331 42.1479 89.318C42.3479 88.365 43.2529 88.104 44.1079 88.023C44.9729 87.941 44.9799 88.641 45.0079 89.226C45.1219 91.546 43.9209 94.651 48.1919 94.482C48.3349 94.477 48.5019 95.044 48.6889 95.402V95.403Z" fill="#386F9F"/>
</svg>
