<svg width="800" height="664" viewBox="0 0 800 664" fill="none"
    xmlns="http://www.w3.org/2000/svg">
    <path d="M125.619 132.423L92.2623 317.769L637.654 415.874L671.011 230.528L125.619 132.423V132.423ZM604.266 365.57C603.696 366.33 603.189 367.09 602.587 367.819L411.888 333.512L140.666 284.729L158.532 185.356L350.624 219.917L427.41 233.728L621.657 268.668L604.234 365.57H604.266Z" fill="#00BD64"/>
    <path d="M407.961 279.09C404.571 297.938 406.218 316.533 411.92 333.544L602.619 367.85C603.221 367.122 603.728 366.33 604.298 365.601L621.721 268.7L427.474 233.76C417.907 246.842 411.002 262.142 407.961 279.122V279.09Z" fill="#2DD7FF"/>
    <path d="M140.697 284.728L330.477 318.877C341.723 304.939 349.769 288.086 353.158 269.238C356.199 252.259 355.059 235.502 350.687 219.916L158.595 185.356L140.729 284.728H140.697Z" fill="#2DD7FF"/>
    <path d="M411.888 333.512C406.186 316.533 404.539 297.907 407.929 279.059C410.97 262.079 417.876 246.779 427.442 233.696L350.656 219.885C355.059 235.47 356.199 252.228 353.127 269.207C349.737 288.055 341.723 304.907 330.446 318.846L411.857 333.481L411.888 333.512Z" fill="#FF8BEF"/>
    <path d="M94.5114 11.3516L12.0547 469.725L659.892 586.267L742.348 127.893L94.5114 11.3516V11.3516ZM637.654 415.874L92.2623 317.768L125.619 132.423L671.011 230.528L637.654 415.874Z" fill="#FF8BEF"/>
    <path d="M742.348 127.893L788.091 193.656L705.602 652.03L659.892 586.267L742.348 127.893Z" fill="#FF4B1E"/>
    <path d="M12.0547 469.725L57.7654 535.488L705.603 652.029L659.892 586.267L12.0547 469.725Z" fill="#FF4B1E"/>
    <path d="M682.915 164.156L137.506 66.0217L125.558 132.428L670.966 230.563L682.915 164.156Z" fill="#FFD43A"/>
    <path d="M637.594 415.903L92.1853 317.768L80.2368 384.175L625.645 482.31L637.594 415.903Z" fill="#FFD43A"/>
    <path d="M516.614 344.504C541.947 344.504 562.483 323.968 562.483 298.635C562.483 273.302 541.947 252.766 516.614 252.766C491.282 252.766 470.745 273.302 470.745 298.635C470.745 323.968 491.282 344.504 516.614 344.504Z" fill="#FF4B1E"/>
    <path d="M244.504 295.531C269.837 295.531 290.373 274.994 290.373 249.661C290.373 224.329 269.837 203.792 244.504 203.792C219.172 203.792 198.635 224.329 198.635 249.661C198.635 274.994 219.172 295.531 244.504 295.531Z" fill="#FF4B1E"/>
    <path d="M193.028 474.445C200.694 475.839 208.044 470.708 209.437 463.042C210.831 455.376 205.699 448.026 198.033 446.632C190.368 445.239 183.018 450.37 181.625 458.036C180.231 465.702 185.362 473.052 193.028 474.445V474.445Z" fill="black"/>
    <path d="M254.324 471.15C261.99 472.544 269.339 467.412 270.733 459.747C272.127 452.081 266.995 444.732 259.329 443.338C251.663 441.944 244.314 447.076 242.92 454.742C241.527 462.408 246.658 469.757 254.324 471.15Z" fill="black"/>
    <path d="M488.643 527.632C496.309 529.026 503.658 523.894 505.052 516.228C506.446 508.562 501.314 501.213 493.648 499.819C485.982 498.425 478.633 503.557 477.239 511.223C475.845 518.889 480.977 526.238 488.643 527.632Z" fill="black"/>
    <path d="M432.32 503.145C439.986 504.539 447.335 499.407 448.729 491.741C450.123 484.075 444.991 476.726 437.325 475.332C429.659 473.939 422.31 479.07 420.916 486.736C419.523 494.402 424.654 501.751 432.32 503.145Z" fill="black"/>
    <path d="M229.901 266.324C230.091 266.324 230.313 266.293 230.503 266.261C231.073 271.108 234.684 275.226 239.753 276.144C240.418 276.271 241.115 276.334 241.78 276.334C246.057 276.334 249.953 273.864 251.854 270.126C253.279 270.759 254.8 271.108 256.352 271.108C259.583 271.108 262.814 269.745 265.063 267.085C268.389 263.157 268.516 257.676 265.855 253.558C269.783 250.644 271.557 245.449 269.815 240.602C268.072 235.755 263.384 232.905 258.506 233.158C257.936 228.311 254.324 224.162 249.256 223.243C244.219 222.356 239.373 224.953 237.155 229.293C232.657 227.361 227.272 228.406 223.946 232.334C220.619 236.262 220.493 241.742 223.154 245.861C219.226 248.775 217.452 253.97 219.194 258.817C220.873 263.442 225.244 266.356 229.901 266.356V266.324Z" fill="black"/>
    <path d="M797.436 187.162L751.725 121.399C751.155 120.576 750.426 119.847 749.666 119.213C749.476 119.055 749.317 118.897 749.127 118.77C748.335 118.2 747.512 117.693 746.593 117.313C746.53 117.313 746.498 117.313 746.435 117.281C745.801 117.028 745.104 116.838 744.407 116.711L96.5703 0.169285C93.6243 -0.337555 90.5516 0.29608 88.0491 2.03834C85.5782 3.74893 83.8676 6.40984 83.3608 9.35585L0.904211 467.73C0.777501 468.458 0.714142 469.187 0.714142 469.947C0.714142 470.929 0.935889 471.879 1.18931 472.83C1.25266 473.083 1.3477 473.305 1.41105 473.527C1.7595 474.477 2.17131 475.364 2.7415 476.219L48.4522 541.982C50.1628 544.452 52.8237 546.163 55.7697 546.702L703.607 663.243C704.272 663.37 704.937 663.434 705.602 663.434C706.394 663.434 707.218 663.338 708.01 663.18C708.073 663.18 708.105 663.116 708.168 663.116C709.182 662.863 710.164 662.515 711.083 662.008C711.273 661.913 711.399 661.754 711.589 661.659C712.286 661.216 712.952 660.741 713.553 660.139C713.839 659.886 714.029 659.569 714.282 659.284C714.567 658.935 714.916 658.618 715.169 658.207C715.264 658.048 715.296 657.89 715.391 657.731C715.676 657.256 715.866 656.718 716.088 656.179C716.309 655.641 716.499 655.134 716.626 654.595C716.658 654.405 716.753 654.279 716.785 654.088L799.241 195.715C799.78 192.737 799.115 189.664 797.372 187.194L797.436 187.162ZM103.729 24.561L729.171 137.08L664.041 499.122L650.737 573.026L550.256 554.938L543.54 479.419L623.653 493.832C624.318 493.959 625.015 494.022 625.68 494.022C631.097 494.022 635.88 490.157 636.862 484.645L636.926 484.297L648.868 417.901L682.224 232.587L694.167 166.191C694.294 165.431 694.357 164.671 694.357 163.942C694.357 163.467 694.262 163.023 694.199 162.548C694.167 162.263 694.167 162.01 694.104 161.725C693.977 161.186 693.787 160.679 693.597 160.173C693.533 159.982 693.502 159.792 693.407 159.634C692.805 158.272 691.949 157.036 690.872 155.991C690.746 155.864 690.587 155.769 690.429 155.643C690.017 155.263 689.574 154.914 689.13 154.597C688.972 154.502 688.782 154.407 688.592 154.312C688.116 154.059 687.673 153.774 687.166 153.584C686.469 153.299 685.741 153.109 685.012 152.95L139.62 54.8447C136.642 54.3379 133.601 54.9715 131.099 56.7138C128.628 58.4244 126.917 61.0853 126.411 64.0313L80.6365 318.402L69.1693 382.2L69.1059 382.581C67.9972 388.758 72.1153 394.681 78.2924 395.79L158.405 410.203L125.809 478.658L25.3276 460.571L103.761 24.6244L103.729 24.561ZM93.561 374.978L101.48 330.978L624.476 425.06L616.557 469.06L93.561 374.978V374.978ZM527.036 550.788L148.997 482.777L181.593 414.353L520.321 475.301L527.036 550.82V550.788ZM657.801 239.715L628.499 402.664L105.503 308.582L134.805 145.633L657.801 239.715ZM138.828 123.237L146.748 79.2365L669.744 173.319L661.824 217.319L138.828 123.237ZM64.4176 525.129L37.08 485.786L128.438 502.227L155.776 541.57L64.4176 525.129ZM187.453 547.272L160.115 507.928L535.843 575.528L563.18 614.872L187.453 547.272ZM594.858 620.574L567.52 581.23L653.271 596.657L674.558 627.258L680.609 635.969L594.858 620.542V620.574ZM699.299 623.013L671.961 583.669L748.716 157.005L776.053 196.348L699.299 623.013V623.013Z" fill="black"/>
    <path d="M502.011 315.266C502.201 315.266 502.423 315.234 502.613 315.203C503.183 320.049 506.794 324.167 511.863 325.086C512.528 325.213 513.225 325.276 513.89 325.276C518.167 325.276 522.063 322.805 523.964 319.067C525.389 319.701 526.91 320.049 528.462 320.049C531.693 320.049 534.924 318.687 537.173 316.026C540.499 312.098 540.626 306.618 537.965 302.5C541.893 299.585 543.667 294.39 541.925 289.544C540.182 284.697 535.494 281.846 530.616 282.099C530.046 277.253 526.434 273.103 521.366 272.185C516.329 271.298 511.483 273.895 509.265 278.235C504.767 276.303 499.382 277.348 496.087 281.276C492.761 285.204 492.635 290.684 495.295 294.802C491.367 297.717 489.593 302.912 491.336 307.758C493.015 312.383 497.386 315.298 502.043 315.298L502.011 315.266Z" fill="black"/>
    <path d="M131.352 291.222C133.063 293.693 135.724 295.404 138.67 295.942L601.795 379.254C602.46 379.381 603.157 379.444 603.823 379.444C609.239 379.444 614.023 375.58 615.005 370.068L632.871 270.695C633.409 267.718 632.744 264.645 631.002 262.174C629.26 259.703 626.63 257.993 623.684 257.454L160.559 174.142C154.382 173.034 148.458 177.152 147.349 183.329L129.483 282.701C128.945 285.679 129.61 288.751 131.352 291.222V291.222ZM566.316 270.252L608.511 277.854L594.668 354.831L548.07 346.436C548.482 346.151 548.925 345.929 549.337 345.644C561.882 336.901 570.308 323.818 573 308.772C575.471 295.024 572.779 281.529 566.348 270.283L566.316 270.252ZM482.656 292.489C486.014 273.768 504.038 261.255 522.728 264.645C541.45 268.003 553.962 285.996 550.573 304.717C548.925 313.777 543.889 321.696 536.318 326.923C528.747 332.182 519.592 334.177 510.532 332.561C501.472 330.946 493.585 325.877 488.295 318.307C483.036 310.736 481.041 301.581 482.656 292.521V292.489ZM419.174 281.086C421.455 268.51 426.112 256.757 432.732 246.24L479.932 254.73C469.953 263.029 462.731 274.75 460.26 288.498C457.536 303.545 460.862 318.75 469.605 331.326C469.89 331.738 470.238 332.118 470.524 332.53L420.948 323.597C417.305 309.88 416.608 295.467 419.174 281.117V281.086ZM364.372 271.234C366.621 258.785 366.748 246.304 365.164 234.076L408.911 241.964C403.177 252.861 398.996 264.613 396.747 277.063C394.181 291.222 394.307 305.446 396.715 319.225L349.769 310.767C356.738 298.857 361.775 285.584 364.372 271.234V271.234ZM294.238 221.31L341.501 229.8C344.004 241.964 344.225 254.603 341.976 267.179C339.347 281.782 333.613 295.024 325.599 306.396L275.96 297.463C276.372 297.178 276.816 296.956 277.227 296.671C289.803 287.928 298.198 274.845 300.89 259.798C303.298 246.43 300.922 232.967 294.27 221.31H294.238ZM210.546 243.548C212.193 234.488 217.23 226.568 224.801 221.342C232.372 216.083 241.527 214.088 250.587 215.703C259.646 217.319 267.534 222.387 272.824 229.958C278.083 237.529 280.078 246.684 278.463 255.775C276.847 264.835 271.779 272.723 264.208 278.013C256.637 283.271 247.482 285.267 238.422 283.652C219.701 280.294 207.22 262.301 210.578 243.579L210.546 243.548ZM167.75 198.566L207.759 205.756C197.463 214.341 190.526 226.157 188.15 239.525C185.267 255.617 189.449 271.329 198.445 283.556L153.907 275.542L167.75 198.566Z" fill="black"/>
</svg>
