<svg width="102" height="125" viewBox="0 0 102 125" fill="none"
    xmlns="http://www.w3.org/2000/svg">
    <path d="M51.0002 54.7999C56.1364 54.7999 60.3002 50.6362 60.3002 45.5C60.3002 40.3637 56.1364 36.2 51.0002 36.2C45.8639 36.2 41.7002 40.3637 41.7002 45.5C41.7002 50.6362 45.8639 54.7999 51.0002 54.7999Z" fill="#61DAFB"/>
    <path d="M51.0001 79.7C58.3001 86.8 65.5001 91 71.3001 91C73.2001 91 75.0001 90.6 76.5001 89.7C81.7001 86.7 83.6001 79.2 81.8001 68.5C81.5001 66.6 81.1001 64.7 80.6001 62.7C82.6001 62.1 84.4001 61.5 86.2001 60.9C96.3001 57 101.9 51.6 101.9 45.7C101.9 39.7 96.3001 34.3 86.2001 30.5C84.4001 29.8 82.6001 29.2 80.6001 28.7C81.1001 26.7 81.5001 24.8 81.8001 22.9C83.5001 12 81.6001 4.39998 76.4001 1.39998C74.9001 0.499976 73.1001 0.0999756 71.2001 0.0999756C65.5001 0.0999756 58.2001 4.29997 50.9001 11.4C43.7001 4.29997 36.5001 0.0999756 30.7001 0.0999756C28.8001 0.0999756 27.0001 0.499976 25.5001 1.39998C20.3001 4.39998 18.4001 11.9 20.2001 22.6C20.5001 24.5 20.9001 26.4 21.4001 28.4C19.4001 29 17.6001 29.6 15.8001 30.2C5.7001 34.1 0.100098 39.5 0.100098 45.4C0.100098 51.4 5.7001 56.8 15.8001 60.6C17.6001 61.3 19.4001 61.9 21.4001 62.4C20.9001 64.4 20.5001 66.3 20.2001 68.2C18.5001 78.9 20.4001 86.5 25.5001 89.4C27.0001 90.3 28.8001 90.7 30.7001 90.7C36.5001 90.9 43.7001 86.7 51.0001 79.7ZM45.4001 66.2C47.2001 66.3 49.1001 66.3 51.0001 66.3C52.9001 66.3 54.8001 66.3 56.6001 66.2C54.8001 68.6 52.9001 70.8 51.0001 72.9C49.1001 70.8 47.2001 68.6 45.4001 66.2ZM33.0001 55.9C34.0001 57.6 34.9001 59.2 36.0001 60.8C32.9001 60.4 30.0001 59.9 27.2001 59.3C28.1001 56.6 29.1001 53.8 30.3001 51C31.1001 52.6 32.0001 54.3 33.0001 55.9ZM27.2001 31.8C30.0001 31.2 32.9001 30.7 36.0001 30.3C35.0001 31.9 34.0001 33.5 33.0001 35.2C32.0001 36.9 31.1001 38.5 30.3001 40.2C29.0001 37.3 28.0001 34.5 27.2001 31.8ZM32.7001 45.5C34.0001 42.8 35.4001 40.1 37.0001 37.4C38.5001 34.8 40.2001 32.2 41.9001 29.6C44.9001 29.4 47.9001 29.3 51.0001 29.3C54.2001 29.3 57.2001 29.4 60.1001 29.6C61.9001 32.2 63.5001 34.8 65.0001 37.4C66.6001 40.1 68.0001 42.8 69.3001 45.5C68.0001 48.2 66.6001 50.9 65.0001 53.6C63.5001 56.2 61.8001 58.8 60.1001 61.4C57.1001 61.6 54.1001 61.7 51.0001 61.7C47.8001 61.7 44.8001 61.6 41.9001 61.4C40.1001 58.8 38.5001 56.2 37.0001 53.6C35.4001 50.9 34.0001 48.2 32.7001 45.5ZM71.8001 40.1L69.1001 35.1C68.1001 33.4 67.2001 31.8 66.1001 30.2C69.2001 30.6 72.1001 31.1 74.9001 31.7C74.0001 34.5 73.0001 37.3 71.8001 40.1ZM71.8001 50.9C73.0001 53.7 74.0001 56.5 74.9001 59.2C72.1001 59.8 69.2001 60.3 66.1001 60.7C67.1001 59.1 68.1001 57.5 69.1001 55.8C70.0001 54.3 70.9001 52.6 71.8001 50.9ZM74.1001 85.6C73.3001 86.1 72.3001 86.3 71.2001 86.3C66.3001 86.3 60.2001 82.3 54.2001 76.3C57.1001 73.2 59.9001 69.7 62.7001 65.8C67.4001 65.4 71.9001 64.7 76.1001 63.7C76.6001 65.5 76.9001 67.3 77.2001 69.1C78.6001 77.6 77.5001 83.7 74.1001 85.6ZM79.3001 32.9C90.5001 36.1 97.2001 41 97.2001 45.5C97.2001 49.4 92.6001 53.3 84.5001 56.4C82.9001 57 81.1001 57.6 79.3001 58.1C78.0001 54 76.4001 49.8 74.4001 45.5C76.4001 41.2 78.1001 37 79.3001 32.9ZM71.3001 4.69998C72.4001 4.69998 73.3001 4.89998 74.2001 5.39998C77.5001 7.29998 78.7001 13.3 77.3001 21.9C77.0001 23.6 76.6001 25.4 76.2001 27.3C72.0001 26.4 67.5001 25.7 62.8001 25.2C60.1001 21.3 57.2001 17.8 54.3001 14.7C60.3001 8.79998 66.4001 4.69998 71.3001 4.69998ZM56.6001 24.8C54.8001 24.7 52.9001 24.7 51.0001 24.7C49.1001 24.7 47.2001 24.7 45.4001 24.8C47.2001 22.4 49.1001 20.2 51.0001 18.1C52.9001 20.2 54.8001 22.5 56.6001 24.8ZM27.9001 5.39998C28.7001 4.89998 29.7001 4.69998 30.8001 4.69998C35.7001 4.69998 41.8001 8.69998 47.8001 14.7C44.9001 17.8 42.1001 21.3 39.3001 25.2C34.6001 25.6 30.1001 26.3 25.9001 27.3C25.4001 25.5 25.1001 23.7 24.8001 21.9C23.4001 13.4 24.5001 7.39998 27.9001 5.39998ZM22.7001 58.1C11.5001 54.9 4.8001 50 4.8001 45.5C4.8001 41.6 9.4001 37.7 17.5001 34.6C19.1001 34 20.9001 33.4 22.7001 32.9C24.0001 37 25.6001 41.2 27.6001 45.5C25.6001 49.8 23.9001 54.1 22.7001 58.1ZM24.8001 69.1C25.1001 67.4 25.5001 65.6 25.9001 63.7C30.1001 64.6 34.6001 65.3 39.3001 65.8C42.0001 69.7 44.9001 73.2 47.8001 76.3C41.8001 82.2 35.7001 86.3 30.8001 86.3C29.7001 86.3 28.8001 86.1 27.9001 85.6C24.5001 83.7 23.4001 77.6 24.8001 69.1ZM20.6001 110.3C22.8001 107.6 22.9001 104.6 21.7001 101.6C20.5001 98.6 18.0001 97.2 14.9001 97.1C11.2001 97 7.4001 97.1 3.7001 97.1H3.0001V123H6.0001V113.2H10.7001C11.3001 113.2 11.8001 113.4 12.1001 113.9L18.1001 123.2C18.2001 123.4 18.5001 123.7 18.7001 123.7H22.6001C20.2001 120 17.9001 116.5 15.5001 112.9C17.6001 112.6 19.4001 111.9 20.6001 110.3ZM6.0001 110.1V100.2H7.1001C9.4001 100.2 11.8001 100.1 14.1001 100.3C16.8001 100.4 18.7001 102.5 18.7001 105.2C18.7001 107.9 16.5001 110 13.8001 110.1C11.4001 110.2 9.0001 110.1 6.0001 110.1ZM44.7001 111.4C43.1001 104.4 36.7001 102.6 31.8001 104.8C28.0001 106.5 26.3001 109.8 26.2001 113.9C26.1001 117 27.0001 119.8 29.4001 121.9C32.1001 124.3 35.4001 124.6 38.8001 124C40.7001 123.6 42.4001 122.7 43.7001 121.3C43.2001 120.6 42.7001 119.9 42.2001 119.3C39.4001 121.7 36.3001 122.5 32.9001 120.9C30.7001 119.8 29.6001 117.1 29.4001 115.1H44.9001V113.8C45.0001 112.9 44.9001 112.1 44.7001 111.4ZM29.6001 113C29.3001 110 32.3001 106.8 35.6001 106.8C39.4001 106.7 41.8001 109 41.9001 113H29.6001ZM60.3001 104.3C58.8001 104 57.2001 103.9 55.7001 104C53.3001 104.2 51.2001 105.3 49.5001 107.1C50.0001 107.8 50.4001 108.5 51.0001 109.3C51.2001 109.1 51.4001 108.9 51.6001 108.8C53.2001 107.3 55.1001 106.5 57.4001 106.7C59.2001 106.8 60.9001 107.4 61.4001 109.2C61.8001 110.6 61.7001 112.1 61.8001 113.6C61.5001 113.6 61.4001 113.5 61.3001 113.4C58.9001 111.4 56.2001 111 53.3001 111.7C50.6001 112.4 48.9001 114.5 48.7001 117.2C48.5001 120.3 49.9001 122.6 52.6001 123.7C54.3001 124.4 56.2001 124.4 58.0001 124C59.4001 123.7 60.0001 122.9 62.0001 121.8V123.1H64.8001C64.8001 119.1 64.9001 114.2 64.8001 109.6C64.8001 106.7 63.1001 104.9 60.3001 104.3ZM61.7001 116.9C61.6001 117.2 61.7001 117.5 61.7001 117.8C61.7001 119.9 61.2001 120.6 59.2001 121.4C57.8001 121.9 56.3001 122.1 54.8001 121.6C53.1001 121.1 51.9001 119.6 51.9001 117.9C51.8001 116.2 52.9001 114.5 54.6001 114C56.9001 113.2 59.0001 113.7 60.9001 115.1C61.5001 115.6 61.9001 116.1 61.7001 116.9ZM77.3001 107C79.9001 106.2 82.3001 106.7 84.1001 108.9L84.4001 109.1C85.1001 108.5 85.7001 107.9 86.5001 107.2C86.2001 106.9 86.1001 106.7 85.9001 106.4C83.0001 103.3 77.3001 102.9 73.8001 105.4C68.9001 109 69.0001 116 71.4001 119.7C73.7001 123.2 77.0001 124.4 80.9001 123.9C83.2001 123.6 85.1001 122.5 86.6001 120.6C85.9001 120 85.2001 119.4 84.5001 118.7C84.3001 118.9 84.2001 119 84.1001 119.2C81.4001 122.2 76.9001 121.9 74.5001 118.7C73.1001 116.8 72.8001 114.6 73.2001 112.4C73.4001 109.9 74.7001 107.9 77.3001 107ZM98.1001 120.6C97.9001 120.7 97.8001 120.8 97.8001 120.8C97.0001 121.4 96.2001 121.5 95.3001 121.2C94.4001 120.8 94.3001 120 94.2001 119.2V107.8C94.2001 107.6 94.2001 108 94.3001 107H98.1001V104H94.1001V99H91.1001V104.4H88.5001C88.3001 104.4 88.0001 104.6 88.0001 104.8C87.9001 105.5 88.0001 106 88.0001 107H91.2001V119.8C91.2001 121.4 91.6001 122.8 93.0001 123.6C94.5001 124.5 97.4001 124.3 98.7001 123.2C98.9001 123.1 99.0001 122.7 99.0001 122.6C98.7001 122 98.4001 121.3 98.1001 120.6Z" fill="#61DAFB"/>
</svg>
