<svg width="459" height="327" viewBox="0 0 459 327" fill="none"
    xmlns="http://www.w3.org/2000/svg">
    <path d="M440.125 1H23.8322C13.6078 1 5.31934 9.25513 5.31934 19.4383V307.773C5.31934 317.956 13.6078 326.211 23.8322 326.211H440.125C450.349 326.211 458.637 317.956 458.637 307.773V19.4383C458.637 9.25513 450.349 1 440.125 1Z" fill="currentColor"/>
    <path d="M435.805 1H19.5129C9.28851 1 1 9.25513 1 19.4383V307.773C1 317.956 9.28851 326.211 19.5129 326.211H435.805C446.03 326.211 454.318 317.956 454.318 307.773V19.4383C454.318 9.25513 446.03 1 435.805 1Z" fill="currentColor" stroke="currentColor" stroke-width="0.75" stroke-miterlimit="10"/>
    <path d="M23.8217 1H440.125C450.337 1 458.637 9.25676 458.637 19.4383V29.4201H5.31934V19.4383C5.31934 9.25676 13.6095 1 23.8217 1Z" fill="currentColor"/>
    <path d="M19.5129 1H435.816C446.028 1 454.329 9.25676 454.329 19.4383V29.4201H1V19.4383C1 9.25676 9.30071 1 19.5129 1Z" fill="#CBEDE1" stroke="currentColor" stroke-width="0.75" stroke-miterlimit="10"/>
    <path d="M210.108 42.6003H25.7898C19.6307 42.6003 14.6377 47.5732 14.6377 53.7075V301.364C14.6377 307.498 19.6307 312.471 25.7898 312.471H210.108C216.268 312.471 221.261 307.498 221.261 301.364V53.7075C221.261 47.5732 216.268 42.6003 210.108 42.6003Z" fill="#CBEDE1"/>
    <path d="M23.3786 21.6892C26.6215 21.6892 29.2503 19.071 29.2503 15.8411C29.2503 12.6113 26.6215 9.99304 23.3786 9.99304C20.1357 9.99304 17.5068 12.6113 17.5068 15.8411C17.5068 19.071 20.1357 21.6892 23.3786 21.6892Z" fill="currentColor" stroke="currentColor" stroke-width="0.75" stroke-miterlimit="10"/>
    <path d="M40.9938 21.6892C44.2367 21.6892 46.8656 19.071 46.8656 15.8411C46.8656 12.6113 44.2367 9.99304 40.9938 9.99304C37.7509 9.99304 35.1221 12.6113 35.1221 15.8411C35.1221 19.071 37.7509 21.6892 40.9938 21.6892Z" fill="currentColor" stroke="currentColor" stroke-width="0.75" stroke-miterlimit="10"/>
    <path d="M58.6091 21.6892C61.8519 21.6892 64.4808 19.071 64.4808 15.8411C64.4808 12.6113 61.8519 9.99304 58.6091 9.99304C55.3662 9.99304 52.7373 12.6113 52.7373 15.8411C52.7373 19.071 55.3662 21.6892 58.6091 21.6892Z" fill="currentColor" stroke="currentColor" stroke-width="0.75" stroke-miterlimit="10"/>
    <path d="M172.848 202.6H30.5876C20.9061 202.6 13.0576 210.449 13.0576 220.13V252.83C13.0576 262.512 20.9061 270.36 30.5876 270.36H172.848C182.529 270.36 190.378 262.512 190.378 252.83V220.13C190.378 210.449 182.529 202.6 172.848 202.6Z" fill="currentColor"/>
    <path d="M168.428 202.6H26.1677C16.4861 202.6 8.6377 210.449 8.6377 220.13V252.83C8.6377 262.512 16.4861 270.36 26.1677 270.36H168.428C178.109 270.36 185.958 262.512 185.958 252.83V220.13C185.958 210.449 178.109 202.6 168.428 202.6Z" fill="currentColor" stroke="currentColor" stroke-width="0.75" stroke-linecap="round" stroke-linejoin="round"/>
    <path d="M107.988 220.39H79.7277C77.4689 220.39 75.6377 222.222 75.6377 224.48C75.6377 226.739 77.4689 228.57 79.7277 228.57H107.988C110.247 228.57 112.078 226.739 112.078 224.48C112.078 222.222 110.247 220.39 107.988 220.39Z" fill="currentColor"/>
    <path d="M275.988 111.6H247.728C245.469 111.6 243.638 113.431 243.638 115.69C243.638 117.949 245.469 119.78 247.728 119.78H275.988C278.247 119.78 280.078 117.949 280.078 115.69C280.078 113.431 278.247 111.6 275.988 111.6Z" fill="currentColor"/>
    <path d="M275.988 176.6H247.728C245.469 176.6 243.638 178.431 243.638 180.69C243.638 182.949 245.469 184.78 247.728 184.78H275.988C278.247 184.78 280.078 182.949 280.078 180.69C280.078 178.431 278.247 176.6 275.988 176.6Z" fill="currentColor"/>
    <path d="M275.988 111.6H247.728C245.469 111.6 243.638 113.431 243.638 115.69C243.638 117.949 245.469 119.78 247.728 119.78H275.988C278.247 119.78 280.078 117.949 280.078 115.69C280.078 113.431 278.247 111.6 275.988 111.6Z" fill="currentColor"/>
    <path d="M275.988 176.6H247.728C245.469 176.6 243.638 178.431 243.638 180.69C243.638 182.949 245.469 184.78 247.728 184.78H275.988C278.247 184.78 280.078 182.949 280.078 180.69C280.078 178.431 278.247 176.6 275.988 176.6Z" fill="currentColor"/>
    <path d="M301.138 65.6003H251.2C247.024 65.6003 243.638 68.8325 243.638 72.8195C243.638 76.8065 247.024 80.0386 251.2 80.0386H301.138C305.314 80.0386 308.7 76.8065 308.7 72.8195C308.7 68.8325 305.314 65.6003 301.138 65.6003Z" fill="currentColor"/>
    <path d="M409.69 242.6H257.586C249.883 242.6 243.638 248.562 243.638 255.915C243.638 263.269 249.883 269.23 257.586 269.23H409.69C417.393 269.23 423.638 263.269 423.638 255.915C423.638 248.562 417.393 242.6 409.69 242.6Z" fill="currentColor"/>
    <path d="M104.638 128.6H40.9231C37.4518 128.6 34.6377 131.287 34.6377 134.6C34.6377 137.914 37.4518 140.6 40.9231 140.6H104.638C108.109 140.6 110.923 137.914 110.923 134.6C110.923 131.287 108.109 128.6 104.638 128.6Z" fill="currentColor"/>
    <path d="M330.188 89.6003H246.158C244.766 89.6003 243.638 90.7286 243.638 92.1203C243.638 93.5121 244.766 94.6403 246.158 94.6403H330.188C331.579 94.6403 332.708 93.5121 332.708 92.1203C332.708 90.7286 331.579 89.6003 330.188 89.6003Z" fill="currentColor"/>
    <path d="M354.188 296.6H290.158C288.766 296.6 287.638 297.729 287.638 299.12C287.638 300.512 288.766 301.64 290.158 301.64H354.188C355.579 301.64 356.708 300.512 356.708 299.12C356.708 297.729 355.579 296.6 354.188 296.6Z" fill="currentColor"/>
    <path d="M376.188 296.6H362.158C360.766 296.6 359.638 297.729 359.638 299.12C359.638 300.512 360.766 301.64 362.158 301.64H376.188C377.579 301.64 378.708 300.512 378.708 299.12C378.708 297.729 377.579 296.6 376.188 296.6Z" fill="currentColor"/>
    <path d="M162.829 108.6H40.9464C37.4622 108.6 34.6377 111.287 34.6377 114.6C34.6377 117.914 37.4622 120.6 40.9464 120.6H162.829C166.313 120.6 169.138 117.914 169.138 114.6C169.138 111.287 166.313 108.6 162.829 108.6Z" fill="currentColor"/>
    <path d="M162.188 235.53H78.1577C76.7659 235.53 75.6377 236.659 75.6377 238.05C75.6377 239.442 76.7659 240.57 78.1577 240.57H162.188C163.579 240.57 164.708 239.442 164.708 238.05C164.708 236.659 163.579 235.53 162.188 235.53Z" fill="currentColor"/>
    <path d="M412.079 131.6H259.754C252.818 131.6 247.195 137.282 247.195 144.291C247.195 151.3 252.818 156.982 259.754 156.982H412.079C419.015 156.982 424.638 151.3 424.638 144.291C424.638 137.282 419.015 131.6 412.079 131.6Z" fill="currentColor" stroke="currentColor" stroke-width="0.75" stroke-miterlimit="10"/>
    <path d="M412.079 196.6H259.754C252.818 196.6 247.195 202.282 247.195 209.291C247.195 216.3 252.818 221.982 259.754 221.982H412.079C419.015 221.982 424.638 216.3 424.638 209.291C424.638 202.282 419.015 196.6 412.079 196.6Z" fill="currentColor" stroke="currentColor" stroke-width="0.75" stroke-miterlimit="10"/>
    <path d="M409.522 131.6H256.196C249.26 131.6 243.638 137.282 243.638 144.291C243.638 151.3 249.26 156.982 256.196 156.982H409.522C416.458 156.982 422.08 151.3 422.08 144.291C422.08 137.282 416.458 131.6 409.522 131.6Z" fill="currentColor" stroke="currentColor" stroke-width="0.75" stroke-miterlimit="10"/>
    <path d="M409.522 196.6H256.196C249.26 196.6 243.638 202.282 243.638 209.291C243.638 216.3 249.26 221.982 256.196 221.982H409.522C416.458 221.982 422.08 216.3 422.08 209.291C422.08 202.282 416.458 196.6 409.522 196.6Z" fill="currentColor" stroke="currentColor" stroke-width="0.75" stroke-miterlimit="10"/>
    <path d="M323.505 140.6H258.77C257.04 140.6 255.638 142.167 255.638 144.1C255.638 146.033 257.04 147.6 258.77 147.6H323.505C325.235 147.6 326.638 146.033 326.638 144.1C326.638 142.167 325.235 140.6 323.505 140.6Z" fill="currentColor"/>
    <path d="M343.505 205.6H258.77C257.04 205.6 255.638 207.167 255.638 209.1C255.638 211.033 257.04 212.6 258.77 212.6H343.505C345.235 212.6 346.638 211.033 346.638 209.1C346.638 207.167 345.235 205.6 343.505 205.6Z" fill="currentColor"/>
    <path d="M317.078 252.186C317.031 252.266 316.982 252.324 316.931 252.361C316.879 252.399 316.814 252.417 316.735 252.417C316.651 252.417 316.555 252.38 316.448 252.305C316.34 252.226 316.205 252.14 316.042 252.046C315.883 251.948 315.692 251.862 315.468 251.787C315.244 251.708 314.975 251.668 314.663 251.668C314.369 251.668 314.11 251.708 313.886 251.787C313.666 251.862 313.482 251.967 313.333 252.102C313.183 252.233 313.069 252.389 312.99 252.571C312.915 252.749 312.878 252.942 312.878 253.152C312.878 253.423 312.945 253.647 313.081 253.824C313.221 254.002 313.403 254.153 313.627 254.279C313.851 254.405 314.105 254.515 314.39 254.608C314.674 254.702 314.966 254.8 315.265 254.902C315.563 255 315.855 255.115 316.14 255.245C316.424 255.376 316.679 255.542 316.903 255.742C317.127 255.938 317.306 256.181 317.442 256.47C317.582 256.755 317.652 257.105 317.652 257.52C317.652 257.964 317.575 258.379 317.421 258.766C317.271 259.154 317.052 259.492 316.763 259.781C316.473 260.071 316.116 260.299 315.692 260.467C315.272 260.631 314.793 260.712 314.257 260.712C313.935 260.712 313.622 260.68 313.319 260.614C313.015 260.554 312.728 260.467 312.458 260.355C312.187 260.239 311.933 260.101 311.695 259.942C311.461 259.779 311.251 259.597 311.065 259.396L311.492 258.682C311.534 258.626 311.583 258.58 311.639 258.542C311.699 258.505 311.767 258.486 311.842 258.486C311.94 258.486 312.052 258.538 312.178 258.64C312.308 258.743 312.467 258.857 312.654 258.983C312.845 259.105 313.071 259.217 313.333 259.319C313.599 259.422 313.921 259.473 314.299 259.473C314.607 259.473 314.882 259.434 315.125 259.354C315.367 259.27 315.57 259.154 315.734 259.004C315.902 258.85 316.03 258.666 316.119 258.451C316.207 258.237 316.252 257.999 316.252 257.737C316.252 257.443 316.184 257.203 316.049 257.016C315.913 256.83 315.734 256.673 315.51 256.547C315.286 256.421 315.031 256.314 314.747 256.225C314.462 256.137 314.17 256.046 313.872 255.952C313.573 255.854 313.281 255.742 312.997 255.616C312.712 255.49 312.458 255.327 312.234 255.126C312.01 254.921 311.83 254.667 311.695 254.363C311.559 254.055 311.492 253.677 311.492 253.229C311.492 252.87 311.562 252.522 311.702 252.186C311.842 251.85 312.045 251.554 312.311 251.297C312.581 251.036 312.913 250.828 313.305 250.674C313.697 250.516 314.145 250.436 314.649 250.436C315.213 250.436 315.731 250.527 316.203 250.709C316.679 250.887 317.092 251.143 317.442 251.479L317.078 252.186ZM320.585 253.488V260.6H319.22V253.488H320.585ZM320.844 251.29C320.844 251.416 320.819 251.538 320.767 251.654C320.716 251.766 320.646 251.867 320.557 251.955C320.473 252.039 320.373 252.107 320.256 252.158C320.14 252.205 320.018 252.228 319.892 252.228C319.766 252.228 319.647 252.205 319.535 252.158C319.423 252.107 319.323 252.039 319.234 251.955C319.15 251.867 319.083 251.766 319.031 251.654C318.985 251.538 318.961 251.416 318.961 251.29C318.961 251.16 318.985 251.038 319.031 250.926C319.083 250.81 319.15 250.709 319.234 250.625C319.323 250.537 319.423 250.469 319.535 250.422C319.647 250.371 319.766 250.345 319.892 250.345C320.018 250.345 320.14 250.371 320.256 250.422C320.373 250.469 320.473 250.537 320.557 250.625C320.646 250.709 320.716 250.81 320.767 250.926C320.819 251.038 320.844 251.16 320.844 251.29ZM325.061 257.051C325.303 257.051 325.516 257.019 325.698 256.953C325.884 256.888 326.038 256.797 326.16 256.68C326.286 256.559 326.379 256.414 326.44 256.246C326.505 256.078 326.538 255.894 326.538 255.693C326.538 255.283 326.412 254.956 326.16 254.713C325.912 254.466 325.546 254.342 325.061 254.342C324.58 254.342 324.214 254.466 323.962 254.713C323.714 254.956 323.591 255.283 323.591 255.693C323.591 255.894 323.621 256.078 323.682 256.246C323.747 256.41 323.84 256.552 323.962 256.673C324.088 256.79 324.242 256.883 324.424 256.953C324.61 257.019 324.823 257.051 325.061 257.051ZM327.238 260.971C327.238 260.803 327.191 260.67 327.098 260.572C327.004 260.47 326.876 260.39 326.713 260.334C326.554 260.274 326.367 260.232 326.153 260.208C325.938 260.18 325.712 260.159 325.474 260.145C325.24 260.131 325 260.12 324.753 260.11C324.505 260.096 324.267 260.073 324.039 260.04C323.796 260.162 323.595 260.309 323.437 260.481C323.283 260.654 323.206 260.857 323.206 261.09C323.206 261.24 323.243 261.38 323.318 261.51C323.397 261.641 323.516 261.753 323.675 261.846C323.838 261.944 324.041 262.019 324.284 262.07C324.531 262.126 324.825 262.154 325.166 262.154C325.502 262.154 325.798 262.124 326.055 262.063C326.311 262.007 326.526 261.926 326.699 261.818C326.876 261.716 327.009 261.592 327.098 261.447C327.191 261.303 327.238 261.144 327.238 260.971ZM328.624 253.754V254.265C328.624 254.433 328.519 254.538 328.309 254.58L327.546 254.692C327.611 254.837 327.662 254.991 327.7 255.154C327.737 255.313 327.756 255.481 327.756 255.658C327.756 256.008 327.688 256.326 327.553 256.61C327.417 256.89 327.231 257.131 326.993 257.331C326.755 257.532 326.47 257.686 326.139 257.793C325.812 257.901 325.453 257.954 325.061 257.954C324.739 257.954 324.438 257.919 324.158 257.849C324.018 257.933 323.91 258.027 323.836 258.129C323.766 258.227 323.731 258.325 323.731 258.423C323.731 258.587 323.798 258.708 323.934 258.787C324.074 258.867 324.253 258.925 324.473 258.962C324.697 258.995 324.951 259.016 325.236 259.025C325.525 259.035 325.817 259.051 326.111 259.074C326.409 259.093 326.701 259.13 326.986 259.186C327.275 259.238 327.529 259.324 327.749 259.445C327.973 259.562 328.152 259.725 328.288 259.935C328.428 260.141 328.498 260.409 328.498 260.74C328.498 261.048 328.421 261.347 328.267 261.636C328.117 261.926 327.898 262.182 327.609 262.406C327.319 262.63 326.967 262.81 326.552 262.945C326.136 263.081 325.665 263.148 325.138 263.148C324.61 263.148 324.151 263.097 323.759 262.994C323.371 262.892 323.047 262.754 322.786 262.581C322.529 262.409 322.335 262.208 322.205 261.979C322.079 261.751 322.016 261.513 322.016 261.265C322.016 260.92 322.123 260.628 322.338 260.39C322.552 260.148 322.849 259.959 323.227 259.823C323.021 259.73 322.858 259.604 322.737 259.445C322.615 259.282 322.555 259.067 322.555 258.801C322.555 258.699 322.573 258.594 322.611 258.486C322.648 258.374 322.704 258.265 322.779 258.157C322.858 258.045 322.954 257.94 323.066 257.842C323.182 257.744 323.315 257.656 323.465 257.576C323.115 257.38 322.839 257.121 322.639 256.799C322.438 256.473 322.338 256.092 322.338 255.658C322.338 255.308 322.405 254.993 322.541 254.713C322.676 254.433 322.863 254.193 323.101 253.992C323.343 253.792 323.63 253.638 323.962 253.53C324.298 253.423 324.664 253.369 325.061 253.369C325.677 253.369 326.206 253.498 326.65 253.754H328.624ZM331.157 254.475C331.311 254.312 331.472 254.163 331.64 254.027C331.808 253.892 331.985 253.778 332.172 253.684C332.363 253.586 332.566 253.512 332.781 253.46C333 253.404 333.234 253.376 333.481 253.376C333.873 253.376 334.216 253.442 334.51 253.572C334.809 253.703 335.058 253.887 335.259 254.125C335.46 254.359 335.611 254.641 335.714 254.972C335.817 255.304 335.868 255.67 335.868 256.071V260.6H334.496V256.071C334.496 255.563 334.379 255.168 334.146 254.888C333.913 254.604 333.556 254.461 333.075 254.461C332.725 254.461 332.396 254.545 332.088 254.713C331.785 254.877 331.502 255.101 331.241 255.385V260.6H329.876V253.488H330.695C330.886 253.488 331.005 253.579 331.052 253.761L331.157 254.475ZM347.166 253.488V260.6H346.347C346.16 260.6 346.039 260.509 345.983 260.327L345.885 259.613C345.731 259.777 345.57 259.926 345.402 260.061C345.234 260.197 345.054 260.313 344.863 260.411C344.672 260.505 344.469 260.577 344.254 260.628C344.039 260.684 343.808 260.712 343.561 260.712C343.169 260.712 342.824 260.647 342.525 260.516C342.231 260.386 341.984 260.204 341.783 259.97C341.582 259.732 341.431 259.448 341.328 259.116C341.225 258.785 341.174 258.419 341.174 258.017V253.488H342.546V258.017C342.546 258.526 342.663 258.923 342.896 259.207C343.129 259.487 343.486 259.627 343.967 259.627C344.317 259.627 344.644 259.546 344.947 259.382C345.25 259.214 345.535 258.986 345.801 258.696V253.488H347.166ZM350.436 258.85C350.66 259.144 350.901 259.35 351.157 259.466C351.419 259.583 351.71 259.641 352.032 259.641C352.658 259.641 353.141 259.417 353.481 258.969C353.827 258.517 353.999 257.859 353.999 256.995C353.999 256.543 353.96 256.158 353.88 255.84C353.806 255.518 353.694 255.257 353.544 255.056C353.4 254.851 353.22 254.702 353.005 254.608C352.791 254.51 352.548 254.461 352.277 254.461C351.881 254.461 351.535 254.55 351.241 254.727C350.952 254.905 350.684 255.157 350.436 255.483V258.85ZM350.366 254.552C350.516 254.375 350.674 254.214 350.842 254.069C351.015 253.92 351.199 253.794 351.395 253.691C351.591 253.584 351.799 253.502 352.018 253.446C352.242 253.386 352.48 253.355 352.732 253.355C353.138 253.355 353.505 253.435 353.831 253.593C354.163 253.752 354.445 253.985 354.678 254.293C354.912 254.601 355.091 254.982 355.217 255.434C355.348 255.887 355.413 256.407 355.413 256.995C355.413 257.523 355.341 258.013 355.196 258.465C355.056 258.913 354.853 259.303 354.587 259.634C354.326 259.966 354.004 260.227 353.621 260.418C353.243 260.605 352.816 260.698 352.34 260.698C351.916 260.698 351.552 260.628 351.248 260.488C350.945 260.348 350.674 260.152 350.436 259.9V262.987H349.071V253.488H349.89C350.082 253.488 350.201 253.579 350.247 253.761L350.366 254.552Z" fill="currentColor"/>
    <path d="M195.441 156.6H39.8347C38.0691 156.6 36.6377 157.943 36.6377 159.6C36.6377 161.257 38.0691 162.6 39.8347 162.6H195.441C197.206 162.6 198.638 161.257 198.638 159.6C198.638 157.943 197.206 156.6 195.441 156.6Z" fill="currentColor"/>
    <path d="M143.038 247.2H78.1577C76.7659 247.2 75.6377 248.329 75.6377 249.72C75.6377 251.112 76.7659 252.24 78.1577 252.24H143.038C144.429 252.24 145.558 251.112 145.558 249.72C145.558 248.329 144.429 247.2 143.038 247.2Z" fill="currentColor"/>
    <path d="M162.43 171.6H39.8454C38.0738 171.6 36.6377 172.943 36.6377 174.6C36.6377 176.257 38.0738 177.6 39.8454 177.6H162.43C164.202 177.6 165.638 176.257 165.638 174.6C165.638 172.943 164.202 171.6 162.43 171.6Z" fill="currentColor"/>
    <path d="M43.3074 255.52C53.9113 255.52 62.5074 246.924 62.5074 236.32C62.5074 225.716 53.9113 217.12 43.3074 217.12C32.7036 217.12 24.1074 225.716 24.1074 236.32C24.1074 246.924 32.7036 255.52 43.3074 255.52Z" fill="currentColor"/>
    <path d="M43.3077 255.52C49.4877 255.52 54.9677 252.59 58.4777 248.06C55.7177 242.46 49.9677 238.6 43.3077 238.6C36.6477 238.6 30.8977 242.46 28.1377 248.06C31.6477 252.59 37.1277 255.52 43.3077 255.52Z" fill="currentColor"/>
    <path d="M43.3078 236.32C46.7652 236.32 49.5679 233.518 49.5679 230.06C49.5679 226.603 46.7652 223.8 43.3078 223.8C39.8505 223.8 37.0479 226.603 37.0479 230.06C37.0479 233.518 39.8505 236.32 43.3078 236.32Z" fill="currentColor"/>
    <circle cx="46.1377" cy="76.1003" r="10.5" fill="currentColor"/>
    <circle cx="99.8422" cy="299.805" r="4.20455" fill="currentColor"/>
    <circle cx="113.842" cy="299.805" r="4.20455" fill="currentColor"/>
    <circle cx="127.842" cy="299.805" r="4.20455" fill="currentColor"/>
</svg>

