<svg width="637" height="609" viewBox="0 0 637 609" fill="none"
    xmlns="http://www.w3.org/2000/svg">
    <path d="M142.304 581.116L136.356 584.222L137.48 577.614C158.559 454.769 117.854 329.48 28.5784 242.452L23.7544 237.76L30.3625 236.768C153.669 218.86 260.324 141.414 315.435 29.6711L318.409 23.6575L321.383 29.6711C376.56 141.414 483.149 218.86 606.456 236.768L613.064 237.76L608.24 242.452C519.031 329.414 478.259 454.769 499.339 577.614L500.462 584.222L494.515 581.116C384.226 523.097 252.46 523.097 142.105 581.116H142.304Z" fill="#FFD43A"/>
    <path d="M136.357 607.944C131.4 607.944 126.51 606.424 122.413 603.385C115.078 598.098 111.444 589.045 112.964 580.19L114.087 573.582C133.845 458.469 95.6507 341.043 11.9923 259.499L7.16827 254.808C0.692345 248.464 -1.62051 239.081 1.15489 230.49C3.93028 221.9 11.3976 215.622 20.3185 214.366L26.9266 213.375C142.502 196.59 242.416 124.034 294.158 19.2294L297.131 13.2162C301.096 5.08823 309.356 0 318.409 0C327.462 0 335.723 5.15431 339.687 13.2162L342.661 19.2294C394.336 123.968 494.251 196.59 609.892 213.375L616.5 214.366C625.421 215.688 632.888 221.9 635.664 230.49C638.439 239.081 636.126 248.53 629.65 254.808L624.826 259.499C541.168 341.043 502.973 458.469 522.732 573.648L523.855 580.256C525.375 589.177 521.74 598.164 514.405 603.451C507.07 608.737 497.422 609.464 489.427 605.301L483.479 602.195C380.063 547.81 256.558 547.81 153.207 602.195L147.26 605.301C143.758 607.151 139.991 608.01 136.224 608.01L136.357 607.944ZM318.475 513.845C370.481 513.845 422.421 523.889 471.453 544.044C463.391 438.447 497.422 333.841 566.014 253.09C463.06 228.111 374.115 163.418 318.541 73.2835C262.967 163.418 173.957 228.111 71.0686 253.09C139.661 333.775 173.626 438.381 165.63 544.044C214.596 523.889 266.602 513.845 318.608 513.845H318.475Z" fill="black"/>
</svg>
