<svg width="381" height="272" viewBox="0 0 381 272" fill="none"
    xmlns="http://www.w3.org/2000/svg">
    <path d="M157.34 63.4C154.1 62.98 125.34 62.98 120.18 63.4C120.092 63.4193 120.014 63.4712 119.962 63.5453C119.91 63.6194 119.888 63.7103 119.9 63.8C119.918 63.867 119.954 63.928 120.003 63.9771C120.052 64.0262 120.113 64.0616 120.18 64.08C124.82 64.48 154.04 64.66 157.24 64.24C157.7 64.2 157.84 63.46 157.34 63.4ZM292.44 113.44C292.04 113.44 286.9 115.26 288.26 116L289.7 117.2C289.38 117.92 292.52 121.2 290.36 128.92C289.46 128.3 289.44 128.92 289.56 129.12C292.9 132.56 316.76 151.66 322.08 155.12C322.56 155.82 325.6 154.32 326.08 154.16C336.647 149.655 346.962 144.581 356.98 138.96C360.64 136.96 360.6 129.78 356.16 126.96C351.49 123.854 346.627 121.049 341.6 118.56L347.8 113.7C348.24 113.36 348 112.1 346.32 113.46C342.702 107.614 341.238 100.69 342.18 93.88C342.42 93.74 345.1 92.14 343.92 91.62C337.92 89.12 318.04 81.82 311.92 81.44C309.92 81.3 293.92 94.1 292.42 96.68C289.22 102.02 290.2 108.12 292.54 113.5L292.44 113.44ZM290.84 129.22C292.84 127.04 292.22 121.06 291.26 118.42C294 120.62 316.02 137.22 323.02 141.66C326.8 149.66 322.58 153.54 322.72 154.14C311 146 301.46 136.7 290.84 129.22ZM356.02 128.32C359.36 130.04 358.6 137.2 356.2 138.04C345.32 143.86 334.56 149.1 323.32 154.04C324.796 152.048 325.602 149.639 325.62 147.16L341.02 140.84C341.3 140.7 341.02 140.32 340.8 140.38C335.629 142.108 330.567 144.145 325.64 146.48C325.601 144.536 324.997 142.646 323.9 141.04C328.6 139.18 352.62 126.72 356.02 128.32ZM322.68 108C328.565 103.128 334.721 98.5936 341.12 94.42C340.653 96.8519 340.566 99.3413 340.86 101.8C339.88 102.12 327.76 111 327.14 111.48C326.88 111.68 327.14 112.1 327.46 111.94L341 102.74C341.42 105.56 343.12 111.98 345.74 113.72C343.08 115.88 329.92 126.3 326.72 126.3C324.321 123.986 322.661 121.013 321.949 117.756C321.237 114.499 321.505 111.104 322.72 108H322.68ZM320.06 90.74C321.46 91.94 315.66 95.32 315.44 95.38C314.78 95.58 314.34 94.9 315.76 93.54C316.48 92.92 319.12 90 320.06 90.76V90.74ZM309.16 94.08C310.16 92.08 314.32 88.76 316.08 87.56C316.167 87.4996 316.265 87.4568 316.368 87.4342C316.471 87.4116 316.578 87.4095 316.682 87.428C316.786 87.4466 316.885 87.4855 316.974 87.5424C317.063 87.5994 317.14 87.6733 317.2 87.76C317.261 87.8467 317.303 87.9444 317.326 88.0476C317.349 88.1508 317.351 88.2574 317.332 88.3614C317.314 88.4654 317.275 88.5648 317.218 88.6537C317.161 88.7427 317.087 88.8196 317 88.88C315.44 90.08 311.2 94.06 310.02 94.88C309.931 94.929 309.832 94.9547 309.73 94.9547C309.629 94.9547 309.529 94.929 309.44 94.88C309.37 94.8478 309.307 94.8019 309.255 94.7451C309.203 94.6882 309.162 94.6215 309.136 94.5488C309.11 94.4762 309.099 94.3991 309.103 94.322C309.107 94.2449 309.127 94.1695 309.16 94.1V94.08ZM294.48 97.54C303.06 99.8681 311.489 102.72 319.72 106.08C320.24 106.34 320.06 107.22 319.44 107.1C310.866 104.711 302.444 101.806 294.22 98.4C294.129 98.3488 294.058 98.2679 294.018 98.1707C293.979 98.0735 293.974 97.9658 294.005 97.8655C294.035 97.7652 294.099 97.6783 294.185 97.6191C294.272 97.5599 294.376 97.532 294.48 97.54ZM293 114.4C302.54 119.78 320.3 126.62 327 127.62C328.34 127.82 339.22 120.18 341 118.88C342.16 120.02 351.82 125.48 354.28 127C350.72 127.18 324.88 139.22 323.02 140.4C311.92 132.1 300.4 123.68 289.02 115.78L293.02 114.4H293ZM157.34 63.4H157.36H157.34ZM189.82 25.28C189.698 25.23 189.562 25.23 189.44 25.28C188.26 26 181.44 35.28 180.06 37.02C178.74 35.22 177.4 33.44 176.06 31.7C175.8 31.38 175.26 31.7 175.46 32.12C176.8 34.26 178.24 36.32 179.7 38.38C179.94 38.7 180.4 38.54 180.6 38.28C181.86 36.68 189.88 27 190.22 25.9C190.235 25.833 190.236 25.7638 190.224 25.6963C190.212 25.6288 190.186 25.5644 190.149 25.5068C190.112 25.4491 190.064 25.3994 190.007 25.3605C189.951 25.3216 189.887 25.2942 189.82 25.28ZM151.68 67.28C139.68 67.52 126.38 67.28 121.22 67.72C121.114 67.72 121.012 67.7621 120.937 67.8372C120.862 67.9122 120.82 68.0139 120.82 68.12C120.82 68.2261 120.862 68.3278 120.937 68.4028C121.012 68.4779 121.114 68.52 121.22 68.52C127.42 68.52 146.72 69.16 151.68 68.1C152.1 68 152.02 67.4 151.68 67.28ZM152.12 47.18C152.52 47.18 152.64 46.5 152.12 46.44C148.12 45.84 124.12 47.02 118.3 47.92C118.194 47.92 118.092 47.9621 118.017 48.0372C117.942 48.1122 117.9 48.2139 117.9 48.32C117.9 48.4261 117.942 48.5278 118.017 48.6028C118.092 48.6779 118.194 48.72 118.3 48.72C126.14 48.72 143.96 47.5 152.02 47.22L152.12 47.18ZM144.16 51.18C144.5 51.18 144.68 50.5 144.16 50.38C142.16 49.88 122.16 50.38 119.14 50.72C119.093 50.7273 119.047 50.744 119.006 50.7691C118.965 50.7943 118.929 50.8275 118.901 50.8666C118.873 50.9058 118.854 50.9502 118.843 50.9971C118.833 51.0441 118.832 51.0927 118.84 51.14C118.851 51.2178 118.886 51.2904 118.939 51.3477C118.993 51.405 119.063 51.4442 119.14 51.46C123 51.68 141.8 51.82 144.16 51.18ZM186.8 62.18C187.9 60.58 175.84 61.16 175.32 61.7C174.8 62.24 175.32 70.46 175.32 71.22C175.32 72.4 186.5 72.38 186.94 72.04C187.439 68.7857 187.439 65.4743 186.94 62.22L186.8 62.18ZM185.94 71.14C184.88 71.14 177.02 71.28 176.38 70.78C176.38 67.96 176.2 65.16 176.1 62.36H186.1C185.74 65.273 185.687 68.2158 185.94 71.14Z" fill="currentColor"/>
    <path d="M327.8 117.76C330.6 116.1 333.46 114.48 336.16 112.68C336.54 112.42 336.16 111.74 335.72 111.98L327.5 117.3C327.454 117.345 327.425 117.405 327.418 117.47C327.411 117.534 327.426 117.599 327.461 117.653C327.497 117.707 327.55 117.748 327.612 117.767C327.673 117.787 327.74 117.784 327.8 117.76ZM307.64 139.72C307.4 139.56 307.08 139.94 307.32 140.14C309.32 141.88 319.16 148.76 321.32 150.28C321.6 150.48 321.84 150.02 321.58 149.82C317.38 146.62 312.1 142.4 307.64 139.72ZM178.08 55.22C179.12 55.22 187.26 56.16 187.18 54.82C187.1 53.48 186.98 45.78 186.46 45.54C186.32 44.2 176.18 45.18 175.24 45.36C174.66 45.36 174.9 53.16 174.94 54.1C175 55.46 177.18 55.18 178.08 55.22ZM185.94 46V54.42C182.571 54.0733 179.18 54.0064 175.8 54.22C175.933 51.4795 175.879 48.7332 175.64 46C177.3 46 184.88 46.26 185.94 46ZM320.88 146.44C320.931 146.482 320.994 146.506 321.06 146.506C321.126 146.506 321.19 146.482 321.24 146.44C321.279 146.396 321.301 146.339 321.301 146.28C321.301 146.221 321.279 146.164 321.24 146.12C312.08 139.62 302.98 131.8 293.98 125.7C293.72 125.5 293.32 125.88 293.58 126.14C298.62 130.94 314.36 142.14 320.96 146.54L320.88 146.44ZM346.5 134.96H346.54H346.5ZM187.14 32.38C187.112 32.2906 187.051 32.2156 186.969 32.1708C186.887 32.126 186.79 32.115 186.7 32.14C186.64 32.1542 186.584 32.1838 186.539 32.2258C186.493 32.2679 186.459 32.321 186.44 32.38V39.38H175.36C175.166 36.1568 174.806 32.9459 174.28 29.76C177.408 29.9053 180.543 29.8251 183.66 29.52C183.73 29.4974 183.791 29.4512 183.831 29.3892C183.871 29.3272 183.888 29.2533 183.88 29.18C183.869 29.1374 183.849 29.0977 183.821 29.0633C183.793 29.0289 183.759 29.0005 183.72 28.98C182.98 28.74 173.72 27.94 174 29.54C173.08 29.54 174.42 39.54 174.42 39.54C174.9 40.76 176.92 40.34 177.98 40.34C179.04 40.34 186.4 40.52 187 40.34C187.96 39.96 187.42 33.56 187.2 32.34L187.14 32.38Z" fill="currentColor"/>
    <path d="M380.4 213.82C354.92 215.38 329.434 216.713 303.94 217.82C303.607 214.173 302.938 210.564 301.94 207.04C327.273 206.373 352.607 205.593 377.94 204.7C378.069 204.684 378.19 204.627 378.284 204.537C378.377 204.447 378.439 204.328 378.46 204.2C378.477 204.044 378.432 203.887 378.335 203.764C378.238 203.64 378.096 203.56 377.94 203.54C352.5 204.487 327.067 205.267 301.64 205.88C295.64 184.96 282.98 165.06 268.22 149.3C267.76 143.98 267.74 141.3 265.46 135.96C261.06 125.86 256.2 123.76 256.32 126.16C256.319 126.792 256.42 127.42 256.62 128.02C255.82 127.02 249.94 120.9 248.74 124.2C247.855 123.643 246.856 123.293 245.818 123.175C244.779 123.058 243.727 123.175 242.74 123.52C239 117.52 232.74 117.52 228.74 115.52C221.1 111.52 224.62 98.76 230.24 94C230.24 94 254.38 93.54 254.4 93.24C254.84 87.58 259.66 1.43999 259.66 1.43999C200.18 0.259993 136.18 1.43999 77.1402 2.63999C76.7402 2.63999 76.4002 2.89999 76.4402 3.25999C80.0002 33.56 88.7402 95.58 88.7402 95.58C90.1802 96.16 220.92 94.12 228.74 94C225.396 97.6477 223.565 102.432 223.62 107.38C224.02 119.98 234.04 114.62 242.24 123.84C236.92 126.12 236.24 132.86 238.24 137.68C238.604 138.604 239.095 139.473 239.7 140.26C239.784 142.139 240.319 143.971 241.26 145.6C243.82 150.46 248.38 152.14 248.62 152.86C248.62 164.18 251 177.98 253.26 189.02C245.64 185.02 223.04 175.48 199.8 174.8C201.12 163.34 211.02 161.9 209.66 154.24C213.8 154.08 217.94 153.92 222.08 153.72C223.12 153.72 221.98 150.52 221.86 149.98C220.18 142.58 218.493 135.193 216.8 127.82C216.54 126.82 215.38 120.1 214.4 120.1L201.5 120.34C198.66 117.64 192 116.64 189.28 119.78C185.28 112.08 172.92 113.2 172.52 120.68C169.14 118.38 164.12 117.92 161.06 121.04C160.74 121.18 100.24 122 91.2402 122.36H91.0802C90.9829 122.422 90.9138 122.519 90.8876 122.631C90.8614 122.744 90.8803 122.862 90.9402 122.96C91.1002 124 85.8802 148.68 85.2602 154.62C85.2602 155.46 94.3202 155.34 95.2602 155.34C82.3402 170.48 70.7202 187.56 67.2602 207.54C45.4602 207.2 23.6602 206.66 1.86015 206.74C1.75407 206.74 1.65233 206.782 1.57731 206.857C1.5023 206.932 1.46016 207.034 1.46016 207.14C1.46016 207.246 1.5023 207.348 1.57731 207.423C1.65233 207.498 1.75407 207.54 1.86015 207.54C23.5602 208.48 45.3202 208.58 67.0402 208.74C66.3931 212.706 66.1252 216.724 66.2402 220.74C44.6402 220.3 23.0402 219.62 1.46016 219.26C0.980155 219.26 0.900155 220.02 1.46016 220.02C23.0602 221.12 44.7001 221.52 66.3401 221.84C66.9001 232.7 71.1802 246.02 81.8202 250.9C86.2001 259.5 95.4801 267.24 105.82 265.02C105.52 266.58 105.24 268.18 104.94 269.78C104.82 270.5 105.9 270.8 106.02 270.08C108.96 254.24 112.02 238.32 117.16 223.04C117.32 222.56 116.6 222.38 116.42 222.84C111.42 236.12 108.6 250.08 106 263.98C95.4202 265.52 86.9801 258.78 82.6002 249.66C80.2437 244.841 78.8806 239.597 78.592 234.241C78.3034 228.884 79.0951 223.524 80.9202 218.48C86.3801 204.48 100.92 194.48 115.2 187.64C129.72 180.759 145.313 176.423 161.3 174.82C162.44 185.5 174.72 189.12 184.08 188.56C193.44 188 198.98 185.14 199.78 175.7C199.9 175.7 233.56 176.44 262.62 195.86C271.16 201.56 278.92 208.88 283.46 218.18C287.9 227.16 289.46 238.18 285.46 247.54C279.74 261.18 269.3 263.16 262.38 264.38C259.934 249.735 255.21 235.564 248.38 222.38C248.2 222.04 247.64 222.26 247.82 222.62C254.943 237.978 259.8 254.288 262.24 271.04C262.24 271.56 263.28 271.7 263.28 271.04C263.199 269.209 262.958 267.389 262.56 265.6C270.103 264.951 277.086 261.359 282 255.6C298 251.6 304.98 234.3 304 219.06C329.547 218.02 355.067 216.687 380.56 215.06C381.26 214.8 381 213.82 380.4 213.82ZM88.8202 82.94C84.8202 57.5 81.6402 32.18 78.0201 6.71999C138.02 5.67999 199.58 6.11999 258.76 5.11999L254.14 80.14C229.16 80.9 92.0402 81.68 88.8202 82.94ZM209.42 153.12C209.054 152.054 208.352 151.134 207.42 150.5C208.457 148.851 209.018 146.948 209.04 145H210.12L211.62 153L209.42 153.12ZM207.74 138.46C208.082 138.184 208.397 137.876 208.68 137.54C209.16 139.68 209.56 141.82 209.96 143.96H209C209.098 142.045 208.662 140.141 207.74 138.46ZM221.42 152.6L212.22 153C211.98 150.3 211.46 147.64 210.98 145C213.855 145.096 216.734 145.022 219.6 144.78C220.2 147.36 220.82 150 221.42 152.6ZM219.42 143.86H210.82L209.38 136.36L217.68 136.12L219.42 143.86ZM217.42 135.26L209.6 135.5C209.751 134.552 209.683 133.581 209.402 132.663C209.121 131.745 208.635 130.902 207.98 130.2C207.86 129.6 207.74 128.98 207.58 128.36L215.82 128.18L217.42 135.26ZM214.36 120.98C214.8 122.98 215.2 125.12 215.6 127.2L207.38 127.34C206.96 125.237 206.419 123.16 205.76 121.12L214.36 120.98ZM206.8 129.46C205.827 129.017 204.726 128.939 203.7 129.24C203.792 128.992 203.865 128.738 203.92 128.48H206.56L206.8 129.46ZM204.8 121.14C205.175 123.24 205.669 125.316 206.28 127.36H204.06C204.289 125.144 203.675 122.923 202.34 121.14H204.8ZM156.38 122H160.24C159.425 123.26 159.138 124.79 159.44 126.26L156.04 127.24C156.2 125.52 156.38 123.6 156.38 122ZM155.3 122V127.58C154.961 127.781 154.634 128.002 154.32 128.24L144.86 128.4C144.948 126.325 144.887 124.246 144.68 122.18L155.3 122ZM151.1 136.5H144.8V129.5L153 129.36C152.133 130.31 151.507 131.455 151.177 132.698C150.846 133.94 150.82 135.245 151.1 136.5ZM144.84 145.76H150.3C150.377 147.505 151.024 149.177 152.14 150.52C151.48 150.976 150.949 151.596 150.599 152.317C150.249 153.039 150.091 153.839 150.14 154.64H144.74C144.8 151.64 144.84 148.7 144.84 145.76ZM150.84 143.34C150.665 143.758 150.537 144.194 150.46 144.64H144.94V137.42H151.4C151.835 138.614 152.614 139.651 153.64 140.4C152.39 141.047 151.381 142.077 150.76 143.34H150.84ZM144.14 154.62H119.36C119.62 151.18 119.36 149.02 121.58 146.06L143.92 145.8C143.9 148.74 143.96 151.68 144.06 154.62H144.14ZM122.4 144.96C124.481 142.856 126.055 140.304 127 137.5H132V144.84L122.4 144.96ZM133.28 122.4L143.76 122.22C143.647 124.292 143.647 126.368 143.76 128.44L133.22 128.62C133.22 126.56 133.24 124.48 133.28 122.4ZM133.14 129.72L143.72 129.54V136.54H133C133 134.26 133 132 133.14 129.72ZM133 137.48H143.82V144.7L132.56 144.84C132.72 142.38 132.84 140 133 137.48ZM123 122.58L132.58 122.42L132.36 128.64L122.6 128.8C122.838 126.736 122.911 124.656 122.82 122.58H123ZM122.52 129.88L132.34 129.72L132.16 136.52H127.26C127.5 135.42 127.94 133.62 126.64 133.02C125.34 132.42 124.1 135.42 121.7 136.5C121.92 134.3 122.12 132.1 122.34 129.9L122.52 129.88ZM113.96 122.74L122.22 122.6C121.934 124.663 121.754 126.739 121.68 128.82H121C121.86 126.72 117.22 125.36 113.22 128.82C113.28 127.8 113.84 123.42 113.78 122.74H113.96ZM121.42 130C121.28 132.18 121.16 134.34 121.02 136.52H117.9C117.3 134.76 117.9 130.62 119.5 130H121.38H121.42ZM112.76 122.8L112.44 129H108.7C107.22 125.92 108.16 123.58 106.7 122.84L112.76 122.8ZM111.96 130.12C111.499 130.698 111.11 131.329 110.8 132L109.32 130.18L111.96 130.12ZM99.1802 123.06L105.6 122.94C103.6 123.9 103.3 127.3 103.3 129.16H100.28C99.2602 128.28 98.8202 129.16 98.0602 129.16L99.1402 122.94L99.1802 123.06ZM103.62 133.22C102.51 132.48 101.608 131.467 101 130.28H103.26C103.284 131.265 103.378 132.248 103.54 133.22H103.62ZM97.0002 136.22L97.9602 130.34C97.7597 132.37 98.0124 134.419 98.7001 136.34L97.0002 136.22ZM99.0002 137.2C99.8202 139.94 101 142.44 101.56 145.2L95.5602 145.32L96.7602 137.18L99.0002 137.2ZM91.7402 123.08H98.3002C97.9202 125.08 97.5602 127.24 97.2001 129.34C95.0201 129.34 92.8202 129.46 90.6402 129.56C91.1112 127.423 91.4518 125.259 91.6602 123.08H91.7402ZM90.5002 130.38H97.0002C96.7001 132.38 96.3801 134.38 96.0602 136.24H89.3602C89.7001 134.24 90.0602 132.3 90.4202 130.38H90.5002ZM89.2802 136.94C91.4801 137.06 93.6802 137.12 95.8801 137.16C95.5002 139.86 95.0602 142.6 94.7001 145.32C92.3602 145.32 90.0201 145.48 87.6802 145.58C88.2202 142.7 88.7402 139.82 89.2802 136.94ZM93.7802 154.28H86.0602C86.5602 151.6 87.0802 148.94 87.6202 146.28L94.5602 146.46C94.1382 149.05 93.8512 151.66 93.7001 154.28H93.7802ZM94.3401 154.28L95.5201 146.28H101.74C101.8 146.812 101.8 147.348 101.74 147.88L96.1202 154.3L94.3401 154.28ZM80.7202 215.74C78.3809 221.07 77.2115 226.84 77.2908 232.66C77.3702 238.48 78.6964 244.216 81.1802 249.48C61.8202 236.4 65.9402 207.48 74.1802 189C80.9202 173.86 91.6002 161 102.54 148.66C104.14 146.84 98.9602 134.66 98.7802 131.68C98.6601 129.46 99.5802 129 100.4 130.58C101.22 132.16 102.4 133.96 104.02 134.34C104.66 136.22 105.16 135.62 105.08 135.32C104.4 132.02 103.22 127.32 105.42 124.28C107.02 122.16 106.96 126.06 107.12 126.82C107.5 128.64 109.12 132.16 110.58 132.82C110.08 134.24 110.92 133.74 110.98 133.56C113.82 126.1 122.5 127.16 119.7 129C118.962 129.441 118.335 130.045 117.866 130.766C117.398 131.487 117.102 132.306 117 133.16C115.98 140.22 121.54 139.16 125.58 134.24C127.26 132.24 127.34 136.54 124.68 140.88C122.42 144.56 119.36 145.88 119 150.7C118 162.48 115.58 176.54 113.96 186.9C100.68 193.32 87.1002 202 80.6402 215.76L80.7202 215.74ZM115 186.36C116.953 176.19 118.348 165.922 119.18 155.6H150.2C151.36 162.3 159.68 163.2 161.02 173.6C145.058 175.161 129.487 179.478 115 186.36ZM199.44 170.22C198.942 171.793 198.62 173.416 198.48 175.06C197.68 183.54 194.08 186.36 184.66 187.06C174.66 187.88 163.82 184.72 162.3 173.94C160.96 164.34 157.88 165.18 152.94 158.46C151.46 156.46 150.14 152.74 152.94 151.18C154.316 152.691 156.039 153.844 157.96 154.54C162.28 164.24 163.74 175.42 176.3 176.66C200.58 178.92 195.14 165.7 202.84 154.16C204.337 153.468 205.693 152.505 206.84 151.32C207.713 152.05 208.316 153.052 208.552 154.165C208.787 155.279 208.643 156.439 208.14 157.46C206.18 162.2 201.46 164 199.44 170.22ZM249 125.36C249.68 126.88 250.38 128.38 251 129.9C250.02 128.64 245.22 123.4 243.62 126.2C242.8 127.66 244.52 129.84 245.22 131.14C242.536 131.615 240.137 133.105 238.52 135.3C235.96 126 245 121.36 249 125.36ZM239.96 138.98C239.58 138.04 239.18 137.08 238.78 136.14C240.535 134.085 242.894 132.636 245.52 132C246.645 134.323 247.375 136.817 247.68 139.38C248.22 144.5 244.3 140.84 242.4 139.08C241.66 138.32 240.42 138 239.86 138.98H239.96ZM283.26 253.8C289.88 244.52 290.16 232.54 286.32 222.06C280.88 207.24 267.94 196.86 254.32 189.6C251.701 177.506 250.003 165.231 249.24 152.88C249.24 151 242.88 149.72 240.9 142.34C240.54 141 239.8 137.48 242.22 140C244.64 142.52 248.76 144.84 248.58 139.32C248.34 132.78 243.9 128.42 244.3 126.94C244.8 125.08 248.5 128.58 249.1 129.18C250.663 130.9 252.082 132.746 253.34 134.7C253.56 135.02 254.1 134.7 253.9 134.4C253.433 133.6 252.953 132.8 252.46 132C252.78 131.32 249.18 124.96 249.82 124.36C250.46 123.76 253.34 125.84 253.98 126.36C257.32 129.26 257.48 131.2 258.62 132.7C258.672 132.718 258.728 132.718 258.78 132.7C258.851 132.706 258.922 132.684 258.978 132.64C259.034 132.595 259.07 132.531 259.08 132.46C258.96 131.18 258.22 130.46 257.86 129.58C257.5 128.7 256.76 126.72 257.26 126.02C257.5 125.82 258.88 126.84 259.04 127C260.36 128.264 261.461 129.737 262.3 131.36C268.42 141.82 266.58 148.56 267.62 149.58C282.8 166.68 299.02 191.72 302.3 214.32C304.52 230 299.58 248.28 283.16 253.8H283.26Z" fill="currentColor"/>
    <path d="M138.2 36C138.66 35.86 138.48 35.2 138.06 35.14C130.78 35.28 123.04 35.14 115.86 35.34C115.3 35.34 115.38 36.2 115.86 36.28C119.54 36.88 135 36.98 138.2 36ZM329.14 142.96C331.86 141.78 345.14 136.42 346.72 135.52C346.75 135.494 346.774 135.461 346.79 135.425C346.807 135.389 346.815 135.35 346.815 135.31C346.815 135.27 346.807 135.231 346.79 135.195C346.774 135.159 346.75 135.126 346.72 135.1C346.688 135.052 346.643 135.013 346.59 134.988C346.537 134.963 346.478 134.954 346.42 134.96C343.06 135.66 332.18 140.84 328.8 142.52C328.62 142.66 328.86 143.08 329.14 142.96ZM195 96L152.6 96.64C154.42 117.2 195.54 117.52 195 96ZM195 52C195 52.0868 195.033 52.1704 195.093 52.2336C195.152 52.2968 195.234 52.3349 195.32 52.34C202.1 52.5 216.44 52.92 221.86 52.18C222.3 52.18 222.16 51.44 221.86 51.44C214.2 51.44 203.14 51.44 195.42 51.66C195.369 51.6477 195.316 51.6472 195.265 51.6587C195.214 51.6702 195.167 51.6932 195.126 51.7261C195.085 51.759 195.053 51.8008 195.031 51.8483C195.009 51.8958 194.999 51.9477 195 52ZM137 22C137.56 22 137.32 21.2 136.86 21.12C123.08 21.52 108.08 21.82 94.6402 22.12C94.5952 22.1272 94.5522 22.1434 94.5136 22.1675C94.475 22.1917 94.4416 22.2234 94.4155 22.2607C94.3894 22.298 94.371 22.3402 94.3615 22.3847C94.352 22.4293 94.3516 22.4753 94.3602 22.52C94.3718 22.59 94.405 22.6547 94.4552 22.7049C94.5054 22.7552 94.5701 22.7884 94.6402 22.8C104.42 23.5 124.3 22.44 137 22ZM144.7 17.42C145.16 17.42 145.3 16.62 144.7 16.56C140.22 16.02 96.0402 16.74 92.9602 17.42C92.6602 17.42 92.6802 18.02 92.9602 18.02C104.3 18 131.48 17.22 144.7 17.42ZM57.7602 160.28V160.26V160.28ZM58.6002 160.62C60.141 157.77 61.3233 154.74 62.1202 151.6C62.4926 150.521 62.5777 149.363 62.3673 148.241C62.1569 147.119 61.6582 146.071 60.9202 145.2C61.6461 143.373 62.0194 141.426 62.0202 139.46C61.6202 136.2 58.1602 136.4 56.3002 138.9C48.8002 148.9 40.5202 164.9 40.7602 177.2C40.6202 177.78 40.9202 178.44 41.4402 177.96C50.3195 169.163 56.8875 158.308 60.5602 146.36C63.0602 150.08 59.2002 156.5 57.7602 160.26C57.5802 160.76 58.3402 161.06 58.6002 160.62ZM41.5202 176.38C41.6669 174.161 41.9744 171.955 42.4402 169.78L45.5202 172C44.2202 173.44 42.8802 174.94 41.5202 176.38ZM60.1002 144.38C58.7458 143.243 57.1193 142.478 55.3802 142.16C56.0484 140.939 56.8536 139.798 57.7802 138.76C58.6802 137.92 60.4002 137.58 60.9202 139C61.0967 140.821 60.8148 142.656 60.1002 144.34V144.38ZM111 42.5C110.12 42.86 105 50.5 104.06 51.84C102.896 50.2937 101.554 48.8906 100.06 47.66C99.9768 47.6213 99.8822 47.6142 99.7939 47.6399C99.7057 47.6656 99.6297 47.7225 99.5802 47.8C99.551 47.8773 99.551 47.9626 99.5802 48.04C100.721 49.9073 102.062 51.6444 103.58 53.22C103.635 53.28 103.701 53.3281 103.775 53.3609C103.849 53.3938 103.929 53.4107 104.01 53.4107C104.091 53.4107 104.171 53.3938 104.245 53.3609C104.319 53.3281 104.386 53.28 104.44 53.22V53.12L111 44.16C111.92 42.86 111.66 42.16 111 42.5ZM231 32C231.42 32 231.5 31.2 231 31.14C218.521 30.5194 206.016 30.6998 193.56 31.68C193.14 31.68 193.18 32.42 193.56 32.4C203 32.32 220.7 32.62 231 32Z" fill="currentColor"/>
    <path d="M111 54.62C111.8 54.3 110.2 48.34 109.98 47.4C109.974 47.358 109.959 47.3176 109.937 47.2813C109.915 47.245 109.885 47.2134 109.851 47.1883C109.817 47.1633 109.778 47.1452 109.736 47.1352C109.695 47.1252 109.652 47.1234 109.61 47.13C109.568 47.1365 109.528 47.1513 109.492 47.1735C109.455 47.1956 109.424 47.2247 109.399 47.2591C109.373 47.2934 109.355 47.3324 109.345 47.3737C109.335 47.415 109.334 47.458 109.34 47.5C109.58 49.64 109.82 51.8 110.22 53.9C106.88 54.16 103.86 54.14 100.6 54.28C100 51.68 99.4802 48.28 98.6002 45.7C101.116 45.9115 103.645 45.9115 106.16 45.7C107.82 45.7 107.7 44.66 106.28 44.68C105.44 44.68 98.2802 44.54 98.2802 45.4C97.3402 45.4 99.3202 53.78 99.4402 54.34C99.4609 54.4397 99.5127 54.5302 99.5882 54.5985C99.6637 54.6668 99.7589 54.7094 99.8602 54.72C100.1 55.76 110.62 55.6 111 54.62ZM232.12 47.6C232.103 47.5222 232.06 47.4526 231.998 47.4019C231.936 47.3512 231.86 47.3224 231.78 47.32C219.66 47 206.7 47.58 194.42 47.56C194.06 47.56 194.04 48.16 194.42 48.2C205.18 48.92 221.82 49.36 231.86 48.04C231.95 48.0121 232.027 47.9516 232.075 47.8702C232.123 47.7889 232.139 47.6925 232.12 47.6ZM100.14 40.16C102.946 40.2382 105.753 40.1112 108.54 39.78C110.28 40.22 107.62 29.3 107.3 28.8C107.258 28.7057 107.187 28.6276 107.097 28.5772C107.006 28.5267 106.903 28.5067 106.8 28.52C105 28.52 96.6402 28.52 95.4602 28.78C94.0202 27.62 96.1202 37.48 96.4202 38.66C97.0002 40.64 98.2802 40.16 100.14 40.16ZM95.7002 29.46C99.3905 29.9107 103.118 29.9643 106.82 29.62L108.1 38.86L97.6202 39.4C97.7002 38.72 95.9402 30.78 95.7002 29.46ZM222.64 36.2C222.746 36.2 222.848 36.1578 222.923 36.0828C222.998 36.0078 223.04 35.9061 223.04 35.8C223.04 35.6939 222.998 35.5921 222.923 35.5171C222.848 35.4421 222.746 35.4 222.64 35.4C220.16 34.9 198.84 35.66 194.42 36.04C194.08 36.04 194.08 36.62 194.42 36.64C196.82 36.74 220.26 36.8 222.64 36.2ZM54.7002 99.64C55.0802 99.64 57.9002 98.04 58.5602 100.64C59.4802 104.2 63.0802 102.06 63.6602 99.34C64.4002 95.98 61.2002 93.34 57.4202 93.34C49.7402 93.34 51.5002 100 54.7002 99.64ZM57.4202 94.12C61.7402 94.26 64.4002 98.34 61.7802 100.74C59.5402 102.74 59.7802 99.86 58.7002 98.74C56.5402 96.74 54.8202 99.16 53.6002 98.14C51.1002 96.14 55.8802 94 57.4202 94.12ZM104.26 61.54C101.12 61.54 101 61.02 101.4 64.08C101.52 64.94 102.14 71.02 103.18 71.08C103.4 72.04 112.38 71.7 113.52 71.36C115.06 71.36 113.52 66.62 113.52 66.08C112.2 59.12 113.84 61.28 104.26 61.54ZM103.68 70.62C103.18 68.1 102.8 64.76 102.08 62.36C105.355 62.68 108.658 62.5589 111.9 62C112.104 64.7846 112.539 67.5475 113.2 70.26C110.08 70.4 106.84 70.56 103.68 70.62ZM235.26 16.24C231.58 15.9 178.58 16.24 171.86 16.76C171.773 16.7747 171.696 16.8226 171.644 16.8935C171.591 16.9643 171.569 17.0527 171.58 17.14C171.594 17.2089 171.628 17.2722 171.678 17.3219C171.728 17.3717 171.791 17.4058 171.86 17.42C177.56 17.72 231.18 17.58 235.26 17.12C235.377 17.12 235.489 17.0736 235.571 16.9911C235.654 16.9086 235.7 16.7967 235.7 16.68C235.7 16.5633 235.654 16.4514 235.571 16.3689C235.489 16.2863 235.377 16.24 235.26 16.24ZM145 30.94C145.46 30.84 145.3 30.22 144.9 30.14L114.52 30.9C114.476 30.9047 114.433 30.9185 114.395 30.9406C114.356 30.9627 114.323 30.9926 114.297 31.0283C114.27 31.0641 114.252 31.1049 114.242 31.1482C114.232 31.1916 114.232 31.2364 114.24 31.28C114.252 31.35 114.285 31.4147 114.335 31.4649C114.385 31.5152 114.45 31.5484 114.52 31.56C122.14 32.12 138.38 32.28 145 30.94ZM265.46 87.16C265.6 88.68 267.12 103.84 267.68 104.94C271.68 112.74 286.4 112.94 286.72 101.4C287.28 96.6 289.22 82.82 288.46 79.4C288.68 78.28 289.84 73.4 290.06 70.82C290.06 70.4 290.86 58.98 289.26 60.72C287.125 63.5631 285.231 66.5804 283.6 69.74C283.32 70.96 283.04 72.16 282.74 73.36C281.855 73.0263 280.937 72.7916 280 72.66C280 71.84 279.4 67.84 279.12 66.24C277.74 63.56 276.32 61.16 275.12 58.38C273.42 54.2 273.38 54.12 272.9 58.72C272.099 63.406 272.099 68.194 272.9 72.88C263.84 74.76 264.78 80.1 265.44 87.16H265.46ZM287.34 65.16C287.585 65.3966 287.878 65.578 288.199 65.6919C288.519 65.8057 288.861 65.8494 289.2 65.82V70.86C288.358 70.9417 287.507 70.8528 286.7 70.5985C285.892 70.3443 285.144 69.9298 284.5 69.38C285.48 68 286.5 66.58 287.34 65.16ZM284.46 70.42C285.785 71.3619 287.375 71.8591 289 71.84C288.34 75.56 287.68 79.26 287.16 83C286.48 85.44 283.16 86.32 281 86.62C282.32 81.34 283.32 75.66 284.46 70.36V70.42ZM280.46 85.18C280.363 85.6821 280.296 86.1897 280.26 86.7L275.38 86.82L273.38 67.98C274.285 68.253 275.242 68.301 276.169 68.1197C277.096 67.9385 277.965 67.5335 278.7 66.94C278.7 66.94 280 84.88 280.46 85.12V85.18ZM273.62 61.58C273.927 61.66 274.246 61.6764 274.559 61.6283C274.872 61.5801 275.172 61.4684 275.44 61.3L278.18 66.22C277.462 66.7552 276.63 67.1167 275.748 67.2764C274.867 67.436 273.96 67.3893 273.1 67.14C273.066 65.2532 273.24 63.3684 273.62 61.52V61.58ZM287.48 84.62C287.12 89.66 286.48 100.3 285.18 105.06C282.88 111.24 272.86 111.34 268.44 105.06C267.6 98.12 266.76 91.06 265.94 84.22C269.68 89.64 284.22 88.98 287.48 84.56V84.62Z" fill="currentColor"/>
    <path d="M18.6201 106.66C21.6641 108.25 24.8778 109.491 28.2001 110.36C21.8201 119.14 40.0801 131.66 56.7801 124.98C64.4401 121.92 72.1001 112.2 64.6001 105.46C72.6001 99 75.4201 89.68 75.0801 79.46C74.5601 63.7 67.6001 52.1 51.6601 48.36C43.807 46.5223 35.5778 47.158 28.1001 50.18L25.0001 44.82C25.9801 44.3 27.0001 43.8 28.0001 43.36C30.6401 42.46 29.8401 40.52 28.2801 41.1C-2.35992 52.28 -9.43992 92.58 18.6201 106.66ZM28.4401 108.96C27.8801 106.96 29.3801 104.96 28.6801 102.78C27.0801 97.6 20.3801 100.6 18.6801 97.1C16.8201 93.28 21.7801 92.62 22.7801 89.88C22.9569 89.4003 23.002 88.882 22.9105 88.379C22.8191 87.876 22.5945 87.4067 22.2601 87.02C19.3801 83.42 12.7201 87.22 14.6201 78.82C16.0601 72.48 22.1801 69.48 26.6201 72.28C31.0601 75.08 33.7201 76.96 39.3401 73.68C48.7001 68.18 47.5401 79.68 44.6801 83.16C43.1601 85.04 40.4001 84.94 38.2801 85.74C31.3601 88.34 31.4001 93 36.8801 94.14C39.0001 94.58 41.7201 94.38 43.3801 95.98C47.8801 100.36 38.5801 109.72 35.6401 111.26C34.0601 110.94 29.2401 110 28.4401 108.96ZM53.8201 50.12C65.6001 53.78 71.8201 62.3 73.5001 74.48C74.2986 79.7365 74.1019 85.0962 72.9201 90.28C72.4401 90.94 65.6801 92.8 63.5001 90C62.6584 88.8683 62.0965 87.5536 61.8601 86.1632C61.6237 84.7728 61.7197 83.3462 62.1401 82C63.4401 78.64 67.8601 75.68 66.5001 72.24C64.6201 67.48 59.1201 73.98 56.8001 72.64C53.3201 70.64 59.8401 66.8 52.4001 65.42C49.6601 64.92 47.4201 66.04 45.4001 63.02C40.7801 56.1 52.8001 50.1 53.8201 50.06V50.12ZM31.0001 58.98C31.0864 59.1163 31.2171 59.2187 31.3702 59.2697C31.5233 59.3207 31.6892 59.3173 31.8401 59.26C32.0133 59.1888 32.152 59.0529 32.2267 58.8811C32.3014 58.7094 32.3062 58.5153 32.2401 58.34L28.6001 51.24C36.0182 48.2655 44.1854 47.7056 51.9401 49.64C41.9401 52.94 40.7601 64.22 47.9401 66.16C49.4601 66.58 56.2601 65.98 55.0801 68.88C54.8406 69.3505 54.7063 69.8674 54.6865 70.395C54.6667 70.9225 54.7619 71.4481 54.9655 71.9351C55.1691 72.4222 55.4762 72.8592 55.8655 73.2158C56.2548 73.5723 56.717 73.8399 57.2201 74C60.0201 74.5 63.0201 70.28 65.0801 72C68.6801 75 59.2801 79.64 60.8801 86.32C62.0801 91.44 64.2001 93.06 69.4001 92.32C70.5391 92.222 71.6439 91.881 72.6401 91.32C68.3401 106.38 52.2601 113.32 37.5601 111.5C40.5201 108.78 45.1201 103.38 45.5601 99.5C46.2401 92.62 38.3401 94 35.4401 92.48C31.4401 90.48 37.1601 87 40.8201 86.2C42.0194 86.0026 43.1802 85.6179 44.2601 85.06C50.2601 81.38 48.6001 66.58 39.9001 72.04C32.4601 76.7 30.1601 72.74 26.7001 70.96C21.1601 68.14 13.5601 72.58 13.1801 80.96C12.9601 86.66 17.6601 85.44 20.4001 86.96C20.8911 87.1442 21.3011 87.4963 21.5574 87.9539C21.8137 88.4115 21.8996 88.9451 21.8001 89.46C21.1601 91.46 18.2601 91.86 17.4601 94.28C17.1437 95.2239 17.1553 96.2469 17.4929 97.1834C17.8304 98.1199 18.4743 98.915 19.3201 99.44C21.9401 100.96 26.5801 99.64 27.6801 103.26C28.2201 105.02 27.1601 106.82 27.2801 108.6C22.1773 106.766 17.6841 103.551 14.3011 99.3135C10.9181 95.076 8.7783 89.9822 8.12008 84.6C6.32008 71 14.6201 57.78 26.8201 52C28.0801 54.32 29.6601 56.72 31.0001 58.98ZM13.0001 53.64C16.0024 50.5267 19.4623 47.8897 23.2601 45.82C24.3748 47.5303 25.3963 49.2995 26.3201 51.12C20.0431 54.0361 14.8191 58.8185 11.3613 64.8141C7.90354 70.8098 6.38048 77.7265 7.00008 84.62C7.41701 88.5711 8.65544 92.3914 10.6359 95.8357C12.6163 99.2799 15.2951 102.272 18.5001 104.62C-0.619919 94 -1.41992 68.96 13.0001 53.64ZM226.46 67.74C224.74 67.36 199.02 67.24 195.38 67.74C195.29 67.74 195.203 67.7758 195.14 67.8396C195.076 67.9034 195.04 67.9898 195.04 68.08C195.04 68.1702 195.076 68.2567 195.14 68.3204C195.203 68.3842 195.29 68.42 195.38 68.42C196.76 68.62 223.64 69.08 226.46 68.42C226.553 68.3993 226.637 68.3474 226.697 68.2728C226.756 68.1983 226.789 68.1056 226.789 68.01C226.789 67.9144 226.756 67.8217 226.697 67.7472C226.637 67.6727 226.553 67.6207 226.46 67.6V67.74ZM235 21.74C215.7 21.96 190.76 21.3 173.36 21.74C172.88 21.74 172.92 22.42 173.36 22.46C180.66 23.26 229.12 23.2 235 22.46C235.057 22.4552 235.113 22.4387 235.163 22.4115C235.214 22.3844 235.258 22.3472 235.294 22.3022C235.329 22.2572 235.356 22.2054 235.37 22.15C235.385 22.0946 235.388 22.0368 235.38 21.98C235.348 21.9065 235.295 21.8444 235.227 21.8016C235.159 21.7588 235.08 21.7373 235 21.74ZM232.86 63.4C221.16 63.14 206.54 63.86 194.08 63.54C193.72 63.54 193.64 64.06 194.08 64.1C201.74 64.86 225.72 65.62 232.94 64.22C233.32 64.12 233.36 63.4 232.86 63.4Z" fill="currentColor"/>
</svg>
