<svg width="125" height="126" viewBox="0 0 125 126" fill="none"
    xmlns="http://www.w3.org/2000/svg">
    <path d="M0 62.91V125.41H125V0.410004H0V62.91ZM100.73 57.91C103.724 58.6048 106.445 60.1706 108.55 62.41C109.709 63.6165 110.716 64.9597 111.55 66.41C111.55 66.57 106.15 70.22 102.86 72.26C102.74 72.34 102.26 71.82 101.73 71.03C101.129 69.9937 100.276 69.1264 99.2496 68.5091C98.2231 67.8918 97.057 67.5446 95.86 67.5C92.07 67.24 89.63 69.23 89.65 72.5C89.6187 73.3141 89.8051 74.1219 90.19 74.84C91.02 76.57 92.57 77.6 97.43 79.7C106.38 83.55 110.21 86.09 112.59 89.7C115.25 93.7 115.84 100.16 114.04 104.94C112.04 110.14 107.14 113.67 100.21 114.84C97.0448 115.203 93.8468 115.169 90.69 114.74C85.8722 113.958 81.4279 111.664 78 108.19C76.85 106.92 74.61 103.61 74.75 103.37C75.1151 103.099 75.4994 102.855 75.9 102.64L80.5 100L84.09 97.92L84.84 99.03C86.1057 100.841 87.7166 102.383 89.58 103.57C93.58 105.67 99.04 105.38 101.74 102.95C102.647 102.06 103.212 100.879 103.338 99.615C103.464 98.3505 103.143 97.0819 102.43 96.03C101.43 94.64 99.43 93.47 93.84 91.03C87.39 88.25 84.61 86.53 82.07 83.79C80.4843 81.9819 79.3136 79.8486 78.64 77.54C78.1375 74.9025 78.0633 72.2012 78.42 69.54C79.75 63.31 84.42 58.96 91.24 57.67C94.3984 57.2792 97.5977 57.3669 100.73 57.93V57.91ZM71.39 63.15V68.27H55.16V114.5H43.65V68.26H27.38V63.26C27.3363 61.5387 27.3831 59.8164 27.52 58.1C27.58 58.02 37.52 57.98 49.52 58H71.33L71.39 63.15Z" fill="currentColor"/>
</svg>
