<svg width="26" height="25" viewBox="0 0 26 25" fill="none"
    xmlns="http://www.w3.org/2000/svg">
    <path d="M0.868164 24.6334L2.58305 18.4061C1.52283 16.5783 0.966654 14.5083 0.972448 12.3921C0.972448 5.76122 6.39521 0.369995 13.052 0.369995C16.2848 0.369995 19.3206 1.62122 21.5975 3.89303C23.8801 6.16484 25.1373 9.18623 25.1315 12.3979C25.1315 19.0288 19.7088 24.42 13.0462 24.42H13.0404C11.0185 24.42 9.03127 23.9126 7.26424 22.9555L0.868164 24.6334ZM7.5713 20.7817L7.93629 21.0008C9.47737 21.9118 11.2444 22.3904 13.0462 22.3962H13.052C18.5848 22.3962 23.0922 17.916 23.0922 12.4037C23.0922 9.734 22.0494 7.22579 20.1549 5.33453C18.2604 3.44328 15.7344 2.4054 13.052 2.4054C7.51915 2.39963 3.01178 6.87983 3.01178 12.3921C3.01178 14.2776 3.53899 16.117 4.54707 17.7084L4.7846 18.089L3.77073 21.7734L7.5713 20.7817Z" fill="currentColor"/>
    <!-- <path d="M1.29102 24.2125L2.94797 18.1985C1.92251 16.4399 1.38371 14.4391 1.38371 12.3979C1.38951 5.99764 6.62108 0.790924 13.0519 0.790924C16.1746 0.790924 19.1004 2.00179 21.3019 4.19287C23.5035 6.38396 24.7143 9.30156 24.7143 12.4037C24.7143 18.804 19.477 24.0107 13.0519 24.0107H13.0461C11.0937 24.0107 9.17603 23.5206 7.47273 22.598L1.29102 24.2125Z" fill="black"/> -->
    <path d="M0.868164 24.6334L2.58305 18.4061C1.52283 16.5783 0.966654 14.5083 0.972448 12.3921C0.972448 5.76122 6.39521 0.369995 13.052 0.369995C16.2848 0.369995 19.3206 1.62122 21.5975 3.89303C23.8801 6.16484 25.1373 9.18623 25.1315 12.3979C25.1315 19.0288 19.7088 24.42 13.0462 24.42H13.0404C11.0185 24.42 9.03127 23.9126 7.26424 22.9555L0.868164 24.6334ZM7.5713 20.7817L7.93629 21.0008C9.47737 21.9118 11.2444 22.3904 13.0462 22.3962H13.052C18.5848 22.3962 23.0922 17.916 23.0922 12.4037C23.0922 9.734 22.0494 7.22579 20.1549 5.33453C18.2604 3.44328 15.7344 2.4054 13.052 2.4054C7.51915 2.39963 3.01178 6.87983 3.01178 12.3921C3.01178 14.2776 3.53899 16.117 4.54707 17.7084L4.7846 18.089L3.77073 21.7734L7.5713 20.7817Z" fill="currentColor"/>
    <path fill-rule="evenodd" clip-rule="evenodd" d="M10.0334 7.36419C9.80748 6.86254 9.56995 6.85101 9.35559 6.84524C9.18178 6.83948 8.97901 6.83948 8.77623 6.83948C8.57346 6.83948 8.24902 6.91444 7.97093 7.21427C7.69284 7.5141 6.9165 8.24062 6.9165 9.72248C6.9165 11.1986 7.9999 12.6286 8.15053 12.8304C8.30116 13.0322 10.242 16.1631 13.3068 17.3682C15.8559 18.3715 16.3774 18.1697 16.9278 18.1178C17.4781 18.0659 18.7122 17.3913 18.9671 16.6878C19.2162 15.9844 19.2162 15.3847 19.1409 15.2579C19.0656 15.131 18.8628 15.056 18.5615 14.9061C18.2603 14.7562 16.7771 14.0297 16.499 13.9259C16.2209 13.8279 16.0182 13.776 15.8212 14.0758C15.6184 14.3757 15.0391 15.0503 14.8652 15.2521C14.6914 15.4539 14.5118 15.477 14.2106 15.3271C13.9093 15.1771 12.936 14.86 11.7831 13.8337C10.8851 13.0379 10.2768 12.052 10.103 11.7521C9.92915 11.4523 10.0856 11.2908 10.2362 11.1409C10.3695 11.0083 10.5375 10.7892 10.6881 10.6162C10.8387 10.4432 10.8909 10.3164 10.9894 10.1146C11.0879 9.91276 11.0415 9.73978 10.9662 9.58987C10.8909 9.44572 10.2999 7.95808 10.0334 7.36419Z" fill="currentColor"/>
</svg>
